<?xml version="1.0" standalone="no"?>
<!DOCTYPE svg PUBLIC "-//W3C//DTD SVG 1.1//EN" "http://www.w3.org/Graphics/SVG/1.1/DTD/svg11.dtd" >
<svg xmlns="http://www.w3.org/2000/svg">
<metadata>Generated by IcoMoon</metadata>
<defs>
<font id="icon" horiz-adv-x="1024">
<font-face units-per-em="1024" ascent="960" descent="-64" />
<missing-glyph horiz-adv-x="1024" />
<glyph unicode="&#x20;" horiz-adv-x="512" d="" />
<glyph unicode="&#xe900;" glyph-name="parameters_1" horiz-adv-x="1151" d="M1129.109-64h-1107.437c-11.92 0-21.672 9.752-21.672 21.672v341.333c0 8.669 4.334 15.17 11.92 19.505l369.507 187.462c6.502 3.251 15.17 3.251 21.672-1.084s10.836-10.836 10.836-18.421v-144.119l336.999 163.623c6.502 3.251 15.17 3.251 20.588-1.084 6.502-4.334 9.752-10.836 9.752-18.421v-139.784l338.083 160.372c6.502 3.251 14.087 2.167 20.588-1.084 6.502-4.334 9.752-10.836 9.752-18.421v-529.879c1.084-11.92-8.669-21.672-20.588-21.672zM43.344-20.656h1064.093v472.449l-338.083-160.372c-6.502-3.251-14.087-2.167-20.588 1.084s-9.752 10.836-9.752 18.421v139.784l-336.999-163.623c-6.502-3.251-15.17-3.251-20.588 1.084-6.502 4.334-9.752 10.836-9.752 18.421v143.035l-326.163-165.79v-304.491zM514.709 345.6c-10.836 0-20.588 8.669-21.672 19.505l-42.26 392.262h-106.193l-35.759-322.912c-1.084-11.92-11.92-20.588-23.839-19.505s-20.588 11.92-19.505 23.839l37.926 342.417c1.084 10.836 10.836 19.505 21.672 19.505h145.202c10.836 0 20.588-8.669 21.672-19.505l44.428-411.767c1.084-11.92-7.585-22.756-19.505-23.839-1.084 0-1.084 0-2.167 0zM873.38 347.767c-10.836 0-20.588 8.669-21.672 19.505l-42.26 549.384h-106.193l-35.759-478.95c-1.084-11.92-10.836-20.588-22.756-19.505s-20.588 10.836-19.505 22.756l36.842 499.539c1.084 10.836 9.752 20.588 21.672 20.588h146.286c10.836 0 20.588-8.669 21.672-19.505l43.344-568.889c1.084-11.92-7.585-22.756-19.505-22.756-1.084-2.167-2.167-2.167-2.167-2.167zM477.867 685.85h-159.289c-11.92 0-21.672 9.752-21.672 21.672s9.752 21.672 21.672 21.672h159.289c11.92 0 21.672-9.752 21.672-21.672s-9.752-21.672-21.672-21.672zM828.952 850.557h-149.537c-11.92 0-21.672 9.752-21.672 21.672s9.752 21.672 21.672 21.672h149.537c11.92 0 21.672-9.752 21.672-21.672s-9.752-21.672-21.672-21.672zM828.952 779.039h-149.537c-11.92 0-21.672 9.752-21.672 21.672s9.752 21.672 21.672 21.672h149.537c11.92 0 21.672-9.752 21.672-21.672s-9.752-21.672-21.672-21.672zM477.867 609.998h-159.289c-11.92 0-21.672 9.752-21.672 21.672s9.752 21.672 21.672 21.672h159.289c11.92 0 21.672-9.752 21.672-21.672s-9.752-21.672-21.672-21.672zM467.031-64h-330.497c-11.92 0-21.672 9.752-21.672 21.672v154.954c0 11.92 9.752 21.672 21.672 21.672h330.497c11.92 0 21.672-9.752 21.672-21.672v-154.954c0-11.92-9.752-21.672-21.672-21.672zM158.205-20.656h287.153v111.611h-287.153v-111.611zM136.533 8.601h-114.861c-11.92 0-21.672 9.752-21.672 21.672s9.752 21.672 21.672 21.672h114.861c11.92 0 21.672-9.752 21.672-21.672s-9.752-21.672-21.672-21.672zM1129.109 5.35h-662.078c-11.92 0-21.672 9.752-21.672 21.672s9.752 21.672 21.672 21.672h662.078c11.92 0 21.672-9.752 21.672-21.672s-9.752-21.672-21.672-21.672zM467.031 171.141h-330.497c-11.92 0-21.672 9.752-21.672 21.672s9.752 21.672 21.672 21.672h330.497c11.92 0 21.672-9.752 21.672-21.672s-9.752-21.672-21.672-21.672zM575.39 71.45c-11.92 0-21.672 9.752-21.672 21.672v99.691c0 11.92 9.752 21.672 21.672 21.672s21.672-9.752 21.672-21.672v-99.691c0-11.92-9.752-21.672-21.672-21.672zM1017.498 71.45c-11.92 0-21.672 9.752-21.672 21.672v99.691c0 11.92 9.752 21.672 21.672 21.672s21.672-9.752 21.672-21.672v-99.691c0-11.92-9.752-21.672-21.672-21.672zM906.971 71.45c-11.92 0-21.672 9.752-21.672 21.672v99.691c0 11.92 9.752 21.672 21.672 21.672s21.672-9.752 21.672-21.672v-99.691c0-11.92-9.752-21.672-21.672-21.672zM796.444 71.45c-11.92 0-21.672 9.752-21.672 21.672v99.691c0 11.92 9.752 21.672 21.672 21.672s21.672-9.752 21.672-21.672v-99.691c0-11.92-9.752-21.672-21.672-21.672zM685.917 71.45c-11.92 0-21.672 9.752-21.672 21.672v99.691c0 11.92 9.752 21.672 21.672 21.672s21.672-9.752 21.672-21.672v-99.691c0-11.92-9.752-21.672-21.672-21.672z" />
<glyph unicode="&#xe901;" glyph-name="parameters_2" horiz-adv-x="1570" d="M1460.831-64h-1065.13c-59.568 0-107.789 48.222-107.789 107.789v544.62c0 59.568 48.222 107.789 107.789 107.789h1065.13c59.568 0 107.789-48.222 107.789-107.789v-544.62c1.418-26.947-9.928-53.895-29.784-75.169-19.856-19.856-48.222-32.62-78.006-32.62zM395.701 639.468c-28.366 0-51.058-22.693-51.058-51.058v-544.62c0-28.366 22.693-51.058 51.058-51.058h1065.13c14.183 0 28.366 5.673 38.294 15.601 8.51 9.928 14.183 21.274 14.183 34.039v546.039c0 28.366-22.693 51.058-51.058 51.058h-1066.548zM588.587 49.463c-8.51 0-17.019 4.255-22.693 11.346l-146.083 205.651c-8.51 12.765-5.673 29.784 7.091 39.712 12.765 8.51 29.784 5.673 39.712-7.091l146.083-205.651c8.51-12.765 5.673-29.784-7.091-39.712-5.673-2.837-11.346-4.255-17.019-4.255zM1426.792 333.119c-8.51 0-17.019 4.255-22.693 11.346l-147.501 205.651c-8.51 12.765-5.673 29.784 7.091 39.712 12.765 8.51 29.784 5.673 39.712-7.091l147.501-205.651c8.51-12.765 5.673-29.784-7.091-39.712-5.673-2.837-11.346-4.255-17.019-4.255zM795.657 49.463c-8.51 0-17.019 4.255-22.693 11.346l-353.152 497.817c-8.51 12.765-5.673 29.784 7.091 39.712 12.765 8.51 29.784 5.673 39.712-7.091l353.152-497.817c8.51-12.765 5.673-29.784-7.091-39.712-5.673-2.837-11.346-4.255-17.019-4.255zM994.216 49.463c-8.51 0-17.019 4.255-22.693 11.346l-354.571 497.817c-8.51 12.765-5.673 29.784 7.091 39.712 12.765 8.51 29.784 5.673 39.712-7.091l354.571-497.817c8.51-12.765 5.673-29.784-7.091-39.712-5.673-2.837-11.346-4.255-17.019-4.255zM1201.285 49.463c-8.51 0-17.019 4.255-22.693 11.346l-354.571 497.817c-8.51 12.765-5.673 29.784 7.091 39.712 12.765 8.51 29.784 5.673 39.712-7.091l354.571-497.817c8.51-12.765 5.673-29.784-7.091-39.712-5.673-2.837-11.346-4.255-17.019-4.255zM1426.792 49.463c-8.51 0-17.019 4.255-22.693 11.346l-354.571 497.817c-8.51 12.765-5.673 29.784 7.091 39.712 12.765 8.51 29.784 5.673 39.712-7.091l354.571-497.817c8.51-12.765 5.673-29.784-7.091-39.712-5.673-2.837-11.346-4.255-17.019-4.255zM314.859 560.044c-15.601 0-28.366 12.765-28.366 28.366v314.859c0 15.601 12.765 28.366 28.366 28.366s28.366-12.765 28.366-28.366v-314.859c0-15.601-12.765-28.366-28.366-28.366zM1541.673 560.044c-15.601 0-28.366 12.765-28.366 28.366v314.859c0 15.601 12.765 28.366 28.366 28.366s28.366-12.765 28.366-28.366v-314.859c0-15.601-12.765-28.366-28.366-28.366zM401.374 640.886h-370.172c-15.601 0-28.366 12.765-28.366 28.366s12.765 28.366 28.366 28.366h370.172c15.601 0 28.366-12.765 28.366-28.366s-12.765-28.366-28.366-28.366zM401.374-64h-370.172c-15.601 0-28.366 12.765-28.366 28.366s12.765 28.366 28.366 28.366h370.172c15.601 0 28.366-12.765 28.366-28.366s-12.765-28.366-28.366-28.366zM1541.673 806.825h-1226.814c-15.601 0-28.366 12.765-28.366 28.366s12.765 28.366 28.366 28.366h1226.814c15.601 0 28.366-12.765 28.366-28.366s-12.765-28.366-28.366-28.366zM465.197 710.382c-7.091 0-12.765 2.837-18.438 7.091l-134.737 117.717 133.319 117.717c11.346 9.928 29.784 9.928 39.712-2.837 9.928-11.346 9.928-29.784-2.837-39.712l-85.097-75.169 86.515-75.169c11.346-9.928 12.765-28.366 2.837-39.712-5.673-7.091-12.765-9.928-21.274-9.928zM1391.335 710.382c-8.51 0-15.601 2.837-21.274 9.928-9.928 11.346-9.928 29.784 2.837 39.712l85.097 75.169-86.515 75.169c-11.346 9.928-12.765 28.366-2.837 39.712s28.366 12.765 39.712 2.837l134.737-117.717-133.319-117.717c-5.673-4.255-11.346-7.091-18.438-7.091zM124.809-59.745c-15.601 0-28.366 12.765-28.366 28.366v686.449c0 15.601 12.765 28.366 28.366 28.366s28.366-12.765 28.366-28.366v-686.449c0-15.601-12.765-28.366-28.366-28.366zM28.366 491.967c-7.091 0-12.765 2.837-18.438 7.091-11.346 9.928-12.765 28.366-2.837 39.712l117.717 134.737 117.717-133.319c9.928-11.346 9.928-29.784-2.837-39.712-11.346-9.928-29.784-9.928-39.712 2.837l-75.169 85.097-75.169-86.515c-5.673-7.091-12.765-9.928-21.274-9.928zM124.809-39.889l-117.717 131.9c-9.928 11.346-9.928 29.784 2.837 39.712 11.346 9.928 29.784 9.928 39.712-2.837l75.169-83.679 75.169 85.097c9.928 11.346 28.366 12.765 39.712 2.837s12.765-28.366 2.837-39.712l-117.717-133.319z" />
<glyph unicode="&#xe902;" glyph-name="parameters_3" horiz-adv-x="1025" d="M513.024-64c-37.888 0-73.728 16.384-98.304 45.056-12.288 14.336-31.744 19.456-49.152 13.312-36.864-12.288-74.752-9.216-108.544 9.216-33.792 20.48-55.296 51.2-63.488 88.064-3.072 18.432-17.408 32.768-35.84 35.84-37.888 7.168-69.632 30.72-89.088 63.488-18.432 32.768-22.528 72.704-9.216 108.544 6.144 17.408 1.024 35.84-14.336 49.152-28.672 24.576-45.056 60.416-45.056 98.304s16.384 73.728 45.056 98.304c14.336 12.288 19.456 31.744 13.312 49.152-12.288 36.864-9.216 74.752 9.216 108.544 19.456 32.768 52.224 55.296 88.064 63.488 18.432 3.072 32.768 17.408 35.84 35.84 7.168 37.888 30.72 69.632 63.488 89.088 32.768 18.432 72.704 22.528 108.544 9.216 17.408-6.144 35.84-1.024 49.152 14.336 24.576 28.672 60.416 45.056 98.304 45.056 38.912 0 73.728-16.384 99.328-45.056 12.288-14.336 31.744-19.456 49.152-13.312 36.864 12.288 74.752 9.216 108.544-9.216 33.792-20.48 56.32-51.2 63.488-88.064 3.072-18.432 17.408-32.768 35.84-35.84 37.888-7.168 69.632-30.72 89.088-63.488 18.432-32.768 22.528-72.704 9.216-108.544-6.144-17.408-1.024-35.84 14.336-49.152 28.672-24.576 45.056-60.416 45.056-98.304 0-38.912-16.384-74.752-46.080-98.304-14.336-12.288-19.456-31.744-13.312-49.152 12.288-36.864 9.216-74.752-9.216-108.544-19.456-32.768-52.224-55.296-88.064-63.488-18.432-4.096-32.768-17.408-35.84-35.84-7.168-37.888-30.72-69.632-63.488-89.088-32.768-18.432-72.704-22.528-108.544-9.216-17.408 6.144-35.84 1.024-49.152-14.336-24.576-28.672-60.416-45.056-98.304-45.056zM379.904 38.4c24.576 0 49.152-11.264 65.536-30.72 17.408-19.456 41.984-30.72 67.584-30.72s50.176 11.264 67.584 30.72c24.576 27.648 61.44 36.864 94.208 25.6 23.552-8.192 51.2-6.144 73.728 7.168 22.528 12.288 37.888 34.816 43.008 61.44 7.168 34.816 33.792 61.44 68.608 68.608 24.576 5.12 47.104 21.504 61.44 44.032 12.288 22.528 15.36 48.128 6.144 73.728-12.288 32.768-2.048 70.656 25.6 94.208 20.48 16.384 31.744 40.96 31.744 67.584 0 25.6-11.264 50.176-30.72 67.584-27.648 24.576-36.864 61.44-25.6 94.208 8.192 23.552 6.144 51.2-7.168 73.728-12.288 22.528-34.816 37.888-61.44 43.008-34.816 7.168-61.44 33.792-68.608 68.608-5.12 25.6-20.48 47.104-44.032 61.44-22.528 12.288-48.128 15.36-73.728 6.144-32.768-12.288-70.656-2.048-94.208 25.6-17.408 19.456-41.984 30.72-68.608 30.72-25.6 0-50.176-11.264-67.584-30.72-24.576-27.648-61.44-36.864-94.208-25.6-23.552 8.192-51.2 6.144-73.728-7.168-22.528-12.288-37.888-34.816-43.008-61.44-7.168-34.816-33.792-61.44-68.608-68.608-24.576-5.12-47.104-21.504-61.44-44.032-12.288-22.528-15.36-48.128-6.144-73.728 12.288-32.768 2.048-70.656-25.6-94.208-19.456-16.384-30.72-41.984-30.72-67.584s11.264-50.176 30.72-67.584c27.648-24.576 36.864-61.44 25.6-94.208-8.192-23.552-6.144-51.2 7.168-73.728 12.288-22.528 34.816-37.888 61.44-43.008 34.816-7.168 61.44-33.792 68.608-68.608 5.12-25.6 20.48-47.104 44.032-61.44 22.528-12.288 48.128-15.36 73.728-6.144 9.216 3.072 19.456 5.12 28.672 5.12zM376.832 228.864c-4.096 0-8.192 1.024-12.288 4.096-6.144 5.12-9.216 12.288-8.192 20.48l24.576 141.312-102.4 100.352c-5.12 5.12-7.168 13.312-5.12 20.48s9.216 13.312 16.384 14.336l142.336 20.48 62.464 128c3.072 7.168 10.24 11.264 18.432 11.264v0c8.192 0 15.36-4.096 18.432-11.264l63.488-128 141.312-20.48c8.192-1.024 14.336-6.144 16.384-14.336s0-15.36-5.12-20.48l-102.4-100.352 23.552-141.312c1.024-8.192-2.048-15.36-8.192-20.48s-14.336-5.12-21.504-1.024l-126.976 66.56-126.976-66.56c-2.048-2.048-5.12-3.072-8.192-3.072zM513.024 341.504c3.072 0 6.144-1.024 9.216-2.048l99.328-52.224-18.432 110.592c-1.024 6.144 1.024 13.312 6.144 18.432l79.872 78.848-110.592 16.384c-6.144 1.024-12.288 5.12-15.36 11.264l-50.176 100.352-49.152-100.352c-3.072-6.144-9.216-10.24-15.36-11.264l-111.616-16.384 80.896-78.848c5.12-5.12 7.168-11.264 6.144-18.432l-19.456-110.592 99.328 52.224c3.072 1.024 6.144 2.048 9.216 2.048z" />
<glyph unicode="&#xe903;" glyph-name="question" d="M513.024 958.976c-282.829 0-512-229.171-512-512s229.171-512 512-512 512 229.171 512 512-229.171 512-512 512zM591.667 126.874h-150.323v124.109h150.323v-124.109zM736.051 488.755c-12.698-15.36-37.478-35.226-73.728-59.392l-35.84-23.757c-19.456-12.902-32.563-27.853-38.912-45.056-3.891-10.854-6.349-27.853-6.758-50.586h-136.192c2.048 48.333 7.373 81.92 16.179 100.147 8.806 18.637 31.334 39.936 67.584 63.898l36.864 24.576 29.286 25.395c13.517 15.77 20.070 33.178 20.070 52.019 0 21.709-7.373 41.574-22.528 59.597-14.95 18.022-42.394 26.829-81.92 26.829-39.117 0-66.765-11.059-83.149-33.178-16.179-22.118-24.371-45.056-24.371-68.813h-145.613c4.096 81.715 37.478 139.674 100.557 173.67 39.731 21.914 88.474 32.768 146.432 32.768 75.981 0 139.264-15.565 189.645-46.49 50.176-30.925 75.571-76.8 75.571-137.421-0.205-37.274-11.059-68.608-33.178-94.208z" />
<glyph unicode="&#xe904;" glyph-name="parameters_4" horiz-adv-x="1038" d="M1012.215-64h-899.601c-61.545 0-112.614 51.069-112.614 112.614v885.197c0 14.404 11.785 26.189 26.189 26.189h260.583c14.404 0 26.189-11.785 26.189-26.189v-659.969c0-14.404 10.476-24.88 24.88-24.88h674.373c14.404 0 26.189-11.785 26.189-26.189v-260.583c0-14.404-11.785-26.189-26.189-26.189zM52.379 907.621v-859.008c0-32.737 27.499-60.235 60.235-60.235h873.412v208.205h-648.184c-43.212 0-77.258 34.046-77.258 77.258v633.78h-208.205zM112.614 762.271h-86.425c-14.404 0-26.189 11.785-26.189 26.189s11.785 26.189 26.189 26.189h86.425c14.404 0 26.189-11.785 26.189-26.189s-11.785-26.189-26.189-26.189zM112.614 622.159h-86.425c-14.404 0-26.189 11.785-26.189 26.189s11.785 26.189 26.189 26.189h86.425c14.404 0 26.189-11.785 26.189-26.189s-11.785-26.189-26.189-26.189zM112.614 483.355h-86.425c-14.404 0-26.189 11.785-26.189 26.189s11.785 26.189 26.189 26.189h86.425c14.404 0 26.189-11.785 26.189-26.189s-11.785-26.189-26.189-26.189zM112.614 344.552h-86.425c-14.404 0-26.189 11.785-26.189 26.189s11.785 26.189 26.189 26.189h86.425c14.404 0 26.189-11.785 26.189-26.189s-11.785-26.189-26.189-26.189zM458.312-64c-14.404 0-26.189 11.785-26.189 26.189v87.734c0 14.404 11.785 26.189 26.189 26.189s26.189-11.785 26.189-26.189v-87.734c0-14.404-11.785-26.189-26.189-26.189zM597.115-64c-14.404 0-26.189 11.785-26.189 26.189v87.734c0 14.404 11.785 26.189 26.189 26.189s26.189-11.785 26.189-26.189v-87.734c0-14.404-11.785-26.189-26.189-26.189zM737.228-64c-14.404 0-26.189 11.785-26.189 26.189v87.734c0 14.404 11.785 26.189 26.189 26.189s26.189-11.785 26.189-26.189v-87.734c0-14.404-11.785-26.189-26.189-26.189zM876.031-64c-14.404 0-26.189 11.785-26.189 26.189v87.734c0 14.404 11.785 26.189 26.189 26.189s26.189-11.785 26.189-26.189v-87.734c0-14.404-11.785-26.189-26.189-26.189zM191.182 39.448c-51.069 0-91.662 40.593-91.662 91.662s40.593 91.662 91.662 91.662 91.662-40.593 91.662-91.662-40.593-91.662-91.662-91.662zM191.182 170.394c-22.261 0-39.284-17.023-39.284-39.284s17.023-39.284 39.284-39.284 39.284 17.023 39.284 39.284-17.023 39.284-39.284 39.284z" />
<glyph unicode="&#xe905;" glyph-name="parameters_5" horiz-adv-x="766" d="M441.293 555.816c-1.003 0-3.009 0-4.012 0-17.050 4.012-36.106 6.018-54.159 6.018-11.032 0-20.059 9.026-20.059 20.059s9.026 20.059 20.059 20.059c21.062 0 42.123-2.006 62.182-6.018 11.032-2.006 18.053-13.038 15.044-24.071-1.003-10.029-10.029-16.047-19.056-16.047zM646.895 299.064c-11.032 0-20.059 9.026-20.059 20.059 0 82.241-42.123 160.47-111.326 204.599-9.026 6.018-12.035 18.053-6.018 28.082 6.018 9.026 18.053 12.035 28.082 6.018 80.235-52.153 129.379-143.42 129.379-238.699 0-11.032-9.026-20.059-20.059-20.059zM383.122 35.291c-29.085 0-57.167 4.012-85.25 13.038-11.032 3.009-16.047 14.041-13.038 25.073s14.041 17.050 25.073 13.038c24.071-7.021 48.141-11.032 73.214-11.032 11.032 0 20.059-9.026 20.059-20.059s-9.026-20.059-20.059-20.059zM222.652 89.45c-4.012 0-9.026 1.003-12.035 4.012-69.203 54.159-111.326 138.405-111.326 225.661 0 11.032 9.026 20.059 20.059 20.059s20.059-9.026 20.059-20.059c0-74.217 36.106-147.432 95.279-193.567 9.026-7.021 10.029-19.056 3.009-28.082-3.009-5.015-9.026-8.024-15.044-8.024zM382.119-66.006c-8.024 0-16.047 0-25.073 1.003-192.564 13.038-346.014 166.488-358.049 358.049-6.018 99.291 26.076 195.573 89.262 271.796v170.5c0 124.364 100.294 224.658 224.658 224.658h139.408c123.361 0 223.655-100.294 223.655-224.658v-172.505c57.167-68.2 89.262-155.455 89.262-245.72 0-105.309-44.129-206.605-120.353-278.817-71.209-67.197-164.482-104.306-262.77-104.306zM122.358 540.772c-58.17-68.2-87.256-155.455-82.241-245.72 10.029-171.502 148.435-308.905 319.937-319.937 96.282-6.018 187.549 27.079 257.755 93.273 69.203 65.191 108.317 154.452 108.317 249.732 0 82.241-30.088 161.473-83.244 223.655l-5.015 6.018v6.018c0 2.006-1.003 4.012-1.003 7.021v175.514c0 101.297-82.241 184.541-183.538 184.541h-139.408c-101.297 0-184.541-83.244-184.541-184.541v-176.517c0-10.029-5.015-16.047-7.021-19.056zM556.631 616.995c-4.012 0-7.021 1.003-11.032 2.006l-2.006 1.003c-48.141 27.079-104.306 41.12-162.476 41.12-56.165 0-111.326-14.041-161.473-40.118-6.018-4.012-14.041-5.015-21.062-2.006-10.029 4.012-16.047 14.041-16.047 25.073v74.217c0 83.244 67.197 150.441 150.441 150.441h101.297c83.244 0 150.441-67.197 150.441-150.441v-74.217c0-9.026-4.012-17.050-12.035-22.065-5.015-3.009-10.029-5.015-16.047-5.015zM381.117 701.242c57.167 0 113.332-12.035 162.476-35.103v52.153c0 61.179-49.144 110.323-110.323 110.323h-101.297c-61.179 0-110.323-49.144-110.323-110.323v-51.15c50.147 22.065 105.309 34.1 159.467 34.1z" />
<glyph unicode="&#xe906;" glyph-name="menu-10" d="M511.427-64c-35.548 0-68.802 14.907-92.882 40.134-16.054 16.054-40.134 22.934-61.922 16.054-33.254-10.32-71.095-5.733-100.909 11.467-30.961 17.2-52.748 47.015-60.775 81.415-5.733 21.787-22.934 40.134-45.868 45.868-34.401 9.174-63.068 29.814-80.269 60.775s-21.787 67.655-11.467 100.909c6.88 21.787 0 45.868-16.054 61.922-26.374 24.081-41.281 58.482-41.281 94.029s14.907 69.948 40.134 94.029c16.054 14.907 22.934 38.988 16.054 60.775-10.32 34.401-5.733 71.095 11.467 102.056s48.161 52.748 82.562 60.775c21.787 4.587 38.988 22.934 43.574 43.574 8.027 34.401 30.961 64.215 60.775 82.562 30.961 18.347 66.508 21.787 100.909 12.614 21.787-6.88 45.868 0 60.775 16.054 26.374 25.227 59.628 38.988 95.176 38.988s69.948-14.907 94.029-40.134c14.907-16.054 38.988-22.934 60.775-16.054 34.401 10.32 69.948 5.733 100.909-12.614 30.961-17.2 52.748-48.161 60.775-82.562 4.587-21.787 22.934-38.988 43.574-43.574 34.401-8.027 64.215-30.961 82.562-60.775 18.347-30.961 21.787-66.508 12.614-100.909-6.88-21.787 0-45.868 16.054-60.775 26.374-25.227 40.134-58.482 40.134-94.029s-14.907-69.948-41.281-94.029c-16.054-14.907-22.934-38.988-16.054-60.775 10.32-34.401 5.733-71.095-11.467-100.909-17.2-30.961-47.015-52.748-81.415-60.775-21.787-5.733-40.134-22.934-45.868-45.868-8.027-34.401-29.814-63.068-60.775-81.415-30.961-17.2-67.655-21.787-100.909-11.467-21.787 6.88-45.868 0-61.922-16.054-21.787-26.374-56.188-41.281-91.736-41.281zM373.823 41.496c28.667 0 57.335-11.467 77.975-33.254 16.054-17.2 36.694-26.374 59.628-26.374s44.721 9.174 59.628 26.374c27.521 28.667 69.948 40.134 107.789 28.667 21.787-6.88 44.721-3.44 65.362 8.027 19.494 11.467 33.254 29.814 38.988 51.601 9.174 38.988 40.134 69.948 79.122 79.122 21.787 5.733 41.281 19.494 51.601 38.988 11.467 19.494 13.76 43.574 8.027 65.362-11.467 37.841 0 80.269 28.667 106.643 17.2 16.054 26.374 37.841 26.374 60.775s-9.174 44.721-26.374 60.775c-28.667 27.521-40.134 68.802-28.667 107.789 6.88 21.787 3.44 44.721-8.027 65.362s-30.961 34.401-52.748 38.988c-37.841 9.174-68.802 40.134-77.975 77.975-5.733 22.934-19.494 41.281-38.988 52.748s-43.574 13.76-65.362 8.027c-37.841-11.467-80.269 0-107.789 28.667-14.907 17.2-35.548 26.374-59.628 26.374-22.934 0-44.721-9.174-60.775-26.374-27.521-28.667-68.802-40.134-107.789-28.667-21.787 6.88-44.721 3.44-65.362-8.027s-34.401-30.961-38.988-52.748c-9.174-37.841-40.134-68.802-77.975-77.975-22.934-5.733-41.281-19.494-52.748-38.988-11.467-20.641-14.907-43.574-8.027-65.362 11.467-37.841 0-80.269-28.667-106.643-16.054-17.2-25.227-37.841-25.227-60.775s9.174-44.721 26.374-59.628c28.667-27.521 40.134-69.948 28.667-107.789-6.88-21.787-3.44-44.721 8.027-65.362 11.467-19.494 29.814-33.254 51.601-38.988 38.988-9.174 69.948-40.134 79.122-79.122 5.733-21.787 19.494-41.281 38.988-51.601 19.494-11.467 42.428-13.76 65.362-8.027 9.174 1.147 19.494 3.44 29.814 3.44zM511.427 99.978c-192.645 0-348.596 155.951-348.596 348.596s155.951 348.596 348.596 348.596 348.596-157.097 348.596-348.596-155.951-348.596-348.596-348.596zM511.427 750.155c-167.418 0-302.728-135.31-302.728-302.728 1.147-166.271 136.457-301.581 302.728-301.581 167.418 0 302.728 135.31 302.728 302.728 0 166.271-135.31 301.581-302.728 301.581zM352.036 269.689c-5.733 0-11.467 2.293-16.054 6.88-9.174 9.174-9.174 22.934 0 32.108l319.928 319.928c9.174 9.174 22.934 9.174 32.108 0s9.174-22.934 0-32.108l-319.928-319.928c-4.587-4.587-10.32-6.88-16.054-6.88zM408.224 474.947c-49.308 0-89.442 40.134-89.442 89.442s40.134 89.442 89.442 89.442 89.442-40.134 89.442-89.442-40.134-89.442-89.442-89.442zM408.224 609.111c-24.081 0-43.574-19.494-43.574-43.574s19.494-43.574 43.574-43.574 43.574 19.494 43.574 43.574c0 24.081-19.494 43.574-43.574 43.574zM621.51 253.635c-49.308 0-89.442 40.134-89.442 89.442s40.134 89.442 89.442 89.442 89.442-40.134 89.442-89.442-40.134-89.442-89.442-89.442zM621.51 387.798c-24.081 0-43.574-19.494-43.574-43.574s19.494-43.574 43.574-43.574 43.574 19.494 43.574 43.574c0 24.081-19.494 43.574-43.574 43.574z" />
<glyph unicode="&#xe907;" glyph-name="menu-9" d="M999.208 137.566h-977.651c-11.857 0-21.558 9.701-21.558 21.558v172.463c0 11.857 9.701 21.558 21.558 21.558h977.651c11.857 0 21.558-9.701 21.558-21.558v-172.463c0-11.857-9.701-21.558-21.558-21.558zM43.116 180.682h934.535v129.347h-934.535v-129.347zM999.208 315.419h-977.651c-11.857 0-21.558 9.701-21.558 21.558v78.686c0 63.596 51.739 115.335 115.335 115.335h790.097c63.596 0 115.335-51.739 115.335-115.335v-78.686c0-11.857-9.701-21.558-21.558-21.558zM43.116 358.535h934.535v57.128c0 39.882-32.337 72.219-72.219 72.219h-790.097c-39.882 0-72.219-32.337-72.219-72.219v-57.128zM905.432 487.882h-773.928c-11.857 0-21.558 9.701-21.558 21.558v188.632c0 6.467 3.234 12.935 8.623 17.246 239.293 176.775 560.505 176.775 799.798 0 5.389-4.312 8.623-10.779 8.623-17.246v-188.632c0-11.857-9.701-21.558-21.558-21.558zM153.061 530.998h730.813v155.217c-219.891 157.373-510.922 157.373-730.813 0v-155.217zM451.638 487.882h-226.358c-11.857 0-21.558 9.701-21.558 21.558v59.284c0 34.493 28.025 62.518 62.518 62.518h143.36c34.493 0 62.518-28.025 62.518-62.518v-59.284c1.078-11.857-8.623-21.558-20.48-21.558zM246.838 530.998h183.242v37.726c0 10.779-8.623 19.402-19.402 19.402h-144.438c-10.779 0-19.402-8.623-19.402-19.402v-37.726zM808.421 487.882h-226.358c-11.857 0-21.558 9.701-21.558 21.558v59.284c0 34.493 28.025 62.518 62.518 62.518h143.36c34.493 0 62.518-28.025 62.518-62.518v-59.284c1.078-11.857-8.623-21.558-20.48-21.558zM603.621 530.998h183.242v37.726c0 10.779-8.623 19.402-19.402 19.402h-143.36c-10.779 0-19.402-8.623-19.402-19.402v-37.726zM905.432 221.642h-773.928c-11.857 0-21.558 9.701-21.558 21.558s9.701 21.558 21.558 21.558h773.928c11.857 0 21.558-9.701 21.558-21.558s-9.701-21.558-21.558-21.558zM130.425 53.491h-25.869c-28.025 0-50.661 22.636-50.661 50.661v54.973c0 11.857 9.701 21.558 21.558 21.558h84.076c11.857 0 21.558-9.701 21.558-21.558v-54.973c0-28.025-22.636-50.661-50.661-50.661zM97.011 137.566v-33.415c0-4.312 3.234-7.545 7.545-7.545h25.869c4.312 0 7.545 3.234 7.545 7.545v33.415h-40.96zM905.432 53.491h-25.869c-28.025 0-50.661 22.636-50.661 50.661v54.973c0 11.857 9.701 21.558 21.558 21.558h84.076c11.857 0 21.558-9.701 21.558-21.558v-54.973c0-28.025-22.636-50.661-50.661-50.661zM872.017 137.566v-33.415c0-4.312 3.234-7.545 7.545-7.545h25.869c4.312 0 7.545 3.234 7.545 7.545v33.415h-40.96z" />
<glyph unicode="&#xe908;" glyph-name="menu-8" d="M891.098-68.357h-269.072c-53.379 0-95.864 43.574-95.864 95.864v836.63c0 53.379 43.574 95.864 95.864 95.864h270.162c53.379 0 95.864-43.574 95.864-95.864v-836.63c-1.089-52.289-43.574-95.864-96.953-95.864zM622.026 916.426c-29.413 0-52.289-23.966-52.289-52.289v-836.63c0-29.413 23.966-52.289 52.289-52.289h270.162c29.413 0 52.289 23.966 52.289 52.289v836.63c0 29.413-23.966 52.289-52.289 52.289h-270.162zM965.174 253.004h-418.315c-11.983 0-21.787 9.804-21.787 21.787s9.804 21.787 21.787 21.787h418.315c11.983 0 21.787-9.804 21.787-21.787s-9.804-21.787-21.787-21.787zM871.489 500.289c-11.983 0-21.787 9.804-21.787 21.787v107.847c0 11.983 9.804 21.787 21.787 21.787s21.787-9.804 21.787-21.787v-107.847c0-11.983-9.804-21.787-21.787-21.787zM871.489 44.936c-11.983 0-21.787 9.804-21.787 21.787v86.060c0 11.983 9.804 21.787 21.787 21.787s21.787-9.804 21.787-21.787v-86.060c0-11.983-9.804-21.787-21.787-21.787zM454.264 28.596h-307.2c-11.983 0-21.787 9.804-21.787 21.787v222.23c0 11.983 9.804 21.787 21.787 21.787h307.2c11.983 0 21.787-9.804 21.787-21.787v-222.23c0-11.983-9.804-21.787-21.787-21.787zM168.851 72.17h263.626v178.655h-263.626v-178.655zM510.911-68.357h-419.404c-32.681 0-58.826 26.145-58.826 58.826v439.013c0 32.681 26.145 58.826 58.826 58.826h419.404c32.681 0 58.826-26.145 58.826-58.826v-439.013c-1.089-32.681-27.234-58.826-58.826-58.826zM91.506 444.732c-8.715 0-15.251-6.536-15.251-15.251v-439.013c0-8.715 6.536-15.251 15.251-15.251h419.404c8.715 0 15.251 6.536 15.251 15.251v439.013c0 8.715-6.536 15.251-15.251 15.251h-419.404zM454.264 334.706h-307.2c-11.983 0-21.787 9.804-21.787 21.787s9.804 21.787 21.787 21.787h307.2c11.983 0 21.787-9.804 21.787-21.787s-9.804-21.787-21.787-21.787zM388.902 178.928h-176.477c-11.983 0-21.787 9.804-21.787 21.787s9.804 21.787 21.787 21.787h176.477c11.983 0 21.787-9.804 21.787-21.787s-9.804-21.787-21.787-21.787zM388.902 107.030h-176.477c-11.983 0-21.787 9.804-21.787 21.787s9.804 21.787 21.787 21.787h176.477c11.983 0 21.787-9.804 21.787-21.787s-9.804-21.787-21.787-21.787zM147.064 334.706c-11.983 0-21.787 9.804-21.787 21.787v40.306c0 11.983 9.804 21.787 21.787 21.787s21.787-9.804 21.787-21.787v-40.306c0-11.983-9.804-21.787-21.787-21.787zM454.264 334.706c-11.983 0-21.787 9.804-21.787 21.787v40.306c0 11.983 9.804 21.787 21.787 21.787s21.787-9.804 21.787-21.787v-40.306c0-11.983-9.804-21.787-21.787-21.787z" />
<glyph unicode="&#xe909;" glyph-name="menu-7" d="M658.554 60.007h-297.806c-179.435 0-325.989 146.554-325.989 325.989 0 10.334 8.455 18.789 18.789 18.789h170.040c10.334 0 18.789-8.455 18.789-18.789s-8.455-18.789-18.789-18.789h-150.312c9.394-150.312 135.281-269.622 287.472-269.622h298.745c152.191 0 278.077 119.31 287.472 269.622h-518.576c-10.334 0-18.789 8.455-18.789 18.789s8.455 18.789 18.789 18.789h537.365c10.334 0 18.789-8.455 18.789-18.789 0-180.374-145.615-325.989-325.989-325.989zM961.057 366.268h-532.668c-10.334 0-18.789 8.455-18.789 18.789s8.455 18.789 18.789 18.789h532.668c11.273 0 20.668 9.394 20.668 20.668s-9.394 20.668-20.668 20.668h-532.668c-10.334 0-18.789 8.455-18.789 18.789s8.455 18.789 18.789 18.789h532.668c31.941 0 58.246-26.305 58.246-58.246s-26.305-58.246-58.246-58.246zM223.589 366.268h-165.343c-31.941 0-58.246 26.305-58.246 58.246s26.305 58.246 58.246 58.246h164.404c10.334 0 18.789-8.455 18.789-18.789s-8.455-18.789-18.789-18.789h-164.404c-11.273 0-20.668-9.394-20.668-20.668s9.394-20.668 20.668-20.668h164.404c10.334 0 18.789-8.455 18.789-18.789s-7.516-18.789-17.85-18.789zM259.288-0.117c-10.334 0-18.789 8.455-18.789 18.789v68.58c0 10.334 8.455 18.789 18.789 18.789s18.789-8.455 18.789-18.789v-68.58c0-10.334-8.455-18.789-18.789-18.789zM749.681-0.117c-10.334 0-18.789 8.455-18.789 18.789v68.58c0 10.334 8.455 18.789 18.789 18.789s18.789-8.455 18.789-18.789v-68.58c0-10.334-8.455-18.789-18.789-18.789zM428.389 236.624h-204.8c-10.334 0-18.789 8.455-18.789 18.789v236.741c0 10.334 8.455 18.789 18.789 18.789h204.8c10.334 0 18.789-8.455 18.789-18.789v-236.741c0-10.334-8.455-18.789-18.789-18.789zM242.378 274.202h167.222v199.163h-167.222v-199.163zM428.389 397.27h-204.8c-10.334 0-18.789 8.455-18.789 18.789s8.455 18.789 18.789 18.789h204.8c10.334 0 18.789-8.455 18.789-18.789s-8.455-18.789-18.789-18.789zM836.11 718.561c-0.939 0-0.939 0-1.879 0-10.334 0.939-17.85 10.334-16.91 20.668 3.758 51.67-27.244 87.369-58.246 104.279-31.002 15.971-77.974 22.547-118.371-10.334-8.455-6.576-20.668-4.697-27.244 2.818-6.576 8.455-5.637 19.728 2.818 26.305 46.033 36.639 107.097 42.275 159.706 14.092s82.672-81.732 77.974-139.978c0-10.334-7.516-17.85-17.85-17.85zM836.11 446.121c-10.334 0-18.789 8.455-18.789 18.789v272.44c0 10.334 8.455 18.789 18.789 18.789s18.789-8.455 18.789-18.789v-273.38c0-9.394-8.455-17.85-18.789-17.85zM685.798 693.196c-1.879 0-4.697 0-6.576 0.939l-196.345 74.217c-4.697 1.879-8.455 5.637-10.334 9.394s-1.879 9.394 0 14.092c11.273 31.002 34.76 55.428 64.822 69.519s63.883 15.031 94.884 2.818c31.002-11.273 55.428-34.76 69.519-64.822s15.031-63.883 2.818-94.884c-3.758-6.576-11.273-11.273-18.789-11.273zM515.758 796.536l157.828-59.185c1.879 15.971 0 32.881-6.576 47.912-9.394 20.668-26.305 36.639-47.912 45.094s-45.094 7.516-65.761-1.879c-16.91-7.516-29.123-18.789-37.578-31.941zM543.002 626.495c-1.879 0-4.697 0-6.576 0.939-9.394 3.758-15.031 14.092-11.273 24.426l13.152 35.699c3.758 9.394 14.092 14.092 24.426 11.273 9.394-3.758 15.031-14.092 11.273-24.426l-13.152-35.699c-2.818-7.516-10.334-12.213-17.85-12.213zM505.424 528.793c-1.879 0-4.697 0-6.576 0.939-9.394 3.758-15.031 14.092-11.273 24.426l13.152 35.699c3.758 9.394 14.092 14.092 24.426 11.273 9.394-3.758 15.031-14.092 11.273-24.426l-13.152-35.699c-2.818-7.516-10.334-12.213-17.85-12.213zM622.855 602.070c-1.879 0-2.818 0-4.697 0.939-10.334 2.818-15.971 12.213-14.092 22.547l8.455 36.639c2.818 10.334 12.213 15.971 22.547 14.092 10.334-2.818 15.971-12.213 14.092-22.547l-8.455-36.639c-1.879-9.394-9.394-15.031-17.85-15.031zM598.429 499.67c-1.879 0-2.818 0-4.697 0.939-10.334 2.818-15.971 12.213-14.092 22.547l8.455 36.639c2.818 10.334 12.213 15.971 22.547 14.092 10.334-2.818 15.971-12.213 14.092-22.547l-8.455-36.639c-1.879-8.455-9.394-15.031-17.85-15.031zM467.846 658.437c-2.818 0-6.576 0.939-9.394 2.818-9.394 5.637-12.213 16.91-6.576 25.365l18.789 32.881c5.637 9.394 16.91 12.213 25.365 6.576 9.394-5.637 12.213-16.91 6.576-25.365l-18.789-32.881c-3.758-6.576-10.334-9.394-15.971-9.394zM414.297 567.31c-2.818 0-6.576 0.939-9.394 2.818-9.394 5.637-12.213 16.91-6.576 25.365l18.789 32.881c5.637 9.394 16.91 12.213 25.365 6.576 9.394-5.637 12.213-16.91 6.576-25.365l-18.789-32.881c-2.818-5.637-9.394-9.394-15.971-9.394z" />
<glyph unicode="&#xe90a;" glyph-name="menu-6" d="M142.222 89.6c-34.133 0-64.474 25.6-69.215 60.681l-72.059 533.807c-2.844 18.015 1.896 36.978 13.274 51.2 11.378 15.17 27.496 24.652 46.459 26.548l749.037 102.4c37.926 5.689 73.007-21.807 78.696-59.733l73.007-534.756c4.741-37.926-21.807-73.007-59.733-78.696v0l-749.985-101.452c-2.844 0-5.689 0-9.481 0zM819.2 827.259c-0.948 0-2.844 0-4.741 0l-749.037-102.4c-8.533-0.948-16.119-5.689-20.859-12.326s-7.585-15.17-6.637-23.704l73.007-534.756c2.844-17.067 18.963-29.393 36.030-27.496l749.037 102.4c17.067 2.844 29.393 18.015 27.496 36.030l-73.007 534.756c-1.896 16.119-15.17 27.496-31.289 27.496zM209.541 34.607c-32.237 0-59.733 23.704-64.474 55.941-0.948 10.43 5.689 19.911 16.119 21.807 10.43 0.948 19.911-5.689 21.807-16.119 1.896-15.17 16.119-25.6 30.341-22.756l710.163 96.711c19.911 2.844 37.926 13.274 50.252 29.393s18.015 36.030 15.17 55.941l-67.319 494.933c-1.896 15.17-16.119 25.6-30.341 22.756-10.43-1.896-19.911 5.689-21.807 16.119-0.948 10.43 5.689 19.911 16.119 21.807 35.081 4.741 68.267-19.911 73.007-55.941l67.319-494.933c3.793-30.341-3.793-59.733-21.807-84.385s-45.511-39.822-74.904-43.615l-711.111-97.659c-2.844 0-5.689 0-8.533 0zM661.807 235.615c-36.978 0-73.007 18.015-94.815 49.304l-333.748 473.126c-3.793 5.689-4.741 12.326-1.896 18.963 2.844 5.689 8.533 10.43 15.17 11.378l552.77 74.904c20.859 2.844 42.667-2.844 59.733-16.119s28.444-32.237 31.289-53.096l68.267-498.726c0.948-10.43-5.689-19.911-16.119-21.807l-263.585-36.030c-5.689-0.948-11.378-1.896-17.067-1.896zM281.6 754.252l316.681-447.526c17.067-23.704 45.511-36.030 74.904-32.237l244.622 34.133-65.422 479.763c-1.896 11.378-7.585 21.807-16.119 28.444-9.481 6.637-19.911 9.481-31.289 8.533v0l-523.378-71.111zM621.985 244.148c-1.896 0-3.793 0-5.689 0.948-10.43 2.844-15.17 14.222-12.326 23.704l113.778 360.296-474.074 121.363c-10.43 2.844-16.119 13.274-13.274 22.756 2.844 10.43 13.274 16.119 22.756 13.274l493.985-126.104c4.741-0.948 9.481-4.741 12.326-9.481s2.844-9.481 1.896-15.17l-120.415-379.259c-3.793-7.585-11.378-12.326-18.963-12.326zM742.4 623.407c-1.896 0-3.793 0-5.689 0.948-10.43 2.844-16.119 13.274-12.326 23.704l26.548 87.23c2.844 10.43 13.274 16.119 23.704 12.326 10.43-2.844 16.119-13.274 12.326-23.704l-26.548-87.23c-2.844-7.585-10.43-13.274-18.015-13.274zM655.17 646.163c-1.896 0-3.793 0-5.689 0.948-10.43 2.844-16.119 13.274-12.326 23.704l26.548 87.23c2.844 10.43 13.274 16.119 23.704 12.326 10.43-2.844 16.119-13.274 12.326-23.704l-26.548-87.23c-1.896-8.533-9.481-13.274-18.015-13.274zM570.785 667.022c-1.896 0-3.793 0-5.689 0.948-10.43 2.844-16.119 13.274-12.326 23.704l26.548 87.23c2.844 10.43 13.274 16.119 23.704 12.326 10.43-2.844 16.119-13.274 12.326-23.704l-26.548-87.23c-1.896-7.585-9.481-13.274-18.015-13.274zM494.933 689.778c-1.896 0-3.793 0-5.689 0.948-10.43 2.844-16.119 13.274-12.326 23.704l26.548 87.23c2.844 10.43 13.274 16.119 23.704 12.326 10.43-2.844 16.119-13.274 12.326-23.704l-26.548-87.23c-1.896-8.533-9.481-13.274-18.015-13.274zM420.978 706.844c-1.896 0-3.793 0-5.689 0.948-10.43 2.844-16.119 13.274-12.326 23.704l26.548 86.281c2.844 10.43 13.274 16.119 23.704 12.326 10.43-2.844 16.119-13.274 12.326-23.704l-26.548-87.23c-1.896-7.585-9.481-12.326-18.015-12.326z" />
<glyph unicode="&#xe90b;" glyph-name="menu-5" d="M938.116 21.884h-781.763c-85.884 0-156.353 70.469-156.353 156.353s70.469 156.353 156.353 156.353h781.763c12.112 0 22.022-9.91 22.022-22.022s-9.91-22.022-22.022-22.022h-781.763c-61.66 0-112.31-49.548-112.31-112.31 0-61.66 50.649-112.31 112.31-112.31h781.763c12.112 0 22.022-9.91 22.022-22.022s-9.91-22.022-22.022-22.022zM938.116 156.215h-768.551c-12.112 0-22.022 9.91-22.022 22.022s9.91 22.022 22.022 22.022h768.551c12.112 0 22.022-9.91 22.022-22.022s-9.91-22.022-22.022-22.022zM938.116 559.209h-781.763c-85.884 0-156.353 69.368-156.353 156.353 0 85.884 70.469 156.353 156.353 156.353h781.763c12.112 0 22.022-9.91 22.022-22.022s-9.91-22.022-22.022-22.022h-781.763c-61.66 0-112.31-50.649-112.31-112.31s50.649-112.31 112.31-112.31h781.763c12.112 0 22.022-9.91 22.022-22.022s-9.91-22.022-22.022-22.022zM938.116 693.54h-768.551c-12.112 0-22.022 9.91-22.022 22.022s9.91 22.022 22.022 22.022h768.551c12.112 0 22.022-9.91 22.022-22.022s-9.91-22.022-22.022-22.022zM864.344 289.445h-781.763c-12.112 0-22.022 9.91-22.022 22.022s9.91 22.022 22.022 22.022h781.763c61.66 0 112.31 50.649 112.31 112.31s-50.649 112.31-112.31 112.31h-781.763c-12.112 0-22.022 9.91-22.022 22.022s9.91 22.022 22.022 22.022h781.763c85.884 0 156.353-70.469 156.353-156.353s-69.368-156.353-156.353-156.353zM852.232 423.776h-768.551c-12.112 0-22.022 9.91-22.022 22.022s9.91 22.022 22.022 22.022h768.551c12.112 0 22.022-9.91 22.022-22.022s-9.91-22.022-22.022-22.022z" />
<glyph unicode="&#xe90c;" glyph-name="menu-4" d="M711.265 387.114c-3.69 0-8.303 0.923-11.070 3.69-8.303 6.458-9.225 17.528-2.768 25.831l265.686 332.108c6.458 8.303 5.535 17.528 2.768 23.986-1.845 4.613-6.458 11.993-16.605 11.993h-576.577c-23.063 0-38.746-6.458-47.971-20.295l-267.532-333.031c-6.458-8.303-17.528-9.225-25.831-2.768s-9.225 17.528-2.768 25.831l266.609 333.031c16.605 22.141 42.436 34.133 77.492 34.133h576.577c21.218 0 40.591-11.993 49.816-32.288 10.148-21.218 7.38-45.204-7.38-63.654l-265.686-332.108c-3.69-3.69-9.225-6.458-14.76-6.458zM659.604 272.721h-573.809c-10.148 0-18.45 8.303-18.45 18.45s8.303 18.45 18.45 18.45h573.809c27.676 0 37.823 4.613 52.584 22.141l265.686 331.186c6.458 8.303 5.535 17.528 2.768 23.986-1.845 3.69-6.458 11.070-16.605 11.070s-18.45 8.303-18.45 18.45 8.303 18.45 18.45 18.45c21.218 0 40.591-11.993 49.816-32.288 10.148-21.218 7.38-45.204-7.38-63.654l-265.686-332.108c-24.908-28.598-47.971-34.133-81.182-34.133zM85.795 272.721c-38.746 0-69.189 26.753-82.105 72.879-10.148 35.056 0 78.414 24.908 108.858 6.458 8.303 18.45 9.225 25.831 2.768 8.303-6.458 9.225-18.45 2.768-25.831-17.528-21.218-24.908-51.661-18.45-75.647 4.613-17.528 17.528-46.126 46.126-46.126 10.148 0 18.45-8.303 18.45-18.45s-7.38-18.45-17.528-18.45zM708.497 184.159c-3.69 0-8.303 0.923-11.070 3.69-8.303 6.458-9.225 17.528-2.768 25.831l269.377 336.721c7.38 9.225 7.38 20.295 3.69 26.753-2.768 5.535-7.38 8.303-12.915 8.303-10.148 0-18.45 8.303-18.45 18.45s8.303 18.45 18.45 18.45c20.295 0 37.823-11.070 46.126-29.521 10.148-21.218 6.458-47.049-8.303-65.499l-269.377-335.798c-3.69-4.613-9.225-7.38-14.76-7.38zM43.359 225.672c-3.69 0-8.303 0.923-11.070 3.69-8.303 6.458-9.225 17.528-2.768 25.831l37.823 47.049c6.458 8.303 17.528 9.225 25.831 2.768s9.225-17.528 2.768-25.831l-37.823-47.049c-4.613-4.613-9.225-6.458-14.76-6.458zM665.139 74.378h-579.344c-10.148 0-18.45 8.303-18.45 18.45s8.303 18.45 18.45 18.45h579.344c28.598 0 37.823 7.38 52.584 23.986l260.151 329.341c6.458 8.303 5.535 17.528 2.768 23.986-1.845 3.69-6.458 11.070-16.605 11.070s-18.45 8.303-18.45 18.45c0 10.148 8.303 18.45 18.45 18.45 21.218 0 40.591-11.993 49.816-32.288 10.148-21.218 7.38-45.204-7.38-63.654l-261.074-329.341c-20.295-23.986-38.746-36.901-80.259-36.901zM85.795 74.378c-38.746 0-69.189 26.753-82.105 72.879-10.148 35.056 0 78.414 24.908 108.858 6.458 8.303 18.45 9.225 25.831 2.768 8.303-6.458 9.225-18.45 2.768-25.831-17.528-21.218-24.908-51.661-18.45-75.647 4.613-17.528 17.528-46.126 46.126-46.126 10.148 0 18.45-8.303 18.45-18.45s-7.38-18.45-17.528-18.45z" />
<glyph unicode="&#xe90d;" glyph-name="menu-3" d="M115.403 299.276c-8.127 0-16.254 2.438-22.756 7.314-11.378 6.502-17.879 18.692-19.505 31.695-4.876 73.956-11.378 126.781-16.254 149.537-7.314 30.070-36.571 102.4-53.638 143.035-4.876 12.19-4.063 25.194 2.438 36.571s17.879 18.692 30.070 20.317c65.829 9.752 226.743 32.508 287.695 47.137s214.552 66.641 277.943 88.584c12.19 4.063 26.006 2.438 36.571-4.876s17.879-18.692 18.692-31.695c5.689-74.768 11.378-128.406 17.067-150.349 4.063-15.441 14.629-46.324 30.883-87.771 3.251-8.127-0.813-17.879-8.94-21.13s-17.879 0.813-21.13 8.94c-17.067 43.886-28.444 74.768-32.508 91.835-8.127 31.695-14.629 102.4-18.692 156.851 0 4.063-2.438 5.689-4.063 7.314-1.625 0.813-4.063 2.438-8.127 0.813-63.39-21.943-218.616-73.956-280.381-89.397-61.765-14.629-223.492-38.197-290.133-47.949-4.063-0.813-5.689-3.251-6.502-4.876s-1.625-4.063-0.813-8.127c21.13-50.387 47.949-117.029 55.263-147.911s13.816-101.587 17.879-155.225c0-4.063 2.438-5.689 4.063-7.314 1.625-0.813 4.063-2.438 8.127-0.813 47.949 16.254 139.784 47.949 209.676 69.079 8.94 2.438 17.879-2.438 20.317-10.565s-2.438-17.879-10.565-20.317c-69.892-21.13-160.914-52.013-208.863-69.079-4.876-0.813-9.752-1.625-13.816-1.625zM891.53 68.47c-6.502 0-13.003 0.813-19.505 2.438-18.692 5.689-33.321 17.879-42.26 34.946-3.251 6.502-8.94 9.752-15.441 8.94-60.14-8.127-126.781-4.063-192.61 9.752-66.641 14.629-128.406 39.822-180.419 73.143-5.689 4.063-13.003 3.251-18.692-1.625-16.254-13.003-36.571-17.879-56.889-13.816-31.695 6.502-55.263 36.571-54.451 69.079 0.813 16.254 6.502 30.883 17.067 43.073 4.063 4.063 4.063 10.565 1.625 16.254-15.441 31.695-18.692 66.641-10.565 104.838 8.94 39.010 26.819 69.079 55.263 91.835 4.876 4.063 6.502 10.565 4.876 17.067-4.063 15.441-3.251 31.695 2.438 46.324 13.003 30.883 47.949 47.949 79.644 39.010 19.505-4.876 35.759-18.692 44.698-37.384 2.438-5.689 8.94-11.378 16.254-10.565 60.14 8.127 127.594 4.876 193.422-9.752 65.016-14.629 126.781-39.010 177.168-70.705 5.689-3.251 13.003-2.438 18.692 2.438 15.441 13.003 35.759 17.879 55.263 14.629 32.508-5.689 56.076-34.946 56.076-68.267 0-16.254-5.689-30.883-16.254-43.073-4.063-4.876-4.876-11.378-1.625-17.879 16.254-33.321 20.317-68.267 11.378-108.089-8.94-39.010-26.819-69.079-55.263-92.648-4.876-4.063-7.314-10.565-6.502-16.254 4.876-18.692 1.625-38.197-8.94-54.451-8.94-17.879-30.883-29.257-54.451-29.257zM816.762 148.114c17.879 0 34.946-10.565 43.073-26.819 4.876-8.94 12.19-15.441 21.943-18.692 14.629-4.063 31.695 1.625 39.822 14.629 5.689 8.94 7.314 18.692 4.876 28.444v0c-4.876 17.879 2.438 37.384 17.067 49.575 22.756 17.879 36.571 42.26 43.886 73.956s4.063 60.14-8.94 86.146c-8.94 17.879-6.502 38.197 5.689 53.638 5.689 6.502 8.127 14.629 8.127 22.756 0 17.067-12.19 32.508-29.257 35.759-10.565 1.625-21.13-0.813-29.257-7.314-17.067-13.816-39.822-15.441-56.889-4.876-47.949 30.070-105.651 52.825-167.416 66.641s-124.343 17.067-181.232 9.752c-20.317-2.438-40.635 8.94-49.575 28.444-4.876 9.752-13.003 17.067-23.568 19.505-17.067 4.063-34.946-4.876-42.26-20.317-3.251-8.127-4.063-16.254-1.625-24.381 5.689-19.505 0-39.822-15.441-52.013-22.756-17.879-36.571-42.26-43.886-73.956s-4.063-58.514 8.127-83.708c8.127-17.879 5.689-38.197-6.502-52.013-5.689-6.502-8.94-13.816-8.94-22.756-0.813-17.067 12.19-32.508 28.444-35.759 10.565-2.438 21.943 0.813 30.070 7.314 16.254 13.003 39.010 14.629 56.889 3.251 48.762-30.883 107.276-54.451 169.854-68.267 61.765-13.816 124.343-17.067 181.232-9.752 1.625 0.813 4.063 0.813 5.689 0.813z" />
<glyph unicode="&#xe90e;" glyph-name="menu-2" d="M425.732 319.649c-21.041 0-42.784 3.507-63.123 10.521l-334.553 113.622c-16.132 5.611-27.353 20.34-28.055 37.874s9.819 32.964 25.951 39.277l494.466 199.89c44.186 18.236 93.984 19.638 139.573 3.507l333.151-114.323c16.132-5.611 27.353-20.34 28.055-37.874s-9.819-32.964-25.951-39.277l-496.57-199.189c-23.847-9.819-48.395-14.027-72.942-14.027zM595.463 707.507c-21.742 0-43.485-4.208-64.526-12.625 0 0 0 0 0 0l-494.466-199.89c-7.715-3.507-8.416-10.521-8.416-12.625s0.701-9.118 9.118-11.923l334.553-114.323c37.874-12.625 79.255-11.923 116.427 3.507l496.57 199.89c7.715 3.507 8.416 10.521 8.416 12.625s-0.701 9.118-9.118 11.923l-333.151 114.323c-18.236 6.312-37.173 9.118-55.408 9.118zM425.732 158.334c-21.041 0-42.784 3.507-63.123 10.521l-320.526 113.622c-25.249 9.118-42.082 32.964-42.082 59.616v139.573c0 7.715 6.312 14.027 14.027 14.027s14.027-6.312 14.027-14.027v-139.573c0-14.729 9.118-28.055 23.847-33.666l319.825-113.622c37.874-12.625 79.255-11.923 116.427 3.507l482.542 190.773c13.326 5.611 22.444 18.236 22.444 32.964v150.795c0 7.715 6.312 14.027 14.027 14.027s14.027-6.312 14.027-14.027v-150.795c0-25.951-15.43-49.096-39.978-58.915l-482.542-190.773c-23.847-9.819-48.395-14.027-72.942-14.027zM629.83 401.008c-58.214 0-135.364 18.937-178.148 59.616-16.833 15.43-29.458 25.951-36.471 25.951s-18.236-10.521-32.964-25.951c-58.214-62.422-204.8-67.332-248.986-52.603-7.014 2.805-11.222 10.521-8.416 17.534s10.521 11.222 17.534 9.118c37.874-12.625 172.537-5.611 219.529 44.888 21.041 22.444 35.068 34.367 52.603 35.068s32.964-10.521 56.811-33.666c50.499-47.693 163.419-62.422 204.8-45.589 7.014 2.805 15.43-0.701 18.236-7.715s-0.701-15.43-7.715-18.236c-14.729-5.611-34.367-8.416-56.811-8.416zM204.8 449.403c-6.312 0-11.923 4.208-14.027 11.222l-11.923 55.408c-1.403 7.715 2.805 14.729 10.521 16.833 7.715 1.403 14.729-2.805 16.833-10.521l11.923-55.408c1.403-7.715-2.805-14.729-10.521-16.833-1.403 0-2.104-0.701-2.805-0.701zM328.241 488.679c-6.312 0-11.923 4.208-14.027 11.222l-14.729 65.929c-1.403 7.715 2.805 14.729 10.521 16.833 7.715 1.403 14.729-2.805 16.833-10.521l14.729-65.929c1.403-7.715-2.805-14.729-10.521-16.833-0.701-0.701-1.403-0.701-2.805-0.701zM454.488 521.644c-6.312 0-11.923 4.208-14.027 11.222l-19.638 89.074c-1.403 7.715 2.805 14.729 10.521 16.833 7.715 1.403 14.729-2.805 16.833-10.521l19.638-89.775c1.403-7.715-2.805-14.729-10.521-16.833-0.701 0-2.104 0-2.805 0zM598.268 457.118c-6.312 0-11.923 4.208-14.027 11.222l-41.381 188.668c-1.403 7.715 3.507 15.43 11.222 16.833s14.729-2.805 16.833-10.521l41.381-188.668c1.403-7.715-2.805-14.729-10.521-16.833-1.403-0.701-2.104-0.701-3.507-0.701zM731.529 488.679c-6.312 0-11.923 4.208-14.027 11.222l-30.159 138.871c-1.403 7.715 2.805 14.729 10.521 16.833 7.715 1.403 14.729-2.805 16.833-10.521l30.86-138.871c1.403-7.715-2.805-14.729-10.521-16.833-1.403-0.701-2.805-0.701-3.507-0.701zM852.164 534.268c-6.312 0-11.923 4.208-14.027 11.222l-11.222 51.2c-1.403 7.715 2.805 14.729 10.521 16.833 7.715 1.403 14.729-2.805 16.833-10.521l11.222-51.2c1.403-7.715-2.805-14.729-10.521-16.833-0.701-0.701-2.104-0.701-2.805-0.701z" />
<glyph unicode="&#xe90f;" glyph-name="menu-1" d="M429.009 171.587c-20.078 0-40.826 3.346-60.235 10.039l-325.271 113.108c-6.693 2.677-10.708 10.039-8.031 16.732s10.039 10.708 16.732 8.031l325.94-113.108c36.141-12.047 75.629-11.378 111.101 3.346l478.536 190.076c6.693 2.677 14.724-0.669 17.401-7.362s-0.669-14.724-7.362-17.401l-479.205-190.076c-22.086-9.37-45.511-13.386-69.605-13.386zM429.009 245.208c-20.078 0-40.826 3.346-60.235 10.039l-325.271 113.108c-6.693 2.677-10.708 10.039-8.031 16.732s10.039 10.708 16.732 8.031l325.94-113.108c36.141-12.047 75.629-11.378 111.101 3.346l478.536 190.076c6.693 2.677 14.724-0.669 17.401-7.362s-0.669-14.724-7.362-17.401l-479.205-190.076c-22.086-9.37-45.511-13.386-69.605-13.386zM429.009 325.522c-20.078 0-40.826 3.346-60.235 10.039l-319.247 108.424c-15.393 5.354-26.102 19.409-26.771 36.141s9.37 31.456 24.763 37.48l472.512 190.745c42.165 17.401 89.684 18.74 132.518 4.016l317.908-109.093c15.393-5.354 26.102-19.409 26.771-36.141s-9.37-31.456-24.763-37.48l-473.851-190.745c-22.086-9.37-45.511-13.386-69.605-13.386zM590.975 695.634c-20.748 0-41.495-4.016-61.574-12.047 0 0 0 0 0 0l-471.843-190.745c-7.362-3.346-8.031-10.039-8.031-12.047s0.669-8.701 8.701-11.378l319.247-108.424c36.141-12.047 75.629-11.378 111.101 3.346l473.851 190.745c7.362 3.346 8.031 10.039 8.031 12.047s-0.669 8.701-8.701 11.378l-317.908 108.424c-16.732 6.024-34.803 8.701-52.873 8.701zM218.855 436.622c-6.024 0-11.378 4.016-13.386 10.708l-14.724 65.59c-1.339 7.362 2.677 14.055 10.039 16.063 7.362 1.339 14.055-2.677 16.063-10.039l14.724-65.59c1.339-7.362-2.677-14.055-10.039-16.063-0.669-0.669-1.339-0.669-2.677-0.669zM354.050 399.142c-6.024 0-11.378 4.016-13.386 10.708l-33.464 150.588c-1.339 7.362 2.677 14.055 10.039 16.063 7.362 1.339 14.055-2.677 16.063-10.039l33.464-150.588c1.339-7.362-2.677-14.055-10.039-16.063-1.339-0.669-2.008-0.669-2.677-0.669zM482.552 390.442c-6.024 0-11.378 4.016-13.386 10.708l-46.85 212.831c-1.339 7.362 2.677 14.055 10.039 16.063 7.362 1.339 14.055-2.677 16.063-10.039l46.85-212.831c1.339-7.362-2.677-14.055-10.039-16.063-0.669-0.669-1.339-0.669-2.677-0.669zM595.66 442.646c-6.024 0-11.378 4.016-13.386 10.708l-42.834 194.092c-1.339 7.362 2.677 14.055 10.039 16.063 7.362 1.339 14.055-2.677 16.063-10.039l42.834-194.092c1.339-7.362-2.677-14.055-10.039-16.063-1.339-0.669-2.008-0.669-2.677-0.669zM719.477 486.818c-6.024 0-11.378 4.016-13.386 10.708l-29.448 132.518c-1.339 7.362 2.677 14.055 10.039 16.063 7.362 1.339 14.055-2.677 16.063-10.039l29.448-132.518c1.339-7.362-2.677-14.055-10.039-16.063-1.339-0.669-2.008-0.669-2.677-0.669zM833.924 530.322c-6.024 0-11.378 4.016-13.386 10.708l-10.708 48.858c-1.339 7.362 2.677 14.055 10.039 16.063 7.362 1.339 14.055-2.677 16.063-10.039l10.708-48.858c1.339-7.362-2.677-14.055-10.039-16.063-0.669-0.669-1.339-0.669-2.677-0.669zM48.188 367.686c-2.008 0-3.346 0.669-5.354 1.339-27.441 11.378-43.503 40.157-42.834 74.29 0.669 35.472 20.078 64.92 48.188 74.959 6.693 2.677 14.724-1.339 17.401-8.031s-1.339-14.724-8.031-17.401c-20.078-7.362-30.118-30.787-30.787-50.196-0.669-18.071 6.024-40.157 26.102-48.858 6.693-2.677 10.039-10.708 7.362-17.401-2.008-6.024-7.362-8.701-12.047-8.701zM48.188 294.065c-2.008 0-3.346 0.669-5.354 1.339-41.495 17.401-50.865 68.936-36.141 107.085 2.677 6.693 10.708 10.039 17.401 7.362s10.039-10.708 7.362-17.401c-10.708-26.102-4.016-61.574 21.417-72.282 6.693-2.677 10.039-10.708 7.362-17.401-2.008-6.024-7.362-8.701-12.047-8.701zM973.804 448c-5.354 0-10.039 2.677-12.047 8.031-3.346 6.693 0 14.724 6.693 17.401 22.756 10.039 30.118 34.803 28.779 54.212-0.669 18.071-10.039 42.165-32.795 49.527-6.693 2.008-10.708 10.039-8.701 16.732s10.039 10.708 16.732 8.701c29.448-9.37 49.527-38.818 50.865-73.621 2.008-36.141-15.393-66.259-44.842-79.644-0.669-1.339-2.677-1.339-4.685-1.339zM971.127 373.71c-5.354 0-10.039 2.677-12.047 8.031-3.346 6.693 0 14.724 6.693 17.401 27.441 12.716 34.803 49.527 24.094 75.629-2.677 6.693 0.669 14.724 7.362 17.401s14.724-0.669 17.401-7.362c15.393-37.48 4.685-90.353-38.149-109.762-1.339-0.669-3.346-1.339-5.354-1.339z" />
<glyph unicode="&#xe910;" glyph-name="developer" horiz-adv-x="676" d="M509.754 571.509l-6.737-6.737v-2.246l-4.491-8.982-6.737-6.737-4.491-13.474-2.246-13.474-4.491-11.228-2.246-6.737-2.246-2.246-2.246-11.228h-2.246v-6.737l-2.246-2.246-4.491-11.228-4.491-8.982-2.246-6.737-2.246-2.246v-6.737l-2.246-2.246-4.491-8.982-4.491-6.737-2.246-2.246v-8.982h-2.246l-2.246-6.737-2.246-2.246-2.246 8.982h-2.246v47.158h2.246l4.491 17.965 2.246 26.947h2.246v15.719l2.246 2.246v33.684l-2.246 4.491h-24.702l-6.737-4.491-6.737-6.737-4.491-2.246-2.246-2.246v-2.246l-4.491-8.982-2.246-2.246-2.246-11.228-2.246-2.246-4.491-13.474-2.246-13.474-2.246-11.228-2.246-2.246-4.491-8.982-2.246-11.228h-2.246l-2.246-8.982-8.982-13.474-2.246-6.737-2.246-8.982-2.246-2.246-2.246-4.491-2.246-2.246-2.246-4.491-4.491-4.491v-4.491l-2.246-2.246-2.246 6.737-4.491 20.211-4.491 31.439-2.246 4.491v60.632h-2.246v4.491l2.246 4.491v13.474l-2.246 2.246-2.246 40.421-13.474 13.474h-24.702l-2.246-4.491-4.491-4.491-2.246-11.228-2.246-4.491-2.246-8.982v-58.386l2.246-13.474 2.246-17.965 2.246-6.737 2.246-24.702 2.246-8.982v-4.491l2.246-11.228 2.246-6.737v-6.737l6.737-20.211 2.246-2.246v-4.491l2.246-8.982v-4.491l2.246-8.982 2.246-2.246 2.246-6.737 2.246-2.246 2.246-4.491 2.246-2.246 2.246-4.491h24.702l15.719 15.719 6.737 13.474 2.246 2.246 2.246 4.491 2.246 2.246 4.491 6.737 2.246 6.737 2.246 8.982 2.246 2.246 4.491 2.246 4.491 8.982v4.491l2.246 2.246 2.246-26.947 2.246-2.246 2.246-22.456 2.246-2.246 2.246-6.737h2.246v-2.246l6.737-6.737h24.702l13.474 4.491 2.246 2.246 4.491 2.246h2.246l4.491 4.491v2.246l4.491 6.737 2.246 2.246 6.737 13.474 2.246 2.246v4.491l2.246 4.491 4.491 4.491 2.246 8.982 6.737 6.737 2.246 8.982 4.491 6.737 2.246 13.474h2.246l4.491 11.228v6.737l2.246 2.246 4.491 8.982 2.246 8.982 2.246 4.491 2.246 11.228v4.491l2.246 13.474 2.246 2.246 4.491 22.456v33.684h-13.474zM671.439 730.947l-4.491 15.719-2.246 11.228-4.491 11.228h-2.246l-2.246 8.982-2.246 2.246-2.246 6.737-2.246 8.982-4.491 6.737h-2.246l-2.246 6.737-2.246 2.246v2.246l-4.491 4.491-2.246 6.737-8.982 8.982v2.246l-2.246 4.491-4.491 4.491-4.491 2.246-4.491 8.982-4.491 4.491-4.491 2.246-4.491 4.491v2.246l-4.491 4.491-8.982 4.491-2.246 2.246-2.246 4.491-4.491 4.491-6.737 2.246-4.491 4.491-6.737 4.491-4.491 4.491-6.737 2.246-6.737 4.491-4.491 2.246-2.246 2.246-4.491 2.246-2.246 2.246h-4.491l-4.491 2.246-2.246 2.246-4.491 2.246-2.246 2.246-6.737 2.246-8.982 4.491-11.228 2.246-4.491 2.246-6.737 2.246-8.982 2.246-4.491 4.491-13.474 2.246h-2.246l-20.211 2.246-2.246 2.246-17.965 2.246h-67.368l-20.211-2.246v-2.246l-20.211-2.246h-2.246l-15.719-2.246-2.246-2.246-4.491-2.246-17.965-4.491-4.491-2.246-11.228-2.246h-2.246l-6.737-2.246-2.246-2.246-6.737-2.246-4.491-2.246-6.737-2.246-2.246-2.246-4.491-2.246h-4.491l-6.737-6.737-6.737-2.246-4.491-4.491-6.737-2.246-2.246-2.246-4.491-2.246-13.474-8.982-4.491-2.246-13.474-13.474-4.491-2.246-11.228-11.228-4.491-2.246-8.982-8.982-2.246-4.491-4.491-2.246-6.737-4.491v-4.491l-4.491-4.491h-2.246l-4.491-2.246-2.246-4.491-2.246-2.246v-2.246l-8.982-8.982-2.246-4.491-4.491-4.491v-2.246l-2.246-4.491-4.491-4.491-2.246-4.491-2.246-2.246-2.246-4.491v-4.491l-2.246-2.246-4.491-6.737-2.246-6.737-2.246-2.246-4.491-6.737v-8.982h-2.246l-2.246-11.228-2.246-2.246-2.246-8.982-2.246-2.246-2.246-11.228-2.246-4.491v-11.228l-2.246-4.491-2.246-15.719-2.246-2.246v-76.351l2.246-2.246 2.246-11.228 2.246-2.246v-11.228l2.246-4.491 2.246-11.228 4.491-8.982 2.246-2.246 4.491-17.965h2.246l2.246-8.982 4.491-6.737 2.246-2.246 4.491-8.982v-2.246l2.246-2.246 6.737-13.474 2.246-2.246 2.246-6.737 2.246-2.246 2.246-4.491h2.246l2.246-4.491 2.246-2.246 2.246-4.491 2.246-2.246v-2.246l6.737-6.737 2.246-6.737 4.491-2.246 2.246-4.491 11.228-11.228 2.246-4.491 2.246-2.246 2.246-4.491 2.246-2.246h2.246l2.246-4.491 4.491-4.491v-2.246l13.474-13.474 2.246-4.491 2.246-2.246 2.246-4.491 4.491-6.737 4.491-4.491v-2.246l2.246-4.491 6.737-6.737 6.737-13.474v-2.246l2.246-6.737 2.246-2.246 2.246-4.491 4.491-4.491 2.246-8.982 2.246-13.474 2.246-2.246 2.246-13.474 4.491-11.228 2.246-2.246 2.246-6.737 2.246-4.491 4.491-4.491h8.982l4.491 2.246 4.491 11.228v44.912l-2.246 2.246-2.246 24.702-4.491 13.474-2.246 11.228-4.491 6.737h-2.246l-2.246 6.737-2.246 2.246-2.246 6.737v2.246l-4.491 4.491-4.491 8.982-4.491 4.491v2.246l-2.246 4.491-4.491 2.246-4.491 8.982-4.491 4.491v2.246l-11.228 11.228-2.246 4.491-6.737 6.737-2.246 4.491-4.491 2.246-2.246 4.491-4.491 4.491-2.246 4.491-6.737 6.737-2.246 4.491-2.246 6.737h-2.246l-2.246 4.491-2.246 2.246-2.246 6.737h-2.246l-2.246 6.737v2.246l-2.246 6.737-4.491 8.982-4.491 6.737-2.246 4.491v8.982l-4.491 8.982-4.491 4.491-2.246 8.982-2.246 2.246-2.246 11.228v4.491l-2.246 13.474-2.246 6.737v58.386l2.246 4.491 2.246 15.719v6.737l2.246 8.982 2.246 2.246 2.246 6.737 2.246 4.491 2.246 2.246 2.246 6.737 2.246 2.246v4.491l2.246 2.246 2.246 8.982h2.246l2.246 4.491 2.246 2.246 2.246 6.737 2.246 4.491 2.246 2.246 4.491 6.737 2.246 4.491 2.246 2.246 4.491 8.982 2.246 2.246h2.246v2.246l6.737 6.737 2.246 4.491 11.228 11.228 2.246 4.491 4.491 2.246 11.228 11.228v2.246h4.491l4.491 4.491 6.737 4.491 4.491 4.491 6.737 2.246 4.491 4.491 8.982 4.491 4.491 4.491 8.982 2.246 13.474 8.982 4.491 2.246 6.737 2.246 2.246 2.246 8.982 2.246 2.246 2.246 8.982 2.246 2.246 2.246 11.228 2.246 13.474 2.246 4.491 2.246 13.474 2.246 2.246 2.246 22.456 2.246 6.737 2.246h47.158l4.491-2.246 24.702-2.246v-2.246l15.719-2.246v-2.246l13.474-2.246h2.246l8.982-4.491 8.982-2.246 2.246-2.246 8.982-4.491h6.737l8.982-8.982 8.982-4.491 13.474-4.491 6.737-6.737 6.737-4.491 6.737-2.246 13.474-8.982 4.491-2.246v-2.246l4.491-2.246 6.737-4.491 2.246-2.246v-2.246l2.246-2.246 4.491-2.246 4.491-4.491 4.491-2.246v-2.246l6.737-6.737 2.246-4.491 4.491-4.491 2.246-4.491 2.246-2.246 2.246-4.491 4.491-6.737 4.491-4.491v-2.246l2.246-6.737 2.246-2.246 2.246-4.491 2.246-2.246 2.246-6.737 2.246-2.246 2.246-4.491v-2.246l4.491-8.982 2.246-2.246 2.246-8.982 4.491-6.737 2.246-2.246v-8.982l4.491-11.228 2.246-2.246 2.246-11.228 2.246-2.246 2.246-4.491 2.246-2.246h13.474l4.491 2.246 2.246 11.228 2.246 2.246v47.158zM487.298 129.123l-2.246 2.246-2.246 4.491-2.246 2.246-4.491 2.246-2.246 2.246-8.982 2.246-40.421 4.491-78.596 2.246-2.246 2.246-47.158 6.737-33.684 13.474h-6.737l-2.246 2.246-6.737 4.491-6.737 6.737-6.737 2.246h-11.228l-4.491-4.491v-11.228l2.246-2.246 2.246-8.982 4.491-6.737 4.491-4.491v-2.246l8.982-8.982 4.491-2.246 6.737-6.737 6.737-2.246 4.491-2.246 4.491-4.491 11.228-4.491 17.965-2.246 20.211-4.491 38.175-2.246 22.456-2.246h26.947l-2.246-4.491-6.737-2.246h-2.246l-44.912-2.246-11.228-2.246v2.246h-65.123l-24.702-4.491-2.246-2.246-11.228-2.246-4.491-4.491h-4.491l-2.246-2.246-4.491-2.246-2.246-4.491-6.737-6.737v-29.193h2.246l2.246-4.491 4.491-4.491v-4.491h4.491l2.246-2.246 4.491-2.246 2.246-2.246 6.737-2.246 4.491-2.246 11.228-2.246 4.491-2.246h15.719l4.491-2.246 22.456-2.246 6.737-2.246 40.421-2.246 13.474-4.491 8.982-2.246 2.246-8.982-11.228-2.246-136.982-2.246v-2.246l-6.737-2.246v-2.246l-4.491-2.246-8.982-8.982v-8.982l4.491-6.737 2.246-2.246 4.491-2.246 2.246-2.246 13.474-4.491h172.912l15.719 4.491 2.246 2.246 8.982 2.246 2.246 2.246 6.737 2.246h2.246v2.246l6.737 2.246 4.491 4.491 2.246 4.491 6.737 6.737 2.246 13.474v11.228l-2.246 11.228-4.491 4.491-2.246 4.491-4.491 4.491-13.474 6.737h-8.982l-4.491 2.246-24.702 2.246-11.228 2.246-44.912 2.246-15.719 2.246-29.193 2.246h-4.491l-15.719 2.246-2.246 2.246 114.526 2.246 24.702 4.491 2.246 2.246 15.719 2.246 11.228 2.246 11.228 4.491 6.737 4.491 4.491 4.491h2.246l2.246 2.246v2.246l11.228 11.228 4.491 8.982v4.491h2.246v26.947z" />
<glyph unicode="&#xe911;" glyph-name="list" horiz-adv-x="1072" d="M409.552 960h662.336v-204.895h-662.336v204.895zM0 960h255.881v-204.895h-255.881v204.895zM409.552 550.448h662.336v-204.895h-662.336v204.895zM0 550.448h255.881v-204.895h-255.881v204.895zM409.552 140.895h662.336v-204.895h-662.336v204.895zM0 140.895h255.881v-204.895h-255.881v204.895z" />
<glyph unicode="&#xe913;" glyph-name="star-o" d="M1002.701 492.851c20.070 19.661 27.238 48.538 18.637 75.366-8.806 26.829-31.334 45.875-59.392 49.971l-248.013 36.045c-10.65 1.638-19.661 8.192-24.371 17.818l-110.592 224.461c-12.493 25.19-37.683 40.96-65.946 40.96-28.058 0-53.453-15.77-65.741-40.96l-110.797-224.666c-4.71-9.626-13.926-16.179-24.371-17.818l-248.218-35.84c-27.853-4.096-50.586-23.142-59.187-49.971s-1.638-55.706 18.637-75.366l179.2-174.899c7.578-7.373 11.059-18.227 9.421-28.672l-42.394-246.989c-4.71-27.648 6.349-55.296 29.286-71.885 22.733-16.589 52.429-18.842 77.414-5.53l221.798 116.531c9.421 4.915 20.685 4.915 30.106 0l221.798-116.531c10.854-5.734 22.528-8.602 34.202-8.602 15.155 0 30.31 4.71 43.213 14.131 22.733 16.589 33.997 44.032 29.286 71.885l-42.598 246.989c-1.843 10.445 1.638 21.299 9.421 28.672l179.2 174.899zM773.734 282.317l42.394-246.989c2.048-12.493-2.662-24.371-12.902-31.744s-22.938-8.397-34.202-2.458l-221.798 116.531c-10.65 5.53-22.528 8.397-34.202 8.397s-23.552-2.867-34.202-8.397l-221.798-116.326c-11.264-5.734-23.962-4.915-34.202 2.458s-14.95 19.251-12.902 31.744l42.394 246.989c4.096 23.757-3.891 48.128-21.094 64.922l-179.405 174.899c-9.011 8.806-12.083 21.299-8.192 33.178 3.891 12.083 13.722 20.275 26.214 22.118l248.013 36.045c23.962 3.482 44.646 18.432 55.296 40.141l110.797 224.666c5.53 11.264 16.384 18.022 29.082 18.022s23.552-6.758 29.082-18.022l110.797-224.666c10.65-21.709 31.334-36.659 55.296-40.141l248.013-36.045c12.493-1.843 22.323-10.035 26.214-22.118s0.819-24.371-8.192-33.178l-179.405-174.899c-17.408-16.998-25.19-41.165-21.094-65.126z" />
<glyph unicode="&#xe914;" glyph-name="star" d="M977.235 601.197l-281.398 26.608c-17.739 1.613-33.058 12.901-40.315 29.833l-100.787 244.309c-16.126 40.315-73.373 40.315-89.499 0l-99.981-244.309c-6.45-16.932-22.576-28.22-40.315-29.833l-281.398-26.608c-41.928-4.031-58.86-56.441-27.414-84.661l212.057-186.255c13.707-12.094 19.351-29.833 15.32-47.572l-63.698-261.241c-9.676-41.121 34.671-74.986 71.761-53.216l234.633 137.877c15.32 8.869 33.865 8.869 49.184 0l234.633-137.877c37.090-21.77 81.436 11.288 71.761 53.216l-62.891 261.241c-4.031 17.739 1.613 35.477 15.32 47.572l212.057 186.255c30.639 28.22 12.901 80.63-29.027 84.661z" />
<glyph unicode="&#xe915;" glyph-name="arrow" d="M512-64c-282.419 0-512 229.581-512 512s229.581 512 512 512 512-229.581 512-512-229.581-512-512-512zM512 922.112c-261.325 0-474.112-212.787-474.112-474.112s212.787-474.112 474.112-474.112 474.112 212.787 474.112 474.112-212.787 474.112-474.112 474.112zM739.533 428.954h-492.954c-10.445 0-19.046 8.397-19.046 19.046 0 10.445 8.397 19.046 19.046 19.046h492.954c10.445 0 19.046-8.397 19.046-19.046 0-10.445-8.602-19.046-19.046-19.046zM582.246 245.043l-26.829 26.829 176.333 176.128-176.333 176.128 26.829 26.829 203.162-202.957z" />
<glyph unicode="&#xe916;" glyph-name="loss" d="M0 78.533h1024v-82.747h-1024v82.747zM941.253 365.873v-75.714l-362.020 362.020-134.465-134.465-374.225 374.225-58.337-58.544 432.562-432.769 134.465 134.465 303.476-303.476h-75.714v-82.747h217.005v217.005z" />
<glyph unicode="&#xe917;" glyph-name="next-2" d="M269.017-70.942l-26.034 24.298 491.173 491.173-491.173 491.173 26.034 24.298 515.471-515.471z" />
<glyph unicode="&#xe918;" glyph-name="basket" d="M246.965 933.496l44.574-181.911 611.991-9.638v-257.807c0 0 0-9.638-9.638-25.299-4.819-7.228-15.661-18.071-15.661-18.071l-574.645-168.659-178.296 539.708h-125.289v121.675h246.965zM704.753 190.193c-43.369 0-78.306-34.936-78.306-78.306s34.936-78.306 78.306-78.306 78.306 34.936 78.306 78.306c0 42.165-34.936 78.306-78.306 78.306zM283.106 188.988c-43.369 0-78.306-34.936-78.306-78.306s34.936-78.306 78.306-78.306 78.306 34.936 78.306 78.306-34.936 78.306-78.306 78.306z" />
<glyph unicode="&#xe919;" glyph-name="bars-graphic" d="M950.31-19.021v839.297c0 25.839-21.054 46.893-46.893 46.893h-137.809c-25.839 0-46.893-21.054-46.893-46.893v-839.297c0-25.839 21.054-46.893 46.893-46.893h137.809c25.839 0 46.893 21.054 46.893 46.893zM419.17-65.914h160.778c25.839 0 46.893 21.054 46.893 46.893v932.127c0 25.839 74.647 46.893 48.807 46.893h-160.778c-25.839 0-142.594-21.054-142.594-46.893v-932.127c0-25.839 21.054-46.893 46.893-46.893zM118.669 586.766c-25.839 0-46.893-21.054-46.893-46.893v-559.85c0-25.839 21.054-46.893 46.893-46.893h137.809c25.839 0 46.893 21.054 46.893 46.893v559.85c0 25.839-21.054 46.893-46.893 46.893h-137.809z" />
<glyph unicode="&#xe91a;" glyph-name="cancel" d="M633.703 448l365.094 365.094c33.607 33.607 33.607 88.095 0 121.698-33.607 33.607-88.091 33.607-121.698 0l-365.099-365.099-365.099 365.104c-33.607 33.607-88.091 33.607-121.698 0-33.603-33.607-33.603-88.095 0-121.698l365.099-365.094-365.099-365.099c-33.603-33.607-33.603-88.095 0-121.698 33.607-33.607 88.091-33.607 121.698 0l365.099 365.099 365.099-365.099c33.603-33.607 88.091-33.607 121.698 0s33.607 88.091 0 121.698l-365.094 365.094z" />
<glyph unicode="&#xe91b;" glyph-name="cancel-o" d="M874.020 810.020c-96.754 96.754-225.185 149.98-362.020 149.98s-265.266-53.226-362.020-149.98-149.98-225.185-149.98-362.020 53.226-265.266 149.98-362.020 225.185-149.98 362.020-149.98 265.266 53.226 362.020 149.98 149.98 225.185 149.98 362.020-53.226 265.266-149.98 362.020zM832.862 127.138c-85.764-85.764-199.758-132.956-320.862-132.956s-235.098 47.192-320.862 132.956c-176.916 176.916-176.916 464.808 0 641.724 85.764 85.764 199.758 132.956 320.862 132.956s235.098-47.192 320.862-132.956c176.916-176.916 176.916-464.808 0-641.724zM737.616 673.616c-11.421 11.421-29.737 11.421-41.158 0l-184.458-184.458-184.458 184.458c-11.421 11.421-29.737 11.421-41.158 0s-11.421-29.737 0-41.158l184.458-184.458-184.458-184.458c-11.421-11.421-11.421-29.737 0-41.158 5.603-5.603 13.145-8.62 20.471-8.62s14.869 2.801 20.471 8.62l184.458 184.458 184.458-184.458c5.603-5.603 13.145-8.62 20.471-8.62 7.542 0 14.869 2.801 20.471 8.62 11.421 11.421 11.421 29.737 0 41.158l-184.027 184.458 184.458 184.458c11.421 11.421 11.421 29.737 0 41.158z" />
<glyph unicode="&#xe91c;" glyph-name="file-audio" d="M597.333 679.619v280.381h-451.048v-1024h731.429v743.619h-280.381zM364.198 137.143v341.333l295.604-170.667-295.604-170.667zM670.476 923.429v-170.667h170.667z" />
<glyph unicode="&#xe91d;" glyph-name="file" d="M597.333 679.619v280.381h-451.048v-1024h731.429v743.619h-280.381zM559.465 478.476c26.931 0 48.762-21.831 48.762-48.762s-21.831-48.762-48.762-48.762-48.762 21.831-48.762 48.762 21.831 48.762 48.762 48.762zM731.429 137.143h-438.857v97.524l123.687 130.504 143.206-102.337 102.995 59.909 68.969-72.775v-112.825zM670.476 923.429v-170.667h170.667z" />
<glyph unicode="&#xe91e;" glyph-name="fit-to-height" d="M185.283 960h653.433v-34.391h-653.433v34.391zM185.283-64h653.433v34.391h-653.433v-34.391zM511.999 881.554l-88.163-88.16h176.323l-88.16 88.16zM511.999 23.913l88.163 88.16h-176.323l88.16-88.16z" />
<glyph unicode="&#xe91f;" glyph-name="next" d="M774.115 468.413l-483.056 483.056c-11.374 11.374-29.614 11.374-40.988 0s-11.374-29.614 0-40.988l462.455-462.455-462.455-462.455c-11.374-11.374-11.374-29.614 0-40.988 5.58-5.58 13.090-8.584 20.387-8.584s14.807 2.79 20.387 8.584l483.056 483.056c11.374 11.159 11.374 29.614 0.215 40.773z" />
<glyph unicode="&#xe920;" glyph-name="plus" d="M512 960c-282.309 0-512-229.671-512-512s229.691-512 512-512 512 229.671 512 512-229.691 512-512 512zM758.154 408.615h-206.769v-216.615c0-21.74-17.644-39.385-39.385-39.385s-39.385 17.644-39.385 39.385v216.615h-206.769c-21.74 0-39.385 17.644-39.385 39.385s17.644 39.385 39.385 39.385h206.769v196.923c0 21.74 17.644 39.385 39.385 39.385s39.385-17.644 39.385-39.385v-196.923h206.769c21.74 0 39.385-17.644 39.385-39.385s-17.644-39.385-39.385-39.385z" />
<glyph unicode="&#xe921;" glyph-name="heart2" d="M725.48 912.404c-47.744 0-93.378-10.945-135.628-32.534-28.761-14.693-55.182-34.214-77.851-57.376-22.672 23.161-49.091 42.683-77.851 57.376-42.252 21.588-87.885 32.534-135.63 32.534-164.602 0-298.518-133.916-298.518-298.52 0-116.586 61.573-240.41 183.007-368.036 101.391-106.561 225.525-195.39 311.805-251.144l17.188-11.108 17.188 11.108c86.28 55.752 210.414 144.582 311.807 251.144 121.434 127.626 183.005 251.45 183.005 368.036 0 164.604-133.916 298.52-298.52 298.52zM795.107 289.51c-90.614-95.234-200.991-176.196-283.107-230.381-82.116 54.188-192.493 135.147-283.105 230.381-109.855 115.452-165.554 224.587-165.554 324.374 0 129.679 105.502 235.18 235.18 235.18 74.659 0 143.242-34.294 188.158-94.088l25.321-33.708 25.321 33.708c44.917 59.793 113.499 94.088 188.158 94.088 129.679 0 235.18-105.502 235.18-235.18 0-99.786-55.701-208.921-165.552-324.374z" />
<glyph unicode="&#xe922;" glyph-name="heart" d="M1024 613.884c0 164.604-133.916 298.52-298.52 298.52-47.744 0-93.378-10.945-135.628-32.534-28.761-14.693-55.18-34.214-77.851-57.378-22.669 23.164-49.089 42.683-77.851 57.378-42.252 21.588-87.885 32.534-135.628 32.534-164.604 0-298.52-133.916-298.52-298.52 0-116.584 61.573-240.41 183.007-368.034 101.393-106.564 225.525-195.392 311.805-251.144l17.188-11.108 17.188 11.108c19.249 12.438 38.405 25.247 57.173 38.226 42.567-27.39 93.192-43.295 147.464-43.295 150.682 0 273.271 122.589 273.271 273.271 0 53.655-15.554 103.743-42.377 146.008 39.338 70.175 59.28 139.044 59.28 204.969zM512 59.129c-82.116 54.185-192.491 135.145-283.105 230.381-109.855 115.452-165.554 224.587-165.554 324.374 0 129.679 105.502 235.18 235.18 235.18 74.659 0 143.24-34.294 188.158-94.088l25.321-33.708 25.321 33.708c44.919 59.793 113.501 94.088 188.161 94.088 129.679 0 235.18-105.502 235.18-235.18 0-48.303-13.31-99.324-39.605-152.122-48.945 46.107-114.84 74.412-187.229 74.412-150.682 0-273.269-122.589-273.269-273.271 0-72.738 28.571-138.922 75.073-187.939-7.837-5.318-15.713-10.609-23.632-15.835zM733.826 52.975c-115.756 0-209.928 94.174-209.928 209.931s94.174 209.931 209.928 209.931 209.931-94.174 209.931-209.931-94.174-209.931-209.931-209.931zM765.496 392.995h-63.34v-98.422h-98.422v-63.34h98.422v-98.42h63.34v98.42h98.422v63.34h-98.422z" />
<glyph unicode="&#xe923;" glyph-name="add-like" d="M511.896-1.633l-20.189 12.771c-17.463 10.899-428.661 271.432-477.546 490.897-9.082 27.031-14.162 58.88-14.162 90.899 0 111.515 60.648 214.046 158.133 267.764 113.534 62.395 260.746 43.35 353.769-41.987 93.63 85.337 240.366 104.803 353.829 41.987 97.599-53.652 158.269-156.25 158.269-267.769 0-32.018-5.069-63.867-15.202-94.446-5.934-27.453-20.167-60.517-41.368-94.988l-64.634 39.6c16.866 27.431 27.935 52.782 32.966 75.385 8.534 26.665 12.3 50.384 12.3 74.449 0 83.7-45.534 160.93-118.866 201.411-94.802 52.218-219.334 27.951-288.133-54.747l-29.199-35.15-29.084 35.15c-68.882 83.191-192.68 107.053-288.046 54.753-73.25-40.547-118.784-117.717-118.784-201.411 0-24.064 3.783-47.751 11.299-70.732 33.885-151.465 300.981-352.931 424.583-433.862 27.3 17.961 79.633 53.702 138.234 99.433l46.667-59.97c-88.868-68.997-161.538-114.832-164.636-116.896l-20.2-12.541zM147.217 522.033c9.903 3.131 15.366 13.866 12.114 23.867-5.086 15.317-7.582 31.050-7.582 47.034 0 56.116 30.486 107.748 79.534 134.752 23.15 13.012 48.233 19.466 74.547 19.466 10.45 0 18.984 8.321 18.984 18.864 0 10.614-8.534 18.952-18.984 18.952-32.763 0-64.064-7.916-92.88-23.9-61.119-33.683-99.148-98.13-99.148-168.128 0-20.003 3.252-39.803 9.454-58.913 2.699-7.916 10.067-12.935 18.065-12.935 1.894 0.027 3.947 0.159 5.896 0.942zM1016.796 281.87c0 113.003-91.868 204.597-204.636 204.597s-204.63-91.698-204.63-204.597c0-112.795 91.862-204.4 204.63-204.4s204.636 91.605 204.636 204.4zM978.794 281.87c0-91.802-74.733-166.667-166.634-166.667-91.895 0-166.629 74.766-166.629 166.667 0 91.999 74.733 166.864 166.629 166.864 91.901 0 166.634-74.865 166.634-166.864zM832.327 193.533v170.329c0 10.571-8.54 18.902-18.968 18.902-10.434 0-18.968-8.332-18.968-18.902v-170.329c0-10.565 8.534-18.897 18.968-18.897s18.968 8.337 18.968 18.897zM917.527 278.706c0 10.625-8.534 18.93-18.968 18.93h-170.362c-10.467 0-19.001-8.304-19.001-18.93 0-10.609 8.534-18.935 19.001-18.935h170.362c10.434 0 18.968 8.326 18.968 18.935z" />
<glyph unicode="&#xe924;" glyph-name="check" d="M1005.502 732.078l-89.846 89.846c-12.319 12.329-27.302 18.495-44.914 18.495-17.628 0-32.611-6.167-44.93-18.495l-433.389-434.044-194.231 194.893c-12.333 12.333-27.307 18.493-44.918 18.493-17.623 0-32.597-6.16-44.93-18.493l-89.846-89.848c-12.333-12.331-18.498-27.309-18.498-44.93 0-17.607 6.164-32.599 18.498-44.928l329.002-328.991c12.326-12.338 27.305-18.498 44.923-18.498 17.611 0 32.59 6.176 44.923 18.498l568.156 568.149c12.322 12.333 18.498 27.309 18.498 44.93 0.009 17.611-6.176 32.59-18.498 44.923z" />
<glyph unicode="&#xe925;" glyph-name="avatar" d="M508.289 408.24c1.060 0 2.121 0 3.393 0 0.424 0 0.848 0 1.272 0 0.636 0 1.484 0 2.121 0 62.131 1.060 112.388 22.902 149.497 64.676 81.64 92.031 68.069 249.797 66.584 264.853-5.301 113.024-58.738 167.097-102.845 192.331-32.868 18.873-71.25 29.051-114.084 29.899h-1.484c-0.212 0-0.636 0-0.848 0h-1.272c-23.538 0-69.765-3.817-114.084-29.051-44.531-25.234-98.816-79.308-104.118-193.18-1.484-15.056-15.056-172.823 66.584-264.853 36.897-41.774 87.153-63.616 149.285-64.676zM349.038 732.468c0 0.636 0.212 1.272 0.212 1.696 6.998 152.041 114.932 168.369 161.16 168.369h0.848c0.424 0 1.060 0 1.696 0 57.254-1.272 154.586-24.598 161.16-168.369 0-0.636 0-1.272 0.212-1.696 0.212-1.484 15.056-145.68-52.377-221.595-26.719-30.111-62.343-44.955-109.207-45.379-0.424 0-0.636 0-1.060 0v0c-0.424 0-0.636 0-1.060 0-46.651 0.424-82.488 15.268-108.995 45.379-67.221 75.491-52.801 220.322-52.589 221.595zM947.449 146.568c0 0.212 0 0.424 0 0.636 0 1.696-0.212 3.393-0.212 5.301-1.272 41.986-4.029 140.166-96.060 171.55-0.636 0.212-1.484 0.424-2.121 0.636-95.636 24.386-175.155 79.52-176.003 80.156-12.935 9.118-30.748 5.937-39.866-6.998s-5.937-30.748 6.998-39.866c3.605-2.545 88.002-61.283 193.604-88.426 49.408-17.6 54.922-70.401 56.406-118.749 0-1.908 0-3.605 0.212-5.301 0.212-19.085-1.060-48.56-4.453-65.524-34.352-19.509-169.006-86.941-373.848-86.941-203.994 0-339.496 67.645-374.060 87.153-3.393 16.964-4.877 46.439-4.453 65.524 0 1.696 0.212 3.393 0.212 5.301 1.484 48.348 6.998 101.149 56.406 118.749 105.602 27.143 189.999 86.093 193.604 88.426 12.935 9.118 16.116 26.931 6.998 39.866s-26.931 16.116-39.866 6.998c-0.848-0.636-79.944-55.77-176.003-80.156-0.848-0.212-1.484-0.424-2.121-0.636-92.031-31.596-94.787-129.776-96.060-171.55 0-1.908 0-3.605-0.212-5.301 0-0.212 0-0.424 0-0.636-0.212-11.027-0.424-67.645 10.815-96.060 2.121-5.513 5.937-10.179 11.027-13.359 6.362-4.241 158.827-101.361 413.926-101.361s407.564 97.332 413.926 101.361c4.877 3.181 8.906 7.846 11.027 13.359 10.603 28.203 10.391 84.821 10.179 95.848z" />
<glyph unicode="&#xe926;" glyph-name="calendar" d="M250.23 716.47h14.65c22.264 0 40.312 18.054 40.312 40.312v152.853c0 22.258-18.047 40.31-40.312 40.31h-14.65c-22.262 0-40.31-18.052-40.31-40.31v-152.853c0-22.258 18.047-40.312 40.31-40.312zM767.282 717.469h14.65c22.262 0 40.31 18.052 40.31 40.312v152.855c0 22.256-18.047 40.307-40.31 40.307h-14.65c-22.266 0-40.314-18.052-40.314-40.307v-152.853c0.004-22.262 18.052-40.314 40.314-40.314zM958.468 868.025h-103.458v-120.8c0-40.297-32.782-62.523-73.075-62.523h-14.65c-40.297 0-73.079 32.784-73.079 73.081v110.242h-356.247v-111.241c0-40.297-32.782-73.081-73.079-73.081h-14.65c-40.295 0-73.077 32.784-73.077 73.081v111.241h-111.621c-36.135 0-65.534-29.399-65.534-65.536v-791.896c0-36.137 29.399-65.536 65.534-65.536h892.934c36.135 0 65.532 29.399 65.532 65.536v791.896c0.004 36.135-29.397 65.536-65.532 65.536zM958.468 10.593h-892.932l-0.002 598.019h892.946l0.034-598.017c-0.004 0-0.017-0.002-0.046-0.002zM545.832 408.019h117.671c4.664 0 8.446 3.782 8.446 8.446v101.893c0 4.664-3.782 8.446-8.446 8.446h-117.671c-4.664 0-8.446-3.782-8.446-8.446v-101.893c0-4.664 3.782-8.446 8.446-8.446zM737.868 408.019h117.671c4.664 0 8.446 3.782 8.446 8.446v101.893c0 4.664-3.782 8.446-8.446 8.446h-117.671c-4.664 0-8.446-3.782-8.446-8.446v-101.893c0-4.664 3.782-8.446 8.446-8.446zM161.768 241.206h117.668c4.664 0 8.446 3.782 8.446 8.446v101.895c0 4.664-3.782 8.446-8.446 8.446h-117.668c-4.664 0-8.446-3.782-8.446-8.446v-101.895c0-4.664 3.782-8.446 8.446-8.446zM353.801 241.206h117.668c4.664 0 8.446 3.782 8.446 8.446v101.895c0 4.664-3.782 8.446-8.446 8.446h-117.668c-4.664 0-8.446-3.782-8.446-8.446v-101.895c0-4.664 3.782-8.446 8.446-8.446zM545.834 241.206h117.668c4.664 0 8.446 3.782 8.446 8.446v101.895c0 4.664-3.782 8.446-8.446 8.446h-117.668c-4.664 0-8.446-3.782-8.446-8.446v-101.895c0-4.664 3.782-8.446 8.446-8.446zM737.868 241.206h117.671c4.664 0 8.446 3.782 8.446 8.446v101.895c0 4.664-3.782 8.446-8.446 8.446h-117.671c-4.664 0-8.446-3.782-8.446-8.446v-101.895c0-4.664 3.782-8.446 8.446-8.446zM279.437 193.181h-117.666c-4.664 0-8.446-3.782-8.446-8.446v-101.895c0-4.664 3.782-8.446 8.446-8.446h117.668c4.664 0 8.446 3.782 8.446 8.446v101.895c-0.002 4.664-3.784 8.446-8.448 8.446zM471.472 193.181h-117.668c-4.664 0-8.446-3.782-8.446-8.446v-101.895c0-4.664 3.782-8.446 8.446-8.446h117.668c4.664 0 8.446 3.782 8.446 8.446v101.895c0 4.664-3.782 8.446-8.446 8.446zM663.507 193.181h-117.671c-4.664 0-8.446-3.782-8.446-8.446v-101.895c0-4.664 3.782-8.446 8.446-8.446h117.671c4.664 0 8.446 3.782 8.446 8.446v101.895c0 4.664-3.782 8.446-8.446 8.446zM855.538 193.181h-117.671c-4.664 0-8.446-3.782-8.446-8.446v-101.895c0-4.664 3.782-8.446 8.446-8.446h117.671c4.664 0 8.446 3.782 8.446 8.446v101.895c0 4.664-3.782 8.446-8.446 8.446z" />
<glyph unicode="&#xe927;" glyph-name="phone" d="M1023.511 152.060c2.17-16.624-2.896-31.077-15.177-43.361l-144.177-143.088c-6.504-7.227-14.994-13.375-25.473-18.429-10.479-5.061-20.776-8.313-30.89-9.756-0.723 0-2.896-0.186-6.511-0.547-3.608-0.36-8.306-0.544-14.087-0.544-13.735 0-35.959 2.349-66.674 7.048s-68.293 16.264-112.734 34.689c-44.453 18.429-94.859 46.075-151.227 82.929-56.368 36.852-116.353 87.444-179.95 151.765-50.588 49.866-92.504 97.563-125.748 143.091-33.244 45.531-59.983 87.628-80.219 126.292-20.237 38.664-35.414 73.714-45.531 105.152s-16.983 58.538-20.597 81.303-5.059 40.651-4.336 53.66c0.723 13.008 1.084 20.235 1.084 21.681 1.445 10.118 4.697 20.416 9.756 30.895s11.202 18.971 18.429 25.475l144.177 144.177c10.118 10.118 21.681 15.177 34.689 15.177 9.395 0 17.706-2.71 24.933-8.13s13.37-12.105 18.429-20.055l115.992-220.059c6.504-11.563 8.311-24.21 5.42-37.941s-9.034-25.294-18.429-34.689l-53.118-53.118c-1.445-1.445-2.71-3.794-3.794-7.046s-1.626-5.962-1.626-8.13c2.891-15.177 9.395-32.521 19.513-52.034 8.672-17.345 22.042-38.483 40.109-63.416s43.723-53.658 76.967-86.179c32.521-33.247 61.429-59.080 86.723-77.512 25.289-18.422 46.435-31.977 63.418-40.65s29.992-13.912 39.024-15.713l13.547-2.712c1.445 0 3.799 0.544 7.048 1.626 3.252 1.086 5.601 2.349 7.048 3.796l61.788 62.874c13.016 11.561 28.185 17.343 45.531 17.343 12.289 0 22.040-2.166 29.267-6.504h1.082l209.217-123.58c15.182-9.402 24.214-21.323 27.106-35.777z" />
<glyph unicode="&#xe928;" glyph-name="glass" d="M1015.031-11.778l-248.848 248.848c66.753 76.743 107.168 176.873 107.168 286.311 0 240.901-195.945 436.619-436.619 436.619-240.901 0-436.619-195.945-436.619-436.619s195.945-436.619 436.619-436.619c109.439 0 209.568 40.415 286.311 107.168l248.848-248.848c5.903-5.903 13.85-9.082 21.57-9.082s15.667 2.952 21.57 9.082c11.807 11.807 11.807 31.333 0 43.14zM61.19 523.381c0 207.071 168.472 375.315 375.315 375.315 207.071 0 375.315-168.472 375.315-375.315s-168.245-375.542-375.315-375.542c-206.843 0-375.315 168.472-375.315 375.542z" />
<glyph unicode="&#xe929;" glyph-name="basket-o" d="M37.882 836.925h108.595l154.687-559.394c4.419-16.416 19.572-27.781 36.619-27.781h475.422c15.153 0 28.412 8.84 34.725 22.729l172.995 397.764c5.052 11.995 3.788 25.254-3.158 35.988s-18.941 17.047-31.569 17.047h-525.298c-20.835 0-37.882-17.047-37.882-37.882s17.047-37.882 37.882-37.882h467.215l-140.164-321.999h-421.757l-154.684 559.394c-4.419 16.416-19.572 27.781-36.619 27.781h-137.009c-20.835 0-37.882-17.047-37.882-37.882s17.047-37.882 37.882-37.882zM301.795-16.69c47.353 0 85.866 38.513 85.866 85.866s-38.513 85.866-85.866 85.866-85.866-38.511-85.866-85.863 38.513-85.868 85.866-85.868zM838.462-16.69c1.894 0 4.419 0 6.313 0 22.729 1.894 43.565 11.995 58.718 29.675 15.153 17.047 22.099 39.146 20.835 62.506-3.158 46.722-44.195 82.71-91.548 79.553s-82.71-44.828-79.553-91.548c3.155-44.828 40.407-80.186 85.235-80.186z" />
<glyph unicode="&#xe92a;" glyph-name="pieces" d="M950.893 445.644c-4.774 13.053-19.222 19.749-32.204 14.96l-235.231-86.163 190.147 189.998c4.709 4.684 7.337 11.085 7.337 17.759 0 6.646-2.632 13.038-7.337 17.762l-147.087 147.171c-9.808 9.808-25.698 9.808-35.506 0l-186.492-186.362 104.595 248.111c2.582 6.138 2.616 13.053 0.13 19.216-2.517 6.162-7.371 11.082-13.518 13.658l-191.706 80.834c-12.793 5.453-27.52-0.623-32.899-13.379l-103.296-245.039v260.895c0 13.862-11.246 25.109-25.109 25.109h-217.609c-13.862 0-25.109-11.246-25.109-25.109v-954.13c0-13.862 11.246-25.109 25.109-25.109h217.609c3.066 0 5.976 0.639 8.689 1.634 2.715-0.98 5.543-1.634 8.484-1.634 2.886 0 5.794 0.49 8.639 1.538l738.989 270.734c13.010 4.774 19.712 19.191 14.938 32.204l-71.563 195.342zM148.429-3.956h-98.212v903.912h167.391v-903.915h-69.179zM553.095 805.244l-285.269-676.676v406.32l139.821 331.652 145.447-61.296zM352.275 199.644l100.534 238.464 255.926 255.755 111.6-111.65-530.097-529.74 62.037 147.171zM333.394 24.603l265.569 265.389 313.418 114.818 54.287-148.2-633.275-232.007zM133.913 99.275c-1.104 0-2.142-0.245-3.211-0.313-9.408-0.849-17.728-5.183-23.689-11.832-3.931-4.383-6.832-9.712-8.27-15.629-0.654-2.746-1.104-5.558-1.104-8.5 0-7.976 2.647-15.267 6.996-21.249 6.593-9.055 17.204-15.006 29.278-15.006 1.755 0 3.432 0.26 5.124 0.524 7.241 1.029 13.769 4.169 18.962 8.828 2.508 2.257 4.721 4.805 6.528 7.684 2.976 4.709 4.789 10.167 5.304 16.020 0.099 1.079 0.319 2.126 0.319 3.221 0.037 20.022-16.203 36.253-36.237 36.253z" />
<glyph unicode="&#xe92b;" glyph-name="cash" d="M383.293 303.931l167.051-50.647c-0.213-1.064-0.638-2.341-1.064-3.405-4.469-12.13-13.619-18.94-28.516-21.28-54.903-8.725-145.983-3.192-146.834-3.192-14.045 0.851-26.175-9.789-27.026-23.834s9.789-26.175 23.834-27.026c4.043-0.213 97.464-5.958 158.113 3.83 60.223 9.576 77.46 62.564 74.268 95.974-1.064 10.427-8.087 19.152-18.088 22.132l-187.054 56.606c-92.357 27.877-193.651-23.621-197.907-25.749-0.426-0.213-1.064-0.426-1.49-0.851l-186.203-112.573c-12.13-7.235-15.96-22.983-8.725-35.113 4.894-7.874 13.194-12.343 21.919-12.343 4.469 0 8.938 1.277 13.194 3.618l185.352 111.722c8.087 4.256 89.59 43.199 159.177 22.132zM1020.853 346.704c-14.683 26.813-60.436 69.587-129.81 38.943-65.543-29.154-204.079-95.762-205.568-96.4-12.768-6.171-18.088-21.28-11.917-34.049s21.493-18.088 34.049-11.917c1.49 0.638 139.174 67.033 204.079 95.762 18.514 8.299 34.049 8.299 47.455 0 0.426-0.213 0.638-0.426 1.064-0.638l-347.083-254.3c-24.685-18.088-55.967-25.536-85.973-20.855l-309.629 49.37c-7.235 1.064-14.683-0.851-20.429-5.533l-78.312-65.331c-10.853-8.938-12.343-25.111-3.192-35.964 5.107-5.958 12.343-9.151 19.578-9.151 5.746 0 11.491 1.915 16.386 5.958l69.374 57.883 298.351-47.668c43.412-7.023 88.739 4.043 124.277 30.005l370.278 271.112c10.002 7.661 13.194 21.493 7.023 32.772zM547.79 376.071c39.794 0 77.035 15.535 105.338 43.625 58.095 58.095 58.095 152.367 0 210.463-28.090 28.090-65.543 43.625-105.338 43.625s-77.035-15.535-105.338-43.625c-58.095-58.095-58.095-152.367 0-210.463 28.303-28.090 65.543-43.625 105.338-43.625zM478.629 593.982c18.514 18.514 42.986 28.728 69.161 28.728s50.647-10.215 69.161-28.728c38.092-38.092 38.092-100.23 0-138.322-18.514-18.514-42.986-28.728-69.161-28.728s-50.647 10.215-69.161 28.728c-38.092 38.092-38.092 100.23 0 138.322zM722.502 666.974c31.069 0 60.223 12.13 82.142 34.049 45.327 45.327 45.327 118.957 0 164.284-21.919 21.919-51.073 34.049-82.142 34.049s-60.223-12.13-82.142-34.049c-45.327-45.327-45.327-118.957 0-164.284 21.919-22.132 51.286-34.049 82.142-34.049zM676.537 829.13c12.343 12.343 28.728 19.152 46.178 19.152s33.836-6.81 46.178-19.152c25.324-25.324 25.324-66.82 0-92.144-12.343-12.343-28.728-19.152-46.178-19.152s-33.836 6.81-46.178 19.152c-25.324 25.536-25.324 66.82 0 92.144z" />
<glyph unicode="&#xe92c;" glyph-name="like" d="M348.591 542.494c0 13.952-11.415 25.367-25.367 25.367h-203.363c-13.952 0-25.367-11.415-25.367-25.367s11.415-25.367 25.367-25.367h203.363c13.952 0 25.367 11.415 25.367 25.367zM904.139 567.861h-203.363c-13.952 0-25.367-11.415-25.367-25.367s11.415-25.367 25.367-25.367h203.363c13.952 0 25.367 11.415 25.367 25.367s-11.204 25.367-25.367 25.367zM512 705.903c13.952 0 25.367 11.415 25.367 25.367v203.363c0 13.952-11.415 25.367-25.367 25.367s-25.367-11.415-25.367-25.367v-203.363c0-13.952 11.415-25.367 25.367-25.367zM645.391 650.517c6.553 0 12.895 2.537 17.969 7.399l143.96 143.96c9.936 9.936 9.936 26.002 0 35.937s-26.002 9.936-35.937 0l-143.96-143.96c-9.936-9.936-9.936-26.002 0-35.937 5.073-4.862 11.627-7.399 17.969-7.399zM360.641 657.916c4.862-4.862 11.415-7.399 17.969-7.399s12.895 2.537 17.969 7.399c9.936 9.936 9.936 26.002 0 35.937l-143.96 143.96c-9.936 9.936-26.002 9.936-35.937 0s-9.936-26.002 0-35.937l143.96-143.96zM816.832 382.467c-19.237 16.489-43.547 25.579-68.281 25.579h-145.229v102.527c0 49.044-14.586 84.77-43.547 106.121-45.661 33.4-107.6 14.586-110.348 13.741-10.57-3.382-17.757-13.107-17.757-24.099v-123.666c0-37.628-17.969-69.549-53.694-95.128-27.059-19.448-54.751-28.327-58.345-29.384l-2.537-0.634c-9.513 10.781-23.465 17.546-39.108 17.546h-96.396c-28.75 0-52.215-23.465-52.215-52.215v-316.248c0-28.75 23.465-52.215 52.215-52.215h96.819c12.684 0 24.522 4.651 33.4 12.261 19.448-19.026 45.873-30.652 74.411-30.652h302.93c30.441 0 57.288 7.399 77.794 21.14 26.213 17.757 42.491 45.873 47.141 81.81l39.108 243.105c6.13 37.628-7.822 76.102-36.36 100.413zM279.888 6.606c0-0.846-0.634-1.48-1.48-1.48h-96.819c-0.846 0-1.48 0.634-1.48 1.48v316.248c0 0.846 0.634 1.48 1.48 1.48h96.819c0.846 0 1.48-0.634 1.48-1.48v-316.248zM803.092 289.876l-39.108-243.528c0-0.211 0-0.634-0.211-1.057-1.691-14.586-7.187-58.768-74.623-58.768h-302.93c-27.059 0-50.735 20.294-54.963 47.141-0.211 1.057-0.423 2.114-0.634 2.96v271.855l1.48 0.423c0.423 0 0.634 0.211 1.057 0.211 1.48 0.423 37.417 10.57 73.143 36.149 49.678 35.303 76.102 82.867 76.102 137.407v102.738c13.952 1.48 33.189 0.846 47.353-9.513 15.22-11.204 22.831-33.189 22.831-65.11v-127.894c0-13.952 11.415-25.367 25.367-25.367h170.596c12.684 0 25.156-4.862 35.303-13.318 15.22-13.107 22.408-33.823 19.237-54.329z" />
<glyph unicode="&#xe92d;" glyph-name="delivery" d="M848.173 267.747c-17.682 0-32.068-14.387-32.068-32.068 0-17.684 14.385-32.070 32.068-32.070s32.070 14.385 32.070 32.070c0.002 17.68-14.387 32.068-32.070 32.068zM211.214 267.747c-17.682 0-32.070-14.387-32.070-32.068 0-17.684 14.387-32.070 32.070-32.070s32.070 14.385 32.070 32.070c0 17.68-14.387 32.068-32.070 32.068zM982.628 477.166l-122.010 54.229-89.311 193.507c-11.346 24.586-36.176 40.471-63.255 40.471h-656.079c-28.66 0-51.974-23.314-51.974-51.974v-442.335c0-28.656 23.314-51.972 51.974-51.972h55.509c7.977-50.072 51.45-88.467 103.731-88.467s95.754 38.396 103.731 88.467h429.494c7.979-50.072 51.45-88.467 103.731-88.467s95.754 38.396 103.731 88.467h20.122c28.658 0 51.974 23.316 51.974 51.972v142.44c0.004 27.505-16.237 52.494-41.37 63.662zM772.231 643.731l50.018-108.372h-152.113v108.372h102.095zM211.214 163.799c-39.633 0-71.879 32.246-71.879 71.881s32.246 71.879 71.879 71.879 71.879-32.244 71.879-71.879-32.246-71.881-71.879-71.881zM848.173 163.799c-39.633 0-71.879 32.244-71.879 71.881 0 39.635 32.246 71.879 71.879 71.879 39.635 0 71.881-32.244 71.881-71.879s-32.246-71.881-71.881-71.881zM990.829 323.039h-18.801c-9.161 0-16.589-7.424-16.589-16.589s7.428-16.589 16.589-16.589h18.801v-18.801c0-10.365-8.434-18.799-18.801-18.799h-20.122c-7.979 50.072-51.45 88.465-103.731 88.465s-95.754-38.394-103.731-88.465h-429.498c-7.979 50.072-51.45 88.465-103.731 88.465s-95.754-38.394-103.731-88.465h-55.509c-10.367 0-18.799 8.434-18.799 18.799v18.801h54.186c9.161 0 16.587 7.424 16.587 16.589s-7.426 16.589-16.587 16.589h-54.186v390.359c0 10.367 8.434 18.799 18.799 18.799h656.079c14.184 0 27.189-8.321 33.135-21.199l15.737-34.093h-156.455c-18.903 0-34.279-15.376-34.279-34.279v-70.775c0-38.414 31.252-69.667 69.667-69.667h208.8l103.008-45.781-2.609-1.583c-15.419-9.361-25-26.386-25-44.425v-33.167c0-9.163 7.426-16.589 16.589-16.589h54.186v-37.599zM636.961 643.731v-108.372h-1.106c-20.122 0-36.491 16.37-36.491 36.491v70.775c0 0.608 0.494 1.106 1.106 1.106h36.491zM990.829 393.812h-37.599v16.581c0 6.525 3.465 12.679 9.042 16.071l19.057 11.569c5.986-6.597 9.503-15.286 9.503-24.527v-19.694zM724.322 323.039h-389.255c-9.161 0-16.589-7.424-16.589-16.589s7.426-16.589 16.589-16.589h389.253c9.161 0 16.587 7.424 16.587 16.589s-7.424 16.589-16.585 16.589z" />
<glyph unicode="&#xe92e;" glyph-name="home" d="M512.001 690.953l-365.205-301.073c0-0.425-0.107-1.050-0.32-1.902-0.209-0.845-0.32-1.459-0.32-1.895v-304.868c0-11.008 4.024-20.547 12.071-28.58 8.044-8.038 17.57-12.082 28.58-12.082h243.888v243.902h162.615v-243.911h243.886c11.008 0 20.547 4.036 28.58 12.091 8.047 8.024 12.084 17.57 12.084 28.58v304.868c0 1.691-0.231 2.968-0.641 3.797l-365.219 301.073zM1016.937 458.479l-139.090 115.597v259.143c0 5.924-1.904 10.796-5.726 14.609-3.791 3.809-8.663 5.713-14.6 5.713h-121.946c-5.931 0-10.801-1.904-14.616-5.713-3.806-3.813-5.708-8.687-5.708-14.609v-123.853l-154.974 129.575c-13.535 11.010-29.628 16.514-48.262 16.514-18.631 0-34.722-5.504-48.27-16.514l-456.687-380.462c-4.234-3.381-6.554-7.933-6.985-13.65-0.429-5.713 1.050-10.703 4.443-14.934l39.379-47.002c3.393-3.809 7.833-6.138 13.339-6.99 5.083-0.427 10.167 1.059 15.25 4.445l439.52 366.493 439.524-366.491c3.395-2.954 7.833-4.429 13.339-4.429h1.909c5.497 0.836 9.929 3.181 13.339 6.981l39.383 46.996c3.386 4.24 4.87 9.221 4.429 14.941-0.434 5.702-2.763 10.253-6.988 13.642z" />
<glyph unicode="&#xe92f;" glyph-name="parameters_6" horiz-adv-x="939" d="M754.688 533.402l181.043 263.373c3.686 5.325 3.891 12.083 1.024 17.613s-8.806 9.216-15.155 9.216h-512v68.198c0 9.421-7.578 16.998-16.998 16.998h-358.4v34.202c0 9.421-7.578 16.998-16.998 16.998s-16.998-7.578-16.998-16.998v-990.003c0-9.421 7.578-16.998 16.998-16.998s16.998 7.578 16.998 16.998v426.803h188.211c-10.854-14.336-17.408-31.949-17.408-51.2 0-47.104 38.298-85.402 85.402-85.402h631.398c6.349 0 12.083 3.482 15.155 9.216 2.867 5.53 2.458 12.493-1.024 17.613l-181.248 263.373zM34.202 874.598h341.402v-460.8h-341.402v460.8zM290.202 277.402c-28.262 0-51.2 22.938-51.2 51.2s22.938 51.2 51.2 51.2h102.4c9.421 0 16.998 7.578 16.998 16.998v392.602h479.642l-169.37-246.374c-4.096-5.734-4.096-13.517 0-19.251l169.37-246.374h-599.040z" />
</font>
</defs>
</svg>
