<?xml version="1.0" standalone="no"?>
<!DOCTYPE svg PUBLIC "-//W3C//DTD SVG 1.1//EN" "http://www.w3.org/Graphics/SVG/1.1/DTD/svg11.dtd" >
<svg xmlns="http://www.w3.org/2000/svg">
<metadata></metadata>
<defs>
<font id="proxima_nova_rgbold" horiz-adv-x="1267" >
<font-face units-per-em="2048" ascent="1618" descent="-430" />
<missing-glyph horiz-adv-x="560" />
<glyph unicode="ffj" horiz-adv-x="1986" d="M25 815v243h174v57q0 168 98.5 268t258.5 100q83 0 156 -23.5t120 -74.5l-104 -164q-44 44 -117 44q-59 0 -95 -39t-36 -111v-57h214v-243h-214v-815h-281v815h-174zM740 815v243h176v57q0 170 99 269t258 99q121 0 201 -43l-56 -202q-38 27 -90 27q-61 0 -96.5 -39.5 t-35.5 -110.5v-57h215v-243h-215v-815h-280v815h-176zM1209 -355l77 208q34 -28 65.5 -41t76.5 -13q67 0 106 43t39 129v1087h279v-1087q0 -186 -95.5 -293t-282.5 -107q-96 0 -150 16t-115 58zM1545 1338.5q0 68.5 49 116.5t117 48q69 0 118 -48t49 -116.5t-49 -117 t-118 -48.5q-68 0 -117 48.5t-49 117z" />
<glyph unicode="fj" horiz-adv-x="1270" d="M25 815v243h174v57q0 170 99 269t258 99q122 0 203 -43l-58 -202q-38 27 -90 27q-60 0 -95.5 -39.5t-35.5 -110.5v-57h214v-243h-214v-815h-281v815h-174zM491 -355l76 208q33 -28 65.5 -41t77.5 -13q67 0 106 43t39 129v1087h278v-1087q0 -186 -95.5 -293t-281.5 -107 q-95 0 -149.5 16t-115.5 58zM826 1338.5q0 68.5 49.5 116.5t117.5 48q69 0 117.5 -48t48.5 -116.5t-48.5 -117t-117.5 -48.5q-68 0 -117.5 48.5t-49.5 117z" />
<glyph unicode="ff" horiz-adv-x="1434" d="M25 815v243h174v57q0 168 98.5 268t258.5 100q83 0 156 -23.5t120 -74.5l-104 -164q-44 44 -117 44q-59 0 -95 -39t-36 -111v-57h214v-243h-214v-815h-281v815h-174zM740 815v243h176v57q0 168 98 268t259 100q83 0 156 -23.5t120 -74.5l-105 -164q-43 44 -116 44 q-60 0 -96 -39t-36 -111v-57h215v-243h-215v-815h-280v815h-176z" />
<glyph unicode="fi" horiz-adv-x="1270" d="M25 815v243h174v57q0 170 99 269t258 99q122 0 203 -43l-58 -202q-38 27 -90 27q-60 0 -95.5 -39.5t-35.5 -110.5v-57h214v-243h-214v-815h-281v815h-174zM826 1338.5q0 68.5 49.5 116.5t117.5 48q69 0 117.5 -48t48.5 -116.5t-48.5 -117t-117.5 -48.5q-68 0 -117.5 48.5 t-49.5 117zM855 0v1058h278v-1058h-278z" />
<glyph unicode="fl" horiz-adv-x="1270" d="M25 815v243h174v57q0 170 99 269t258 99q122 0 203 -43l-58 -202q-38 27 -90 27q-60 0 -95.5 -39.5t-35.5 -110.5v-57h214v-243h-214v-815h-281v815h-174zM855 0v1462h278v-1462h-278z" />
<glyph unicode="ffi" horiz-adv-x="1986" d="M25 815v243h174v57q0 168 98.5 268t258.5 100q83 0 156 -23.5t120 -74.5l-104 -164q-44 44 -117 44q-59 0 -95 -39t-36 -111v-57h214v-243h-214v-815h-281v815h-174zM740 815v243h176v57q0 170 99 269t258 99q121 0 201 -43l-56 -202q-38 27 -90 27q-61 0 -96.5 -39.5 t-35.5 -110.5v-57h215v-243h-215v-815h-280v815h-176zM1545 1338.5q0 68.5 49 116.5t117 48q69 0 118 -48t49 -116.5t-49 -117t-118 -48.5q-68 0 -117 48.5t-49 117zM1573 0v1058h279v-1058h-279z" />
<glyph unicode="ffl" horiz-adv-x="1986" d="M25 815v243h174v57q0 168 98.5 268t258.5 100q83 0 156 -23.5t120 -74.5l-104 -164q-44 44 -117 44q-59 0 -95 -39t-36 -111v-57h214v-243h-214v-815h-281v815h-174zM740 815v243h176v57q0 170 99 269t258 99q121 0 201 -43l-56 -202q-38 27 -90 27q-61 0 -96.5 -39.5 t-35.5 -110.5v-57h215v-243h-215v-815h-280v815h-176zM1573 0v1462h279v-1462h-279z" />
<glyph unicode="fb" horiz-adv-x="1997" d="M25 815v243h174v57q0 170 99 269t258 99q122 0 203 -43l-58 -202q-38 27 -90 27q-60 0 -95.5 -39.5t-35.5 -110.5v-57h214v-243h-214v-815h-281v815h-174zM855 0v1462h278v-540q62 80 146.5 121.5t179.5 41.5q101 0 187.5 -38.5t148.5 -109t97.5 -176t35.5 -232.5 q0 -130 -35.5 -235.5t-98.5 -175.5t-148.5 -107.5t-186.5 -37.5q-95 0 -179 42t-147 121v-136h-278zM1133 339q35 -50 103 -84t136 -34q122 0 195.5 84.5t73.5 223t-74 223.5t-195 85q-68 0 -136.5 -35t-102.5 -87v-376z" />
<glyph unicode="fh" horiz-adv-x="1986" d="M25 815v243h174v57q0 170 99 269t258 99q122 0 203 -43l-58 -202q-38 27 -90 27q-60 0 -95.5 -39.5t-35.5 -110.5v-57h214v-243h-214v-815h-281v815h-174zM855 0v1462h278v-542q57 69 154.5 117t217.5 48q171 0 258 -87.5t87 -246.5v-751h-279v644q0 105 -50.5 149 t-146.5 44q-75 0 -138 -36t-103 -88v-713h-278z" />
<glyph unicode="fk" horiz-adv-x="1890" d="M25 815v243h174v57q0 170 99 269t258 99q122 0 203 -43l-58 -202q-38 27 -90 27q-60 0 -95.5 -39.5t-35.5 -110.5v-57h214v-243h-214v-815h-281v815h-174zM855 0v1462h278v-875l401 471h342l-419 -479l432 -579h-348l-281 408l-127 -136v-272h-278z" />
<glyph unicode="&#xd;" horiz-adv-x="0" />
<glyph unicode=" "  horiz-adv-x="560" />
<glyph unicode="&#x09;" horiz-adv-x="560" />
<glyph unicode="&#xa0;" horiz-adv-x="560" />
<glyph unicode="!" horiz-adv-x="560" d="M105 153q0 72 51.5 125t124 53t125 -53t52.5 -125q0 -71 -53 -122.5t-125 -51.5t-123.5 51.5t-51.5 122.5zM111 1462h336l-44 -987h-246z" />
<glyph unicode="&#x22;" horiz-adv-x="889" d="M96 1332q0 63 44.5 107t106.5 44t107 -44.5t45 -106.5q0 -18 -22.5 -146t-44.5 -246l-23 -118h-123q-90 469 -90 510zM493 1332q0 63 44.5 107t106.5 44q63 0 106 -44t43 -107q0 -18 -22.5 -146t-45.5 -246l-22 -118h-120q-90 469 -90 510z" />
<glyph unicode="#" horiz-adv-x="1353" d="M37 370l57 178h215l118 364h-214l55 175h221l122 375h206l-123 -375h207l122 375h209l-128 -375h213l-52 -175h-220l-121 -364h222l-55 -178h-225l-123 -370h-208l126 370h-207l-126 -370h-205l124 370h-210zM515 548h204l120 364h-206z" />
<glyph unicode="$" horiz-adv-x="1344" d="M65 207l169 236q66 -69 154.5 -119t194.5 -69v345q-56 14 -97.5 26.5t-94 33t-89.5 43t-75.5 56t-62 72.5t-38.5 92.5t-15 115.5q0 83 32.5 158t92.5 133.5t149.5 97.5t197.5 51v204h208v-209q260 -28 445 -194l-173 -228q-112 102 -272 142v-309q56 -14 98 -26.5 t94.5 -33.5t91 -44t77 -56.5t63 -73t39.5 -93t15 -115.5q0 -92 -30 -170.5t-88.5 -139.5t-150.5 -100.5t-209 -51.5v-200h-208v198q-320 26 -518 228zM429 1065q0 -45 39.5 -74t114.5 -50v266q-73 -10 -113.5 -48t-40.5 -94zM791 255q77 15 119.5 57.5t42.5 95.5 q0 50 -41 82t-121 58v-293z" />
<glyph unicode="%" horiz-adv-x="1658" d="M57 1115q0 103 45 186.5t130.5 132.5t194.5 49q110 0 196 -49t131.5 -132.5t45.5 -186.5q0 -155 -103 -257t-270 -102q-165 0 -267.5 102t-102.5 257zM255 1115q0 -84 48.5 -136t123.5 -52q76 0 124.5 52t48.5 136q0 91 -48 143.5t-125 52.5q-76 0 -124 -53t-48 -143z M285 0l934 1462h166l-936 -1462h-164zM861 335q0 103 45.5 186.5t130.5 132.5t194.5 49t195 -49t131.5 -132.5t46 -186.5q0 -76 -27 -142.5t-75 -115t-118 -76.5t-152 -28q-110 0 -195 48t-130.5 130t-45.5 184zM1058 335q0 -88 48.5 -139.5t125.5 -51.5t126 52t49 139 q0 89 -49.5 142.5t-125.5 53.5q-77 0 -125.5 -53.5t-48.5 -142.5z" />
<glyph unicode="&#x26;" horiz-adv-x="1415" d="M52 397q0 64 17.5 120.5t45 99t69.5 81t85 65.5t97 54q-96 182 -96 316q0 98 53.5 178t149.5 126t215 46q105 0 191 -35.5t139 -107t53 -165.5q0 -47 -11 -88.5t-28 -74t-46 -63.5t-56 -53t-68 -46t-72.5 -39.5t-76.5 -36.5q61 -83 126 -159q24 -30 68.5 -83.5 t54.5 -64.5q88 135 134 282l223 -103q-90 -201 -204 -353q132 -141 283 -293h-355q-56 52 -110 109q-178 -136 -398 -136q-102 0 -188.5 27t-152.5 78.5t-104 133.5t-38 185zM349 423q0 -104 66 -167t160 -63q107 0 209 75q-114 127 -161 186q-80 97 -148 192 q-126 -89 -126 -223zM548 1127q0 -79 63 -198q51 24 87 46t68 50t48 61.5t16 72.5q0 56 -36.5 89.5t-92.5 33.5q-65 0 -109 -44t-44 -111z" />
<glyph unicode="'" horiz-adv-x="492" d="M96 1332q0 63 44.5 107t106.5 44t107 -44.5t45 -106.5q0 -18 -22.5 -146t-44.5 -246l-23 -118h-123q-90 469 -90 510z" />
<glyph unicode="(" horiz-adv-x="650" d="M90 533q0 265 93.5 526.5t253.5 441.5l174 -131q-114 -208 -167 -403t-53 -434q0 -240 53 -434.5t167 -399.5l-174 -136q-160 179 -253.5 441.5t-93.5 528.5z" />
<glyph unicode=")" horiz-adv-x="650" d="M37 -301q117 203 170.5 398t53.5 436q0 240 -53.5 435t-170.5 402l176 131q161 -180 255.5 -441.5t94.5 -526.5q0 -266 -94.5 -528.5t-255.5 -441.5z" />
<glyph unicode="*" horiz-adv-x="768" d="M55 1033l213 109l-213 109l68 121l203 -130l-10 241h138l-11 -241l201 130l71 -121l-213 -109l213 -109l-71 -119l-201 129l11 -241h-138l10 241l-203 -129z" />
<glyph unicode="+" horiz-adv-x="1104" d="M63 653v173h395v427h190v-427h393v-173h-393v-444h-190v444h-395z" />
<glyph unicode="," horiz-adv-x="560" d="M103 155q0 72 51 124t120 52q81 0 139 -61t58 -163q0 -120 -61 -226.5t-165 -181.5l-120 100q55 29 105.5 89t62.5 116q-19 -6 -40 -6q-64 0 -107 44t-43 113z" />
<glyph unicode="-" horiz-adv-x="656" d="M65 412v236h527v-236h-527z" />
<glyph unicode="." horiz-adv-x="560" d="M103 153q0 72 52.5 125t125 53t125 -53t52.5 -125t-52.5 -125t-125 -53t-125 53t-52.5 125z" />
<glyph unicode="/" horiz-adv-x="720" d="M0 -44l519 1549h202l-520 -1549h-201z" />
<glyph unicode="0" horiz-adv-x="1357" d="M75 729.5q0 115.5 22 223.5t70.5 204.5t118 168.5t171 114.5t222.5 42.5q122 0 223 -42.5t170.5 -114.5t118 -168.5t71 -204.5t22.5 -223.5t-22.5 -223.5t-71 -205.5t-118 -170t-171 -115t-222.5 -42.5t-222.5 43t-171 115t-118 169.5t-70.5 205.5t-22 223.5zM391 729.5 q0 -104.5 15.5 -189t49 -151.5t90.5 -103.5t133 -36.5t132.5 36.5t90 103t49 151.5t15.5 189.5t-15.5 189t-49 150.5t-89.5 102t-133 36q-76 0 -133 -36t-90.5 -102t-49 -150.5t-15.5 -189z" />
<glyph unicode="1" horiz-adv-x="899" d="M25 999l460 463h271v-1462h-311v1060l-244 -247z" />
<glyph unicode="2" horiz-adv-x="1313" d="M71 1244q102 119 252 179t310 60q117 0 219 -32.5t177.5 -91.5t119 -147.5t43.5 -195.5q0 -92 -37 -181t-114.5 -181t-181.5 -182t-252 -198h596v-274h-1100v243q139 103 232 173.5t181.5 141t142.5 120t100 98t69.5 87.5t35.5 76.5t12 76.5q0 61 -34.5 105.5t-87 65 t-114.5 20.5q-232 0 -393 -168z" />
<glyph unicode="3" horiz-adv-x="1286" d="M44 209l163 207q74 -77 183.5 -122t218.5 -45q130 0 203 52t73 136q0 87 -70.5 127.5t-222.5 40.5q-139 0 -182 -5v281q27 -3 182 -3q126 0 197.5 39.5t71.5 117.5q0 84 -75.5 128t-195.5 44q-213 0 -371 -151l-156 195q95 107 235.5 169.5t324.5 62.5 q255 0 403.5 -106.5t148.5 -289.5q0 -67 -27 -125.5t-72.5 -99.5t-102 -69t-118.5 -39q46 -4 92.5 -20.5t91.5 -46.5t80 -69.5t56 -95t21 -119.5q0 -191 -157 -310.5t-418 -119.5q-193 0 -342.5 65.5t-234.5 170.5z" />
<glyph unicode="4" horiz-adv-x="1307" d="M55 303v245l581 914h429v-885h188v-274h-188v-303h-311v303h-699zM360 577h394v609z" />
<glyph unicode="5" horiz-adv-x="1332" d="M107 193l173 217q75 -78 175 -119.5t214 -41.5q126 0 199 62.5t73 155.5q0 98 -70 157.5t-194 59.5q-182 0 -307 -119l-217 58v839h1004v-274h-693v-358q56 56 141 89.5t181 33.5q93 0 178 -32.5t150 -92t103.5 -150t38.5 -198.5q0 -153 -72.5 -268.5t-205 -177 t-307.5 -61.5q-362 0 -564 220z" />
<glyph unicode="6" horiz-adv-x="1332" d="M75 728q0 165 46.5 304t132.5 239t215 156t287 56q129 0 239.5 -40.5t192.5 -110.5l-140 -238q-62 58 -129.5 85.5t-162.5 27.5q-105 0 -189 -55t-130 -149.5t-46 -209.5q0 -19 2 -30q53 78 156 133t218 55q100 0 189 -31t158.5 -89.5t110 -150.5t40.5 -205 q0 -106 -41 -198.5t-113.5 -159.5t-177.5 -105.5t-228 -38.5q-130 0 -236 39t-178.5 107.5t-121.5 164.5t-71.5 206.5t-22.5 237.5zM393 546q4 -44 15.5 -85t35 -80t56 -68t81 -46.5t107.5 -17.5q61 0 111.5 19t82.5 50t49.5 69t17.5 77q0 56 -22.5 99t-61 69t-86.5 39 t-102 13q-82 0 -156.5 -36.5t-127.5 -101.5z" />
<glyph unicode="7" horiz-adv-x="1194" d="M52 1188v274h1098v-218l-543 -1244h-342l524 1188h-737z" />
<glyph unicode="8" horiz-adv-x="1327" d="M77 379q0 128 88 227.5t226 147.5q-64 23 -115 53t-91 71.5t-62 97.5t-22 122q0 79 32.5 144.5t87 109.5t128 74t153 43.5t162.5 13.5q84 0 163 -13.5t152 -43.5t128 -74t87.5 -109.5t32.5 -144.5q0 -66 -22 -122t-63 -97.5t-92 -71.5t-115 -53q138 -48 227 -147.5 t89 -227.5q0 -80 -31.5 -146.5t-86.5 -114t-129.5 -80.5t-160 -49t-179 -16t-179 15.5t-160.5 48.5t-130 80.5t-86.5 114.5t-31.5 147zM393 418q0 -79 77.5 -128t193.5 -49q115 0 193 49.5t78 127.5q0 35 -19.5 66t-49.5 52.5t-68 38t-71 25.5t-63 13q-30 -4 -63.5 -13 t-71.5 -25.5t-67.5 -38t-49 -52.5t-19.5 -66zM416 1050q0 -39 25.5 -71t66 -52.5t79.5 -32.5t77 -18q38 6 77 18t79 32.5t65 52.5t25 71q0 77 -68.5 122t-177.5 45q-110 0 -179 -45t-69 -122z" />
<glyph unicode="9" horiz-adv-x="1332" d="M65 984q0 106 41.5 198.5t114.5 159.5t178 105.5t228 38.5q130 0 235.5 -39t178 -107.5t121.5 -164.5t71.5 -207.5t22.5 -237.5q0 -165 -46 -304t-131.5 -239t-214 -156t-287.5 -56q-130 0 -240.5 40.5t-189.5 111.5l138 239q61 -58 129.5 -85.5t162.5 -27.5 q87 0 158 34.5t115.5 92.5t68.5 131t24 153v33q-57 -79 -160 -134t-218 -55q-80 0 -153.5 19.5t-136.5 59t-109.5 95.5t-73.5 133.5t-27 168.5zM383 995q0 -55 23 -98.5t61.5 -69t85.5 -38.5t100 -13q82 0 158.5 36t129.5 100q-5 44 -16.5 84.5t-35 80t-56.5 68.5t-82 46.5 t-109 17.5t-110.5 -19t-82 -50t-49 -68.5t-17.5 -76.5z" />
<glyph unicode=":" horiz-adv-x="549" d="M103 153q0 72 52.5 125t125 53t125 -53t52.5 -125t-52.5 -125t-125 -53t-125 53t-52.5 125zM103 896.5q0 72.5 52.5 125t125 52.5t125 -52.5t52.5 -125t-52.5 -125t-125 -52.5t-125 52.5t-52.5 125z" />
<glyph unicode=";" horiz-adv-x="560" d="M103 163q0 71 50.5 121.5t120.5 50.5q81 0 139 -60.5t58 -163.5q0 -120 -61 -226t-165 -180l-120 98q55 31 105.5 91.5t62.5 116.5q-25 -9 -40 -9q-64 0 -107 45.5t-43 115.5zM103 897q0 72 52.5 124.5t125 52.5t125 -52.5t52.5 -124.5q0 -71 -53 -124.5t-125 -53.5 t-124.5 53.5t-52.5 124.5z" />
<glyph unicode="&#x3c;" horiz-adv-x="1104" d="M63 633v199l978 439v-206l-778 -333l778 -329v-206z" />
<glyph unicode="=" horiz-adv-x="1104" d="M63 441v170h978v-170h-978zM63 851v174h978v-174h-978z" />
<glyph unicode="&#x3e;" horiz-adv-x="1104" d="M63 197v206l778 329l-778 333v206l978 -439v-199z" />
<glyph unicode="?" horiz-adv-x="998" d="M19 1271q87 102 213 157t268 55q209 0 332.5 -95.5t123.5 -250.5q0 -65 -20.5 -119.5t-52.5 -93t-71 -71t-78.5 -60.5t-71.5 -54.5t-52 -59.5t-20 -70q0 -26 11 -51.5t28 -40.5l-238 -70q-73 80 -73 193q0 53 17.5 98.5t46 77.5t62.5 60t68 51.5t62 46.5t46 50.5t18 58.5 q0 54 -43 89t-128 35q-80 0 -148.5 -36t-121.5 -100zM318 153q0 72 52.5 125t125 53t125 -53t52.5 -125t-52.5 -125t-125 -53t-125 53t-52.5 125z" />
<glyph unicode="@" horiz-adv-x="1715" d="M77 535q0 114 33 225.5t91 206t140 175t177.5 137t206 88t222.5 31.5q153 0 283.5 -53.5t219 -145t138 -213.5t49.5 -258q0 -107 -27 -197.5t-71 -153t-101 -106.5t-117 -64.5t-118 -20.5q-93 0 -147.5 47t-64.5 116l-2 13q-59 -81 -143 -128.5t-173 -47.5 q-157 0 -248.5 102.5t-91.5 265.5q0 107 41.5 207t110 172t159 115t184.5 43q95 0 166.5 -40t107.5 -106l25 115h247l-111 -534q-7 -38 -7 -53q0 -49 22 -74t58 -25q34 0 69 21t66.5 61.5t51.5 111.5t20 160q0 129 -43 237.5t-121 185t-191 119.5t-250 43q-101 0 -200.5 -29 t-184.5 -80.5t-157.5 -124t-124 -157.5t-80 -183.5t-28.5 -199.5q0 -127 46.5 -240t128 -194t196.5 -128.5t246 -47.5q210 0 401 121l46 -65q-213 -138 -456 -138q-147 0 -276 53.5t-220.5 145t-144.5 219t-53 270.5zM587 577q0 -86 50 -140t132 -54q137 0 243 143l55 256 q-23 45 -68 79t-110 34q-85 0 -155 -46.5t-108.5 -119t-38.5 -152.5z" />
<glyph unicode="A" horiz-adv-x="1498" d="M-11 0l565 1462h391l563 -1462h-356l-89 247h-626l-92 -247h-356zM521 521h456l-228 629z" />
<glyph unicode="B" horiz-adv-x="1451" d="M144 0v1462h770q101 0 182.5 -31t132.5 -83t78 -118.5t27 -140.5q0 -133 -71.5 -222.5t-179.5 -112.5q118 -18 199 -120.5t81 -238.5q0 -83 -27.5 -154.5t-80 -125.5t-134 -84.5t-183.5 -30.5h-794zM456 270h401q89 0 138.5 45t49.5 124q0 72 -49.5 121t-138.5 49h-401 v-339zM456 876h390q78 0 124 44.5t46 114.5t-46 114.5t-124 44.5h-390v-318z" />
<glyph unicode="C" horiz-adv-x="1504" d="M75 729.5q0 165.5 60 307.5t164 240t247.5 153.5t306.5 55.5q93 0 177 -20t147.5 -53t119.5 -80t95 -96.5t72 -107.5l-268 -132q-47 93 -140 152.5t-203 59.5q-131 0 -236 -62t-163.5 -171.5t-58.5 -246t58.5 -246t163.5 -172t236 -62.5q110 0 203 60t140 153l268 -129 q-34 -58 -73 -107.5t-95 -97.5t-119.5 -81t-147 -53.5t-176.5 -20.5q-163 0 -306.5 55.5t-247.5 154t-164 240t-60 307z" />
<glyph unicode="D" horiz-adv-x="1572" d="M144 0v1462h577q170 0 314 -53t246 -147.5t159 -231.5t57 -300t-57 -299.5t-159 -231t-246 -147t-314 -52.5h-577zM456 274h265q106 0 193.5 36.5t144.5 99t88.5 145t31.5 175.5q0 98 -29.5 181t-86 145t-144.5 97t-198 35h-265v-914z" />
<glyph unicode="E" horiz-adv-x="1276" d="M144 0v1462h1035v-274h-723v-310h707v-273h-707v-331h723v-274h-1035z" />
<glyph unicode="F" horiz-adv-x="1250" d="M144 0v1462h1035v-274h-723v-310h707v-273h-707v-605h-312z" />
<glyph unicode="G" horiz-adv-x="1577" d="M75 730q0 136 39.5 255.5t111.5 210.5t168.5 156.5t213.5 99.5t245 34q110 0 206.5 -26t170 -73t129 -103t98.5 -125l-259 -140q-52 82 -143.5 136t-201.5 54q-131 0 -236 -62t-163.5 -171.5t-58.5 -246t58.5 -246t163.5 -172t236 -62.5q91 0 176 33.5t134 79.5v175h-385 v272h696v-562q-116 -130 -272.5 -203t-348.5 -73q-128 0 -245 34.5t-213.5 100.5t-168.5 157.5t-111.5 211t-39.5 255.5z" />
<glyph unicode="H" horiz-adv-x="1601" d="M144 0v1462h312v-575h690v575h313v-1462h-313v613h-690v-613h-312z" />
<glyph unicode="I" horiz-adv-x="600" d="M144 0v1462h312v-1462h-312z" />
<glyph unicode="J" horiz-adv-x="1064" d="M13 117l136 238q110 -106 232 -106q103 0 165.5 64.5t62.5 171.5v977h311v-982q0 -127 -38 -224.5t-107 -159t-162 -92.5t-207 -31q-247 0 -393 144z" />
<glyph unicode="K" horiz-adv-x="1393" d="M144 0v1462h312v-653l517 653h384l-581 -686l620 -776h-384l-443 585l-113 -136v-449h-312z" />
<glyph unicode="L" horiz-adv-x="1145" d="M144 0v1462h312v-1188h618v-274h-930z" />
<glyph unicode="M" horiz-adv-x="1873" d="M144 0v1462h437l354 -883l355 883h439v-1462h-313v1023l-412 -1023h-136l-412 1023v-1023h-312z" />
<glyph unicode="N" horiz-adv-x="1596" d="M144 0v1462h320l678 -918v918h311v-1462h-301l-696 953v-953h-312z" />
<glyph unicode="O" horiz-adv-x="1675" d="M75 730q0 163 57.5 303.5t158 240t242 156t304.5 56.5q164 0 306 -56.5t243 -156t158.5 -240t57.5 -303.5t-57.5 -304t-158.5 -240.5t-243 -156t-306 -56.5q-163 0 -304.5 56.5t-242 156t-158 240.5t-57.5 304zM395 730q0 -136 53.5 -245t155 -172.5t233.5 -63.5 t234 63.5t156.5 172.5t54.5 245t-54.5 245t-156.5 171.5t-234 62.5t-233.5 -62.5t-155 -171.5t-53.5 -245z" />
<glyph unicode="P" horiz-adv-x="1366" d="M144 0v1462h684q116 0 210.5 -37.5t155 -102t93 -149.5t32.5 -182q0 -96 -32.5 -181.5t-93.5 -150t-155.5 -102.5t-209.5 -38h-372v-519h-312zM456 793h330q94 0 155 54t61 144t-60.5 143.5t-155.5 53.5h-330v-395z" />
<glyph unicode="Q" horiz-adv-x="1675" d="M75 730q0 163 57.5 303.5t158 240t242 156t304.5 56.5q164 0 306 -56.5t243 -156t158.5 -240t57.5 -303.5q0 -153 -49.5 -285t-141.5 -232l107 -125l-216 -178l-119 136q-162 -73 -346 -73q-163 0 -304.5 56.5t-242 156t-158 240.5t-57.5 304zM395 730q0 -136 53.5 -245 t155 -172.5t233.5 -63.5q75 0 154 25l-161 188l215 178l162 -191q75 124 75 281q0 136 -54.5 245t-156.5 171.5t-234 62.5t-233.5 -62.5t-155 -171.5t-53.5 -245z" />
<glyph unicode="R" horiz-adv-x="1408" d="M144 0v1462h684q112 0 205 -35.5t155.5 -98t96.5 -149.5t34 -188q0 -93 -27.5 -171t-74 -130t-101.5 -85.5t-117 -48.5l329 -556h-358l-286 519h-228v-519h-312zM456 793h326q96 0 158 53.5t62 144t-62 144t-158 53.5h-326v-395z" />
<glyph unicode="S" horiz-adv-x="1313" d="M46 207l169 236q84 -88 203.5 -143t260.5 -55q122 0 188 47.5t66 115.5q0 41 -28.5 71t-77.5 49.5t-112 35.5t-132.5 33t-139.5 37.5t-133 54t-111.5 78.5t-77.5 114.5t-29 157.5q0 91 38.5 172t108.5 141.5t175.5 95.5t231.5 35q351 0 571 -203l-174 -228 q-86 79 -197.5 119.5t-227.5 40.5q-98 0 -153 -40t-55 -107q0 -34 23.5 -59.5t63.5 -42t94 -32.5t114 -28.5t124 -31.5t124.5 -40.5t114 -56.5t94 -79t64 -108.5t23.5 -143.5q0 -102 -36.5 -186.5t-107.5 -148.5t-183.5 -99.5t-257.5 -35.5q-388 0 -618 234z" />
<glyph unicode="T" horiz-adv-x="1274" d="M55 1188v274h1166v-274h-426v-1188h-312v1188h-428z" />
<glyph unicode="U" horiz-adv-x="1606" d="M144 583v879h316v-868q0 -157 89.5 -251t255.5 -94q165 0 253 94t88 251v868h318v-877q0 -138 -41 -249.5t-121.5 -192.5t-207 -125.5t-290 -44.5t-290 44.5t-207 126t-122 192.5t-41.5 247z" />
<glyph unicode="V" horiz-adv-x="1498" d="M-11 1462h356l404 -1125l403 1125h356l-563 -1462h-391z" />
<glyph unicode="W" horiz-adv-x="2011" d="M2 1462h349l256 -1056l278 1056h244l276 -1056l253 1056h351l-416 -1462h-330l-257 1004l-255 -1004h-330z" />
<glyph unicode="X" horiz-adv-x="1463" d="M-6 0l529 749l-496 713h370l335 -500l331 500h374l-496 -711l529 -751h-372l-366 535l-368 -535h-370z" />
<glyph unicode="Y" horiz-adv-x="1412" d="M-11 1462h356l363 -588l359 588h355l-559 -864v-598h-311v598z" />
<glyph unicode="Z" horiz-adv-x="1296" d="M92 0v253l690 935h-690v274h1098v-250l-690 -938h705v-274h-1113z" />
<glyph unicode="[" horiz-adv-x="613" d="M103 -416v1902h474v-187h-274v-1529h274v-186h-474z" />
<glyph unicode="\" horiz-adv-x="720" d="M0 1505h201l520 -1549h-202z" />
<glyph unicode="]" horiz-adv-x="613" d="M37 -230h274v1529h-274v187h473v-1902h-473v186z" />
<glyph unicode="^" horiz-adv-x="966" d="M42 730l341 732h204l337 -732h-205l-236 541l-236 -541h-205z" />
<glyph unicode="_" horiz-adv-x="1235" d="M-6 -88h1248v-186h-1248v186z" />
<glyph unicode="`" horiz-adv-x="549" d="M0 1534h255l295 -315h-195z" />
<glyph unicode="a" horiz-adv-x="1189" d="M71 324q0 72 22 130.5t58.5 97t85 65t99 38.5t103.5 12q106 0 194 -34t141 -96v142q0 81 -64 129.5t-169 48.5q-174 0 -309 -125l-105 186q95 83 214.5 125t248.5 42q75 0 140.5 -12t125.5 -41.5t102.5 -74.5t68 -115t25.5 -158v-684h-278v109q-55 -64 -143.5 -100 t-191.5 -36q-52 0 -103.5 13.5t-99.5 42.5t-84.5 69.5t-58.5 99t-22 126.5zM351 318q0 -72 57 -113.5t142 -41.5q70 0 130 23.5t94 68.5v130q-34 45 -94 68.5t-130 23.5q-85 0 -142 -42.5t-57 -116.5z" />
<glyph unicode="b" horiz-adv-x="1284" d="M138 0v1462h278v-540q62 80 147 121.5t180 41.5q100 0 186.5 -38.5t149 -109t98 -176t35.5 -232.5q0 -130 -35.5 -235.5t-98.5 -175.5t-149 -107.5t-186 -37.5q-96 0 -180 42t-147 121v-136h-278zM416 339q35 -50 103 -84t136 -34q122 0 195.5 84.5t73.5 223t-73.5 223.5 t-195.5 85q-68 0 -136 -35t-103 -87v-376z" />
<glyph unicode="c" horiz-adv-x="1092" d="M71 531q0 120 42 223t115.5 175.5t178 114t224.5 41.5q78 0 146.5 -16t119 -43.5t87.5 -60t66 -70.5l-182 -172q-76 114 -224 114q-127 0 -207 -84.5t-80 -221.5q0 -138 80 -224t207 -86q143 0 224 114l182 -168q-29 -40 -66 -72.5t-87.5 -61t-118.5 -44.5t-147 -16 q-121 0 -225 41.5t-177.5 114.5t-115.5 177t-42 225z" />
<glyph unicode="d" horiz-adv-x="1284" d="M71 529q0 127 35 232.5t97.5 176t148.5 109t187 38.5q95 0 180 -41.5t147 -121.5v540h280v-1462h-280v136q-63 -79 -147 -121t-180 -42q-100 0 -185.5 37.5t-148.5 107.5t-98.5 175.5t-35.5 235.5zM357 529q0 -137 75 -222.5t193 -85.5q71 0 138.5 34t102.5 86v376 q-35 53 -102.5 86.5t-138.5 33.5q-119 0 -193.5 -85.5t-74.5 -222.5z" />
<glyph unicode="e" horiz-adv-x="1211" d="M71 531q0 114 40.5 216t112 176.5t174 118t220.5 43.5q157 0 277.5 -73t186.5 -206t66 -304v-61h-786q13 -106 94 -176t211 -70q70 0 151.5 29t130.5 77l122 -180q-77 -71 -193 -109.5t-242 -38.5q-120 0 -224 40t-179.5 111.5t-118.5 176.5t-43 230zM357 629h521 q-2 32 -11.5 63.5t-29.5 62.5t-49 55t-73 38.5t-97 14.5q-61 0 -111 -21t-80 -56.5t-47 -75t-23 -81.5z" />
<glyph unicode="f" horiz-adv-x="715" d="M25 815v243h174v57q0 168 98.5 268t258.5 100q83 0 156 -23.5t120 -74.5l-104 -164q-44 44 -117 44q-59 0 -95 -39t-36 -111v-57h214v-243h-214v-815h-281v815h-174z" />
<glyph unicode="g" horiz-adv-x="1281" d="M71 546q0 127 35 230t97.5 170t148 103t185.5 36q196 0 326 -163v136h281v-985q0 -84 -18 -154.5t-49.5 -121.5t-75.5 -91t-93.5 -65t-107.5 -41t-113.5 -22.5t-114.5 -6.5q-140 0 -249 36t-206 121l124 201q118 -130 331 -130q43 0 82 7.5t78 26.5t67.5 48t46 76.5 t17.5 107.5v108q-63 -80 -146.5 -123.5t-179.5 -43.5q-100 0 -185 35.5t-147.5 102t-98 169.5t-35.5 233zM357 545.5q0 -134.5 74 -212.5t194 -78q68 0 136 34t102 85v343q-34 53 -101.5 86.5t-136.5 33.5q-120 0 -194 -78.5t-74 -213z" />
<glyph unicode="h" horiz-adv-x="1270" d="M138 0v1462h278v-542q57 69 154.5 117t218.5 48q170 0 257 -87.5t87 -246.5v-751h-278v644q0 105 -50.5 149t-147.5 44q-75 0 -137.5 -36t-103.5 -88v-713h-278z" />
<glyph unicode="i" horiz-adv-x="554" d="M109 1338.5q0 68.5 49.5 116.5t117.5 48q69 0 118 -48t49 -116.5t-49 -117t-118 -48.5q-68 0 -117.5 48.5t-49.5 117zM138 0v1058h278v-1058h-278z" />
<glyph unicode="j" horiz-adv-x="554" d="M-226 -355l77 208q34 -28 66 -41t77 -13q66 0 105 43t39 129v1087h278v-1087q0 -186 -95 -293t-281 -107q-96 0 -150.5 16t-115.5 58zM109 1338.5q0 68.5 49.5 116.5t117.5 48q69 0 118 -48t49 -116.5t-49 -117t-118 -48.5q-68 0 -117.5 48.5t-49.5 117z" />
<glyph unicode="k" horiz-adv-x="1171" d="M138 0v1462h278v-875l401 471h342l-419 -479l433 -579h-349l-280 408l-128 -136v-272h-278z" />
<glyph unicode="l" horiz-adv-x="554" d="M138 0v1462h278v-1462h-278z" />
<glyph unicode="m" horiz-adv-x="1866" d="M138 0v1058h278v-138q18 25 51 52.5t77.5 53.5t102.5 42.5t116 16.5q114 0 188.5 -50t104.5 -143q50 79 149.5 136t214.5 57q149 0 230 -80t81 -240v-765h-280v669q0 78 -38.5 123t-119.5 45q-68 0 -126 -36.5t-93 -85.5v-715h-281v669q0 78 -38 123t-119 45 q-67 0 -125.5 -37t-94.5 -87v-713h-278z" />
<glyph unicode="n" d="M138 0v1058h278v-138q58 69 154 117t216 48q171 0 258 -89.5t87 -248.5v-747h-278v640q0 105 -51 151t-145 46q-76 0 -139 -36t-102 -88v-713h-278z" />
<glyph unicode="o" horiz-adv-x="1257" d="M71 531q0 113 38.5 213.5t109 176t177 120t233.5 44.5q128 0 235 -44.5t177.5 -120t109.5 -176t39 -213.5q0 -114 -39 -215t-109.5 -177.5t-177.5 -121t-235 -44.5q-127 0 -233.5 44.5t-177 121t-109 177.5t-38.5 215zM360 531q0 -85 30.5 -154.5t92.5 -112.5t146 -43 t147 43t94 112.5t31 154.5q0 83 -31 152t-94 111.5t-147 42.5t-146 -42.5t-92.5 -111t-30.5 -152.5z" />
<glyph unicode="p" horiz-adv-x="1276" d="M138 -403v1461h278v-134q61 78 145.5 119.5t181.5 41.5q102 0 188 -37.5t148.5 -107t97.5 -174.5t35 -235t-35 -236t-97.5 -176t-149 -108t-187.5 -38q-96 0 -180 41t-147 122v-539h-278zM416 341q35 -49 103.5 -84.5t135.5 -35.5q120 0 193.5 85.5t73.5 224.5 q0 136 -73.5 221t-193.5 85q-67 0 -135.5 -34.5t-103.5 -85.5v-376z" />
<glyph unicode="q" horiz-adv-x="1276" d="M65 531q0 130 35.5 235t98 174.5t148.5 107t188 37.5q97 0 181 -41.5t145 -119.5v134h281v-1461h-281v539q-63 -81 -147 -122t-179 -41q-102 0 -188 38t-148.5 108t-98 176t-35.5 236zM355 531q0 -138 74.5 -224t193.5 -86q66 0 134.5 35.5t103.5 84.5v376 q-34 51 -102.5 85.5t-135.5 34.5q-119 0 -193.5 -85t-74.5 -221z" />
<glyph unicode="r" horiz-adv-x="788" d="M138 0v1058h278v-144q59 74 151 122.5t187 48.5v-272q-29 7 -77 7q-70 0 -148.5 -36t-112.5 -85v-699h-278z" />
<glyph unicode="s" horiz-adv-x="1044" d="M46 138l121 195q61 -58 166 -101.5t200 -43.5q87 0 132 31.5t45 83.5q0 25 -17.5 44t-47.5 30t-70.5 21.5t-85.5 18t-93 20t-93.5 27.5t-85.5 40t-70 57.5t-48 81t-18 108.5q0 67 29 127t83 106.5t137 73.5t185 27q246 0 428 -144l-113 -192q-49 53 -134.5 88t-178.5 35 q-74 0 -120 -30t-46 -75q0 -25 21.5 -42.5t57.5 -29t83 -21t99 -21t104 -26.5t99 -41t83 -61t57.5 -89t21.5 -122q0 -73 -31 -135t-88 -108t-144.5 -72t-194.5 -26q-138 0 -263.5 44t-209.5 121z" />
<glyph unicode="t" horiz-adv-x="740" d="M17 815v243h176v290h280v-290h215v-243h-215v-478q0 -50 26 -83t70 -33q30 0 58 9.5t40 22.5l58 -211q-76 -69 -232 -69q-146 0 -223 74.5t-77 215.5v552h-176z" />
<glyph unicode="u" d="M138 307v751h278v-642q0 -105 50 -150t145 -45q75 0 138.5 34.5t103.5 85.5v717h278v-1058h-278v134q-62 -69 -157 -115t-216 -46q-170 0 -256 87.5t-86 246.5z" />
<glyph unicode="v" horiz-adv-x="1123" d="M-13 1058h298l276 -736l276 736h300l-424 -1058h-301z" />
<glyph unicode="w" horiz-adv-x="1684" d="M0 1058h289l198 -711l232 711h247l232 -711l198 711h289l-322 -1058h-296l-224 721l-222 -721h-299z" />
<glyph unicode="x" horiz-adv-x="1104" d="M0 0l374 544l-353 514h312l219 -326l217 326h312l-356 -514l379 -544h-311l-241 357l-243 -357h-309z" />
<glyph unicode="y" horiz-adv-x="1123" d="M-13 1058h298l276 -736l276 736h300l-497 -1231q-29 -73 -70 -123.5t-93.5 -78.5t-109 -40t-128.5 -14q-27 0 -70 4.5t-68 10.5l41 249q40 -17 88 -17q56 0 91.5 18t55.5 59l39 90z" />
<glyph unicode="z" horiz-adv-x="1048" d="M92 0v209l477 606h-477v243h855v-201l-485 -614h494v-243h-864z" />
<glyph unicode="{" horiz-adv-x="630" d="M6 456v157q56 0 85.5 41.5t29.5 106.5v374q0 79 28 146t75.5 111.5t108.5 69t127 24.5h134v-187h-134q-57 0 -96.5 -44.5t-39.5 -117.5v-405q0 -154 -100 -197q100 -43 100 -198v-402q0 -73 39.5 -119t96.5 -46h134v-186h-134q-66 0 -127 24.5t-108.5 68t-75.5 110.5 t-28 146v376q0 64 -29.5 105.5t-85.5 41.5z" />
<glyph unicode="|" horiz-adv-x="472" d="M144 -44v1549h187v-1549h-187z" />
<glyph unicode="}" horiz-adv-x="630" d="M37 -230h134q58 0 98 46t40 119v402q0 155 101 198q-101 43 -101 197v405q0 72 -40 117t-98 45h-134v187h134q66 0 127 -24.5t108.5 -69t75.5 -111.5t28 -146v-374q0 -65 30 -106.5t85 -41.5v-157q-56 0 -85.5 -41.5t-29.5 -105.5v-376q0 -79 -28 -146t-75.5 -110.5 t-108.5 -68t-127 -24.5h-134v186z" />
<glyph unicode="~" horiz-adv-x="1117" d="M57 924q5 61 12 112.5t19.5 107.5t29 101t42 86t56.5 68.5t73.5 43.5t93.5 16q58 0 102 -21t70 -55.5t45 -76t31.5 -83t25.5 -75.5t32 -55.5t45 -21.5q108 0 138 391l188 -22q-5 -61 -11.5 -112.5t-19 -108.5t-29 -101t-41.5 -86t-56 -69t-74 -43.5t-95 -16.5 q-58 0 -102 21.5t-69.5 55.5t-44.5 75t-31.5 82t-25.5 75t-32.5 55t-45.5 21q-105 0 -136 -385z" />
<glyph unicode="&#xa1;" horiz-adv-x="560" d="M103 907q0 71 51.5 123.5t123.5 52.5t125 -52.5t53 -123.5q0 -72 -53 -125.5t-125 -53.5t-123.5 53.5t-51.5 125.5zM111 -403l44 984h248l46 -984h-338z" />
<glyph unicode="&#xa2;" horiz-adv-x="1092" d="M71 531q0 215 126.5 364.5t331.5 180.5v162h201v-159q110 -18 190.5 -67.5t129.5 -116.5l-182 -172q-56 79 -138 101v-592q80 25 138 103l182 -168q-49 -70 -129.5 -120.5t-190.5 -65.5v-200h-201v202q-206 31 -332 181t-126 367zM357 531q0 -103 46 -179t126 -109v572 q-80 -33 -126 -107.5t-46 -176.5z" />
<glyph unicode="&#xa3;" horiz-adv-x="1204" d="M50 590v177h149q-48 66 -74.5 128t-26.5 135q0 81 30.5 154t82.5 126.5t120 93t145 59.5t155 20q370 0 509 -264l-248 -145q-28 70 -88.5 112.5t-134.5 42.5q-99 0 -164.5 -57t-65.5 -149q0 -26 5 -52t11 -44.5t19 -43.5t21 -37.5t26 -40t25 -38.5h315v-177h-248 q0 -7 1 -21.5t1 -20.5q0 -75 -39 -140.5t-101 -102.5q47 15 108 15q43 0 83 -11.5t66.5 -25t63 -25t72.5 -11.5q65 0 114.5 24t73.5 57l123 -247q-106 -110 -322 -110q-64 0 -123.5 15t-96.5 33t-85 33t-92 15q-103 0 -253 -82l-106 212q107 52 172.5 123t65.5 151 q0 54 -25 119h-264z" />
<glyph unicode="&#xa4;" horiz-adv-x="1364" d="M50 1198l167 163l166 -167q132 75 299 75q161 0 297 -75l167 167l167 -165l-161 -159q90 -139 90 -307q0 -172 -92 -309l163 -156l-167 -162l-164 160q-130 -75 -300 -75t-303 77l-160 -162l-167 162l161 160q-88 136 -88 305t88 305zM403 730q0 -80 32 -145.5 t96.5 -105.5t150.5 -40q88 0 152.5 40t96 105.5t31.5 145.5q0 79 -31.5 143.5t-96.5 105t-152 40.5q-86 0 -150.5 -40.5t-96.5 -105t-32 -143.5z" />
<glyph unicode="&#xa5;" horiz-adv-x="1412" d="M-11 1462h356l363 -588l359 588h355l-447 -691h390v-173h-502v-175h502v-170h-502v-253h-311v253h-500v170h500v175h-500v173h387z" />
<glyph unicode="&#xa6;" horiz-adv-x="472" d="M144 -44v692h187v-692h-187zM144 813v692h187v-692h-187z" />
<glyph unicode="&#xa7;" horiz-adv-x="1060" d="M50 -4l117 175q63 -63 157.5 -109.5t194.5 -46.5q87 0 139 33t52 94q0 30 -17.5 53t-47.5 37.5t-70.5 27t-85.5 22t-93 23t-93.5 28.5t-85.5 40t-70 56.5t-48 79t-18 106.5q0 53 19.5 100t51.5 80.5t68 56.5t75 37q-214 81 -214 277q0 137 121 227t313 90q273 0 426 -149 l-111 -163q-55 55 -137 86t-167 31q-81 0 -128 -31t-47 -86q0 -30 21.5 -51.5t57.5 -34.5t83 -23.5t99 -22t104 -26t99 -39t83 -57.5t57.5 -84.5t21.5 -117.5q0 -92 -46.5 -164.5t-135.5 -116.5q182 -79 182 -269q0 -107 -59.5 -185t-162.5 -118t-236 -40q-279 0 -469 174z M351 657q0 -30 13.5 -53.5t33 -39t53 -28.5t59.5 -20t67 -16q65 28 95.5 66t30.5 95q0 117 -182 159q-95 -22 -132.5 -62t-37.5 -101z" />
<glyph unicode="&#xa8;" horiz-adv-x="646" d="M-57 1339q0 61 43.5 104t105.5 43q61 0 104 -43t43 -104q0 -63 -43 -106t-104 -43q-63 0 -106 43t-43 106zM406 1339q0 60 43.5 103.5t104.5 43.5t105 -43.5t44 -103.5q0 -63 -43.5 -106t-105 -43t-105 43t-43.5 106z" />
<glyph unicode="&#xa9;" horiz-adv-x="1704" d="M96 732q0 154 60.5 294t161.5 241.5t241 161t294 59.5t294 -59.5t241 -161t160.5 -241.5t59.5 -294t-59.5 -293.5t-160.5 -241t-241 -162t-294 -60.5q-153 0 -293.5 60.5t-241.5 162t-161.5 241.5t-60.5 293zM175 732q0 -136 54.5 -261.5t145.5 -216.5t216.5 -145 t261.5 -54q137 0 262.5 54t216 145t144.5 216.5t54 261.5q0 137 -54 262.5t-144.5 216t-216 144.5t-262.5 54t-262 -54t-216 -144.5t-145.5 -216t-54.5 -262.5zM408 734q0 131 61 237t165 164.5t229 58.5q100 0 183 -37.5t142 -106.5l-68 -68q-42 58 -110.5 91t-146.5 33 q-71 0 -136 -27t-113.5 -75t-77 -118.5t-28.5 -151.5q0 -80 28.5 -150.5t77 -119.5t113.5 -78t136 -29q78 0 147 34.5t112 93.5l68 -67q-128 -148 -327 -148q-93 0 -177 35t-145.5 96t-97 148t-35.5 185z" />
<glyph unicode="&#xaa;" horiz-adv-x="843" d="M67 924q0 55 21.5 98.5t56.5 69.5t77 40t87 14q78 0 134.5 -23.5t89.5 -59.5v87q0 54 -42 86.5t-110 32.5q-52 0 -106 -23.5t-95 -66.5l-77 132q63 54 145.5 81.5t167.5 27.5q52 0 96 -8t86 -27.5t71.5 -50t47 -78.5t17.5 -110v-431h-201v69q-34 -37 -90.5 -62 t-133.5 -25q-45 0 -87 14t-77 41.5t-56.5 72t-21.5 99.5zM268 924q0 -48 36.5 -75t88.5 -27q41 0 80 17t60 46v79q-21 28 -59.5 43.5t-80.5 15.5q-52 0 -88.5 -26.5t-36.5 -72.5z" />
<glyph unicode="&#xab;" horiz-adv-x="1154" d="M65 533l351 387h257l-351 -387l351 -395h-257zM483 533l349 387h257l-351 -387l351 -395h-257z" />
<glyph unicode="&#xac;" horiz-adv-x="1127" d="M63 851v174h978v-584h-178v410h-800z" />
<glyph unicode="&#xad;" horiz-adv-x="656" d="M65 412v236h527v-236h-527z" />
<glyph unicode="&#xae;" horiz-adv-x="1081" d="M77 1019q0 95 36.5 181t99 148t148.5 98.5t180 36.5q96 0 182 -36.5t148 -98.5t98.5 -148t36.5 -181t-36.5 -181t-98.5 -148t-148 -99t-182 -37q-94 0 -180 37t-148.5 99t-99 148t-36.5 181zM147 1019q0 -107 52.5 -198t143.5 -143.5t198 -52.5t198 52.5t143.5 143.5 t52.5 198t-52.5 198t-143.5 143.5t-198 52.5q-108 0 -198.5 -52.5t-143 -143t-52.5 -198.5zM364 751v533h217q70 0 121.5 -45t51.5 -117q0 -41 -16.5 -74t-40 -50t-44.5 -25.5t-35 -8.5l143 -213h-92l-138 211h-92v-211h-75zM439 1030h142q36 0 66 26.5t30 65.5 q0 42 -29.5 69.5t-66.5 27.5h-142v-189z" />
<glyph unicode="&#xaf;" horiz-adv-x="795" d="M0 1232v157h795v-157h-795z" />
<glyph unicode="&#xb0;" horiz-adv-x="680" d="M44 1186q0 123 86 210t209.5 87t210 -87t86.5 -210q0 -124 -86.5 -209t-210.5 -85t-209.5 85t-85.5 209zM197 1186q0 -60 41 -101.5t101 -41.5t103 41.5t43 101.5t-43 103t-103 43t-101 -42.5t-41 -103.5z" />
<glyph unicode="&#xb1;" horiz-adv-x="1104" d="M63 0v171h978v-171h-978zM63 715v170h395v432h190v-432h393v-170h-393v-447h-190v447h-395z" />
<glyph unicode="&#xb2;" horiz-adv-x="869" d="M77 1668q65 73 159.5 109t192.5 36q102 0 181 -31t125.5 -94t46.5 -149q0 -103 -88.5 -205t-287.5 -243h383v-169h-688v154q149 105 234.5 169t143 117t77 88t19.5 73q0 58 -42 89.5t-108 31.5q-71 0 -137 -32.5t-102 -77.5z" />
<glyph unicode="&#xb3;" horiz-adv-x="869" d="M71 1045l102 138q49 -52 117 -79.5t135 -27.5q76 0 118 28.5t42 74.5q0 31 -14 52.5t-41 33t-60 16.5t-77 5q-87 0 -100 -2v167q19 -2 98 -2q91 0 134.5 22t43.5 76q0 47 -43.5 72t-115.5 25q-134 0 -230 -97l-99 125q129 141 350 141q165 0 257 -65.5t92 -174.5 q0 -77 -57 -131.5t-138 -67.5q35 -3 71 -17.5t67.5 -39t51.5 -64.5t20 -87q0 -115 -100 -187t-264 -72q-121 0 -214 38t-146 100z" />
<glyph unicode="&#xb4;" horiz-adv-x="549" d="M0 1219l293 315h257l-355 -315h-195z" />
<glyph unicode="&#xb5;" horiz-adv-x="1298" d="M138 -403v1461h278v-642q0 -197 197 -197q73 0 136 35.5t104 86.5v717h278v-740q0 -45 24 -71t64 -26q20 0 41 5l20 -237q-62 -16 -130 -16q-227 0 -284 190q-48 -85 -126.5 -137.5t-170.5 -52.5q-107 0 -153 62v-438h-278z" />
<glyph unicode="&#xb6;" horiz-adv-x="983" d="M59 1085q0 103 50.5 189.5t137.5 137t190 50.5h446v-1681h-138v1545h-170v-1545h-138v927q-103 0 -190 50.5t-137.5 137t-50.5 189.5z" />
<glyph unicode="&#xb7;" horiz-adv-x="560" d="M103 535q0 72 52.5 125t125 53t125 -53t52.5 -125q0 -71 -53 -123t-125 -52t-124.5 52t-52.5 123z" />
<glyph unicode="&#xb8;" horiz-adv-x="483" d="M0 -360l55 113q84 -64 177 -64q47 0 81 19t34 53q0 27 -17 42t-48 15q-38 0 -69 -31l-102 58l67 180h138l-57 -136q36 21 78 21q62 0 105 -42.5t43 -110.5q0 -85 -71 -135.5t-173 -50.5q-75 0 -139.5 20t-101.5 49z" />
<glyph unicode="&#xb9;" horiz-adv-x="625" d="M15 1505l299 294h181v-877h-213v608l-148 -152z" />
<glyph unicode="&#xba;" horiz-adv-x="887" d="M65 1058q0 73 27 139t75 115.5t119.5 78.5t156.5 29q86 0 158.5 -29t120 -79t74 -115.5t26.5 -138.5t-26.5 -138.5t-74 -115t-120 -78.5t-158.5 -29q-85 0 -156.5 29t-119.5 78.5t-75 115t-27 138.5zM274 1058q0 -91 45 -145t124.5 -54t124.5 54t45 145t-45 143t-125 52 t-124.5 -52t-44.5 -143z" />
<glyph unicode="&#xbb;" horiz-adv-x="1154" d="M65 138l351 395l-351 387h257l351 -387l-351 -395h-257zM483 138l349 395l-349 387h255l351 -387l-351 -395h-255z" />
<glyph unicode="&#xbc;" horiz-adv-x="1824" d="M15 1168l299 294h181v-877h-213v607l-148 -151zM303 0l933 1462h169l-936 -1462h-166zM1016 188v143l347 545h291v-523h117v-165h-117v-188h-207v188h-431zM1225 353h222v346z" />
<glyph unicode="&#xbd;" horiz-adv-x="1899" d="M15 1168l299 294h181v-877h-213v607l-148 -151zM303 0l933 1462h169l-936 -1462h-166zM1104 745q65 73 160 108.5t193 35.5q102 0 181 -31t125.5 -93.5t46.5 -149.5q0 -102 -88.5 -203.5t-288.5 -242.5h384v-169h-688v153q149 104 235 169t142.5 117.5t76 88t19.5 72.5 q0 59 -41.5 90t-107.5 31q-71 0 -137 -32.5t-102 -77.5z" />
<glyph unicode="&#xbe;" horiz-adv-x="2018" d="M71 708l102 138q49 -52 117.5 -80t134.5 -28q76 0 118 28t42 75q0 60 -50 84t-142 24q-87 0 -100 -2v166q19 -2 98 -2q91 0 134.5 22t43.5 76q0 47 -43.5 72t-115.5 25q-133 0 -230 -97l-99 125q129 140 350 140q165 0 257 -64.5t92 -173.5q0 -77 -57 -131.5t-138 -67.5 q35 -3 71 -17.5t67.5 -39.5t51.5 -65t20 -87q0 -115 -100 -187t-264 -72q-121 0 -214 38.5t-146 100.5zM493 0l933 1462h169l-936 -1462h-166zM1209 188v143l347 545h291v-523h116v-165h-116v-188h-208v188h-430zM1418 353h221v346z" />
<glyph unicode="&#xbf;" horiz-adv-x="872" d="M42 -81q0 65 20 120t52.5 93t72 71t78.5 60.5t71.5 54t53 59.5t20.5 70q0 27 -11.5 52.5t-30.5 39.5l239 68q75 -75 75 -193q0 -46 -14 -87t-36.5 -70.5t-51.5 -56.5t-59.5 -47.5t-59.5 -43t-51.5 -42t-36 -44.5t-13.5 -52q0 -53 43.5 -87.5t129.5 -34.5q79 0 148 35.5 t121 98.5l177 -200q-89 -102 -213.5 -156t-267.5 -54q-209 0 -332.5 96t-123.5 250zM326 905q0 72 53 125t125 53t125 -53t53 -125t-53 -124.5t-125 -52.5t-125 52.5t-53 124.5z" />
<glyph unicode="&#xc0;" horiz-adv-x="1498" d="M-11 0l565 1462h391l563 -1462h-356l-89 247h-626l-92 -247h-356zM339 1900h255l295 -315h-195zM521 521h456l-228 629z" />
<glyph unicode="&#xc1;" horiz-adv-x="1498" d="M-11 0l565 1462h391l563 -1462h-356l-89 247h-626l-92 -247h-356zM521 521h456l-228 629zM611 1585l294 315h256l-354 -315h-196z" />
<glyph unicode="&#xc2;" horiz-adv-x="1498" d="M-11 0l565 1462h391l563 -1462h-356l-89 247h-626l-92 -247h-356zM423 1585l202 315h249l207 -315h-171l-161 194l-155 -194h-171zM521 521h456l-228 629z" />
<glyph unicode="&#xc3;" horiz-adv-x="1498" d="M-11 0l565 1462h391l563 -1462h-356l-89 247h-626l-92 -247h-356zM393 1593q0 141 61 217t175 76q40 0 73.5 -15t55 -36.5t41 -43t40.5 -36.5t44 -15q35 0 57 34t22 100h147q0 -141 -60.5 -217.5t-174.5 -76.5q-41 0 -75 15.5t-56 37.5t-41 43.5t-40 37t-44 15.5 q-35 0 -57 -34t-22 -102h-146zM521 521h456l-228 629z" />
<glyph unicode="&#xc4;" horiz-adv-x="1498" d="M-11 0l565 1462h391l563 -1462h-356l-89 247h-626l-92 -247h-356zM370 1705q0 61 43.5 104t105.5 43q61 0 104.5 -43.5t43.5 -103.5q0 -63 -43.5 -106t-104.5 -43q-63 0 -106 43t-43 106zM521 521h456l-228 629zM832 1705q0 60 44.5 103.5t105.5 43.5t105 -43.5 t44 -103.5q0 -63 -43.5 -106t-105 -43t-106 43t-44.5 106z" />
<glyph unicode="&#xc5;" horiz-adv-x="1498" d="M-11 0l565 1462h391l563 -1462h-356l-89 247h-626l-92 -247h-356zM521 521h456l-228 629zM521 1738q0 94 68 163t162 69q95 0 161.5 -69t66.5 -163q0 -96 -66.5 -163t-161.5 -67q-94 0 -162 67.5t-68 162.5zM648 1738q0 -41 31 -72t72 -31q42 0 72 30.5t30 72.5t-29.5 72 t-72.5 30q-41 0 -72 -30t-31 -72z" />
<glyph unicode="&#xc6;" horiz-adv-x="2120" d="M-19 0l889 1462h1159v-274h-720v-310h705v-273h-705v-331h720v-274h-1034v247h-515l-145 -247h-354zM629 521h366v629z" />
<glyph unicode="&#xc7;" horiz-adv-x="1504" d="M75 730q0 165 60 307t164 240t247.5 153.5t306.5 55.5q93 0 177 -20t147.5 -53t119.5 -80t95 -96.5t72 -107.5l-268 -132q-47 93 -140 152.5t-203 59.5q-131 0 -236 -62t-163.5 -171.5t-58.5 -246t58.5 -246t163.5 -172t236 -62.5q110 0 203 60t140 153l268 -129 q-32 -56 -70 -104t-90.5 -94t-112 -79t-137.5 -55t-165 -26l-32 -78q36 22 78 22q63 0 105.5 -43t42.5 -110q0 -85 -71 -136t-173 -51q-75 0 -139.5 20t-101.5 50l55 112q84 -64 177 -64q48 0 81.5 19.5t33.5 53.5q0 27 -16.5 42t-47.5 15q-40 0 -70 -30l-101 56l46 128 q-145 15 -270.5 75.5t-216.5 157t-142.5 230t-51.5 286.5z" />
<glyph unicode="&#xc8;" horiz-adv-x="1276" d="M144 0v1462h1035v-274h-723v-310h707v-273h-707v-331h723v-274h-1035zM247 1900h255l295 -315h-195z" />
<glyph unicode="&#xc9;" horiz-adv-x="1276" d="M144 0v1462h1035v-274h-723v-310h707v-273h-707v-331h723v-274h-1035zM521 1585l294 315h256l-354 -315h-196z" />
<glyph unicode="&#xca;" horiz-adv-x="1276" d="M144 0v1462h1035v-274h-723v-310h707v-273h-707v-331h723v-274h-1035zM333 1585l202 315h249l207 -315h-171l-161 194l-155 -194h-171z" />
<glyph unicode="&#xcb;" horiz-adv-x="1276" d="M144 0v1462h1035v-274h-723v-310h707v-273h-707v-331h723v-274h-1035zM282 1705q0 61 43.5 104t105.5 43q61 0 104.5 -43t43.5 -104q0 -63 -43.5 -106t-104.5 -43q-62 0 -105.5 43t-43.5 106zM745 1705q0 60 44 103.5t105.5 43.5t105 -43.5t43.5 -103.5q0 -63 -43.5 -106 t-105 -43t-105.5 43t-44 106z" />
<glyph unicode="&#xcc;" horiz-adv-x="600" d="M-109 1900h253l297 -315h-196zM144 0v1462h312v-1462h-312z" />
<glyph unicode="&#xcd;" horiz-adv-x="600" d="M144 0v1462h312v-1462h-312zM165 1585l293 315h257l-355 -315h-195z" />
<glyph unicode="&#xce;" horiz-adv-x="600" d="M-29 1585l202 315h250l206 -315h-171l-159 194l-157 -194h-171zM144 0v1462h312v-1462h-312z" />
<glyph unicode="&#xcf;" horiz-adv-x="600" d="M-79 1705q0 61 43.5 104t106.5 43q61 0 103.5 -43t42.5 -104q0 -63 -42.5 -106t-103.5 -43q-63 0 -106.5 43t-43.5 106zM144 0v1462h312v-1462h-312zM383 1705q0 60 44.5 103.5t105.5 43.5t105 -43.5t44 -103.5q0 -63 -44 -106t-105.5 -43t-105.5 43t-44 106z" />
<glyph unicode="&#xd0;" horiz-adv-x="1625" d="M17 607v230h182v625h577q170 0 314 -53t245.5 -147.5t159 -231.5t57.5 -300t-57.5 -299.5t-159 -231t-245.5 -147t-314 -52.5h-577v607h-182zM510 274h266q105 0 192.5 36.5t145 99t89 145t31.5 175.5q0 98 -30 181t-86 145t-144 97t-198 35h-266v-351h327v-230h-327 v-333z" />
<glyph unicode="&#xd1;" horiz-adv-x="1596" d="M144 0v1462h320l678 -918v918h311v-1462h-301l-696 953v-953h-312zM439 1593q0 141 61 217t175 76q40 0 73.5 -15t55 -36.5t41 -43t40.5 -36.5t44 -15q35 0 57 34t22 100h147q0 -141 -60.5 -217.5t-174.5 -76.5q-41 0 -75 15.5t-56 37.5t-41 43.5t-40 37t-44 15.5 q-35 0 -57 -34t-22 -102h-146z" />
<glyph unicode="&#xd2;" horiz-adv-x="1675" d="M75 730q0 163 57.5 303.5t158 240t242 156t304.5 56.5q164 0 306 -56.5t243 -156t158.5 -240t57.5 -303.5t-57.5 -304t-158.5 -240.5t-243 -156t-306 -56.5q-163 0 -304.5 56.5t-242 156t-158 240.5t-57.5 304zM395 730q0 -136 53.5 -245t155 -172.5t233.5 -63.5 t234 63.5t156.5 172.5t54.5 245t-54.5 245t-156.5 171.5t-234 62.5t-233.5 -62.5t-155 -171.5t-53.5 -245zM429 1900h255l295 -315h-195z" />
<glyph unicode="&#xd3;" horiz-adv-x="1675" d="M75 730q0 163 57.5 303.5t158 240t242 156t304.5 56.5q164 0 306 -56.5t243 -156t158.5 -240t57.5 -303.5t-57.5 -304t-158.5 -240.5t-243 -156t-306 -56.5q-163 0 -304.5 56.5t-242 156t-158 240.5t-57.5 304zM395 730q0 -136 53.5 -245t155 -172.5t233.5 -63.5 t234 63.5t156.5 172.5t54.5 245t-54.5 245t-156.5 171.5t-234 62.5t-233.5 -62.5t-155 -171.5t-53.5 -245zM699 1585l294 315h256l-354 -315h-196z" />
<glyph unicode="&#xd4;" horiz-adv-x="1675" d="M75 730q0 163 57.5 303.5t158 240t242 156t304.5 56.5q164 0 306 -56.5t243 -156t158.5 -240t57.5 -303.5t-57.5 -304t-158.5 -240.5t-243 -156t-306 -56.5q-163 0 -304.5 56.5t-242 156t-158 240.5t-57.5 304zM395 730q0 -136 53.5 -245t155 -172.5t233.5 -63.5 t234 63.5t156.5 172.5t54.5 245t-54.5 245t-156.5 171.5t-234 62.5t-233.5 -62.5t-155 -171.5t-53.5 -245zM515 1585l202 315h249l207 -315h-171l-161 194l-155 -194h-171z" />
<glyph unicode="&#xd5;" horiz-adv-x="1675" d="M75 730q0 163 57.5 303.5t158 240t242 156t304.5 56.5q164 0 306 -56.5t243 -156t158.5 -240t57.5 -303.5t-57.5 -304t-158.5 -240.5t-243 -156t-306 -56.5q-163 0 -304.5 56.5t-242 156t-158 240.5t-57.5 304zM395 730q0 -136 53.5 -245t155 -172.5t233.5 -63.5 t234 63.5t156.5 172.5t54.5 245t-54.5 245t-156.5 171.5t-234 62.5t-233.5 -62.5t-155 -171.5t-53.5 -245zM480 1593q0 141 61.5 217t175.5 76q40 0 73 -15t55 -36.5t41 -43t40.5 -36.5t43.5 -15q35 0 57.5 34t22.5 100h146q0 -141 -60 -217.5t-174 -76.5q-41 0 -75 15.5 t-56 37.5t-41.5 43.5t-40.5 37t-44 15.5q-35 0 -56.5 -34t-21.5 -102h-147z" />
<glyph unicode="&#xd6;" horiz-adv-x="1675" d="M75 730q0 163 57.5 303.5t158 240t242 156t304.5 56.5q164 0 306 -56.5t243 -156t158.5 -240t57.5 -303.5t-57.5 -304t-158.5 -240.5t-243 -156t-306 -56.5q-163 0 -304.5 56.5t-242 156t-158 240.5t-57.5 304zM395 730q0 -136 53.5 -245t155 -172.5t233.5 -63.5 t234 63.5t156.5 172.5t54.5 245t-54.5 245t-156.5 171.5t-234 62.5t-233.5 -62.5t-155 -171.5t-53.5 -245zM460 1705q0 61 43.5 104t105.5 43q61 0 104 -43t43 -104q0 -63 -43 -106t-104 -43q-63 0 -106 43t-43 106zM922 1705q0 60 44 103.5t105 43.5t105.5 -43.5 t44.5 -103.5q0 -63 -44 -106t-105.5 -43t-105.5 43t-44 106z" />
<glyph unicode="&#xd7;" horiz-adv-x="1104" d="M121 421l308 311l-308 309l124 122l307 -310l309 310l123 -122l-309 -309l309 -311l-123 -120l-309 308l-307 -308z" />
<glyph unicode="&#xd8;" horiz-adv-x="1675" d="M75 730q0 163 57.5 303.5t158 240t242 156t304.5 56.5q207 0 380 -90l50 66h224l-128 -167q114 -104 176.5 -249t62.5 -316q0 -163 -57.5 -304t-158.5 -240.5t-243 -156t-306 -56.5q-222 0 -403 104l-60 -77h-223l140 184q-103 102 -159.5 242t-56.5 304zM395 730 q0 -173 85 -301l559 734q-94 46 -202 46q-132 0 -233.5 -62.5t-155 -171.5t-53.5 -245zM609 309q101 -60 228 -60q132 0 234 63.5t156.5 172.5t54.5 245q0 192 -105 322z" />
<glyph unicode="&#xd9;" horiz-adv-x="1606" d="M144 583v879h316v-868q0 -157 89.5 -251t255.5 -94q165 0 253 94t88 251v868h318v-877q0 -138 -41 -249.5t-121.5 -192.5t-207 -125.5t-290 -44.5t-290 44.5t-207 126t-122 192.5t-41.5 247zM395 1900h253l297 -315h-196z" />
<glyph unicode="&#xda;" horiz-adv-x="1606" d="M144 583v879h316v-868q0 -157 89.5 -251t255.5 -94q165 0 253 94t88 251v868h318v-877q0 -138 -41 -249.5t-121.5 -192.5t-207 -125.5t-290 -44.5t-290 44.5t-207 126t-122 192.5t-41.5 247zM667 1585l293 315h257l-356 -315h-194z" />
<glyph unicode="&#xdb;" horiz-adv-x="1606" d="M144 583v879h316v-868q0 -157 89.5 -251t255.5 -94q165 0 253 94t88 251v868h318v-877q0 -138 -41 -249.5t-121.5 -192.5t-207 -125.5t-290 -44.5t-290 44.5t-207 126t-122 192.5t-41.5 247zM485 1585l201 315h249l207 -315h-172l-159 194l-156 -194h-170z" />
<glyph unicode="&#xdc;" horiz-adv-x="1606" d="M144 583v879h316v-868q0 -157 89.5 -251t255.5 -94q165 0 253 94t88 251v868h318v-877q0 -138 -41 -249.5t-121.5 -192.5t-207 -125.5t-290 -44.5t-290 44.5t-207 126t-122 192.5t-41.5 247zM429 1705q0 61 43.5 104t106.5 43q61 0 103.5 -43t42.5 -104q0 -63 -42.5 -106 t-103.5 -43q-63 0 -106.5 43t-43.5 106zM892 1705q0 60 44 103.5t105 43.5t105 -43.5t44 -103.5q0 -63 -44 -106t-105 -43t-105 43t-44 106z" />
<glyph unicode="&#xdd;" horiz-adv-x="1412" d="M-11 1462h356l363 -588l359 588h355l-559 -864v-598h-311v598zM567 1585l294 315h256l-354 -315h-196z" />
<glyph unicode="&#xde;" horiz-adv-x="1366" d="M144 0v1462h312v-237h372q116 0 210.5 -37.5t155 -103t93 -151t32.5 -182.5q0 -96 -32.5 -180.5t-93.5 -148t-155.5 -100.5t-209.5 -37h-372v-285h-312zM456 559h326q96 0 158 53t62 142.5t-62 143t-158 53.5h-326v-392z" />
<glyph unicode="&#xdf;" horiz-adv-x="1408" d="M138 0v1041q0 91 34 171t97 140.5t159 95.5t212 35q87 0 168.5 -22t144.5 -62t100.5 -100.5t37.5 -132.5q0 -49 -15.5 -91.5t-41 -72.5t-56.5 -55.5t-62 -47t-56.5 -41.5t-41.5 -44.5t-16 -50.5q0 -24 20 -41.5t53 -28t75.5 -19.5t90 -20t95 -26t90.5 -41t76 -60.5 t52.5 -88.5t19.5 -122q0 -150 -121 -246.5t-320 -96.5q-76 0 -139.5 12.5t-116 36.5t-92.5 51.5t-83 66.5l119 193q46 -60 132 -101.5t180 -41.5q83 0 128 33.5t45 81.5q0 27 -19.5 47.5t-52.5 33.5t-76 23.5t-90 23t-94.5 27.5t-90.5 39.5t-76 57t-52.5 83t-19.5 114.5 q0 47 15 87.5t38.5 69.5t52.5 54.5t57.5 46t52.5 39t39 37.5t15 39q0 51 -50.5 80t-118.5 29q-96 0 -158 -52.5t-62 -142.5v-1041h-278z" />
<glyph unicode="&#xe0;" horiz-adv-x="1189" d="M71 324q0 72 22 130.5t58.5 97t85 65t99 38.5t103.5 12q106 0 194 -34t141 -96v142q0 81 -64 129.5t-169 48.5q-174 0 -309 -125l-105 186q95 83 214.5 125t248.5 42q75 0 140.5 -12t125.5 -41.5t102.5 -74.5t68 -115t25.5 -158v-684h-278v109q-55 -64 -143.5 -100 t-191.5 -36q-52 0 -103.5 13.5t-99.5 42.5t-84.5 69.5t-58.5 99t-22 126.5zM178 1534h253l297 -315h-195zM351 318q0 -72 57 -113.5t142 -41.5q70 0 130 23.5t94 68.5v130q-34 45 -94 68.5t-130 23.5q-85 0 -142 -42.5t-57 -116.5z" />
<glyph unicode="&#xe1;" horiz-adv-x="1189" d="M71 324q0 72 22 130.5t58.5 97t85 65t99 38.5t103.5 12q106 0 194 -34t141 -96v142q0 81 -64 129.5t-169 48.5q-174 0 -309 -125l-105 186q95 83 214.5 125t248.5 42q75 0 140.5 -12t125.5 -41.5t102.5 -74.5t68 -115t25.5 -158v-684h-278v109q-55 -64 -143.5 -100 t-191.5 -36q-52 0 -103.5 13.5t-99.5 42.5t-84.5 69.5t-58.5 99t-22 126.5zM351 318q0 -72 57 -113.5t142 -41.5q70 0 130 23.5t94 68.5v130q-34 45 -94 68.5t-130 23.5q-85 0 -142 -42.5t-57 -116.5zM449 1219l294 315h256l-355 -315h-195z" />
<glyph unicode="&#xe2;" horiz-adv-x="1189" d="M71 324q0 72 22 130.5t58.5 97t85 65t99 38.5t103.5 12q106 0 194 -34t141 -96v142q0 81 -64 129.5t-169 48.5q-174 0 -309 -125l-105 186q95 83 214.5 125t248.5 42q75 0 140.5 -12t125.5 -41.5t102.5 -74.5t68 -115t25.5 -158v-684h-278v109q-55 -64 -143.5 -100 t-191.5 -36q-52 0 -103.5 13.5t-99.5 42.5t-84.5 69.5t-58.5 99t-22 126.5zM265 1219l202 315h250l205 -315h-171l-159 194l-155 -194h-172zM351 318q0 -72 57 -113.5t142 -41.5q70 0 130 23.5t94 68.5v130q-34 45 -94 68.5t-130 23.5q-85 0 -142 -42.5t-57 -116.5z" />
<glyph unicode="&#xe3;" horiz-adv-x="1189" d="M71 324q0 72 22 130.5t58.5 97t85 65t99 38.5t103.5 12q106 0 194 -34t141 -96v142q0 81 -64 129.5t-169 48.5q-174 0 -309 -125l-105 186q95 83 214.5 125t248.5 42q75 0 140.5 -12t125.5 -41.5t102.5 -74.5t68 -115t25.5 -158v-684h-278v109q-55 -64 -143.5 -100 t-191.5 -36q-52 0 -103.5 13.5t-99.5 42.5t-84.5 69.5t-58.5 99t-22 126.5zM232 1227q0 141 61 217t176 76q40 0 73 -15t55 -36.5t41.5 -43t41 -36.5t43.5 -15q35 0 57 34t22 100h147q0 -141 -60 -217.5t-174 -76.5q-41 0 -75 15.5t-56.5 37.5t-41.5 44t-40 37t-44 15 q-35 0 -57 -34t-22 -102h-147zM351 318q0 -72 57 -113.5t142 -41.5q70 0 130 23.5t94 68.5v130q-34 45 -94 68.5t-130 23.5q-85 0 -142 -42.5t-57 -116.5z" />
<glyph unicode="&#xe4;" horiz-adv-x="1189" d="M71 324q0 72 22 130.5t58.5 97t85 65t99 38.5t103.5 12q106 0 194 -34t141 -96v142q0 81 -64 129.5t-169 48.5q-174 0 -309 -125l-105 186q95 83 214.5 125t248.5 42q75 0 140.5 -12t125.5 -41.5t102.5 -74.5t68 -115t25.5 -158v-684h-278v109q-55 -64 -143.5 -100 t-191.5 -36q-52 0 -103.5 13.5t-99.5 42.5t-84.5 69.5t-58.5 99t-22 126.5zM211 1339q0 61 43 104t106 43q60 0 103 -43t43 -104q0 -63 -42.5 -106t-103.5 -43q-63 0 -106 43t-43 106zM351 318q0 -72 57 -113.5t142 -41.5q70 0 130 23.5t94 68.5v130q-34 45 -94 68.5 t-130 23.5q-85 0 -142 -42.5t-57 -116.5zM673 1339q0 60 44 103.5t105 43.5t104.5 -43.5t43.5 -103.5q0 -63 -43.5 -106t-105 -43t-105 43t-43.5 106z" />
<glyph unicode="&#xe5;" horiz-adv-x="1189" d="M71 324q0 72 22 130.5t58.5 97t85 65t99 38.5t103.5 12q106 0 194 -34t141 -96v142q0 81 -64 129.5t-169 48.5q-174 0 -309 -125l-105 186q95 83 214.5 125t248.5 42q75 0 140.5 -12t125.5 -41.5t102.5 -74.5t68 -115t25.5 -158v-684h-278v109q-55 -64 -143.5 -100 t-191.5 -36q-52 0 -103.5 13.5t-99.5 42.5t-84.5 69.5t-58.5 99t-22 126.5zM351 318q0 -72 57 -113.5t142 -41.5q70 0 130 23.5t94 68.5v130q-34 45 -94 68.5t-130 23.5q-85 0 -142 -42.5t-57 -116.5zM364 1394q0 94 68 163t162 69q95 0 161.5 -68.5t66.5 -163.5 q0 -96 -66.5 -163.5t-161.5 -67.5q-94 0 -162 68t-68 163zM491 1394q0 -41 31 -72.5t72 -31.5q42 0 71 31.5t29 72.5q0 43 -29 73t-71 30q-41 0 -72 -30.5t-31 -72.5z" />
<glyph unicode="&#xe6;" horiz-adv-x="1905" d="M71 320q0 84 30.5 151.5t83.5 109.5t121.5 64t147.5 22q110 0 205.5 -33t155.5 -95v143q0 78 -69.5 126.5t-182.5 48.5q-183 0 -331 -125l-105 186q95 83 216.5 125t252.5 42q138 0 232 -47t138 -135q31 41 65.5 71.5t80.5 56.5t106 40t132 14q145 0 257 -73t174 -206 t62 -304v-61h-747q15 -104 89 -172t195 -68q71 0 143 28t118 76l126 -184q-76 -70 -188.5 -109t-217.5 -39q-273 0 -408 194q-68 -86 -185.5 -140t-254.5 -54q-71 0 -135.5 13t-121 41t-97.5 68.5t-64.5 98t-23.5 126.5zM351 335q0 -69 59.5 -105.5t150.5 -36.5 q101 0 177.5 56t76.5 121v13q-39 44 -106 69t-142 25q-95 0 -155.5 -37t-60.5 -105zM1091 629h482q-1 32 -10 63.5t-27.5 62.5t-45.5 55t-68 38.5t-90 14.5q-56 0 -102 -21.5t-74 -56.5t-44 -74.5t-21 -81.5z" />
<glyph unicode="&#xe7;" horiz-adv-x="1092" d="M71 531q0 120 42 223t115.5 175.5t178 114t224.5 41.5q78 0 146.5 -16t119 -43.5t87.5 -60t66 -70.5l-182 -172q-76 114 -224 114q-127 0 -207 -84.5t-80 -221.5q0 -138 80 -224t207 -86q143 0 224 114l182 -168q-53 -76 -143 -128.5t-217 -63.5l-35 -82q36 21 79 21 q62 0 104.5 -42.5t42.5 -110.5q0 -84 -70.5 -135t-172.5 -51q-75 0 -139.5 20t-101.5 50l55 112q83 -64 177 -64q47 0 80.5 19t33.5 54q0 27 -16.5 41.5t-47.5 14.5q-39 0 -70 -31l-101 58l46 130q-216 23 -349.5 174.5t-133.5 377.5z" />
<glyph unicode="&#xe8;" horiz-adv-x="1211" d="M71 531q0 114 40.5 216t112 176.5t174 118t220.5 43.5q157 0 277.5 -73t186.5 -206t66 -304v-61h-786q13 -106 94 -176t211 -70q70 0 151.5 29t130.5 77l122 -180q-77 -71 -193 -109.5t-242 -38.5q-120 0 -224 40t-179.5 111.5t-118.5 176.5t-43 230zM209 1534h253 l297 -315h-196zM357 629h521q-2 32 -11.5 63.5t-29.5 62.5t-49 55t-73 38.5t-97 14.5q-61 0 -111 -21t-80 -56.5t-47 -75t-23 -81.5z" />
<glyph unicode="&#xe9;" horiz-adv-x="1211" d="M71 531q0 114 40.5 216t112 176.5t174 118t220.5 43.5q157 0 277.5 -73t186.5 -206t66 -304v-61h-786q13 -106 94 -176t211 -70q70 0 151.5 29t130.5 77l122 -180q-77 -71 -193 -109.5t-242 -38.5q-120 0 -224 40t-179.5 111.5t-118.5 176.5t-43 230zM357 629h521 q-2 32 -11.5 63.5t-29.5 62.5t-49 55t-73 38.5t-97 14.5q-61 0 -111 -21t-80 -56.5t-47 -75t-23 -81.5zM480 1219l294 315h256l-355 -315h-195z" />
<glyph unicode="&#xea;" horiz-adv-x="1211" d="M71 531q0 114 40.5 216t112 176.5t174 118t220.5 43.5q157 0 277.5 -73t186.5 -206t66 -304v-61h-786q13 -106 94 -176t211 -70q70 0 151.5 29t130.5 77l122 -180q-77 -71 -193 -109.5t-242 -38.5q-120 0 -224 40t-179.5 111.5t-118.5 176.5t-43 230zM291 1219l202 315 h250l206 -315h-171l-160 194l-156 -194h-171zM357 629h521q-2 32 -11.5 63.5t-29.5 62.5t-49 55t-73 38.5t-97 14.5q-61 0 -111 -21t-80 -56.5t-47 -75t-23 -81.5z" />
<glyph unicode="&#xeb;" horiz-adv-x="1211" d="M71 531q0 114 40.5 216t112 176.5t174 118t220.5 43.5q157 0 277.5 -73t186.5 -206t66 -304v-61h-786q13 -106 94 -176t211 -70q70 0 151.5 29t130.5 77l122 -180q-77 -71 -193 -109.5t-242 -38.5q-120 0 -224 40t-179.5 111.5t-118.5 176.5t-43 230zM241 1339 q0 61 43.5 104t106.5 43q60 0 103 -43t43 -104q0 -63 -42.5 -106t-103.5 -43q-63 0 -106.5 43t-43.5 106zM357 629h521q-2 32 -11.5 63.5t-29.5 62.5t-49 55t-73 38.5t-97 14.5q-61 0 -111 -21t-80 -56.5t-47 -75t-23 -81.5zM703 1339q0 60 44.5 103.5t105.5 43.5t105 -43.5 t44 -103.5q0 -63 -44 -106t-105.5 -43t-105.5 43t-44 106z" />
<glyph unicode="&#xec;" horiz-adv-x="554" d="M-134 1534h255l295 -315h-195zM138 0v1058h278v-1058h-278z" />
<glyph unicode="&#xed;" horiz-adv-x="554" d="M138 0v1058h278v-1058h-278zM138 1219l293 315h257l-355 -315h-195z" />
<glyph unicode="&#xee;" horiz-adv-x="554" d="M-52 1219l201 315h250l206 -315h-171l-160 194l-155 -194h-171zM138 0v1058h278v-1058h-278z" />
<glyph unicode="&#xef;" horiz-adv-x="554" d="M-103 1339q0 61 43.5 104t105.5 43q61 0 104 -43t43 -104q0 -63 -43 -106t-104 -43q-63 0 -106 43t-43 106zM138 0v1058h278v-1058h-278zM360 1339q0 60 43.5 103.5t104.5 43.5t105 -43.5t44 -103.5q0 -63 -43.5 -106t-105 -43t-105 43t-43.5 106z" />
<glyph unicode="&#xf0;" horiz-adv-x="1257" d="M71 491q0 112 36 208.5t98.5 164t149 106t184.5 38.5q222 0 350 -203q-78 178 -343 363l-320 -140l-55 131l235 104q-26 16 -74 44.5t-60 35.5l151 226q166 -102 269 -182l226 99l55 -127l-160 -71q184 -163 280.5 -344t96.5 -392q0 -171 -66.5 -301.5t-194 -204 t-300.5 -73.5q-124 0 -229 39t-177 107.5t-112 164t-40 207.5zM360 491q0 -115 72 -192.5t197.5 -77.5t198.5 78t73 192.5t-73 192t-198.5 77.5t-197.5 -77.5t-72 -192.5z" />
<glyph unicode="&#xf1;" d="M138 0v1058h278v-138q58 69 154 117t216 48q171 0 258 -89.5t87 -248.5v-747h-278v640q0 105 -51 151t-145 46q-76 0 -139 -36t-102 -88v-713h-278zM278 1227q0 141 61 217t176 76q40 0 73 -15t55 -36.5t41.5 -43t41 -36.5t43.5 -15q35 0 57.5 34t22.5 100h146 q0 -141 -60 -217.5t-174 -76.5q-41 0 -75 15.5t-56.5 37.5t-41.5 44t-40 37t-44 15q-35 0 -57 -34t-22 -102h-147z" />
<glyph unicode="&#xf2;" horiz-adv-x="1257" d="M71 531q0 113 38.5 213.5t109 176t177 120t233.5 44.5q128 0 235 -44.5t177.5 -120t109.5 -176t39 -213.5q0 -114 -39 -215t-109.5 -177.5t-177.5 -121t-235 -44.5q-127 0 -233.5 44.5t-177 121t-109 177.5t-38.5 215zM219 1534h254l296 -315h-194zM360 531 q0 -85 30.5 -154.5t92.5 -112.5t146 -43t147 43t94 112.5t31 154.5q0 83 -31 152t-94 111.5t-147 42.5t-146 -42.5t-92.5 -111t-30.5 -152.5z" />
<glyph unicode="&#xf3;" horiz-adv-x="1257" d="M71 531q0 113 38.5 213.5t109 176t177 120t233.5 44.5q128 0 235 -44.5t177.5 -120t109.5 -176t39 -213.5q0 -114 -39 -215t-109.5 -177.5t-177.5 -121t-235 -44.5q-127 0 -233.5 44.5t-177 121t-109 177.5t-38.5 215zM360 531q0 -85 30.5 -154.5t92.5 -112.5t146 -43 t147 43t94 112.5t31 154.5q0 83 -31 152t-94 111.5t-147 42.5t-146 -42.5t-92.5 -111t-30.5 -152.5zM491 1219l293 315h257l-355 -315h-195z" />
<glyph unicode="&#xf4;" horiz-adv-x="1257" d="M71 531q0 113 38.5 213.5t109 176t177 120t233.5 44.5q128 0 235 -44.5t177.5 -120t109.5 -176t39 -213.5q0 -114 -39 -215t-109.5 -177.5t-177.5 -121t-235 -44.5q-127 0 -233.5 44.5t-177 121t-109 177.5t-38.5 215zM301 1219l201 315h249l207 -315h-172l-159 194 l-156 -194h-170zM360 531q0 -85 30.5 -154.5t92.5 -112.5t146 -43t147 43t94 112.5t31 154.5q0 83 -31 152t-94 111.5t-147 42.5t-146 -42.5t-92.5 -111t-30.5 -152.5z" />
<glyph unicode="&#xf5;" horiz-adv-x="1257" d="M71 531q0 113 38.5 213.5t109 176t177 120t233.5 44.5q128 0 235 -44.5t177.5 -120t109.5 -176t39 -213.5q0 -114 -39 -215t-109.5 -177.5t-177.5 -121t-235 -44.5q-127 0 -233.5 44.5t-177 121t-109 177.5t-38.5 215zM272 1227q0 141 61 217t175 76q40 0 73.5 -15 t55.5 -36.5t41 -43t40.5 -36.5t44.5 -15q35 0 56.5 34t21.5 100h148q0 -141 -60.5 -217.5t-174.5 -76.5q-41 0 -75 15.5t-56 37.5t-41 44t-40.5 37t-43.5 15q-35 0 -57.5 -34t-22.5 -102h-146zM360 531q0 -85 30.5 -154.5t92.5 -112.5t146 -43t147 43t94 112.5t31 154.5 q0 83 -31 152t-94 111.5t-147 42.5t-146 -42.5t-92.5 -111t-30.5 -152.5z" />
<glyph unicode="&#xf6;" horiz-adv-x="1257" d="M71 531q0 113 38.5 213.5t109 176t177 120t233.5 44.5q128 0 235 -44.5t177.5 -120t109.5 -176t39 -213.5q0 -114 -39 -215t-109.5 -177.5t-177.5 -121t-235 -44.5q-127 0 -233.5 44.5t-177 121t-109 177.5t-38.5 215zM249 1339q0 61 44 104t106 43q61 0 104 -43t43 -104 q0 -63 -43 -106t-104 -43q-63 0 -106.5 43t-43.5 106zM360 531q0 -85 30.5 -154.5t92.5 -112.5t146 -43t147 43t94 112.5t31 154.5q0 83 -31 152t-94 111.5t-147 42.5t-146 -42.5t-92.5 -111t-30.5 -152.5zM713 1339q0 60 43.5 103.5t104.5 43.5t105 -43.5t44 -103.5 q0 -63 -43.5 -106t-105 -43t-105 43t-43.5 106z" />
<glyph unicode="&#xf7;" horiz-adv-x="1119" d="M63 653v173h993v-173h-993zM425 345q0 54 39 93t94.5 39t94.5 -39t39 -93q0 -57 -38.5 -95.5t-95 -38.5t-95 38.5t-38.5 95.5zM425 1131q0 55 39 93.5t95 38.5t94.5 -38.5t38.5 -93.5q0 -56 -38.5 -96t-94.5 -40t-95 40t-39 96z" />
<glyph unicode="&#xf8;" horiz-adv-x="1257" d="M71 531q0 113 38.5 213.5t109 176t177 120t233.5 44.5q177 0 309 -83l49 56h174l-120 -140q72 -75 110.5 -175t38.5 -212q0 -114 -39 -215t-109.5 -177.5t-177.5 -121t-235 -44.5q-185 0 -318 88l-52 -61h-171l125 147q-69 75 -105.5 173.5t-36.5 210.5zM360 531 q0 -94 37 -167l370 436q-58 37 -138 37q-84 0 -146 -42.5t-92.5 -111t-30.5 -152.5zM483 263q57 -42 146 -42q84 0 147 43t94 112.5t31 154.5q0 96 -44 172z" />
<glyph unicode="&#xf9;" d="M138 307v751h278v-642q0 -105 50 -150t145 -45q75 0 138.5 34.5t103.5 85.5v717h278v-1058h-278v134q-62 -69 -157 -115t-216 -46q-170 0 -256 87.5t-86 246.5zM224 1534h253l297 -315h-195z" />
<glyph unicode="&#xfa;" d="M138 307v751h278v-642q0 -105 50 -150t145 -45q75 0 138.5 34.5t103.5 85.5v717h278v-1058h-278v134q-62 -69 -157 -115t-216 -46q-170 0 -256 87.5t-86 246.5zM493 1219l293 315h257l-355 -315h-195z" />
<glyph unicode="&#xfb;" d="M138 307v751h278v-642q0 -105 50 -150t145 -45q75 0 138.5 34.5t103.5 85.5v717h278v-1058h-278v134q-62 -69 -157 -115t-216 -46q-170 0 -256 87.5t-86 246.5zM307 1219l201 315h251l205 -315h-171l-160 194l-156 -194h-170z" />
<glyph unicode="&#xfc;" d="M138 307v751h278v-642q0 -105 50 -150t145 -45q75 0 138.5 34.5t103.5 85.5v717h278v-1058h-278v134q-62 -69 -157 -115t-216 -46q-170 0 -256 87.5t-86 246.5zM255 1339q0 61 43 104t105 43q61 0 104 -43t43 -104q0 -63 -42.5 -106t-104.5 -43t-105 43t-43 106z M717 1339q0 60 44 103.5t105 43.5t104.5 -43.5t43.5 -103.5q0 -63 -43.5 -106t-105 -43t-105 43t-43.5 106z" />
<glyph unicode="&#xfd;" horiz-adv-x="1123" d="M-13 1058h298l276 -736l276 736h300l-497 -1231q-29 -73 -70 -123.5t-93.5 -78.5t-109 -40t-128.5 -14q-27 0 -70 4.5t-68 10.5l41 249q40 -17 88 -17q56 0 91.5 18t55.5 59l39 90zM421 1219l294 315h255l-355 -315h-194z" />
<glyph unicode="&#xfe;" horiz-adv-x="1276" d="M138 -403v1865h278v-538q61 78 145.5 119.5t181.5 41.5q102 0 188 -37.5t148.5 -107t97.5 -174.5t35 -235t-35 -236t-97.5 -176t-149 -108t-187.5 -38q-96 0 -180 41t-147 122v-539h-278zM416 341q35 -49 103.5 -84.5t135.5 -35.5q120 0 193.5 85.5t73.5 224.5 q0 136 -73.5 221t-193.5 85q-67 0 -135.5 -34.5t-103.5 -85.5v-376z" />
<glyph unicode="&#xff;" horiz-adv-x="1123" d="M-13 1058h298l276 -736l276 736h300l-497 -1231q-29 -73 -70 -123.5t-93.5 -78.5t-109 -40t-128.5 -14q-27 0 -70 4.5t-68 10.5l41 249q40 -17 88 -17q56 0 91.5 18t55.5 59l39 90zM182 1339q0 61 43 104t106 43q61 0 103.5 -43t42.5 -104q0 -63 -42.5 -106t-103.5 -43 q-63 0 -106 43t-43 106zM644 1339q0 60 44 103.5t105 43.5t105.5 -43.5t44.5 -103.5q0 -63 -44.5 -106t-105.5 -43t-105 43t-44 106z" />
<glyph unicode="&#x100;" horiz-adv-x="1498" d="M-11 0l565 1462h391l563 -1462h-356l-89 247h-626l-92 -247h-356zM351 1598v157h795v-157h-795zM521 521h456l-228 629z" />
<glyph unicode="&#x101;" horiz-adv-x="1189" d="M71 324q0 72 22 130.5t58.5 97t85 65t99 38.5t103.5 12q106 0 194 -34t141 -96v142q0 81 -64 129.5t-169 48.5q-174 0 -309 -125l-105 186q95 83 214.5 125t248.5 42q75 0 140.5 -12t125.5 -41.5t102.5 -74.5t68 -115t25.5 -158v-684h-278v109q-55 -64 -143.5 -100 t-191.5 -36q-52 0 -103.5 13.5t-99.5 42.5t-84.5 69.5t-58.5 99t-22 126.5zM193 1232v157h796v-157h-796zM351 318q0 -72 57 -113.5t142 -41.5q70 0 130 23.5t94 68.5v130q-34 45 -94 68.5t-130 23.5q-85 0 -142 -42.5t-57 -116.5z" />
<glyph unicode="&#x102;" horiz-adv-x="1498" d="M-11 0l565 1462h391l563 -1462h-356l-89 247h-626l-92 -247h-356zM364 1723l123 102q45 -64 112 -99.5t150 -35.5q81 0 148 35t113 100l123 -102q-67 -91 -167.5 -142t-216.5 -51q-115 0 -216 51.5t-169 141.5zM521 521h456l-228 629z" />
<glyph unicode="&#x103;" horiz-adv-x="1189" d="M71 324q0 72 22 130.5t58.5 97t85 65t99 38.5t103.5 12q106 0 194 -34t141 -96v142q0 81 -64 129.5t-169 48.5q-174 0 -309 -125l-105 186q95 83 214.5 125t248.5 42q75 0 140.5 -12t125.5 -41.5t102.5 -74.5t68 -115t25.5 -158v-684h-278v109q-55 -64 -143.5 -100 t-191.5 -36q-52 0 -103.5 13.5t-99.5 42.5t-84.5 69.5t-58.5 99t-22 126.5zM207 1357l121 102q46 -64 113.5 -99.5t150.5 -35.5q81 0 147.5 35t113.5 100l122 -102q-67 -91 -167 -142.5t-216 -51.5q-115 0 -216 51.5t-169 142.5zM351 318q0 -72 57 -113.5t142 -41.5 q70 0 130 23.5t94 68.5v130q-34 45 -94 68.5t-130 23.5q-85 0 -142 -42.5t-57 -116.5z" />
<glyph unicode="&#x104;" horiz-adv-x="1498" d="M-11 0l565 1462h391l563 -1462q-153 -77 -153 -197q0 -47 23 -70.5t57 -23.5q35 0 59 20.5t36 55.5l111 -70q-69 -123 -206 -123q-45 0 -83.5 11.5t-69 34.5t-48 61.5t-17.5 89.5q0 123 98 211h-163l-89 247h-626l-92 -247h-356zM521 521h456l-228 629z" />
<glyph unicode="&#x105;" horiz-adv-x="1189" d="M71 324q0 72 22 130.5t58.5 97t85 65t99 38.5t103.5 12q106 0 194 -34t141 -96v142q0 81 -64 129.5t-169 48.5q-174 0 -309 -125l-105 186q95 83 214.5 125t248.5 42q75 0 140.5 -12t125.5 -41.5t102.5 -74.5t68 -115t25.5 -158v-684q-153 -77 -153 -197q0 -47 23 -70.5 t57 -23.5q35 0 59 20.5t36 55.5l112 -70q-69 -123 -207 -123q-45 0 -83.5 11.5t-69 34.5t-48 61.5t-17.5 89.5q0 123 98 211h-85v109q-55 -64 -143.5 -100t-191.5 -36q-52 0 -103.5 13.5t-99.5 42.5t-84.5 69.5t-58.5 99t-22 126.5zM351 318q0 -72 57 -113.5t142 -41.5 q70 0 130 23.5t94 68.5v130q-34 45 -94 68.5t-130 23.5q-85 0 -142 -42.5t-57 -116.5z" />
<glyph unicode="&#x106;" horiz-adv-x="1504" d="M75 729.5q0 165.5 60 307.5t164 240t247.5 153.5t306.5 55.5q93 0 177 -20t147.5 -53t119.5 -80t95 -96.5t72 -107.5l-268 -132q-47 93 -140 152.5t-203 59.5q-131 0 -236 -62t-163.5 -171.5t-58.5 -246t58.5 -246t163.5 -172t236 -62.5q110 0 203 60t140 153l268 -129 q-34 -58 -73 -107.5t-95 -97.5t-119.5 -81t-147 -53.5t-176.5 -20.5q-163 0 -306.5 55.5t-247.5 154t-164 240t-60 307zM713 1585l293 315h257l-356 -315h-194z" />
<glyph unicode="&#x107;" horiz-adv-x="1092" d="M71 531q0 120 42 223t115.5 175.5t178 114t224.5 41.5q78 0 146.5 -16t119 -43.5t87.5 -60t66 -70.5l-182 -172q-76 114 -224 114q-127 0 -207 -84.5t-80 -221.5q0 -138 80 -224t207 -86q143 0 224 114l182 -168q-29 -40 -66 -72.5t-87.5 -61t-118.5 -44.5t-147 -16 q-121 0 -225 41.5t-177.5 114.5t-115.5 177t-42 225zM491 1219l293 315h257l-355 -315h-195z" />
<glyph unicode="&#x108;" horiz-adv-x="1504" d="M75 729.5q0 165.5 60 307.5t164 240t247.5 153.5t306.5 55.5q93 0 177 -20t147.5 -53t119.5 -80t95 -96.5t72 -107.5l-268 -132q-47 93 -140 152.5t-203 59.5q-131 0 -236 -62t-163.5 -171.5t-58.5 -246t58.5 -246t163.5 -172t236 -62.5q110 0 203 60t140 153l268 -129 q-34 -58 -73 -107.5t-95 -97.5t-119.5 -81t-147 -53.5t-176.5 -20.5q-163 0 -306.5 55.5t-247.5 154t-164 240t-60 307zM521 1585l202 315h250l206 -315h-171l-159 194l-157 -194h-171z" />
<glyph unicode="&#x109;" horiz-adv-x="1092" d="M71 531q0 120 42 223t115.5 175.5t178 114t224.5 41.5q78 0 146.5 -16t119 -43.5t87.5 -60t66 -70.5l-182 -172q-76 114 -224 114q-127 0 -207 -84.5t-80 -221.5q0 -138 80 -224t207 -86q143 0 224 114l182 -168q-29 -40 -66 -72.5t-87.5 -61t-118.5 -44.5t-147 -16 q-121 0 -225 41.5t-177.5 114.5t-115.5 177t-42 225zM311 1219l202 315h250l205 -315h-171l-159 194l-155 -194h-172z" />
<glyph unicode="&#x10a;" horiz-adv-x="1504" d="M75 729.5q0 165.5 60 307.5t164 240t247.5 153.5t306.5 55.5q93 0 177 -20t147.5 -53t119.5 -80t95 -96.5t72 -107.5l-268 -132q-47 93 -140 152.5t-203 59.5q-131 0 -236 -62t-163.5 -171.5t-58.5 -246t58.5 -246t163.5 -172t236 -62.5q110 0 203 60t140 153l268 -129 q-34 -58 -73 -107.5t-95 -97.5t-119.5 -81t-147 -53.5t-176.5 -20.5q-163 0 -306.5 55.5t-247.5 154t-164 240t-60 307zM710 1705q0 61 43.5 105t105.5 44q60 0 103.5 -44.5t43.5 -104.5q0 -63 -43.5 -106t-103.5 -43q-62 0 -105.5 43t-43.5 106z" />
<glyph unicode="&#x10b;" horiz-adv-x="1092" d="M71 531q0 120 42 223t115.5 175.5t178 114t224.5 41.5q78 0 146.5 -16t119 -43.5t87.5 -60t66 -70.5l-182 -172q-76 114 -224 114q-127 0 -207 -84.5t-80 -221.5q0 -138 80 -224t207 -86q143 0 224 114l182 -168q-29 -40 -66 -72.5t-87.5 -61t-118.5 -44.5t-147 -16 q-121 0 -225 41.5t-177.5 114.5t-115.5 177t-42 225zM485 1339q0 61 43 105t105 44q60 0 103.5 -44.5t43.5 -104.5q0 -62 -43.5 -105.5t-103.5 -43.5q-62 0 -105 43t-43 106z" />
<glyph unicode="&#x10c;" horiz-adv-x="1504" d="M75 729.5q0 165.5 60 307.5t164 240t247.5 153.5t306.5 55.5q93 0 177 -20t147.5 -53t119.5 -80t95 -96.5t72 -107.5l-268 -132q-47 93 -140 152.5t-203 59.5q-131 0 -236 -62t-163.5 -171.5t-58.5 -246t58.5 -246t163.5 -172t236 -62.5q110 0 203 60t140 153l268 -129 q-34 -58 -73 -107.5t-95 -97.5t-119.5 -81t-147 -53.5t-176.5 -20.5q-163 0 -306.5 55.5t-247.5 154t-164 240t-60 307zM521 1900h171l163 -198l153 198h171l-200 -315h-249z" />
<glyph unicode="&#x10d;" horiz-adv-x="1092" d="M71 531q0 120 42 223t115.5 175.5t178 114t224.5 41.5q78 0 146.5 -16t119 -43.5t87.5 -60t66 -70.5l-182 -172q-76 114 -224 114q-127 0 -207 -84.5t-80 -221.5q0 -138 80 -224t207 -86q143 0 224 114l182 -168q-29 -40 -66 -72.5t-87.5 -61t-118.5 -44.5t-147 -16 q-121 0 -225 41.5t-177.5 114.5t-115.5 177t-42 225zM311 1534h172l161 -198l153 198h171l-199 -315h-250z" />
<glyph unicode="&#x10e;" horiz-adv-x="1572" d="M144 0v1462h577q170 0 314 -53t246 -147.5t159 -231.5t57 -300t-57 -299.5t-159 -231t-246 -147t-314 -52.5h-577zM456 274h265q106 0 193.5 36.5t144.5 99t88.5 145t31.5 175.5q0 98 -29.5 181t-86 145t-144.5 97t-198 35h-265v-914zM464 1900h172l161 -198l154 198h171 l-200 -315h-249z" />
<glyph unicode="&#x10f;" horiz-adv-x="1511" d="M71 529q0 127 35 232.5t97.5 176t148.5 109t187 38.5q95 0 180 -41.5t147 -121.5v540h280v-1462h-280v136q-63 -79 -147 -121t-180 -42q-100 0 -185.5 37.5t-148.5 107.5t-98.5 175.5t-35.5 235.5zM357 529q0 -137 75 -222.5t193 -85.5q71 0 138.5 34t102.5 86v376 q-35 53 -102.5 86.5t-138.5 33.5q-119 0 -193.5 -85.5t-74.5 -222.5zM1236 1350q0 58 38.5 98t95.5 40q64 0 109.5 -48t45.5 -129q0 -97 -49.5 -183t-132.5 -146l-96 76q45 26 86.5 77t51.5 97q-9 -5 -33 -5q-49 0 -82.5 34.5t-33.5 88.5z" />
<glyph unicode="&#x110;" horiz-adv-x="1625" d="M17 607v230h182v625h577q170 0 314 -53t245.5 -147.5t159 -231.5t57.5 -300t-57.5 -299.5t-159 -231t-245.5 -147t-314 -52.5h-577v607h-182zM510 274h266q105 0 192.5 36.5t145 99t89 145t31.5 175.5q0 98 -30 181t-86 145t-144 97t-198 35h-266v-351h327v-230h-327 v-333z" />
<glyph unicode="&#x111;" horiz-adv-x="1292" d="M71 529q0 127 35 232.5t97.5 176t148.5 109t187 38.5q95 0 180 -41.5t147 -121.5v235h-318v158h318v147h280v-147h127v-158h-127v-1157h-280v136q-63 -79 -147 -121t-180 -42q-100 0 -185.5 37.5t-148.5 107.5t-98.5 175.5t-35.5 235.5zM357 529q0 -137 75 -222.5 t193 -85.5q71 0 138.5 34t102.5 86v376q-35 53 -102.5 86.5t-138.5 33.5q-119 0 -193.5 -85.5t-74.5 -222.5z" />
<glyph unicode="&#x112;" horiz-adv-x="1276" d="M144 0v1462h1035v-274h-723v-310h707v-273h-707v-331h723v-274h-1035zM261 1598v157h795v-157h-795z" />
<glyph unicode="&#x113;" horiz-adv-x="1211" d="M71 531q0 114 40.5 216t112 176.5t174 118t220.5 43.5q157 0 277.5 -73t186.5 -206t66 -304v-61h-786q13 -106 94 -176t211 -70q70 0 151.5 29t130.5 77l122 -180q-77 -71 -193 -109.5t-242 -38.5q-120 0 -224 40t-179.5 111.5t-118.5 176.5t-43 230zM219 1232v157h795 v-157h-795zM357 629h521q-2 32 -11.5 63.5t-29.5 62.5t-49 55t-73 38.5t-97 14.5q-61 0 -111 -21t-80 -56.5t-47 -75t-23 -81.5z" />
<glyph unicode="&#x114;" horiz-adv-x="1276" d="M144 0v1462h1035v-274h-723v-310h707v-273h-707v-331h723v-274h-1035zM276 1723l123 102q45 -64 112 -99.5t150 -35.5q81 0 148 35t113 100l123 -102q-66 -91 -166.5 -142t-217.5 -51q-115 0 -216 51.5t-169 141.5z" />
<glyph unicode="&#x115;" horiz-adv-x="1211" d="M71 531q0 114 40.5 216t112 176.5t174 118t220.5 43.5q157 0 277.5 -73t186.5 -206t66 -304v-61h-786q13 -106 94 -176t211 -70q70 0 151.5 29t130.5 77l122 -180q-77 -71 -193 -109.5t-242 -38.5q-120 0 -224 40t-179.5 111.5t-118.5 176.5t-43 230zM236 1357l124 102 q45 -64 112.5 -99.5t150.5 -35.5q80 0 146.5 35t113.5 100l123 -102q-67 -91 -167 -142.5t-216 -51.5q-115 0 -216.5 51.5t-170.5 142.5zM357 629h521q-2 32 -11.5 63.5t-29.5 62.5t-49 55t-73 38.5t-97 14.5q-61 0 -111 -21t-80 -56.5t-47 -75t-23 -81.5z" />
<glyph unicode="&#x116;" horiz-adv-x="1276" d="M144 0v1462h1035v-274h-723v-310h707v-273h-707v-331h723v-274h-1035zM515 1705q0 61 43.5 105t105.5 44q60 0 103.5 -44.5t43.5 -104.5q0 -63 -43.5 -106t-103.5 -43q-62 0 -105.5 43t-43.5 106z" />
<glyph unicode="&#x117;" horiz-adv-x="1211" d="M71 531q0 114 40.5 216t112 176.5t174 118t220.5 43.5q157 0 277.5 -73t186.5 -206t66 -304v-61h-786q13 -106 94 -176t211 -70q70 0 151.5 29t130.5 77l122 -180q-77 -71 -193 -109.5t-242 -38.5q-120 0 -224 40t-179.5 111.5t-118.5 176.5t-43 230zM357 629h521 q-2 32 -11.5 63.5t-29.5 62.5t-49 55t-73 38.5t-97 14.5q-61 0 -111 -21t-80 -56.5t-47 -75t-23 -81.5zM475 1339q0 61 44 105t106 44q59 0 102.5 -44.5t43.5 -104.5q0 -62 -43 -105.5t-103 -43.5q-63 0 -106.5 43t-43.5 106z" />
<glyph unicode="&#x118;" horiz-adv-x="1276" d="M144 0v1462h1035v-274h-723v-310h707v-273h-707v-331h723v-274q-154 -77 -154 -197q0 -47 23.5 -70.5t58 -23.5t58.5 20.5t36 55.5l112 -70q-69 -123 -207 -123q-45 0 -83.5 11.5t-69.5 34.5t-48.5 61.5t-17.5 89.5q0 122 100 211h-843z" />
<glyph unicode="&#x119;" horiz-adv-x="1211" d="M71 531q0 114 40.5 216t112 176.5t174 118t220.5 43.5q157 0 277.5 -73t186.5 -206t66 -304v-61h-786q13 -106 94 -176t211 -70q70 0 151.5 29t130.5 77l122 -180q-87 -81 -232 -121q-153 -77 -153 -197q0 -47 23.5 -70.5t58 -23.5t58 20.5t35.5 55.5l112 -70 q-69 -123 -206 -123q-45 0 -83.5 11.5t-69.5 34.5t-48.5 61.5t-17.5 89.5q0 101 73 184q-118 3 -219.5 43.5t-174.5 112t-114.5 175t-41.5 227.5zM357 629h521q-2 32 -11.5 63.5t-29.5 62.5t-49 55t-73 38.5t-97 14.5q-61 0 -111 -21t-80 -56.5t-47 -75t-23 -81.5z" />
<glyph unicode="&#x11a;" horiz-adv-x="1276" d="M144 0v1462h1035v-274h-723v-310h707v-273h-707v-331h723v-274h-1035zM335 1900h171l163 -198l153 198h171l-200 -315h-249z" />
<glyph unicode="&#x11b;" horiz-adv-x="1211" d="M71 531q0 114 40.5 216t112 176.5t174 118t220.5 43.5q157 0 277.5 -73t186.5 -206t66 -304v-61h-786q13 -106 94 -176t211 -70q70 0 151.5 29t130.5 77l122 -180q-77 -71 -193 -109.5t-242 -38.5q-120 0 -224 40t-179.5 111.5t-118.5 176.5t-43 230zM289 1534h171 l163 -198l153 198h171l-200 -315h-249zM357 629h521q-2 32 -11.5 63.5t-29.5 62.5t-49 55t-73 38.5t-97 14.5q-61 0 -111 -21t-80 -56.5t-47 -75t-23 -81.5z" />
<glyph unicode="&#x11c;" horiz-adv-x="1577" d="M75 730q0 136 39.5 255.5t111.5 210.5t168.5 156.5t213.5 99.5t245 34q110 0 206.5 -26t170 -73t129 -103t98.5 -125l-259 -140q-52 82 -143.5 136t-201.5 54q-131 0 -236 -62t-163.5 -171.5t-58.5 -246t58.5 -246t163.5 -172t236 -62.5q91 0 176 33.5t134 79.5v175h-385 v272h696v-562q-116 -130 -272.5 -203t-348.5 -73q-128 0 -245 34.5t-213.5 100.5t-168.5 157.5t-111.5 211t-39.5 255.5zM531 1585l201 315h250l206 -315h-172l-159 194l-156 -194h-170z" />
<glyph unicode="&#x11d;" horiz-adv-x="1281" d="M71 546q0 127 35 230t97.5 170t148 103t185.5 36q196 0 326 -163v136h281v-985q0 -84 -18 -154.5t-49.5 -121.5t-75.5 -91t-93.5 -65t-107.5 -41t-113.5 -22.5t-114.5 -6.5q-140 0 -249 36t-206 121l124 201q118 -130 331 -130q43 0 82 7.5t78 26.5t67.5 48t46 76.5 t17.5 107.5v108q-63 -80 -146.5 -123.5t-179.5 -43.5q-100 0 -185 35.5t-147.5 102t-98 169.5t-35.5 233zM324 1219l202 315h250l206 -315h-171l-160 194l-156 -194h-171zM357 545.5q0 -134.5 74 -212.5t194 -78q68 0 136 34t102 85v343q-34 53 -101.5 86.5t-136.5 33.5 q-120 0 -194 -78.5t-74 -213z" />
<glyph unicode="&#x11e;" horiz-adv-x="1577" d="M75 730q0 136 39.5 255.5t111.5 210.5t168.5 156.5t213.5 99.5t245 34q110 0 206.5 -26t170 -73t129 -103t98.5 -125l-259 -140q-52 82 -143.5 136t-201.5 54q-131 0 -236 -62t-163.5 -171.5t-58.5 -246t58.5 -246t163.5 -172t236 -62.5q91 0 176 33.5t134 79.5v175h-385 v272h696v-562q-116 -130 -272.5 -203t-348.5 -73q-128 0 -245 34.5t-213.5 100.5t-168.5 157.5t-111.5 211t-39.5 255.5zM471 1723l123 102q45 -64 112.5 -99.5t150.5 -35.5q81 0 147.5 35t112.5 100l123 -102q-67 -91 -167 -142t-216 -51q-115 0 -216.5 51.5t-169.5 141.5z " />
<glyph unicode="&#x11f;" horiz-adv-x="1281" d="M71 546q0 127 35 230t97.5 170t148 103t185.5 36q196 0 326 -163v136h281v-985q0 -84 -18 -154.5t-49.5 -121.5t-75.5 -91t-93.5 -65t-107.5 -41t-113.5 -22.5t-114.5 -6.5q-140 0 -249 36t-206 121l124 201q118 -130 331 -130q43 0 82 7.5t78 26.5t67.5 48t46 76.5 t17.5 107.5v108q-63 -80 -146.5 -123.5t-179.5 -43.5q-100 0 -185 35.5t-147.5 102t-98 169.5t-35.5 233zM259 1357l122 102q45 -64 112.5 -99.5t150.5 -35.5q81 0 148 35t113 100l123 -102q-67 -91 -167.5 -142.5t-216.5 -51.5q-115 0 -216 51.5t-169 142.5zM357 545.5 q0 -134.5 74 -212.5t194 -78q68 0 136 34t102 85v343q-34 53 -101.5 86.5t-136.5 33.5q-120 0 -194 -78.5t-74 -213z" />
<glyph unicode="&#x120;" horiz-adv-x="1577" d="M75 730q0 136 39.5 255.5t111.5 210.5t168.5 156.5t213.5 99.5t245 34q110 0 206.5 -26t170 -73t129 -103t98.5 -125l-259 -140q-52 82 -143.5 136t-201.5 54q-131 0 -236 -62t-163.5 -171.5t-58.5 -246t58.5 -246t163.5 -172t236 -62.5q91 0 176 33.5t134 79.5v175h-385 v272h696v-562q-116 -130 -272.5 -203t-348.5 -73q-128 0 -245 34.5t-213.5 100.5t-168.5 157.5t-111.5 211t-39.5 255.5zM708 1705q0 61 43.5 105t105.5 44q60 0 103.5 -44.5t43.5 -104.5q0 -63 -43.5 -106t-103.5 -43q-63 0 -106 43t-43 106z" />
<glyph unicode="&#x121;" horiz-adv-x="1281" d="M71 546q0 127 35 230t97.5 170t148 103t185.5 36q196 0 326 -163v136h281v-985q0 -84 -18 -154.5t-49.5 -121.5t-75.5 -91t-93.5 -65t-107.5 -41t-113.5 -22.5t-114.5 -6.5q-140 0 -249 36t-206 121l124 201q118 -130 331 -130q43 0 82 7.5t78 26.5t67.5 48t46 76.5 t17.5 107.5v108q-63 -80 -146.5 -123.5t-179.5 -43.5q-100 0 -185 35.5t-147.5 102t-98 169.5t-35.5 233zM357 545.5q0 -134.5 74 -212.5t194 -78q68 0 136 34t102 85v343q-34 53 -101.5 86.5t-136.5 33.5q-120 0 -194 -78.5t-74 -213zM504 1339q0 61 43.5 105t105.5 44 q59 0 103 -44.5t44 -104.5q0 -62 -43.5 -105.5t-103.5 -43.5q-63 0 -106 43t-43 106z" />
<glyph unicode="&#x122;" horiz-adv-x="1577" d="M75 730q0 136 39.5 255.5t111.5 210.5t168.5 156.5t213.5 99.5t245 34q110 0 206.5 -26t170 -73t129 -103t98.5 -125l-259 -140q-52 82 -143.5 136t-201.5 54q-131 0 -236 -62t-163.5 -171.5t-58.5 -246t58.5 -246t163.5 -172t236 -62.5q91 0 176 33.5t134 79.5v175h-385 v272h696v-562q-116 -130 -272.5 -203t-348.5 -73q-128 0 -245 34.5t-213.5 100.5t-168.5 157.5t-111.5 211t-39.5 255.5zM721 -263q0 58 39 98t95 40q64 0 109.5 -48t45.5 -130q0 -97 -49.5 -182.5t-132.5 -145.5l-96 77q46 26 87.5 76.5t50.5 96.5q-9 -4 -33 -4 q-50 0 -83 34t-33 88z" />
<glyph unicode="&#x123;" horiz-adv-x="1281" d="M71 546q0 127 35 230t97.5 170t148 103t185.5 36q196 0 326 -163v136h281v-985q0 -84 -18 -154.5t-49.5 -121.5t-75.5 -91t-93.5 -65t-107.5 -41t-113.5 -22.5t-114.5 -6.5q-140 0 -249 36t-206 121l124 201q118 -130 331 -130q43 0 82 7.5t78 26.5t67.5 48t46 76.5 t17.5 107.5v108q-63 -80 -146.5 -123.5t-179.5 -43.5q-100 0 -185 35.5t-147.5 102t-98 169.5t-35.5 233zM357 545.5q0 -134.5 74 -212.5t194 -78q68 0 136 34t102 85v343q-34 53 -101.5 86.5t-136.5 33.5q-120 0 -194 -78.5t-74 -213zM502 1339q0 105 46 194.5t129 147.5 l94 -77q-45 -27 -87 -74.5t-48 -89.5q1 0 6 1t9 1q49 0 90 -37.5t41 -91.5q0 -57 -40.5 -98.5t-99.5 -41.5q-23 0 -46 8.5t-45 26t-35.5 51.5t-13.5 80z" />
<glyph unicode="&#x124;" horiz-adv-x="1601" d="M144 0v1462h312v-575h690v575h313v-1462h-313v613h-690v-613h-312zM469 1585l202 315h249l207 -315h-171l-161 194l-155 -194h-171z" />
<glyph unicode="&#x125;" horiz-adv-x="1270" d="M138 0v1462h278v-542q57 69 154.5 117t218.5 48q170 0 257 -87.5t87 -246.5v-751h-278v644q0 105 -50.5 149t-147.5 44q-75 0 -137.5 -36t-103.5 -88v-713h-278zM309 1585l201 315h251l205 -315h-171l-159 194l-156 -194h-171z" />
<glyph unicode="&#x126;" horiz-adv-x="1638" d="M17 1091v158h146v213h310v-213h690v213h314v-213h142v-158h-142v-1091h-314v613h-690v-613h-310v1091h-146zM473 887h690v204h-690v-204z" />
<glyph unicode="&#x127;" horiz-adv-x="1279" d="M17 1157v158h130v147h278v-147h318v-158h-318v-237q57 69 154.5 117t217.5 48q171 0 258 -87.5t87 -246.5v-751h-279v644q0 105 -50 149t-146 44q-75 0 -138.5 -36t-103.5 -88v-713h-278v1157h-130z" />
<glyph unicode="&#x128;" horiz-adv-x="600" d="M-55 1593q0 141 61.5 217t175.5 76q40 0 73.5 -15t55.5 -36.5t41 -43t40.5 -36.5t44.5 -15q34 0 56 33.5t22 100.5h146q0 -141 -60 -217.5t-174 -76.5q-41 0 -75 15.5t-56 37.5t-41 43.5t-40 37t-44 15.5q-35 0 -57 -34t-22 -102h-147zM144 0v1462h312v-1462h-312z" />
<glyph unicode="&#x129;" horiz-adv-x="554" d="M-81 1227q0 141 61 217t175 76q40 0 73.5 -15t55.5 -36.5t41 -43t40.5 -36.5t44.5 -15q35 0 57 34t22 100h147q0 -141 -60.5 -217.5t-174.5 -76.5q-41 0 -75 15.5t-56 37.5t-41 44t-40.5 37t-44.5 15q-35 0 -57 -34t-22 -102h-146zM138 0v1058h278v-1058h-278z" />
<glyph unicode="&#x12a;" horiz-adv-x="600" d="M-96 1598v157h795v-157h-795zM144 0v1462h312v-1462h-312z" />
<glyph unicode="&#x12b;" horiz-adv-x="554" d="M-121 1232v157h796v-157h-796zM138 0v1058h278v-1058h-278z" />
<glyph unicode="&#x12c;" horiz-adv-x="600" d="M-79 1723l123 102q45 -64 112.5 -99.5t150.5 -35.5q81 0 147.5 35t112.5 100l123 -102q-67 -91 -167 -142t-216 -51q-115 0 -216.5 51.5t-169.5 141.5zM144 0v1462h312v-1462h-312z" />
<glyph unicode="&#x12d;" horiz-adv-x="554" d="M-107 1357l122 102q45 -64 112.5 -99.5t150.5 -35.5q81 0 148 35t113 100l122 -102q-67 -91 -167 -142.5t-216 -51.5q-115 0 -216 51.5t-169 142.5zM138 0v1058h278v-1058h-278z" />
<glyph unicode="&#x12e;" horiz-adv-x="600" d="M144 0v1462h312v-1462q-153 -77 -153 -197q0 -47 23 -70.5t57 -23.5q35 0 58.5 20.5t35.5 55.5l113 -70q-69 -123 -207 -123q-45 0 -83.5 11.5t-69 34.5t-48 61.5t-17.5 89.5q0 123 98 211h-119z" />
<glyph unicode="&#x12f;" horiz-adv-x="554" d="M109 1338.5q0 68.5 49.5 116.5t117.5 48q69 0 118 -48t49 -116.5t-49 -117t-118 -48.5q-68 0 -117.5 48.5t-49.5 117zM125 -211q0 123 99 211h-86v1058h278v-1058q-153 -77 -153 -197q0 -47 23.5 -70.5t58 -23.5t58.5 20.5t36 55.5l111 -70q-69 -123 -205 -123 q-46 0 -84.5 11.5t-69.5 34.5t-48.5 61.5t-17.5 89.5z" />
<glyph unicode="&#x130;" horiz-adv-x="600" d="M144 0v1462h312v-1462h-312zM155 1705q0 61 44 105t106 44q59 0 103 -44.5t44 -104.5q0 -63 -43.5 -106t-103.5 -43q-63 0 -106.5 43t-43.5 106z" />
<glyph unicode="&#x131;" horiz-adv-x="554" d="M138 0v1058h278v-1058h-278z" />
<glyph unicode="&#x132;" horiz-adv-x="1664" d="M144 0v1462h312v-1462h-312zM613 117l136 238q110 -106 233 -106q104 0 165.5 64.5t61.5 171.5v977h311v-982q0 -127 -37.5 -224.5t-106.5 -159t-162.5 -92.5t-207.5 -31q-247 0 -393 144z" />
<glyph unicode="&#x133;" horiz-adv-x="1106" d="M109 1338.5q0 68.5 49.5 116.5t117.5 48q69 0 118 -48t49 -116.5t-49 -117t-118 -48.5q-68 0 -117.5 48.5t-49.5 117zM138 0v1058h278v-1058h-278zM328 -355l78 208q33 -28 65 -41t77 -13q67 0 105.5 43t38.5 129v1087h278v-1087q0 -186 -95 -293t-281 -107 q-96 0 -150 16t-116 58zM664 1338.5q0 68.5 49 116.5t117 48q70 0 118.5 -48t48.5 -116.5t-49 -117t-118 -48.5q-67 0 -116.5 48.5t-49.5 117z" />
<glyph unicode="&#x134;" horiz-adv-x="1064" d="M13 117l136 238q110 -106 232 -106q103 0 165.5 64.5t62.5 171.5v977h311v-982q0 -127 -38 -224.5t-107 -159t-162 -92.5t-207 -31q-247 0 -393 144zM439 1585l201 315h249l207 -315h-172l-159 194l-156 -194h-170z" />
<glyph unicode="&#x135;" horiz-adv-x="554" d="M-226 -355l77 215q34 -27 66 -40t77 -13q66 0 105 42t39 122v1087h278v-1087q0 -186 -95 -293t-281 -107q-96 0 -150.5 16t-115.5 58zM-46 1219l201 315h251l205 -315h-170l-161 194l-155 -194h-171z" />
<glyph unicode="&#x136;" horiz-adv-x="1419" d="M144 0v1462h312v-653l517 653h384l-581 -686l620 -776h-384l-443 585l-113 -136v-449h-312zM577 -263q0 58 38.5 98t94.5 40q65 0 110.5 -48t45.5 -130q0 -97 -49.5 -182.5t-132.5 -145.5l-97 77q46 26 87.5 76.5t50.5 96.5q-8 -4 -33 -4q-49 0 -82 34t-33 88z" />
<glyph unicode="&#x137;" horiz-adv-x="1171" d="M138 0v1462h278v-875l401 471h342l-419 -479l433 -579h-349l-280 408l-128 -136v-272h-278zM454 -263q0 58 38.5 98t94.5 40q65 0 110.5 -48t45.5 -130q0 -97 -49.5 -182.5t-132.5 -145.5l-97 77q46 26 87.5 76.5t50.5 96.5q-8 -4 -33 -4q-49 0 -82 34t-33 88z" />
<glyph unicode="&#x138;" horiz-adv-x="1171" d="M138 0v1058h278v-471l401 471h342l-419 -479l433 -579h-349l-280 408l-128 -136v-272h-278z" />
<glyph unicode="&#x139;" horiz-adv-x="1145" d="M144 0v1462h312v-1188h618v-274h-930zM469 1585l294 315h256l-355 -315h-195z" />
<glyph unicode="&#x13a;" horiz-adv-x="554" d="M138 0v1462h278v-1462h-278zM138 1585l293 315h257l-355 -315h-195z" />
<glyph unicode="&#x13b;" horiz-adv-x="1145" d="M144 0v1462h312v-1188h618v-274h-930zM437 -263q0 58 38 98t94 40q65 0 110.5 -48t45.5 -130q0 -97 -49 -182.5t-132 -145.5l-97 77q46 26 87.5 76.5t50.5 96.5q-8 -4 -33 -4q-49 0 -82 34t-33 88z" />
<glyph unicode="&#x13c;" horiz-adv-x="554" d="M138 0v1462h278v-1462h-278zM144 -263q0 58 39 98t95 40q65 0 110.5 -48t45.5 -130q0 -97 -49 -182.5t-132 -145.5l-98 77q46 26 87.5 76.5t50.5 96.5q-8 -4 -32 -4q-50 0 -83.5 34t-33.5 88z" />
<glyph unicode="&#x13d;" horiz-adv-x="1145" d="M144 0v1462h312v-1188h618v-274h-930zM633 1352q0 58 39 98.5t95 40.5q64 0 109.5 -48t45.5 -130q0 -97 -49 -183t-133 -146l-96 76q46 26 87.5 77t50.5 97q-8 -5 -33 -5q-49 0 -82.5 34.5t-33.5 88.5z" />
<glyph unicode="&#x13e;" horiz-adv-x="774" d="M138 0v1462h278v-1462h-278zM529 1352q0 58 38 98.5t94 40.5q65 0 110.5 -48.5t45.5 -129.5q0 -97 -49 -183t-132 -146l-97 76q46 26 87.5 77t50.5 97q-8 -5 -33 -5q-49 0 -82 34.5t-33 88.5z" />
<glyph unicode="&#x13f;" horiz-adv-x="1187" d="M144 0v1462h312v-1188h618v-274h-930zM715 747q0 72 52.5 124.5t125 52.5t124.5 -52.5t52 -124.5q0 -71 -52.5 -123t-124.5 -52t-124.5 52t-52.5 123z" />
<glyph unicode="&#x140;" horiz-adv-x="841" d="M138 0v1462h278v-1462h-278zM519 535q0 72 52.5 125t125 53t125 -53t52.5 -125q0 -71 -52.5 -123t-124.5 -52t-125 52t-53 123z" />
<glyph unicode="&#x141;" horiz-adv-x="1175" d="M17 421v254l158 90v697h312v-517l168 96v-255l-168 -96v-416h617v-274h-929v510z" />
<glyph unicode="&#x142;" horiz-adv-x="674" d="M17 447v204l182 103v708h278v-548l178 102v-203l-178 -103v-710h-278v550z" />
<glyph unicode="&#x143;" horiz-adv-x="1596" d="M144 0v1462h320l678 -918v918h311v-1462h-301l-696 953v-953h-312zM659 1585l294 315h256l-354 -315h-196z" />
<glyph unicode="&#x144;" d="M138 0v1058h278v-138q58 69 154 117t216 48q171 0 258 -89.5t87 -248.5v-747h-278v640q0 105 -51 151t-145 46q-76 0 -139 -36t-102 -88v-713h-278zM495 1219l294 315h256l-355 -315h-195z" />
<glyph unicode="&#x145;" horiz-adv-x="1596" d="M144 0v1462h320l678 -918v918h311v-1462h-301l-696 953v-953h-312zM667 -263q0 58 38.5 98t94.5 40q65 0 110.5 -48t45.5 -130q0 -97 -49.5 -182.5t-132.5 -145.5l-97 77q46 26 87.5 76.5t50.5 96.5q-8 -4 -33 -4q-49 0 -82 34t-33 88z" />
<glyph unicode="&#x146;" d="M138 0v1058h278v-138q58 69 154 117t216 48q171 0 258 -89.5t87 -248.5v-747h-278v640q0 105 -51 151t-145 46q-76 0 -139 -36t-102 -88v-713h-278zM495 -263q0 58 39 98t95 40q64 0 109.5 -48t45.5 -130q0 -97 -49 -182.5t-133 -145.5l-96 77q46 26 87.5 76.5t50.5 96.5 q-8 -4 -33 -4q-50 0 -83 34t-33 88z" />
<glyph unicode="&#x147;" horiz-adv-x="1596" d="M144 0v1462h320l678 -918v918h311v-1462h-301l-696 953v-953h-312zM467 1900h171l162 -198l153 198h172l-201 -315h-249z" />
<glyph unicode="&#x148;" d="M138 0v1058h278v-138q58 69 154 117t216 48q171 0 258 -89.5t87 -248.5v-747h-278v640q0 105 -51 151t-145 46q-76 0 -139 -36t-102 -88v-713h-278zM307 1534h170l163 -198l153 198h171l-199 -315h-250z" />
<glyph unicode="&#x149;" d="M96 1537q0 57 39 97.5t95 40.5q64 0 109.5 -48t45.5 -130q0 -97 -49 -183t-133 -146l-96 76q46 26 87.5 77t50.5 97q-9 -5 -32 -5q-50 0 -83.5 35t-33.5 89zM138 0v1058h278v-138q58 69 154 117t216 48q171 0 258 -89.5t87 -248.5v-747h-278v640q0 105 -51 151t-145 46 q-76 0 -139 -36t-102 -88v-713h-278z" />
<glyph unicode="&#x14a;" horiz-adv-x="1596" d="M144 0v1462h320l678 -918v918h311v-1387q0 -127 -38 -224t-107 -158t-162 -91.5t-208 -30.5q-246 0 -394 142l138 239q104 -105 232 -105q87 0 146 46.5t75 127.5l-679 932v-953h-312z" />
<glyph unicode="&#x14b;" d="M138 0v1058h278v-138q58 69 154 117t216 48q171 0 258 -89.5t87 -248.5v-776q0 -187 -94.5 -293.5t-282.5 -106.5q-94 0 -147.5 16t-113.5 58l74 226q34 -27 66 -40t75 -13q67 0 106 39.5t39 113.5v669q0 105 -51 151t-145 46q-76 0 -139 -36t-102 -88v-713h-278z" />
<glyph unicode="&#x14c;" horiz-adv-x="1675" d="M75 730q0 163 57.5 303.5t158 240t242 156t304.5 56.5q164 0 306 -56.5t243 -156t158.5 -240t57.5 -303.5t-57.5 -304t-158.5 -240.5t-243 -156t-306 -56.5q-163 0 -304.5 56.5t-242 156t-158 240.5t-57.5 304zM395 730q0 -136 53.5 -245t155 -172.5t233.5 -63.5 t234 63.5t156.5 172.5t54.5 245t-54.5 245t-156.5 171.5t-234 62.5t-233.5 -62.5t-155 -171.5t-53.5 -245zM439 1598v157h795v-157h-795z" />
<glyph unicode="&#x14d;" horiz-adv-x="1257" d="M71 531q0 113 38.5 213.5t109 176t177 120t233.5 44.5q128 0 235 -44.5t177.5 -120t109.5 -176t39 -213.5q0 -114 -39 -215t-109.5 -177.5t-177.5 -121t-235 -44.5q-127 0 -233.5 44.5t-177 121t-109 177.5t-38.5 215zM232 1232v157h796v-157h-796zM360 531 q0 -85 30.5 -154.5t92.5 -112.5t146 -43t147 43t94 112.5t31 154.5q0 83 -31 152t-94 111.5t-147 42.5t-146 -42.5t-92.5 -111t-30.5 -152.5z" />
<glyph unicode="&#x14e;" horiz-adv-x="1675" d="M75 730q0 163 57.5 303.5t158 240t242 156t304.5 56.5q164 0 306 -56.5t243 -156t158.5 -240t57.5 -303.5t-57.5 -304t-158.5 -240.5t-243 -156t-306 -56.5q-163 0 -304.5 56.5t-242 156t-158 240.5t-57.5 304zM395 730q0 -136 53.5 -245t155 -172.5t233.5 -63.5 t234 63.5t156.5 172.5t54.5 245t-54.5 245t-156.5 171.5t-234 62.5t-233.5 -62.5t-155 -171.5t-53.5 -245zM452 1723l123 102q45 -64 112 -99.5t150 -35.5q81 0 147.5 35t113.5 100l123 -102q-67 -91 -167.5 -142t-216.5 -51q-115 0 -216 51.5t-169 141.5z" />
<glyph unicode="&#x14f;" horiz-adv-x="1257" d="M71 531q0 113 38.5 213.5t109 176t177 120t233.5 44.5q128 0 235 -44.5t177.5 -120t109.5 -176t39 -213.5q0 -114 -39 -215t-109.5 -177.5t-177.5 -121t-235 -44.5q-127 0 -233.5 44.5t-177 121t-109 177.5t-38.5 215zM243 1357l123 102q45 -64 112.5 -99.5t150.5 -35.5 q81 0 147.5 35t112.5 100l123 -102q-67 -91 -167 -142.5t-216 -51.5q-115 0 -216.5 51.5t-169.5 142.5zM360 531q0 -85 30.5 -154.5t92.5 -112.5t146 -43t147 43t94 112.5t31 154.5q0 83 -31 152t-94 111.5t-147 42.5t-146 -42.5t-92.5 -111t-30.5 -152.5z" />
<glyph unicode="&#x150;" horiz-adv-x="1675" d="M75 730q0 163 57.5 303.5t158 240t242 156t304.5 56.5q164 0 306 -56.5t243 -156t158.5 -240t57.5 -303.5t-57.5 -304t-158.5 -240.5t-243 -156t-306 -56.5q-163 0 -304.5 56.5t-242 156t-158 240.5t-57.5 304zM395 730q0 -136 53.5 -245t155 -172.5t233.5 -63.5 t234 63.5t156.5 172.5t54.5 245t-54.5 245t-156.5 171.5t-234 62.5t-233.5 -62.5t-155 -171.5t-53.5 -245zM569 1585l192 315h223l-252 -315h-163zM897 1585l190 315h224l-253 -315h-161z" />
<glyph unicode="&#x151;" horiz-adv-x="1257" d="M71 531q0 113 38.5 213.5t109 176t177 120t233.5 44.5q128 0 235 -44.5t177.5 -120t109.5 -176t39 -213.5q0 -114 -39 -215t-109.5 -177.5t-177.5 -121t-235 -44.5q-127 0 -233.5 44.5t-177 121t-109 177.5t-38.5 215zM360 531q0 -85 30.5 -154.5t92.5 -112.5t146 -43 t147 43t94 112.5t31 154.5q0 83 -31 152t-94 111.5t-147 42.5t-146 -42.5t-92.5 -111t-30.5 -152.5zM360 1219l190 315h224l-253 -315h-161zM686 1219l190 315h224l-251 -315h-163z" />
<glyph unicode="&#x152;" horiz-adv-x="2375" d="M75 729.5q0 163.5 55 304t151.5 239t232 154.5t293.5 56q127 0 248 -50t192 -145v174h1034v-274h-721v-310h706v-273h-706v-331h721v-274h-1034v171q-71 -95 -192.5 -146.5t-247.5 -51.5q-157 0 -293 56.5t-232.5 155.5t-151.5 240t-55 304.5zM395 730q0 -137 54 -245.5 t159 -172t243 -63.5q134 0 238.5 67t157.5 188v452q-52 122 -156 186.5t-240 64.5q-139 0 -243 -62.5t-158.5 -170t-54.5 -244.5z" />
<glyph unicode="&#x153;" horiz-adv-x="2039" d="M71 531q0 113 38.5 213.5t109 176t177 120t233.5 44.5q64 0 121.5 -15.5t99 -38t80.5 -57t63 -62.5t50 -63q151 236 406 236q156 0 276 -73t185.5 -206t65.5 -304v-61h-784q7 -50 30.5 -93.5t60.5 -78t92.5 -54.5t121.5 -20q74 0 150.5 28t129.5 76l125 -178 q-78 -71 -194.5 -109.5t-241.5 -38.5q-68 0 -127.5 15t-102 37.5t-82 55.5t-64 62t-49.5 66q-25 -36 -49 -64t-62.5 -62t-80 -56.5t-99 -38t-121.5 -15.5q-127 0 -233.5 44.5t-177 121t-109 177.5t-38.5 215zM360 531q0 -138 74 -225t195 -87q123 0 197.5 87t74.5 225 q0 136 -74.5 221t-197.5 85q-121 0 -195 -85.5t-74 -220.5zM1188 629h521q-2 32 -12 63.5t-30.5 62.5t-49.5 55t-73 38.5t-97 14.5q-62 0 -111 -21t-79.5 -56.5t-47.5 -75t-21 -81.5z" />
<glyph unicode="&#x154;" horiz-adv-x="1408" d="M144 0v1462h684q112 0 205 -35.5t155.5 -98t96.5 -149.5t34 -188q0 -93 -27.5 -171t-74 -130t-101.5 -85.5t-117 -48.5l329 -556h-358l-286 519h-228v-519h-312zM456 793h326q96 0 158 53.5t62 144t-62 144t-158 53.5h-326v-395zM583 1585l293 315h257l-355 -315h-195z " />
<glyph unicode="&#x155;" horiz-adv-x="788" d="M138 0v1058h278v-144q59 74 151 122.5t187 48.5v-272q-29 7 -77 7q-70 0 -148.5 -36t-112.5 -85v-699h-278zM307 1219l293 315h257l-355 -315h-195z" />
<glyph unicode="&#x156;" horiz-adv-x="1408" d="M144 0v1462h684q112 0 205 -35.5t155.5 -98t96.5 -149.5t34 -188q0 -93 -27.5 -171t-74 -130t-101.5 -85.5t-117 -48.5l329 -556h-358l-286 519h-228v-519h-312zM456 793h326q96 0 158 53.5t62 144t-62 144t-158 53.5h-326v-395zM579 -263q0 58 38.5 98t95.5 40 q64 0 109.5 -48t45.5 -130q0 -97 -49.5 -182.5t-132.5 -145.5l-96 77q45 26 86.5 76.5t51.5 96.5q-9 -4 -34 -4q-49 0 -82 34t-33 88z" />
<glyph unicode="&#x157;" horiz-adv-x="788" d="M138 0v1058h278v-144q59 74 151 122.5t187 48.5v-272q-29 7 -77 7q-70 0 -148.5 -36t-112.5 -85v-699h-278zM261 -263q0 58 39 98t95 40q64 0 109.5 -48t45.5 -130q0 -97 -49.5 -182.5t-132.5 -145.5l-96 77q46 26 87 76.5t51 96.5q-9 -4 -33 -4q-50 0 -83 34t-33 88z " />
<glyph unicode="&#x158;" horiz-adv-x="1408" d="M144 0v1462h684q112 0 205 -35.5t155.5 -98t96.5 -149.5t34 -188q0 -93 -27.5 -171t-74 -130t-101.5 -85.5t-117 -48.5l329 -556h-358l-286 519h-228v-519h-312zM381 1900h171l163 -198l153 198h171l-200 -315h-249zM456 793h326q96 0 158 53.5t62 144t-62 144t-158 53.5 h-326v-395z" />
<glyph unicode="&#x159;" horiz-adv-x="788" d="M113 1534h172l162 -198l153 198h171l-199 -315h-250zM138 0v1058h278v-144q59 74 151 122.5t187 48.5v-272q-29 7 -77 7q-70 0 -148.5 -36t-112.5 -85v-699h-278z" />
<glyph unicode="&#x15a;" horiz-adv-x="1313" d="M46 207l169 236q84 -88 203.5 -143t260.5 -55q122 0 188 47.5t66 115.5q0 41 -28.5 71t-77.5 49.5t-112 35.5t-132.5 33t-139.5 37.5t-133 54t-111.5 78.5t-77.5 114.5t-29 157.5q0 91 38.5 172t108.5 141.5t175.5 95.5t231.5 35q351 0 571 -203l-174 -228 q-86 79 -197.5 119.5t-227.5 40.5q-98 0 -153 -40t-55 -107q0 -34 23.5 -59.5t63.5 -42t94 -32.5t114 -28.5t124 -31.5t124.5 -40.5t114 -56.5t94 -79t64 -108.5t23.5 -143.5q0 -102 -36.5 -186.5t-107.5 -148.5t-183.5 -99.5t-257.5 -35.5q-388 0 -618 234zM515 1585 l294 315h256l-355 -315h-195z" />
<glyph unicode="&#x15b;" horiz-adv-x="1044" d="M46 138l121 195q61 -58 166 -101.5t200 -43.5q87 0 132 31.5t45 83.5q0 25 -17.5 44t-47.5 30t-70.5 21.5t-85.5 18t-93 20t-93.5 27.5t-85.5 40t-70 57.5t-48 81t-18 108.5q0 67 29 127t83 106.5t137 73.5t185 27q246 0 428 -144l-113 -192q-49 53 -134.5 88t-178.5 35 q-74 0 -120 -30t-46 -75q0 -25 21.5 -42.5t57.5 -29t83 -21t99 -21t104 -26.5t99 -41t83 -61t57.5 -89t21.5 -122q0 -73 -31 -135t-88 -108t-144.5 -72t-194.5 -26q-138 0 -263.5 44t-209.5 121zM381 1219l294 315h256l-354 -315h-196z" />
<glyph unicode="&#x15c;" horiz-adv-x="1313" d="M46 207l169 236q84 -88 203.5 -143t260.5 -55q122 0 188 47.5t66 115.5q0 41 -28.5 71t-77.5 49.5t-112 35.5t-132.5 33t-139.5 37.5t-133 54t-111.5 78.5t-77.5 114.5t-29 157.5q0 91 38.5 172t108.5 141.5t175.5 95.5t231.5 35q351 0 571 -203l-174 -228 q-86 79 -197.5 119.5t-227.5 40.5q-98 0 -153 -40t-55 -107q0 -34 23.5 -59.5t63.5 -42t94 -32.5t114 -28.5t124 -31.5t124.5 -40.5t114 -56.5t94 -79t64 -108.5t23.5 -143.5q0 -102 -36.5 -186.5t-107.5 -148.5t-183.5 -99.5t-257.5 -35.5q-388 0 -618 234zM314 1585 l201 315h250l205 -315h-170l-160 194l-155 -194h-171z" />
<glyph unicode="&#x15d;" horiz-adv-x="1044" d="M46 138l121 195q61 -58 166 -101.5t200 -43.5q87 0 132 31.5t45 83.5q0 25 -17.5 44t-47.5 30t-70.5 21.5t-85.5 18t-93 20t-93.5 27.5t-85.5 40t-70 57.5t-48 81t-18 108.5q0 67 29 127t83 106.5t137 73.5t185 27q246 0 428 -144l-113 -192q-49 53 -134.5 88t-178.5 35 q-74 0 -120 -30t-46 -75q0 -25 21.5 -42.5t57.5 -29t83 -21t99 -21t104 -26.5t99 -41t83 -61t57.5 -89t21.5 -122q0 -73 -31 -135t-88 -108t-144.5 -72t-194.5 -26q-138 0 -263.5 44t-209.5 121zM190 1219l203 315h249l207 -315h-172l-160 194l-155 -194h-172z" />
<glyph unicode="&#x15e;" horiz-adv-x="1313" d="M46 207l169 236q84 -88 203.5 -143t260.5 -55q122 0 188 47.5t66 115.5q0 41 -28.5 71t-77.5 49.5t-112 35.5t-132.5 33t-139.5 37.5t-133 54t-111.5 78.5t-77.5 114.5t-29 157.5q0 91 38.5 172t108.5 141.5t175.5 95.5t231.5 35q351 0 571 -203l-174 -228 q-86 79 -197.5 119.5t-227.5 40.5q-98 0 -153 -40t-55 -107q0 -34 23.5 -59.5t63.5 -42t94 -32.5t114 -28.5t124 -31.5t124.5 -40.5t114 -56.5t94 -79t64 -108.5t23.5 -143.5q0 -99 -35 -182t-102.5 -146.5t-174.5 -100.5t-245 -41l-35 -84q36 21 79 21q62 0 104.5 -42.5 t42.5 -110.5q0 -85 -70.5 -135.5t-172.5 -50.5q-75 0 -139.5 20t-101.5 49l55 113q84 -64 177 -64q47 0 80.5 19t33.5 53q0 27 -16.5 42t-46.5 15q-40 0 -71 -31l-101 58l49 134q-319 30 -513 228z" />
<glyph unicode="&#x15f;" horiz-adv-x="1044" d="M46 138l121 195q61 -58 166 -101.5t200 -43.5q87 0 132 31.5t45 83.5q0 25 -17.5 44t-47.5 30t-70.5 21.5t-85.5 18t-93 20t-93.5 27.5t-85.5 40t-70 57.5t-48 81t-18 108.5q0 67 29 127t83 106.5t137 73.5t185 27q246 0 428 -144l-113 -192q-49 53 -134.5 88t-178.5 35 q-74 0 -120 -30t-46 -75q0 -25 21.5 -42.5t57.5 -29t83 -21t99 -21t104 -26.5t99 -41t83 -61t57.5 -89t21.5 -122q0 -141 -108 -234.5t-300 -104.5l-34 -86q36 21 78 21q62 0 105 -42.5t43 -110.5q0 -85 -71 -135.5t-173 -50.5q-75 0 -139.5 20t-101.5 49l55 113 q84 -64 177 -64q48 0 81.5 19t33.5 53q0 27 -16.5 42t-47.5 15q-39 0 -70 -31l-102 58l50 134q-116 11 -218.5 52.5t-172.5 106.5z" />
<glyph unicode="&#x160;" horiz-adv-x="1313" d="M46 207l169 236q84 -88 203.5 -143t260.5 -55q122 0 188 47.5t66 115.5q0 41 -28.5 71t-77.5 49.5t-112 35.5t-132.5 33t-139.5 37.5t-133 54t-111.5 78.5t-77.5 114.5t-29 157.5q0 91 38.5 172t108.5 141.5t175.5 95.5t231.5 35q351 0 571 -203l-174 -228 q-86 79 -197.5 119.5t-227.5 40.5q-98 0 -153 -40t-55 -107q0 -34 23.5 -59.5t63.5 -42t94 -32.5t114 -28.5t124 -31.5t124.5 -40.5t114 -56.5t94 -79t64 -108.5t23.5 -143.5q0 -102 -36.5 -186.5t-107.5 -148.5t-183.5 -99.5t-257.5 -35.5q-388 0 -618 234zM314 1900h171 l161 -198l154 198h170l-199 -315h-250z" />
<glyph unicode="&#x161;" horiz-adv-x="1044" d="M46 138l121 195q61 -58 166 -101.5t200 -43.5q87 0 132 31.5t45 83.5q0 25 -17.5 44t-47.5 30t-70.5 21.5t-85.5 18t-93 20t-93.5 27.5t-85.5 40t-70 57.5t-48 81t-18 108.5q0 67 29 127t83 106.5t137 73.5t185 27q246 0 428 -144l-113 -192q-49 53 -134.5 88t-178.5 35 q-74 0 -120 -30t-46 -75q0 -25 21.5 -42.5t57.5 -29t83 -21t99 -21t104 -26.5t99 -41t83 -61t57.5 -89t21.5 -122q0 -73 -31 -135t-88 -108t-144.5 -72t-194.5 -26q-138 0 -263.5 44t-209.5 121zM190 1534h172l161 -198l154 198h172l-201 -315h-249z" />
<glyph unicode="&#x162;" horiz-adv-x="1274" d="M55 1188v274h1166v-274h-426v-1188h-312v1188h-428zM504 -263q0 58 39 98t95 40q64 0 109.5 -48t45.5 -130q0 -97 -49.5 -182.5t-132.5 -145.5l-96 77q45 26 86.5 76.5t51.5 96.5q-9 -4 -32 -4q-50 0 -83.5 34t-33.5 88z" />
<glyph unicode="&#x163;" horiz-adv-x="740" d="M17 815v243h176v290h280v-290h215v-243h-215v-478q0 -50 26 -83t70 -33q30 0 58 9.5t40 22.5l58 -211q-76 -69 -232 -69q-146 0 -223 74.5t-77 215.5v552h-176zM236 -263q0 58 39 98t95 40q65 0 110.5 -48t45.5 -130q0 -97 -49 -182.5t-132 -145.5l-98 77 q46 26 87.5 76.5t50.5 96.5q-8 -4 -32 -4q-50 0 -83.5 34t-33.5 88z" />
<glyph unicode="&#x164;" horiz-adv-x="1274" d="M55 1188v274h1166v-274h-426v-1188h-312v1188h-428zM309 1900h171l162 -198l153 198h171l-199 -315h-250z" />
<glyph unicode="&#x165;" horiz-adv-x="832" d="M17 815v243h176v290h280v-290h215v-243h-215v-478q0 -50 26 -83t70 -33q30 0 58 9.5t40 22.5l58 -211q-76 -69 -232 -69q-146 0 -223 74.5t-77 215.5v552h-176zM592 1537q0 57 38.5 97.5t94.5 40.5q65 0 110.5 -48t45.5 -130q0 -97 -49.5 -183t-132.5 -146l-97 76 q46 26 87.5 77t50.5 97q-8 -5 -32 -5q-49 0 -82.5 35t-33.5 89z" />
<glyph unicode="&#x166;" horiz-adv-x="1274" d="M55 1188v274h1166v-274h-426v-454h294v-157h-294v-577h-312v577h-293v157h293v454h-428z" />
<glyph unicode="&#x167;" horiz-adv-x="740" d="M17 458v157h176v200h-176v243h176v290h280v-290h215v-243h-215v-200h150v-157h-150v-121q0 -50 26 -83t70 -33q30 0 58 9.5t40 22.5l58 -211q-76 -69 -232 -69q-146 0 -223 74.5t-77 215.5v195h-176z" />
<glyph unicode="&#x168;" horiz-adv-x="1606" d="M144 583v879h316v-868q0 -157 89.5 -251t255.5 -94q165 0 253 94t88 251v868h318v-877q0 -138 -41 -249.5t-121.5 -192.5t-207 -125.5t-290 -44.5t-290 44.5t-207 126t-122 192.5t-41.5 247zM449 1593q0 141 61.5 217t175.5 76q40 0 73 -15t55.5 -36.5t41.5 -43 t40.5 -36.5t44.5 -15q34 0 56 33.5t22 100.5h147q0 -141 -60.5 -217.5t-174.5 -76.5q-41 0 -75 15.5t-56 37.5t-41 43.5t-40 37t-44 15.5q-35 0 -57 -34t-22 -102h-147z" />
<glyph unicode="&#x169;" d="M138 307v751h278v-642q0 -105 50 -150t145 -45q75 0 138.5 34.5t103.5 85.5v717h278v-1058h-278v134q-62 -69 -157 -115t-216 -46q-170 0 -256 87.5t-86 246.5zM276 1227q0 141 61 217t176 76q40 0 73 -15t55 -36.5t41.5 -43t41 -36.5t43.5 -15q35 0 57 34t22 100h147 q0 -141 -60 -217.5t-174 -76.5q-42 0 -75.5 15.5t-56 37.5t-41.5 44t-40.5 37t-43.5 15q-35 0 -57 -34t-22 -102h-147z" />
<glyph unicode="&#x16a;" horiz-adv-x="1606" d="M144 583v879h316v-868q0 -157 89.5 -251t255.5 -94q165 0 253 94t88 251v868h318v-877q0 -138 -41 -249.5t-121.5 -192.5t-207 -125.5t-290 -44.5t-290 44.5t-207 126t-122 192.5t-41.5 247zM410 1598v157h795v-157h-795z" />
<glyph unicode="&#x16b;" d="M138 307v751h278v-642q0 -105 50 -150t145 -45q75 0 138.5 34.5t103.5 85.5v717h278v-1058h-278v134q-62 -69 -157 -115t-216 -46q-170 0 -256 87.5t-86 246.5zM234 1232v157h796v-157h-796z" />
<glyph unicode="&#x16c;" horiz-adv-x="1606" d="M144 583v879h316v-868q0 -157 89.5 -251t255.5 -94q165 0 253 94t88 251v868h318v-877q0 -138 -41 -249.5t-121.5 -192.5t-207 -125.5t-290 -44.5t-290 44.5t-207 126t-122 192.5t-41.5 247zM423 1723l123 102q45 -64 112.5 -99.5t150.5 -35.5q81 0 147 35t113 100 l123 -102q-67 -91 -167 -142t-216 -51q-115 0 -216.5 51.5t-169.5 141.5z" />
<glyph unicode="&#x16d;" d="M138 307v751h278v-642q0 -105 50 -150t145 -45q75 0 138.5 34.5t103.5 85.5v717h278v-1058h-278v134q-62 -69 -157 -115t-216 -46q-170 0 -256 87.5t-86 246.5zM253 1357l121 102q46 -64 113.5 -99.5t150.5 -35.5q81 0 147.5 35t113.5 100l122 -102q-67 -91 -167 -142.5 t-216 -51.5q-115 0 -216 51.5t-169 142.5z" />
<glyph unicode="&#x16e;" horiz-adv-x="1606" d="M144 583v879h316v-868q0 -157 89.5 -251t255.5 -94q165 0 253 94t88 251v868h318v-877q0 -138 -41 -249.5t-121.5 -192.5t-207 -125.5t-290 -44.5t-290 44.5t-207 126t-122 192.5t-41.5 247zM579 1760q0 94 68 163t162 69q95 0 161.5 -68.5t66.5 -163.5q0 -96 -66.5 -163 t-161.5 -67q-94 0 -162 67.5t-68 162.5zM705 1760q0 -41 31.5 -72.5t72.5 -31.5q42 0 71.5 31.5t29.5 72.5q0 43 -29.5 73t-71.5 30q-41 0 -72.5 -30.5t-31.5 -72.5z" />
<glyph unicode="&#x16f;" d="M138 307v751h278v-642q0 -105 50 -150t145 -45q75 0 138.5 34.5t103.5 85.5v717h278v-1058h-278v134q-62 -69 -157 -115t-216 -46q-170 0 -256 87.5t-86 246.5zM406 1394q0 94 68 163t162 69t160.5 -68.5t66.5 -163.5q0 -96 -66 -163.5t-161 -67.5t-162.5 68t-67.5 163z M533 1394q0 -41 31 -72.5t72 -31.5t70.5 31.5t29.5 72.5q0 43 -29 73t-71 30t-72.5 -30.5t-30.5 -72.5z" />
<glyph unicode="&#x170;" horiz-adv-x="1606" d="M144 583v879h316v-868q0 -157 89.5 -251t255.5 -94q165 0 253 94t88 251v868h318v-877q0 -138 -41 -249.5t-121.5 -192.5t-207 -125.5t-290 -44.5t-290 44.5t-207 126t-122 192.5t-41.5 247zM539 1585l191 315h223l-252 -315h-162zM866 1585l190 315h224l-252 -315h-162z " />
<glyph unicode="&#x171;" d="M138 307v751h278v-642q0 -105 50 -150t145 -45q75 0 138.5 34.5t103.5 85.5v717h278v-1058h-278v134q-62 -69 -157 -115t-216 -46q-170 0 -256 87.5t-86 246.5zM364 1219l190 315h224l-252 -315h-162zM690 1219l191 315h223l-251 -315h-163z" />
<glyph unicode="&#x172;" horiz-adv-x="1606" d="M144 583v879h316v-868q0 -157 89.5 -251t255.5 -94q165 0 253 94t88 251v868h318v-877q0 -226 -108.5 -378.5t-320.5 -206.5q-154 -77 -154 -197q0 -47 23 -70.5t58 -23.5t58.5 20.5t35.5 55.5l112 -70q-69 -123 -206 -123q-45 0 -83.5 11.5t-69.5 34.5t-48.5 61.5 t-17.5 89.5q0 101 72 184h-10q-164 0 -290.5 44.5t-207 126t-122 192.5t-41.5 247z" />
<glyph unicode="&#x173;" d="M138 307v751h278v-642q0 -105 50 -150t145 -45q75 0 138.5 34.5t103.5 85.5v717h278v-1058q-154 -77 -154 -197q0 -47 23.5 -70.5t58 -23.5t58.5 20.5t35 55.5l113 -70q-69 -123 -207 -123q-45 0 -83.5 11.5t-69.5 34.5t-48.5 61.5t-17.5 89.5q0 122 99 211h-85v134 q-62 -69 -157 -115t-216 -46q-170 0 -256 87.5t-86 246.5z" />
<glyph unicode="&#x174;" horiz-adv-x="2011" d="M2 1462h349l256 -1056l278 1056h244l276 -1056l253 1056h351l-416 -1462h-330l-257 1004l-255 -1004h-330zM677 1585l201 315h251l205 -315h-171l-159 194l-155 -194h-172z" />
<glyph unicode="&#x175;" horiz-adv-x="1684" d="M0 1058h289l198 -711l232 711h247l232 -711l198 711h289l-322 -1058h-296l-224 721l-222 -721h-299zM515 1219l202 315h249l207 -315h-171l-161 194l-155 -194h-171z" />
<glyph unicode="&#x176;" horiz-adv-x="1412" d="M-11 1462h356l363 -588l359 588h355l-559 -864v-598h-311v598zM381 1585l202 315h249l207 -315h-171l-160 194l-156 -194h-171z" />
<glyph unicode="&#x177;" horiz-adv-x="1123" d="M-13 1058h298l276 -736l276 736h300l-497 -1231q-29 -73 -70 -123.5t-93.5 -78.5t-109 -40t-128.5 -14q-27 0 -70 4.5t-68 10.5l41 249q40 -17 88 -17q56 0 91.5 18t55.5 59l39 90zM232 1219l202 315h250l205 -315h-170l-160 194l-156 -194h-171z" />
<glyph unicode="&#x178;" horiz-adv-x="1412" d="M-11 1462h356l363 -588l359 588h355l-559 -864v-598h-311v598zM328 1705q0 61 43.5 104t105.5 43q61 0 104.5 -43t43.5 -104q0 -63 -43.5 -106t-104.5 -43q-62 0 -105.5 43t-43.5 106zM791 1705q0 60 44 103.5t105.5 43.5t105 -43.5t43.5 -103.5q0 -63 -43.5 -106 t-105 -43t-105.5 43t-44 106z" />
<glyph unicode="&#x179;" horiz-adv-x="1296" d="M92 0v253l690 935h-690v274h1098v-250l-690 -938h705v-274h-1113zM475 1585l294 315h256l-354 -315h-196z" />
<glyph unicode="&#x17a;" horiz-adv-x="1048" d="M92 0v209l477 606h-477v243h855v-201l-485 -614h494v-243h-864zM383 1219l294 315h256l-354 -315h-196z" />
<glyph unicode="&#x17b;" horiz-adv-x="1296" d="M92 0v253l690 935h-690v274h1098v-250l-690 -938h705v-274h-1113zM489 1705q0 61 43.5 105t105.5 44q59 0 102.5 -44.5t43.5 -104.5q0 -63 -43 -106t-103 -43q-63 0 -106 43t-43 106z" />
<glyph unicode="&#x17c;" horiz-adv-x="1048" d="M92 0v209l477 606h-477v243h855v-201l-485 -614h494v-243h-864zM372 1339q0 61 43.5 105t105.5 44q60 0 104 -44.5t44 -104.5q0 -62 -44 -105.5t-104 -43.5q-63 0 -106 43t-43 106z" />
<glyph unicode="&#x17d;" horiz-adv-x="1296" d="M92 0v253l690 935h-690v274h1098v-250l-690 -938h705v-274h-1113zM314 1900h171l161 -198l154 198h170l-199 -315h-250z" />
<glyph unicode="&#x17e;" horiz-adv-x="1048" d="M92 0v209l477 606h-477v243h855v-201l-485 -614h494v-243h-864zM186 1534h171l162 -198l154 198h170l-199 -315h-249z" />
<glyph unicode="&#x17f;" horiz-adv-x="715" d="M25 815v243h174v57q0 168 98.5 268t258.5 100q83 0 156 -23.5t120 -74.5l-104 -176q-44 44 -117 44q-59 0 -95 -37.5t-36 -100.5v-1115h-281v815h-174z" />
<glyph unicode="&#x192;" horiz-adv-x="994" d="M17 -353l194 874h-119v246h171l82 364q34 158 153.5 255t279.5 97q169 0 259 -94l-119 -226q-43 46 -103 46t-105.5 -38.5t-61.5 -107.5l-65 -296h247v-246h-301l-194 -874h-318z" />
<glyph unicode="&#x1a0;" horiz-adv-x="1675" d="M75 730q0 163 57.5 303.5t158 240t242 156t304.5 56.5q171 0 318 -62t252 -175q34 29 61.5 67.5t34.5 72.5q-8 -4 -31 -4q-44 0 -74.5 31.5t-30.5 80.5q0 50 36 86t85 36q58 0 98 -43t40 -117q0 -85 -41 -160.5t-113 -130.5q130 -187 130 -438q0 -163 -57.5 -304 t-158.5 -240.5t-243 -156t-306 -56.5q-163 0 -304.5 56.5t-242 156t-158 240.5t-57.5 304zM395 730q0 -136 53.5 -245t155 -172.5t233.5 -63.5t234 63.5t156.5 172.5t54.5 245t-54.5 245t-156.5 171.5t-234 62.5t-233.5 -62.5t-155 -171.5t-53.5 -245z" />
<glyph unicode="&#x1a1;" horiz-adv-x="1257" d="M71 531q0 113 38.5 213.5t109 176t177 120t233.5 44.5q216 0 366 -123q33 28 58.5 64.5t33.5 71.5q-8 -4 -31 -4q-45 0 -75 30.5t-30 80t35 86.5t85 37q57 0 97.5 -44t40.5 -118q0 -80 -37.5 -153.5t-102.5 -127.5q121 -147 121 -354q0 -114 -39 -215t-109.5 -177.5 t-177.5 -121t-235 -44.5q-127 0 -233.5 44.5t-177 121t-109 177.5t-38.5 215zM360 531q0 -85 30.5 -154.5t92.5 -112.5t146 -43t147 43t94 112.5t31 154.5q0 83 -31 152t-94 111.5t-147 42.5t-146 -42.5t-92.5 -111t-30.5 -152.5z" />
<glyph unicode="&#x1af;" horiz-adv-x="1606" d="M144 583v879h316v-868q0 -157 89.5 -251t255.5 -94q165 0 253 94t88 251v868h318v-95q43 30 76 72.5t40 85.5q-6 -7 -31 -7q-44 0 -74.5 32.5t-30.5 82.5q0 49 35.5 84.5t84.5 35.5q58 0 98 -44t40 -118q0 -101 -62 -194t-176 -146v-666q0 -138 -41 -249.5t-121.5 -192.5 t-207 -125.5t-290 -44.5t-290 44.5t-207 126t-122 192.5t-41.5 247z" />
<glyph unicode="&#x1b0;" d="M138 307v751h278v-642q0 -105 50 -150t145 -45q75 0 138.5 34.5t103.5 85.5v717h278v-37q47 54 57 106q-9 -5 -31 -5q-47 0 -76 31t-29 81q0 49 35.5 86t85.5 37q58 0 98 -44t40 -119q0 -86 -46.5 -168.5t-133.5 -140.5v-885h-278v134q-62 -69 -157 -115t-216 -46 q-170 0 -256 87.5t-86 246.5z" />
<glyph unicode="&#x1fc;" horiz-adv-x="2120" d="M-19 0l889 1462h1159v-274h-720v-310h705v-273h-705v-331h720v-274h-1034v247h-515l-145 -247h-354zM629 521h366v629zM1016 1585l295 315h255l-354 -315h-196z" />
<glyph unicode="&#x1fd;" horiz-adv-x="1905" d="M71 320q0 84 30.5 151.5t83.5 109.5t121.5 64t147.5 22q110 0 205.5 -33t155.5 -95v143q0 78 -69.5 126.5t-182.5 48.5q-183 0 -331 -125l-105 186q95 83 216.5 125t252.5 42q138 0 232 -47t138 -135q31 41 65.5 71.5t80.5 56.5t106 40t132 14q145 0 257 -73t174 -206 t62 -304v-61h-747q15 -104 89 -172t195 -68q71 0 143 28t118 76l126 -184q-76 -70 -188.5 -109t-217.5 -39q-273 0 -408 194q-68 -86 -185.5 -140t-254.5 -54q-71 0 -135.5 13t-121 41t-97.5 68.5t-64.5 98t-23.5 126.5zM351 335q0 -69 59.5 -105.5t150.5 -36.5 q101 0 177.5 56t76.5 121v13q-39 44 -106 69t-142 25q-95 0 -155.5 -37t-60.5 -105zM782 1219l294 315h256l-355 -315h-195zM1091 629h482q-1 32 -10 63.5t-27.5 62.5t-45.5 55t-68 38.5t-90 14.5q-56 0 -102 -21.5t-74 -56.5t-44 -74.5t-21 -81.5z" />
<glyph unicode="&#x1fe;" horiz-adv-x="1675" d="M75 730q0 163 57.5 303.5t158 240t242 156t304.5 56.5q207 0 380 -90l50 66h224l-128 -167q114 -104 176.5 -249t62.5 -316q0 -163 -57.5 -304t-158.5 -240.5t-243 -156t-306 -56.5q-222 0 -403 104l-60 -77h-223l140 184q-103 102 -159.5 242t-56.5 304zM395 730 q0 -173 85 -301l559 734q-94 46 -202 46q-132 0 -233.5 -62.5t-155 -171.5t-53.5 -245zM609 309q101 -60 228 -60q132 0 234 63.5t156.5 172.5t54.5 245q0 192 -105 322zM699 1585l294 315h256l-354 -315h-196z" />
<glyph unicode="&#x1ff;" horiz-adv-x="1257" d="M71 531q0 113 38.5 213.5t109 176t177 120t233.5 44.5q177 0 309 -83l49 56h174l-120 -140q72 -75 110.5 -175t38.5 -212q0 -114 -39 -215t-109.5 -177.5t-177.5 -121t-235 -44.5q-185 0 -318 88l-52 -61h-171l125 147q-69 75 -105.5 173.5t-36.5 210.5zM360 531 q0 -94 37 -167l370 436q-58 37 -138 37q-84 0 -146 -42.5t-92.5 -111t-30.5 -152.5zM483 263q57 -42 146 -42q84 0 147 43t94 112.5t31 154.5q0 96 -44 172zM491 1219l293 315h257l-355 -315h-195z" />
<glyph unicode="&#x218;" horiz-adv-x="1313" d="M46 207l169 236q84 -88 203.5 -143t260.5 -55q122 0 188 47.5t66 115.5q0 41 -28.5 71t-77.5 49.5t-112 35.5t-132.5 33t-139.5 37.5t-133 54t-111.5 78.5t-77.5 114.5t-29 157.5q0 91 38.5 172t108.5 141.5t175.5 95.5t231.5 35q351 0 571 -203l-174 -228 q-86 79 -197.5 119.5t-227.5 40.5q-98 0 -153 -40t-55 -107q0 -34 23.5 -59.5t63.5 -42t94 -32.5t114 -28.5t124 -31.5t124.5 -40.5t114 -56.5t94 -79t64 -108.5t23.5 -143.5q0 -102 -36.5 -186.5t-107.5 -148.5t-183.5 -99.5t-257.5 -35.5q-388 0 -618 234zM517 -263 q0 58 38.5 98t95.5 40q64 0 110 -48t46 -130q0 -97 -49.5 -182.5t-132.5 -145.5l-96 77q45 26 86.5 76.5t51.5 96.5q-9 -4 -34 -4q-49 0 -82.5 34t-33.5 88z" />
<glyph unicode="&#x219;" horiz-adv-x="1044" d="M46 138l121 195q61 -58 166 -101.5t200 -43.5q87 0 132 31.5t45 83.5q0 25 -17.5 44t-47.5 30t-70.5 21.5t-85.5 18t-93 20t-93.5 27.5t-85.5 40t-70 57.5t-48 81t-18 108.5q0 67 29 127t83 106.5t137 73.5t185 27q246 0 428 -144l-113 -192q-49 53 -134.5 88t-178.5 35 q-74 0 -120 -30t-46 -75q0 -25 21.5 -42.5t57.5 -29t83 -21t99 -21t104 -26.5t99 -41t83 -61t57.5 -89t21.5 -122q0 -73 -31 -135t-88 -108t-144.5 -72t-194.5 -26q-138 0 -263.5 44t-209.5 121zM399 -263q0 58 39 98t95 40q64 0 109.5 -48t45.5 -130q0 -97 -49.5 -182.5 t-132.5 -145.5l-96 77q46 26 87 76.5t51 96.5q-9 -4 -33 -4q-50 0 -83 34t-33 88z" />
<glyph unicode="&#x21a;" horiz-adv-x="1274" d="M55 1188v274h1166v-274h-426v-1188h-312v1188h-428zM504 -263q0 58 39 98t95 40q64 0 109.5 -48t45.5 -130q0 -97 -49.5 -182.5t-132.5 -145.5l-96 77q45 26 86.5 76.5t51.5 96.5q-9 -4 -32 -4q-50 0 -83.5 34t-33.5 88z" />
<glyph unicode="&#x21b;" horiz-adv-x="740" d="M17 815v243h176v290h280v-290h215v-243h-215v-478q0 -50 26 -83t70 -33q30 0 58 9.5t40 22.5l58 -211q-76 -69 -232 -69q-146 0 -223 74.5t-77 215.5v552h-176zM236 -263q0 58 39 98t95 40q65 0 110.5 -48t45.5 -130q0 -97 -49 -182.5t-132 -145.5l-98 77 q46 26 87.5 76.5t50.5 96.5q-8 -4 -32 -4q-50 0 -83.5 34t-33.5 88z" />
<glyph unicode="&#x237;" horiz-adv-x="554" d="M-226 -355l77 215q34 -27 66 -40t77 -13q66 0 105 42t39 122v1087h278v-1087q0 -186 -95 -293t-281 -107q-96 0 -150.5 16t-115.5 58z" />
<glyph unicode="&#x2b0;" horiz-adv-x="899" d="M109 715v950h202v-350q39 44 101.5 74.5t143.5 30.5q118 0 176.5 -59.5t58.5 -166.5v-479h-204v412q0 67 -31.5 94.5t-93.5 27.5q-47 0 -86.5 -21t-64.5 -51v-462h-202z" />
<glyph unicode="&#x2bc;" horiz-adv-x="558" d="M103 1309q0 71 50.5 122.5t120.5 51.5q81 0 139 -60t58 -163q0 -120 -61 -226.5t-165 -180.5l-120 98q55 29 105.5 89.5t62.5 118.5q-13 -9 -40 -9q-64 0 -107 45t-43 114z" />
<glyph unicode="&#x2c6;" horiz-adv-x="656" d="M0 1219l201 315h251l205 -315h-170l-161 194l-155 -194h-171z" />
<glyph unicode="&#x2c7;" horiz-adv-x="656" d="M0 1534h171l162 -198l154 198h170l-199 -315h-249z" />
<glyph unicode="&#x2c9;" horiz-adv-x="795" d="M0 1295v160h795v-160h-795z" />
<glyph unicode="&#x2cb;" horiz-adv-x="549" d="M0 1534h255l295 -315h-195z" />
<glyph unicode="&#x2d8;" horiz-adv-x="768" d="M0 1357l123 102q45 -64 112 -99.5t150 -35.5q81 0 148 35t113 100l123 -102q-67 -91 -167.5 -142.5t-216.5 -51.5q-115 0 -216 51.5t-169 142.5z" />
<glyph unicode="&#x2d9;" horiz-adv-x="380" d="M44 1339q0 61 43 105t106 44q59 0 102.5 -44.5t43.5 -104.5q0 -62 -43 -105.5t-103 -43.5q-63 0 -106 43t-43 106z" />
<glyph unicode="&#x2da;" horiz-adv-x="457" d="M0 1394q0 94 68 163t162 69q95 0 161.5 -68.5t66.5 -163.5q0 -96 -66.5 -163.5t-161.5 -67.5q-94 0 -162 68t-68 163zM127 1394q0 -41 31 -72.5t72 -31.5q42 0 71.5 31.5t29.5 72.5q0 43 -29.5 73t-71.5 30q-41 0 -72 -30.5t-31 -72.5z" />
<glyph unicode="&#x2db;" horiz-adv-x="424" d="M0 -211q0 84 50.5 155.5t142.5 120.5l98 -65q-153 -77 -153 -197q0 -47 23.5 -70.5t58 -23.5t58.5 20.5t36 55.5l111 -70q-69 -123 -206 -123q-45 0 -83.5 11.5t-69.5 34.5t-48.5 61.5t-17.5 89.5z" />
<glyph unicode="&#x2dc;" horiz-adv-x="715" d="M0 1227q0 141 61 217t175 76q40 0 73.5 -15t55.5 -36.5t41.5 -43t40.5 -36.5t44 -15q35 0 56.5 34t21.5 100h148q0 -141 -60 -217.5t-174 -76.5q-42 0 -76 15.5t-56 37.5t-41 44t-40.5 37t-43.5 15q-35 0 -57 -34t-22 -102h-147z" />
<glyph unicode="&#x2dd;" horiz-adv-x="740" d="M0 1219l190 315h224l-251 -315h-163zM326 1219l191 315h223l-251 -315h-163z" />
<glyph unicode="&#x309;" horiz-adv-x="424" d="M33 1606q20 60 66 92.5t110 32.5q74 0 123 -39.5t49 -118.5q0 -58 -32 -111h-121q44 47 44 104q0 36 -18 53.5t-45 17.5q-56 0 -77 -61z" />
<glyph unicode="&#x37e;" horiz-adv-x="560" d="M103 163q0 71 50.5 121.5t120.5 50.5q81 0 139 -60.5t58 -163.5q0 -120 -61 -226t-165 -180l-120 98q55 31 105.5 91.5t62.5 116.5q-25 -9 -40 -9q-64 0 -107 45.5t-43 115.5zM103 897q0 72 52.5 124.5t125 52.5t125 -52.5t52.5 -124.5q0 -71 -53 -124.5t-125 -53.5 t-124.5 53.5t-52.5 124.5z" />
<glyph unicode="&#x384;" horiz-adv-x="492" d="M239 1212l46 465h230l-153 -465h-123z" />
<glyph unicode="&#x385;" d="M155 1339q0 61 44 104t106 43t104.5 -43t42.5 -104q0 -63 -42.5 -106t-104.5 -43q-63 0 -106.5 43t-43.5 106zM533 1212l46 465h232l-154 -465h-124zM813 1339q0 60 44 103.5t105 43.5q62 0 105.5 -43t43.5 -104q0 -63 -43 -106t-106 -43q-61 0 -105 43t-44 106z" />
<glyph unicode="&#x386;" horiz-adv-x="1498" d="M-11 0l565 1462h391l563 -1462h-356l-89 247h-626l-92 -247h-356zM239 1212l46 465h230l-153 -465h-123zM521 521h456l-228 629z" />
<glyph unicode="&#x388;" horiz-adv-x="1355" d="M-40 1212l46 465h230l-153 -465h-123zM224 0v1462h1034v-274h-723v-310h707v-273h-707v-331h723v-274h-1034z" />
<glyph unicode="&#x389;" horiz-adv-x="1682" d="M-40 1212l46 465h230l-153 -465h-123zM224 0v1462h311v-575h690v575h314v-1462h-314v613h-690v-613h-311z" />
<glyph unicode="&#x38a;" horiz-adv-x="680" d="M-40 1212l46 465h230l-153 -465h-123zM224 0v1462h311v-1462h-311z" />
<glyph unicode="&#x38c;" horiz-adv-x="1675" d="M-2 1212l46 465h230l-153 -465h-123zM75 730q0 163 57.5 303.5t158 240t242 156t304.5 56.5q164 0 306 -56.5t243 -156t158.5 -240t57.5 -303.5t-57.5 -304t-158.5 -240.5t-243 -156t-306 -56.5q-163 0 -304.5 56.5t-242 156t-158 240.5t-57.5 304zM395 730 q0 -136 53.5 -245t155 -172.5t233.5 -63.5t234 63.5t156.5 172.5t54.5 245t-54.5 245t-156.5 171.5t-234 62.5t-233.5 -62.5t-155 -171.5t-53.5 -245z" />
<glyph unicode="&#x38e;" horiz-adv-x="1599" d="M-40 1212l46 465h230l-153 -465h-123zM173 1462h356l363 -588l359 588h355l-558 -864v-598h-312v598z" />
<glyph unicode="&#x38f;" horiz-adv-x="1695" d="M-2 1212l46 465h230l-153 -465h-123zM94 802q0 154 58 282.5t159 216.5t242 136.5t304 48.5q165 0 306.5 -48.5t242.5 -136.5t158.5 -216.5t57.5 -282.5q0 -90 -24 -172t-67.5 -147t-94.5 -116t-112 -93h261v-274h-592v274q139 38 224 163.5t85 294.5q0 71 -16 138.5 t-51 129t-86 107.5t-126.5 73t-165.5 27t-164.5 -27t-125.5 -73t-86 -107.5t-51 -129t-16 -138.5q0 -168 86 -294t223 -164v-274h-589v274h261q-62 42 -113.5 93t-95 116t-68 147.5t-24.5 171.5z" />
<glyph unicode="&#x390;" horiz-adv-x="584" d="M-186 1339q0 61 43 104t106 43q62 0 104 -43t42 -104q0 -63 -42 -106t-104 -43q-63 0 -106 43t-43 106zM138 263v795h278v-740q0 -45 24 -71t64 -26q20 0 42 5l19 -237q-62 -16 -128 -16q-146 0 -222.5 74.5t-76.5 215.5zM190 1212l46 465h233l-153 -465h-126zM471 1339 q0 60 44 103.5t106 43.5t105 -43t43 -104q0 -63 -43 -106t-105 -43t-106 43t-44 106z" />
<glyph unicode="&#x391;" horiz-adv-x="1498" d="M-11 0l565 1462h391l563 -1462h-356l-89 247h-626l-92 -247h-356zM521 521h456l-228 629z" />
<glyph unicode="&#x392;" horiz-adv-x="1451" d="M144 0v1462h770q101 0 182.5 -31t132.5 -83t78 -118.5t27 -140.5q0 -133 -71.5 -222.5t-179.5 -112.5q118 -18 199 -120.5t81 -238.5q0 -83 -27.5 -154.5t-80 -125.5t-134 -84.5t-183.5 -30.5h-794zM456 270h401q89 0 138.5 45t49.5 124q0 72 -49.5 121t-138.5 49h-401 v-339zM456 876h390q78 0 124 44.5t46 114.5t-46 114.5t-124 44.5h-390v-318z" />
<glyph unicode="&#x393;" horiz-adv-x="1250" d="M144 0v1462h1035v-274h-723v-1188h-312z" />
<glyph unicode="&#x394;" horiz-adv-x="1498" d="M-11 0l565 1462h391l563 -1462h-1519zM429 274h640l-320 876z" />
<glyph unicode="&#x395;" horiz-adv-x="1276" d="M144 0v1462h1035v-274h-723v-310h707v-273h-707v-331h723v-274h-1035z" />
<glyph unicode="&#x396;" horiz-adv-x="1296" d="M92 0v253l690 935h-690v274h1098v-250l-690 -938h705v-274h-1113z" />
<glyph unicode="&#x397;" horiz-adv-x="1601" d="M144 0v1462h312v-575h690v575h313v-1462h-313v613h-690v-613h-312z" />
<glyph unicode="&#x398;" horiz-adv-x="1675" d="M75 730q0 163 57.5 303.5t158 240t242 156t304.5 56.5q164 0 306 -56.5t243 -156t158.5 -240t57.5 -303.5t-57.5 -304t-158.5 -240.5t-243 -156t-306 -56.5q-163 0 -304.5 56.5t-242 156t-158 240.5t-57.5 304zM395 730q0 -136 53.5 -245t155 -172.5t233.5 -63.5 t234 63.5t156.5 172.5t54.5 245t-54.5 245t-156.5 171.5t-234 62.5t-233.5 -62.5t-155 -171.5t-53.5 -245zM502 605v273h673v-273h-673z" />
<glyph unicode="&#x399;" horiz-adv-x="600" d="M144 0v1462h312v-1462h-312z" />
<glyph unicode="&#x39a;" horiz-adv-x="1393" d="M144 0v1462h312v-653l517 653h384l-581 -686l620 -776h-384l-443 585l-113 -136v-449h-312z" />
<glyph unicode="&#x39b;" horiz-adv-x="1498" d="M-11 0l565 1462h391l563 -1462h-356l-403 1150l-404 -1150h-356z" />
<glyph unicode="&#x39c;" horiz-adv-x="1873" d="M144 0v1462h437l354 -883l355 883h439v-1462h-313v1023l-412 -1023h-136l-412 1023v-1023h-312z" />
<glyph unicode="&#x39d;" horiz-adv-x="1596" d="M144 0v1462h320l678 -918v918h311v-1462h-301l-696 953v-953h-312z" />
<glyph unicode="&#x39e;" horiz-adv-x="1366" d="M98 0v274h1169v-274h-1169zM98 1188v274h1169v-274h-1169zM113 605v273h1140v-273h-1140z" />
<glyph unicode="&#x39f;" horiz-adv-x="1675" d="M75 730q0 163 57.5 303.5t158 240t242 156t304.5 56.5q164 0 306 -56.5t243 -156t158.5 -240t57.5 -303.5t-57.5 -304t-158.5 -240.5t-243 -156t-306 -56.5q-163 0 -304.5 56.5t-242 156t-158 240.5t-57.5 304zM395 730q0 -136 53.5 -245t155 -172.5t233.5 -63.5 t234 63.5t156.5 172.5t54.5 245t-54.5 245t-156.5 171.5t-234 62.5t-233.5 -62.5t-155 -171.5t-53.5 -245z" />
<glyph unicode="&#x3a0;" horiz-adv-x="1601" d="M144 0v1462h1315v-1462h-313v1188h-690v-1188h-312z" />
<glyph unicode="&#x3a1;" horiz-adv-x="1366" d="M144 0v1462h684q116 0 210.5 -37.5t155 -102t93 -149.5t32.5 -182q0 -96 -32.5 -181.5t-93.5 -150t-155.5 -102.5t-209.5 -38h-372v-519h-312zM456 793h330q94 0 155 54t61 144t-60.5 143.5t-155.5 53.5h-330v-395z" />
<glyph unicode="&#x3a3;" horiz-adv-x="1284" d="M98 0v274l446 471l-443 443v274h1082v-274h-692l436 -441l-452 -473h708v-274h-1085z" />
<glyph unicode="&#x3a4;" horiz-adv-x="1274" d="M55 1188v274h1166v-274h-426v-1188h-312v1188h-428z" />
<glyph unicode="&#x3a5;" horiz-adv-x="1412" d="M-11 1462h356l363 -588l359 588h355l-559 -864v-598h-311v598z" />
<glyph unicode="&#x3a6;" horiz-adv-x="1873" d="M75 730q0 249 185.5 401t519.5 182v149h311v-149q335 -30 520.5 -181t185.5 -402q0 -252 -185.5 -403.5t-520.5 -179.5v-147h-311v147q-334 28 -519.5 179.5t-185.5 403.5zM395 730q0 -126 98 -204t287 -101v610q-188 -23 -286.5 -102t-98.5 -203zM1091 425 q189 21 288.5 100t99.5 205q0 125 -99 203t-289 102v-610z" />
<glyph unicode="&#x3a7;" horiz-adv-x="1463" d="M-6 0l529 749l-496 713h370l335 -500l331 500h374l-496 -711l529 -751h-372l-366 535l-368 -535h-370z" />
<glyph unicode="&#x3a8;" horiz-adv-x="1897" d="M144 881v581h316v-570q0 -135 84.5 -221t248.5 -112v903h313v-903q162 27 245.5 113t83.5 220v570h318v-579q0 -124 -40 -226.5t-119 -181.5t-203 -130t-285 -67v-278h-313v278q-162 16 -286 67t-203 129.5t-119.5 181t-40.5 225.5z" />
<glyph unicode="&#x3a9;" horiz-adv-x="1675" d="M75 802q0 154 57.5 282.5t158.5 216.5t241.5 136.5t304.5 48.5q165 0 306 -48.5t242.5 -136.5t159 -216.5t57.5 -282.5q0 -90 -24 -172t-67 -147t-94 -116.5t-113 -92.5h260v-274h-591v274q138 38 223.5 163.5t85.5 294.5q0 71 -16 138.5t-51.5 129t-86.5 107.5t-126 73 t-165 27t-164.5 -27t-125 -73t-85.5 -107.5t-51 -129t-16 -138.5q0 -168 85.5 -294t222.5 -164v-274h-590v274h261q-61 42 -112.5 93t-94.5 116t-67.5 147.5t-24.5 171.5z" />
<glyph unicode="&#x3aa;" horiz-adv-x="600" d="M-79 1742q0 61 43.5 104t106.5 43q61 0 103.5 -43t42.5 -104q0 -62 -42.5 -105.5t-103.5 -43.5q-63 0 -106.5 43t-43.5 106zM144 0v1462h312v-1462h-312zM383 1742q0 61 44.5 104t105.5 43t105 -43t44 -104q0 -62 -44 -105.5t-105.5 -43.5t-105.5 43.5t-44 105.5z" />
<glyph unicode="&#x3ab;" horiz-adv-x="1412" d="M-11 1462h356l363 -588l359 588h355l-559 -864v-598h-311v598zM324 1742q0 61 43.5 104t105.5 43q61 0 104.5 -43t43.5 -104q0 -62 -43.5 -105.5t-104.5 -43.5q-63 0 -106 43t-43 106zM786 1742q0 61 44 104t105 43t105.5 -43t44.5 -104q0 -62 -44 -105.5t-105.5 -43.5 t-105.5 43.5t-44 105.5z" />
<glyph unicode="&#x3ac;" horiz-adv-x="1313" d="M71 529q0 127 35 232.5t97.5 176t148.5 109t187 38.5q95 0 178.5 -41.5t145.5 -121.5v136h283v-740q0 -45 24 -71t64 -26q20 0 41 5l18 -237q-63 -16 -127 -16q-112 0 -184.5 48.5t-98.5 141.5q-54 -87 -145.5 -138.5t-198.5 -51.5q-100 0 -185.5 37.5t-148.5 107.5 t-98.5 175.5t-35.5 235.5zM357 529q0 -137 75 -222.5t193 -85.5q71 0 138.5 34t102.5 86v374q-35 53 -102.5 86.5t-138.5 33.5q-119 0 -193.5 -84.5t-74.5 -221.5zM572 1212l46 465h231l-155 -465h-122z" />
<glyph unicode="&#x3ad;" horiz-adv-x="1104" d="M71 291q0 46 18.5 86.5t48.5 69.5t69.5 50t80 32.5t80.5 14.5q-72 11 -134 43t-103 86.5t-41 119.5q2 136 137.5 213.5t379.5 76.5q139 0 254.5 -47.5t194.5 -128.5l-134 -164q-124 120 -328 120q-94 0 -153.5 -29.5t-59.5 -77.5q0 -114 217 -114h217v-215h-217 q-112 0 -174 -29t-62 -89q0 -52 57.5 -83t161.5 -31q101 0 198 30.5t166 90.5l129 -174q-82 -78 -208 -123.5t-285 -45.5q-235 0 -373.5 88.5t-136.5 229.5zM467 1212l46 465h230l-153 -465h-123z" />
<glyph unicode="&#x3ae;" d="M138 0v1058h278v-138q58 69 154 117t216 48q171 0 258 -89.5t87 -248.5v-1150h-278v1043q0 105 -51 151t-145 46q-76 0 -139 -36t-102 -88v-713h-278zM550 1212l46 465h230l-153 -465h-123z" />
<glyph unicode="&#x3af;" horiz-adv-x="584" d="M138 263v795h278v-740q0 -45 24 -71t64 -26q20 0 42 5l19 -237q-62 -16 -128 -16q-146 0 -222.5 74.5t-76.5 215.5zM209 1212l46 465h230l-154 -465h-122z" />
<glyph unicode="&#x3b0;" horiz-adv-x="1263" d="M138 477v581h278v-575q0 -119 58 -190.5t159 -71.5q129 0 200.5 95t71.5 251q0 111 -32.5 218t-96.5 188l257 112q79 -112 120 -247.5t41 -270.5q0 -128 -38.5 -237t-109.5 -188t-177 -124t-236 -45q-122 0 -217 36.5t-155.5 103.5t-91.5 159t-31 205zM153 1339 q0 61 43.5 104t106.5 43q62 0 104 -43t42 -104q0 -63 -42 -106t-104 -43q-63 0 -106.5 43t-43.5 106zM531 1212l46 465h232l-154 -465h-124zM811 1339q0 60 44 103.5t105 43.5q62 0 105.5 -43t43.5 -104q0 -63 -43.5 -106t-105.5 -43t-105.5 43t-43.5 106z" />
<glyph unicode="&#x3b1;" horiz-adv-x="1313" d="M71 529q0 127 35 232.5t97.5 176t148.5 109t187 38.5q95 0 178.5 -41.5t145.5 -121.5v136h283v-740q0 -45 24 -71t64 -26q20 0 41 5l18 -237q-63 -16 -127 -16q-112 0 -184.5 48.5t-98.5 141.5q-54 -87 -145.5 -138.5t-198.5 -51.5q-100 0 -185.5 37.5t-148.5 107.5 t-98.5 175.5t-35.5 235.5zM357 529q0 -137 75 -222.5t193 -85.5q71 0 138.5 34t102.5 86v374q-35 53 -102.5 86.5t-138.5 33.5q-119 0 -193.5 -84.5t-74.5 -221.5z" />
<glyph unicode="&#x3b2;" horiz-adv-x="1284" d="M138 -403v1385q0 105 32.5 191t85.5 142.5t124 95t146 55.5t153 17q236 0 368 -106t132 -290q0 -67 -25 -125t-68 -99.5t-98 -69.5t-116 -39q46 -4 92 -20.5t91 -48.5t79.5 -74.5t56 -105t21.5 -135.5q0 -110 -60 -202t-160.5 -143.5t-217.5 -51.5q-228 0 -358 163v-539 h-278zM416 339q43 -53 112 -85.5t151 -32.5q117 0 181 54.5t64 147.5q0 92 -68 143.5t-183 51.5h-88v248h79q105 0 165 48t60 136q0 85 -58.5 134.5t-151.5 49.5q-116 0 -189.5 -67t-73.5 -185v-643z" />
<glyph unicode="&#x3b3;" horiz-adv-x="1123" d="M-35 1058h315q115 -133 207.5 -347.5t112.5 -388.5q83 128 142.5 339t59.5 397h281q0 -257 -108 -547.5t-274 -499.5v-414h-280v234q0 232 -61 466.5t-163 427t-232 333.5z" />
<glyph unicode="&#x3b4;" horiz-adv-x="1257" d="M71 508q0 144 68.5 252.5t180.5 168.5q-60 39 -92.5 92.5t-32.5 133.5q0 67 29 127t82.5 106t137 73t185.5 27q244 0 423 -145l-109 -197q-52 52 -136.5 86.5t-177.5 34.5q-75 0 -121 -28t-46 -73q0 -20 13 -35.5t45.5 -30t58 -22.5t79.5 -24q64 -19 99 -30t99.5 -37.5 t103 -52t87.5 -69t76.5 -93t47 -120.5t19.5 -154q0 -82 -23 -158.5t-69 -143t-110.5 -116.5t-153 -78.5t-190.5 -28.5q-106 0 -198.5 29t-160.5 79t-117 117.5t-73 146.5t-24 163zM360 508q0 -55 18.5 -106t52.5 -91.5t88 -65t119 -24.5t119 24.5t88.5 64t53.5 88.5t19 100 q0 43 -10 80t-26 65t-42.5 52.5t-52 42t-63.5 34.5t-68 27.5t-73 24.5q-108 -43 -165.5 -127.5t-57.5 -188.5z" />
<glyph unicode="&#x3b5;" horiz-adv-x="1104" d="M71 291q0 46 18.5 86.5t48.5 69.5t69.5 50t80 32.5t80.5 14.5q-72 11 -134 43t-103 86.5t-41 119.5q2 136 137.5 213.5t379.5 76.5q139 0 254.5 -47.5t194.5 -128.5l-134 -164q-124 120 -328 120q-94 0 -153.5 -29.5t-59.5 -77.5q0 -114 217 -114h217v-215h-217 q-112 0 -174 -29t-62 -89q0 -52 57.5 -83t161.5 -31q101 0 198 30.5t166 90.5l129 -174q-82 -78 -208 -123.5t-285 -45.5q-235 0 -373.5 88.5t-136.5 229.5z" />
<glyph unicode="&#x3b6;" horiz-adv-x="1064" d="M71 462q0 227 146 423.5t401 333.5h-513v243h874v-202q-128 -70 -237.5 -155.5t-197 -184t-137.5 -211.5t-50 -224q0 -133 84.5 -198.5t235.5 -65.5q174 0 249.5 -56t75.5 -174q0 -131 -117 -336h-295q43 59 84 141.5t41 128.5q0 26 -17.5 37t-55.5 11q-172 0 -301.5 59 t-199.5 170t-70 260z" />
<glyph unicode="&#x3b7;" d="M138 0v1058h278v-138q58 69 154 117t216 48q171 0 258 -89.5t87 -248.5v-1150h-278v1043q0 105 -51 151t-145 46q-76 0 -139 -36t-102 -88v-713h-278z" />
<glyph unicode="&#x3b8;" horiz-adv-x="1257" d="M71 732q0 124 22.5 236.5t69 207.5t112.5 164.5t156.5 108.5t197.5 39t198.5 -39t157.5 -108.5t112.5 -164.5t69.5 -207.5t23 -236.5t-23 -236.5t-69.5 -208t-112.5 -165.5t-157.5 -109.5t-198.5 -39.5q-106 0 -197 39.5t-157 109.5t-112.5 165.5t-69 208t-22.5 236.5z M364 611q13 -191 77.5 -290.5t188 -99.5t188 99.5t79.5 290.5h-533zM364 857h533q-31 383 -268 383q-238 0 -265 -383z" />
<glyph unicode="&#x3b9;" horiz-adv-x="584" d="M138 263v795h278v-740q0 -45 24 -71t64 -26q20 0 42 5l19 -237q-62 -16 -128 -16q-146 0 -222.5 74.5t-76.5 215.5z" />
<glyph unicode="&#x3ba;" horiz-adv-x="1171" d="M138 0v1058h278v-471l401 471h342l-419 -479l433 -579h-349l-280 408l-128 -136v-272h-278z" />
<glyph unicode="&#x3bb;" horiz-adv-x="1123" d="M-13 0l429 1071l-39 90q-20 43 -55.5 61t-91.5 18q-51 0 -88 -19l-41 249q25 8 67.5 13t70.5 5q72 -1 129 -13.5t109 -41t93 -79t70 -122.5l497 -1232h-300l-276 736l-276 -736h-298z" />
<glyph unicode="&#x3bc;" horiz-adv-x="1298" d="M138 -403v1461h278v-642q0 -197 197 -197q73 0 136 35.5t104 86.5v717h278v-740q0 -45 24 -71t64 -26q20 0 41 5l20 -237q-62 -16 -130 -16q-227 0 -284 190q-48 -85 -126.5 -137.5t-170.5 -52.5q-107 0 -153 62v-438h-278z" />
<glyph unicode="&#x3bd;" horiz-adv-x="1123" d="M-13 1058h298l290 -780q106 160 166.5 372.5t60.5 407.5h281q0 -260 -110.5 -554t-280.5 -504h-280z" />
<glyph unicode="&#x3be;" horiz-adv-x="1064" d="M71 366q0 69 22 127t61 97t84 65.5t97 41.5q-45 7 -86 26t-76.5 49t-57 75.5t-21.5 99.5q0 87 59 162t152 110h-188v243h853v-243h-416q-76 -21 -123.5 -72t-47.5 -117q0 -80 70.5 -124.5t186.5 -44.5h320v-238h-320q-131 0 -205.5 -51t-74.5 -151q0 -96 82.5 -148 t234.5 -52q174 0 249.5 -56t75.5 -174q0 -131 -117 -336h-295q43 59 84 141.5t41 128.5q0 26 -17.5 37t-55.5 11q-277 0 -424 105.5t-147 287.5z" />
<glyph unicode="&#x3bf;" horiz-adv-x="1257" d="M71 531q0 113 38.5 213.5t109 176t177 120t233.5 44.5q128 0 235 -44.5t177.5 -120t109.5 -176t39 -213.5q0 -114 -39 -215t-109.5 -177.5t-177.5 -121t-235 -44.5q-127 0 -233.5 44.5t-177 121t-109 177.5t-38.5 215zM360 531q0 -85 30.5 -154.5t92.5 -112.5t146 -43 t147 43t94 112.5t31 154.5q0 83 -31 152t-94 111.5t-147 42.5t-146 -42.5t-92.5 -111t-30.5 -152.5z" />
<glyph unicode="&#x3c0;" horiz-adv-x="1382" d="M17 815v243h1348v-243h-175v-815h-280v815h-437v-815h-280v815h-176z" />
<glyph unicode="&#x3c1;" horiz-adv-x="1276" d="M138 -403v934q0 113 37 213.5t104.5 176t169.5 120t224 44.5q123 0 226 -44.5t171 -120t105 -176t37 -213.5q0 -130 -35 -236t-97.5 -176t-149 -108t-187.5 -38q-96 0 -180 41t-147 122v-539h-278zM416 341q35 -49 103.5 -84.5t135.5 -35.5q120 0 193.5 85.5t73.5 224.5 q0 84 -28 152.5t-86.5 111t-136.5 42.5q-80 0 -138.5 -42.5t-87.5 -111t-29 -152.5v-190z" />
<glyph unicode="&#x3c2;" horiz-adv-x="1077" d="M71 531q0 120 42 223t115.5 175.5t178 114t224.5 41.5q78 0 146.5 -16t119 -43.5t87.5 -60t66 -70.5l-182 -172q-76 114 -224 114q-127 0 -207 -84.5t-80 -221.5q0 -148 88.5 -229t229.5 -81q175 0 258 -57t83 -173q0 -132 -115 -336h-292q43 62 84 143.5t41 126.5 q0 48 -73 48q-172 0 -306 67.5t-209 195t-75 295.5z" />
<glyph unicode="&#x3c3;" horiz-adv-x="1257" d="M71 531q0 110 39 206t110.5 167.5t181 112.5t242.5 41h570v-247h-198q150 -127 150 -340q0 -102 -35 -191.5t-101 -158t-169.5 -108.5t-231.5 -40q-127 0 -233.5 44.5t-177 121t-109 177.5t-38.5 215zM360 531q0 -85 30.5 -154.5t92.5 -112.5t146 -43t147 42.5t94 110.5 t31 149q0 95 -41.5 169.5t-112.5 118.5h-103q-68 0 -123.5 -23.5t-90 -63.5t-52.5 -89.5t-18 -103.5z" />
<glyph unicode="&#x3c4;" horiz-adv-x="1056" d="M46 815v243h964v-243h-343v-478q0 -51 26 -83.5t72 -32.5q29 0 56.5 10t37.5 22l59 -211q-76 -69 -230 -69q-146 0 -223.5 74.5t-77.5 215.5v552h-341z" />
<glyph unicode="&#x3c5;" horiz-adv-x="1263" d="M138 477v581h278v-575q0 -119 58 -190.5t159 -71.5q129 0 200.5 95t71.5 251q0 111 -32.5 218t-96.5 188l257 112q79 -112 120 -247.5t41 -270.5q0 -128 -38.5 -237t-109.5 -188t-177 -124t-236 -45q-122 0 -217 36.5t-155.5 103.5t-91.5 159t-31 205z" />
<glyph unicode="&#x3c6;" horiz-adv-x="1741" d="M71 561q0 95 31 177.5t88 146.5t128 113t159 87l117 -217q-113 -48 -173.5 -130t-60.5 -177q0 -143 88.5 -227.5t283.5 -105.5v857h138q199 0 352 -39t251.5 -111.5t148.5 -174t50 -229.5q0 -238 -167.5 -382t-494.5 -168v-384h-278v384q-330 24 -495.5 173t-165.5 407z M1010 228q192 21 282 100t90 203q0 132 -99.5 211t-272.5 88v-602z" />
<glyph unicode="&#x3c7;" horiz-adv-x="1104" d="M0 -403l374 752l-353 709h307l224 -449l219 449h310l-356 -709l379 -752h-309l-243 491l-247 -491h-305z" />
<glyph unicode="&#x3c8;" horiz-adv-x="1741" d="M138 526v532h278v-532q0 -122 82.5 -197t233.5 -99v1232h278v-1232q150 24 233 99t83 197v532h278v-532q0 -233 -150 -375.5t-444 -169.5v-384h-278v384q-295 27 -444.5 169.5t-149.5 375.5z" />
<glyph unicode="&#x3c9;" horiz-adv-x="1866" d="M71 531q0 176 60.5 318t167.5 236l209 -158q-148 -156 -148 -396q0 -85 24 -154.5t74 -112.5t117 -43q68 0 118.5 43t75 112.5t24.5 154.5v266h281v-266q0 -85 24.5 -154.5t74.5 -112.5t117 -43t117.5 43t75.5 112.5t25 154.5q0 237 -151 396l212 158q106 -94 167 -236 t61 -318q0 -114 -32.5 -215t-91.5 -177.5t-148 -121t-195 -44.5q-282 0 -397 301q-115 -301 -396 -301q-106 0 -195 44.5t-148 121t-91 177.5t-32 215z" />
<glyph unicode="&#x3ca;" horiz-adv-x="584" d="M-88 1339q0 61 43.5 104t105.5 43q61 0 104.5 -43t43.5 -104q0 -63 -43.5 -106t-104.5 -43q-63 0 -106 43t-43 106zM138 263v795h278v-740q0 -45 24 -71t64 -26q20 0 42 5l19 -237q-62 -16 -128 -16q-146 0 -222.5 74.5t-76.5 215.5zM374 1339q0 60 44 103.5t105 43.5 t105.5 -43.5t44.5 -103.5q0 -63 -44 -106t-105.5 -43t-105.5 43t-44 106z" />
<glyph unicode="&#x3cb;" horiz-adv-x="1263" d="M138 477v581h278v-575q0 -119 58 -190.5t159 -71.5q129 0 200.5 95t71.5 251q0 111 -32.5 218t-96.5 188l257 112q79 -112 120 -247.5t41 -270.5q0 -128 -38.5 -237t-109.5 -188t-177 -124t-236 -45q-122 0 -217 36.5t-155.5 103.5t-91.5 159t-31 205zM249 1339 q0 61 44 104t106 43q61 0 104 -43t43 -104q0 -63 -43 -106t-104 -43q-63 0 -106.5 43t-43.5 106zM713 1339q0 60 43.5 103.5t104.5 43.5t105 -43.5t44 -103.5q0 -63 -43.5 -106t-105 -43t-105 43t-43.5 106z" />
<glyph unicode="&#x3cc;" horiz-adv-x="1257" d="M71 531q0 113 38.5 213.5t109 176t177 120t233.5 44.5q128 0 235 -44.5t177.5 -120t109.5 -176t39 -213.5q0 -114 -39 -215t-109.5 -177.5t-177.5 -121t-235 -44.5q-127 0 -233.5 44.5t-177 121t-109 177.5t-38.5 215zM360 531q0 -85 30.5 -154.5t92.5 -112.5t146 -43 t147 43t94 112.5t31 154.5q0 83 -31 152t-94 111.5t-147 42.5t-146 -42.5t-92.5 -111t-30.5 -152.5zM544 1212l46 465h230l-153 -465h-123z" />
<glyph unicode="&#x3cd;" horiz-adv-x="1263" d="M138 477v581h278v-575q0 -119 58 -190.5t159 -71.5q129 0 200.5 95t71.5 251q0 111 -32.5 218t-96.5 188l257 112q79 -112 120 -247.5t41 -270.5q0 -128 -38.5 -237t-109.5 -188t-177 -124t-236 -45q-122 0 -217 36.5t-155.5 103.5t-91.5 159t-31 205zM548 1212l46 465 h230l-153 -465h-123z" />
<glyph unicode="&#x3ce;" horiz-adv-x="1866" d="M71 531q0 176 60.5 318t167.5 236l209 -158q-148 -156 -148 -396q0 -85 24 -154.5t74 -112.5t117 -43q68 0 118.5 43t75 112.5t24.5 154.5v266h281v-266q0 -85 24.5 -154.5t74.5 -112.5t117 -43t117.5 43t75.5 112.5t25 154.5q0 237 -151 396l212 158q106 -94 167 -236 t61 -318q0 -114 -32.5 -215t-91.5 -177.5t-148 -121t-195 -44.5q-282 0 -397 301q-115 -301 -396 -301q-106 0 -195 44.5t-148 121t-91 177.5t-32 215zM849 1212l46 465h230l-155 -465h-121z" />
<glyph unicode="&#x401;" horiz-adv-x="1276" d="M144 0v1462h1035v-274h-723v-310h707v-273h-707v-331h723v-274h-1035zM280 1705q0 61 43.5 104t105.5 43q61 0 104.5 -43.5t43.5 -103.5q0 -63 -43.5 -106t-104.5 -43q-63 0 -106 43t-43 106zM743 1705q0 60 44 103.5t105 43.5t105 -43.5t44 -103.5q0 -63 -43.5 -106 t-105 -43t-105.5 43t-44 106z" />
<glyph unicode="&#x402;" horiz-adv-x="1700" d="M55 1188v274h1166v-274h-426v-310q153 49 314 49q135 0 241 -37.5t171.5 -103.5t99 -151.5t33.5 -187.5v-18q0 -108 -40 -194.5t-111 -143.5t-167 -87.5t-209 -30.5v270q99 0 155.5 50.5t56.5 135.5v18q0 99 -69.5 152.5t-198.5 53.5q-151 0 -276 -48v-605h-312v1188 h-428z" />
<glyph unicode="&#x403;" horiz-adv-x="1250" d="M144 0v1462h1035v-274h-723v-1188h-312zM493 1585l293 315h257l-355 -315h-195z" />
<glyph unicode="&#x404;" horiz-adv-x="1504" d="M75 729.5q0 165.5 60 307.5t164 240t247.5 153.5t306.5 55.5q93 0 177 -20t147.5 -53t119.5 -80t95 -96.5t72 -107.5l-268 -132q-47 93 -141 152.5t-206 59.5q-164 0 -279.5 -90t-157.5 -241h694v-273h-698q35 -161 153 -258.5t288 -97.5q113 0 206.5 60t140.5 153 l268 -129q-34 -58 -73 -107.5t-95 -97.5t-119.5 -81t-147 -53.5t-176.5 -20.5q-163 0 -306.5 55.5t-247.5 154t-164 240t-60 307z" />
<glyph unicode="&#x405;" horiz-adv-x="1313" d="M46 207l169 236q84 -88 203.5 -143t260.5 -55q122 0 188 47.5t66 115.5q0 41 -28.5 71t-77.5 49.5t-112 35.5t-132.5 33t-139.5 37.5t-133 54t-111.5 78.5t-77.5 114.5t-29 157.5q0 91 38.5 172t108.5 141.5t175.5 95.5t231.5 35q351 0 571 -203l-174 -228 q-86 79 -197.5 119.5t-227.5 40.5q-98 0 -153 -40t-55 -107q0 -34 23.5 -59.5t63.5 -42t94 -32.5t114 -28.5t124 -31.5t124.5 -40.5t114 -56.5t94 -79t64 -108.5t23.5 -143.5q0 -102 -36.5 -186.5t-107.5 -148.5t-183.5 -99.5t-257.5 -35.5q-388 0 -618 234z" />
<glyph unicode="&#x406;" horiz-adv-x="600" d="M144 0v1462h312v-1462h-312z" />
<glyph unicode="&#x407;" horiz-adv-x="600" d="M-79 1705q0 61 43.5 104t106.5 43q61 0 103.5 -43t42.5 -104q0 -63 -42.5 -106t-103.5 -43q-63 0 -106.5 43t-43.5 106zM144 0v1462h312v-1462h-312zM383 1705q0 60 44.5 103.5t105.5 43.5t105 -43.5t44 -103.5q0 -63 -44 -106t-105.5 -43t-105.5 43t-44 106z" />
<glyph unicode="&#x408;" horiz-adv-x="1064" d="M13 117l136 238q110 -106 232 -106q103 0 165.5 64.5t62.5 171.5v977h311v-982q0 -127 -38 -224.5t-107 -159t-162 -92.5t-207 -31q-247 0 -393 144z" />
<glyph unicode="&#x409;" horiz-adv-x="2367" d="M57 -27v276q46 0 80.5 11.5t66.5 41.5t55.5 82.5t42.5 134t33 196.5l86 747h1038v-519h371q115 0 209.5 -38t156 -103t94.5 -150t33 -181q0 -97 -33 -182t-94 -149.5t-155.5 -102t-210.5 -37.5h-684v1188h-445l-57 -496q-15 -128 -39.5 -230.5t-55.5 -177t-72 -129.5 t-85.5 -89.5t-100.5 -55.5t-111 -29t-123 -8zM1459 274h329q94 0 154.5 53t60.5 144q0 89 -60.5 143.5t-154.5 54.5h-329v-395z" />
<glyph unicode="&#x40a;" horiz-adv-x="2367" d="M144 0v1462h312v-575h690v575h313v-575h400q109 0 198 -35t146.5 -95.5t88.5 -140.5t31 -171q0 -92 -31 -172t-88 -141t-146.5 -96.5t-198.5 -35.5h-713v613h-690v-613h-312zM1459 274h360q80 0 132 47t52 124t-52 122.5t-132 45.5h-360v-339z" />
<glyph unicode="&#x40b;" horiz-adv-x="1767" d="M55 1188v274h1166v-274h-426v-310q153 49 314 49q137 0 241.5 -39t171 -110.5t99.5 -169.5t33 -221v-387h-315v387q0 138 -68 202t-200 64q-151 0 -276 -48v-605h-312v1188h-428z" />
<glyph unicode="&#x40c;" horiz-adv-x="1393" d="M144 0v1462h312v-653l517 653h384l-581 -686l620 -776h-384l-443 585l-113 -136v-449h-312zM575 1585l293 315h257l-356 -315h-194z" />
<glyph unicode="&#x40e;" horiz-adv-x="1412" d="M-9 1462h354l360 -776l364 776h353l-602 -1182q-36 -71 -77 -123.5t-97.5 -95.5t-133 -65.5t-171.5 -22.5q-97 0 -188.5 30.5t-141.5 75.5l118 249q96 -79 189 -79q77 0 122.5 34.5t90.5 117.5zM322 1723l123 102q45 -64 112.5 -99.5t150.5 -35.5q81 0 147.5 35 t112.5 100l123 -102q-66 -91 -166 -142t-217 -51q-115 0 -216.5 51.5t-169.5 141.5z" />
<glyph unicode="&#x40f;" horiz-adv-x="1601" d="M144 0v1462h312v-1188h690v1188h313v-1462h-501v-278h-312v278h-502z" />
<glyph unicode="&#x410;" horiz-adv-x="1498" d="M-11 0l565 1462h391l563 -1462h-356l-89 247h-626l-92 -247h-356zM521 521h456l-228 629z" />
<glyph unicode="&#x411;" horiz-adv-x="1366" d="M144 0v1462h1068v-274h-756v-259h379q113 0 206 -37t153 -101t92.5 -147.5t32.5 -179t-32 -179.5t-92 -147.5t-153 -100.5t-207 -37h-691zM456 274h337q92 0 150.5 52t58.5 138q0 88 -58.5 139.5t-150.5 51.5h-337v-381z" />
<glyph unicode="&#x412;" horiz-adv-x="1451" d="M144 0v1462h770q101 0 182.5 -31t132.5 -83t78 -118.5t27 -140.5q0 -133 -71.5 -222.5t-179.5 -112.5q118 -18 199 -120.5t81 -238.5q0 -83 -27.5 -154.5t-80 -125.5t-134 -84.5t-183.5 -30.5h-794zM456 270h401q89 0 138.5 45t49.5 124q0 72 -49.5 121t-138.5 49h-401 v-339zM456 876h390q78 0 124 44.5t46 114.5t-46 114.5t-124 44.5h-390v-318z" />
<glyph unicode="&#x413;" horiz-adv-x="1250" d="M144 0v1462h1035v-274h-723v-1188h-312z" />
<glyph unicode="&#x414;" horiz-adv-x="1627" d="M57 249q49 7 82 19.5t66 42t55.5 79.5t41.5 130.5t33 194.5l86 747h1038v-1188h132v-544h-311v270h-912v-270h-311v519zM467 274h679v914h-445l-57 -496q-30 -281 -177 -418z" />
<glyph unicode="&#x415;" horiz-adv-x="1276" d="M144 0v1462h1035v-274h-723v-310h707v-273h-707v-331h723v-274h-1035z" />
<glyph unicode="&#x416;" horiz-adv-x="2083" d="M0 0l618 776l-581 686h384l464 -588v588h313v-588l463 588h386l-581 -686l618 -776h-382l-442 585l-62 -75v-510h-313v510l-61 75l-443 -585h-381z" />
<glyph unicode="&#x417;" horiz-adv-x="1336" d="M44 209l163 207q72 -76 193.5 -121.5t232.5 -45.5q142 0 223.5 52t81.5 136q0 87 -78.5 127.5t-244.5 40.5h-295v273h295q136 0 217.5 39.5t81.5 117.5q0 56 -40.5 95.5t-106.5 58t-152 18.5q-109 0 -214.5 -39.5t-181.5 -111.5l-156 195q93 105 245.5 168.5t337.5 63.5 q170 0 301 -48t204.5 -138t73.5 -210q0 -66 -27 -125t-72 -100t-101 -69t-118 -39q46 -4 92 -20.5t91 -46.5t79.5 -69.5t56 -95t21.5 -119.5q0 -124 -77 -222.5t-214 -153t-310 -54.5q-195 0 -356.5 66.5t-245.5 169.5z" />
<glyph unicode="&#x418;" horiz-adv-x="1596" d="M144 0v1462h312v-945l677 945h320v-1462h-311v979l-697 -979h-301z" />
<glyph unicode="&#x419;" horiz-adv-x="1596" d="M144 0v1462h312v-945l677 945h320v-1462h-311v979l-697 -979h-301zM414 1723l123 102q45 -64 112.5 -99.5t150.5 -35.5q81 0 147.5 35t112.5 100l123 -102q-66 -91 -166 -142t-217 -51q-115 0 -216.5 51.5t-169.5 141.5z" />
<glyph unicode="&#x41a;" horiz-adv-x="1393" d="M144 0v1462h312v-653l517 653h384l-581 -686l620 -776h-384l-443 585l-113 -136v-449h-312z" />
<glyph unicode="&#x41b;" horiz-adv-x="1601" d="M57 -27v276q46 0 80.5 11.5t66.5 41.5t55.5 82.5t42.5 134t33 196.5l86 747h1038v-1462h-313v1188h-445l-57 -496q-15 -128 -39.5 -230.5t-55.5 -177t-72 -129.5t-85.5 -89.5t-100.5 -55.5t-111 -29t-123 -8z" />
<glyph unicode="&#x41c;" horiz-adv-x="1873" d="M144 0v1462h437l354 -883l355 883h439v-1462h-313v1023l-412 -1023h-136l-412 1023v-1023h-312z" />
<glyph unicode="&#x41d;" horiz-adv-x="1601" d="M144 0v1462h312v-575h690v575h313v-1462h-313v613h-690v-613h-312z" />
<glyph unicode="&#x41e;" horiz-adv-x="1675" d="M75 730q0 163 57.5 303.5t158 240t242 156t304.5 56.5q164 0 306 -56.5t243 -156t158.5 -240t57.5 -303.5t-57.5 -304t-158.5 -240.5t-243 -156t-306 -56.5q-163 0 -304.5 56.5t-242 156t-158 240.5t-57.5 304zM395 730q0 -136 53.5 -245t155 -172.5t233.5 -63.5 t234 63.5t156.5 172.5t54.5 245t-54.5 245t-156.5 171.5t-234 62.5t-233.5 -62.5t-155 -171.5t-53.5 -245z" />
<glyph unicode="&#x41f;" horiz-adv-x="1601" d="M144 0v1462h1315v-1462h-313v1188h-690v-1188h-312z" />
<glyph unicode="&#x420;" horiz-adv-x="1366" d="M144 0v1462h684q116 0 210.5 -37.5t155 -102t93 -149.5t32.5 -182q0 -96 -32.5 -181.5t-93.5 -150t-155.5 -102.5t-209.5 -38h-372v-519h-312zM456 793h330q94 0 155 54t61 144t-60.5 143.5t-155.5 53.5h-330v-395z" />
<glyph unicode="&#x421;" horiz-adv-x="1504" d="M75 729.5q0 165.5 60 307.5t164 240t247.5 153.5t306.5 55.5q93 0 177 -20t147.5 -53t119.5 -80t95 -96.5t72 -107.5l-268 -132q-47 93 -140 152.5t-203 59.5q-131 0 -236 -62t-163.5 -171.5t-58.5 -246t58.5 -246t163.5 -172t236 -62.5q110 0 203 60t140 153l268 -129 q-34 -58 -73 -107.5t-95 -97.5t-119.5 -81t-147 -53.5t-176.5 -20.5q-163 0 -306.5 55.5t-247.5 154t-164 240t-60 307z" />
<glyph unicode="&#x422;" horiz-adv-x="1274" d="M55 1188v274h1166v-274h-426v-1188h-312v1188h-428z" />
<glyph unicode="&#x423;" horiz-adv-x="1412" d="M-9 1462h354l360 -776l364 776h353l-602 -1182q-36 -71 -77 -123.5t-97.5 -95.5t-133 -65.5t-171.5 -22.5q-97 0 -188.5 30.5t-141.5 75.5l118 249q96 -79 189 -79q77 0 122.5 34.5t90.5 117.5z" />
<glyph unicode="&#x424;" horiz-adv-x="1873" d="M75 730q0 249 185.5 401t519.5 182v149h311v-149q335 -30 520.5 -181t185.5 -402q0 -252 -185.5 -403.5t-520.5 -179.5v-147h-311v147q-334 28 -519.5 179.5t-185.5 403.5zM395 730q0 -126 98 -204t287 -101v610q-188 -23 -286.5 -102t-98.5 -203zM1091 425 q189 21 288.5 100t99.5 205q0 125 -99 203t-289 102v-610z" />
<glyph unicode="&#x425;" horiz-adv-x="1463" d="M-6 0l529 749l-496 713h370l335 -500l331 500h374l-496 -711l529 -751h-372l-366 535l-368 -535h-370z" />
<glyph unicode="&#x426;" horiz-adv-x="1627" d="M144 0v1462h312v-1188h690v1188h313v-1188h132v-544h-311v270h-1136z" />
<glyph unicode="&#x427;" horiz-adv-x="1422" d="M107 1052v410h314v-410q0 -139 68 -202.5t199 -63.5q159 0 278 49v627h312v-1462h-312v561q-157 -48 -315 -48q-138 0 -242 38t-170 109.5t-99 170t-33 221.5z" />
<glyph unicode="&#x428;" horiz-adv-x="2153" d="M144 0v1462h312v-1188h464v1188h314v-1188h462v1188h313v-1462h-1865z" />
<glyph unicode="&#x429;" horiz-adv-x="2177" d="M144 0v1462h312v-1188h464v1188h314v-1188h462v1188h313v-1188h134v-544h-313v270h-1686z" />
<glyph unicode="&#x42a;" horiz-adv-x="1704" d="M55 1188v274h740v-519h371q115 0 209.5 -38t155.5 -103t94 -150t33 -181q0 -97 -32.5 -182t-93.5 -149.5t-155.5 -102t-210.5 -37.5h-683v1188h-428zM795 274h330q94 0 154 53t60 144q0 89 -60.5 143.5t-153.5 54.5h-330v-395z" />
<glyph unicode="&#x42b;" horiz-adv-x="1899" d="M144 0v1462h312v-519h372q115 0 209.5 -38t155.5 -103t93.5 -150t32.5 -181q0 -97 -32.5 -182t-93 -149.5t-155 -102t-210.5 -37.5h-684zM456 274h330q95 0 155.5 53t60.5 144q0 89 -61 143.5t-155 54.5h-330v-395zM1442 0v1462h313v-1462h-313z" />
<glyph unicode="&#x42c;" horiz-adv-x="1366" d="M144 0v1462h312v-519h372q115 0 209.5 -38t155.5 -103t93.5 -150t32.5 -181q0 -97 -32.5 -182t-93 -149.5t-155 -102t-210.5 -37.5h-684zM456 274h330q95 0 155.5 53t60.5 144q0 89 -61 143.5t-155 54.5h-330v-395z" />
<glyph unicode="&#x42d;" horiz-adv-x="1504" d="M42 333l267 129q48 -93 141.5 -153t206.5 -60q167 0 285.5 97.5t155.5 258.5h-701v273h694q-41 150 -157 240.5t-277 90.5q-113 0 -206.5 -59.5t-141.5 -152.5l-267 132q32 58 71 107.5t94.5 96.5t119 80t147 53t177.5 20q163 0 306.5 -55.5t247.5 -153.5t163.5 -240 t59.5 -307.5t-59.5 -307t-163.5 -240t-247.5 -154t-306.5 -55.5q-94 0 -177.5 20.5t-147 53.5t-119 81t-94.5 97.5t-71 107.5z" />
<glyph unicode="&#x42e;" horiz-adv-x="2285" d="M144 0v1462h312v-575h241q33 177 136.5 312.5t263 211t350.5 75.5q164 0 305.5 -56.5t241.5 -156t157 -240t57 -303.5t-57 -304t-157 -240.5t-241.5 -156t-305.5 -56.5q-199 0 -362.5 81t-266 226t-128.5 333h-234v-613h-312zM1002 730q0 -136 53.5 -245t156 -172.5 t235.5 -63.5q132 0 233.5 63.5t156 172.5t54.5 245t-54.5 245t-156 171.5t-233.5 62.5q-134 0 -236 -62.5t-155.5 -171.5t-53.5 -245z" />
<glyph unicode="&#x42f;" horiz-adv-x="1408" d="M81 0l329 556q-62 15 -117 48.5t-101.5 85.5t-74 130t-27.5 171q0 101 34 188t96.5 149.5t155.5 98t205 35.5h684v-1462h-312v519h-225l-289 -519h-358zM408 990.5q0 -90.5 61.5 -144t157.5 -53.5h326v395h-326q-96 0 -157.5 -53.5t-61.5 -144z" />
<glyph unicode="&#x430;" horiz-adv-x="1189" d="M71 324q0 72 22 130.5t58.5 97t85 65t99 38.5t103.5 12q106 0 194 -34t141 -96v142q0 81 -64 129.5t-169 48.5q-174 0 -309 -125l-105 186q95 83 214.5 125t248.5 42q75 0 140.5 -12t125.5 -41.5t102.5 -74.5t68 -115t25.5 -158v-684h-278v109q-55 -64 -143.5 -100 t-191.5 -36q-52 0 -103.5 13.5t-99.5 42.5t-84.5 69.5t-58.5 99t-22 126.5zM351 318q0 -72 57 -113.5t142 -41.5q70 0 130 23.5t94 68.5v130q-34 45 -94 68.5t-130 23.5q-85 0 -142 -42.5t-57 -116.5z" />
<glyph unicode="&#x431;" horiz-adv-x="1263" d="M71 579q0 255 62.5 423.5t182 256.5t305.5 113q131 19 184.5 40t53.5 50h289q0 -231 -440 -285q-90 -12 -160 -37.5t-114 -61.5t-70 -77t-38 -89q65 83 158.5 128t203.5 45q111 0 205.5 -45t158.5 -121t100 -176t36 -210q0 -113 -38.5 -214t-108 -178t-176.5 -122.5 t-236 -45.5q-130 0 -236 46.5t-176 127.5t-108 192t-38 240zM360 535q0 -87 30.5 -157t92.5 -113.5t146 -43.5t147 43t94 113.5t31 157.5q0 82 -31 149.5t-94 110t-147 42.5t-146 -42.5t-92.5 -110t-30.5 -149.5z" />
<glyph unicode="&#x432;" horiz-adv-x="1284" d="M138 0v1058h671q78 0 141 -22t102 -60t60 -86.5t21 -103.5q0 -91 -50.5 -154t-129.5 -86q89 -21 145.5 -92.5t56.5 -166.5q0 -126 -86 -206.5t-241 -80.5h-690zM416 228h345q50 0 79.5 26.5t29.5 71.5q0 42 -29 70.5t-80 28.5h-345v-197zM416 653h335q45 0 72.5 25 t27.5 62q0 40 -27.5 65t-72.5 25h-335v-177z" />
<glyph unicode="&#x433;" horiz-adv-x="994" d="M138 0v1058h818v-243h-540v-815h-278z" />
<glyph unicode="&#x434;" horiz-adv-x="1286" d="M40 232q35 6 58 19.5t45 46.5t37.5 93t28.5 155l67 512h857v-815h116v-513h-279v270h-650v-270h-280v502zM364 243h491v572h-336l-32 -286q-22 -192 -123 -286z" />
<glyph unicode="&#x435;" horiz-adv-x="1211" d="M71 531q0 114 40.5 216t112 176.5t174 118t220.5 43.5q157 0 277.5 -73t186.5 -206t66 -304v-61h-786q13 -106 94 -176t211 -70q70 0 151.5 29t130.5 77l122 -180q-77 -71 -193 -109.5t-242 -38.5q-120 0 -224 40t-179.5 111.5t-118.5 176.5t-43 230zM357 629h521 q-2 32 -11.5 63.5t-29.5 62.5t-49 55t-73 38.5t-97 14.5q-61 0 -111 -21t-80 -56.5t-47 -75t-23 -81.5z" />
<glyph unicode="&#x436;" horiz-adv-x="1643" d="M2 0l429 579l-416 479h342l325 -383v383h280v-383l324 383h343l-417 -479l429 -579h-346l-283 408l-50 -55v-353h-280v353l-51 55l-282 -408h-347z" />
<glyph unicode="&#x437;" horiz-adv-x="1104" d="M31 142l126 174q71 -60 168.5 -90.5t197.5 -30.5q105 0 162.5 31t57.5 83q0 60 -62.5 89t-174.5 29h-217v215h217q217 0 217 114q0 48 -59.5 77.5t-153.5 29.5q-204 0 -328 -120l-136 164q81 81 196 128.5t253 47.5q246 1 381.5 -76.5t135.5 -213.5q0 -65 -40 -119.5 t-102 -86.5t-134 -43q40 -3 81 -14.5t80 -32.5t69.5 -50t49.5 -69.5t19 -86.5q0 -141 -139 -229.5t-373 -88.5q-159 0 -285.5 45.5t-206.5 123.5z" />
<glyph unicode="&#x438;" horiz-adv-x="1270" d="M138 0v1058h278v-640l437 640h280v-1058h-278v664l-449 -664h-268z" />
<glyph unicode="&#x439;" horiz-adv-x="1270" d="M138 0v1058h278v-640l437 640h280v-1058h-278v664l-449 -664h-268zM249 1357l123 102q46 -64 113 -99.5t151 -35.5q80 0 147 35t114 100l122 -102q-67 -91 -167 -142.5t-216 -51.5q-115 0 -216.5 51.5t-170.5 142.5z" />
<glyph unicode="&#x43a;" horiz-adv-x="1171" d="M138 0v1058h278v-471l401 471h342l-419 -479l433 -579h-349l-280 408l-128 -136v-272h-278z" />
<glyph unicode="&#x43b;" horiz-adv-x="1270" d="M40 -27v228q65 0 104.5 78t64.5 267l67 512h857v-1058h-278v815h-336l-34 -302q-34 -278 -139.5 -409t-305.5 -131z" />
<glyph unicode="&#x43c;" horiz-adv-x="1526" d="M138 0v1058h366l261 -631l256 631h368v-1058h-278v688l-283 -688h-127l-285 688v-688h-278z" />
<glyph unicode="&#x43d;" horiz-adv-x="1270" d="M138 0v1058h278v-391h439v391h278v-1058h-278v423h-439v-423h-278z" />
<glyph unicode="&#x43e;" horiz-adv-x="1257" d="M71 531q0 113 38.5 213.5t109 176t177 120t233.5 44.5q128 0 235 -44.5t177.5 -120t109.5 -176t39 -213.5q0 -114 -39 -215t-109.5 -177.5t-177.5 -121t-235 -44.5q-127 0 -233.5 44.5t-177 121t-109 177.5t-38.5 215zM360 531q0 -85 30.5 -154.5t92.5 -112.5t146 -43 t147 43t94 112.5t31 154.5q0 83 -31 152t-94 111.5t-147 42.5t-146 -42.5t-92.5 -111t-30.5 -152.5z" />
<glyph unicode="&#x43f;" horiz-adv-x="1270" d="M138 0v1058h995v-1058h-278v815h-439v-815h-278z" />
<glyph unicode="&#x440;" horiz-adv-x="1276" d="M138 -403v1461h278v-134q61 78 145.5 119.5t181.5 41.5q102 0 188 -37.5t148.5 -107t97.5 -174.5t35 -235t-35 -236t-97.5 -176t-149 -108t-187.5 -38q-96 0 -180 41t-147 122v-539h-278zM416 341q35 -49 103.5 -84.5t135.5 -35.5q120 0 193.5 85.5t73.5 224.5 q0 136 -73.5 221t-193.5 85q-67 0 -135.5 -34.5t-103.5 -85.5v-376z" />
<glyph unicode="&#x441;" horiz-adv-x="1092" d="M71 531q0 120 42 223t115.5 175.5t178 114t224.5 41.5q78 0 146.5 -16t119 -43.5t87.5 -60t66 -70.5l-182 -172q-76 114 -224 114q-127 0 -207 -84.5t-80 -221.5q0 -138 80 -224t207 -86q143 0 224 114l182 -168q-29 -40 -66 -72.5t-87.5 -61t-118.5 -44.5t-147 -16 q-121 0 -225 41.5t-177.5 114.5t-115.5 177t-42 225z" />
<glyph unicode="&#x442;" horiz-adv-x="945" d="M37 815v243h873v-243h-297v-815h-280v815h-296z" />
<glyph unicode="&#x443;" horiz-adv-x="1123" d="M-13 1058h298l276 -736l276 736h300l-497 -1231q-29 -73 -70 -123.5t-93.5 -78.5t-109 -40t-128.5 -14q-27 0 -70 4.5t-68 10.5l41 249q40 -17 88 -17q56 0 91.5 18t55.5 59l39 90z" />
<glyph unicode="&#x444;" horiz-adv-x="1842" d="M94 528.5q0 129.5 30.5 235.5t84.5 176t128.5 107.5t162.5 37.5q167 0 282 -163v540h278v-538q53 78 126.5 119.5t156.5 41.5q88 0 162 -37.5t128.5 -107t84.5 -174.5t30 -235t-30 -236t-84.5 -176t-128.5 -108t-162 -38q-171 0 -283 163v-539h-278v539 q-53 -79 -126 -121t-156 -42q-88 0 -162.5 37.5t-128.5 107.5t-84.5 175.5t-30.5 235zM374 529q0 -136 60.5 -222t155.5 -86q53 0 107.5 34.5t84.5 85.5v376q-28 50 -83.5 85t-108.5 35q-95 0 -155.5 -85.5t-60.5 -222.5zM1060 341q29 -49 84 -84.5t107 -35.5q95 0 155 86 t60 224q0 136 -60 221t-155 85q-53 0 -107.5 -34.5t-83.5 -85.5v-376z" />
<glyph unicode="&#x445;" horiz-adv-x="1104" d="M0 0l374 544l-353 514h312l219 -326l217 326h312l-356 -514l379 -544h-311l-241 357l-243 -357h-309z" />
<glyph unicode="&#x446;" horiz-adv-x="1286" d="M138 0v1058h278v-815h439v815h278v-815h116v-513h-279v270h-832z" />
<glyph unicode="&#x447;" horiz-adv-x="1235" d="M105 675v383h278v-287q0 -107 54.5 -151.5t169.5 -44.5q133 0 213 40v443h280v-1058h-280v393q-54 -30 -134.5 -48.5t-175.5 -18.5q-214 0 -309.5 89t-95.5 260z" />
<glyph unicode="&#x448;" horiz-adv-x="1802" d="M138 0v1058h278v-815h347v815h278v-815h344v815h280v-1058h-1527z" />
<glyph unicode="&#x449;" horiz-adv-x="1831" d="M138 0v1058h278v-815h347v815h278v-815h344v815h280v-815h132v-513h-281v270h-1378z" />
<glyph unicode="&#x44a;" horiz-adv-x="1408" d="M37 815v243h576v-364h362q89 0 160 -27.5t116 -75.5t68.5 -109.5t23.5 -132.5t-24.5 -134t-70.5 -111t-116.5 -76t-156.5 -28h-642v815h-296zM613 234h320q58 0 91.5 32.5t33.5 82.5t-33.5 81.5t-91.5 31.5h-320v-228z" />
<glyph unicode="&#x44b;" horiz-adv-x="1700" d="M138 0v1058h278v-364h362q89 0 160.5 -27.5t116 -75.5t68 -109.5t23.5 -132.5t-24.5 -134t-70.5 -111t-116.5 -76t-156.5 -28h-640zM416 234h320q58 0 91.5 32.5t33.5 82.5t-33.5 81.5t-91.5 31.5h-320v-228zM1284 0v1058h280v-1058h-280z" />
<glyph unicode="&#x44c;" horiz-adv-x="1211" d="M138 0v1058h278v-364h362q89 0 160.5 -27.5t116 -75.5t68 -109.5t23.5 -132.5t-24.5 -134t-70.5 -111t-116.5 -76t-156.5 -28h-640zM416 234h320q58 0 91.5 32.5t33.5 82.5t-33.5 81.5t-91.5 31.5h-320v-228z" />
<glyph unicode="&#x44d;" horiz-adv-x="1092" d="M44 167l171 153q41 -58 100.5 -91.5t129.5 -33.5q106 0 180 60.5t98 169.5h-428v215h426q-25 106 -97.5 164.5t-178.5 58.5q-71 0 -130.5 -32.5t-99.5 -90.5l-171 155q57 82 162.5 136t255.5 54q120 0 224 -41.5t178 -114t116.5 -176t42.5 -222.5q0 -121 -42.5 -225 t-116.5 -177t-178 -114.5t-224 -41.5q-151 0 -256 55t-162 139z" />
<glyph unicode="&#x44e;" horiz-adv-x="1771" d="M138 0v1058h278v-391h182q20 89 66.5 165t115 132.5t161.5 88.5t201 32q128 0 235 -44.5t177.5 -120t109 -176t38.5 -213.5q0 -114 -38.5 -215t-109 -177.5t-177.5 -121t-235 -44.5q-112 0 -208 34.5t-165.5 95t-115 142.5t-61.5 178h-176v-423h-278zM872 531 q0 -85 30.5 -154.5t93 -112.5t146.5 -43q85 0 147.5 43t93 112.5t30.5 154.5q0 84 -30.5 152.5t-93.5 111t-147 42.5t-146.5 -42.5t-93 -111t-30.5 -152.5z" />
<glyph unicode="&#x44f;" horiz-adv-x="1255" d="M103 0l246 383q-47 12 -88 38.5t-74.5 67t-53.5 98t-20 126.5q0 70 25 132.5t70.5 110t116 75t155.5 27.5h642v-1058h-279v364h-216l-209 -364h-315zM397 713q0 -52 34 -84.5t92 -32.5h320v228h-320q-57 0 -91.5 -31t-34.5 -80z" />
<glyph unicode="&#x451;" horiz-adv-x="1211" d="M71 531q0 114 40.5 216t112 176.5t174 118t220.5 43.5q157 0 277.5 -73t186.5 -206t66 -304v-61h-786q13 -106 94 -176t211 -70q70 0 151.5 29t130.5 77l122 -180q-77 -71 -193 -109.5t-242 -38.5q-120 0 -224 40t-179.5 111.5t-118.5 176.5t-43 230zM241 1339 q0 61 43.5 104t106.5 43q60 0 103 -43t43 -104q0 -63 -42.5 -106t-103.5 -43q-63 0 -106.5 43t-43.5 106zM357 629h521q-2 32 -11.5 63.5t-29.5 62.5t-49 55t-73 38.5t-97 14.5q-61 0 -111 -21t-80 -56.5t-47 -75t-23 -81.5zM703 1339q0 60 44.5 103.5t105.5 43.5t105 -43.5 t44 -103.5q0 -63 -44 -106t-105.5 -43t-105.5 43t-44 106z" />
<glyph unicode="&#x452;" horiz-adv-x="1279" d="M17 1157v160h130v145h278v-145h320v-160h-320v-237q57 69 154.5 117t217.5 48q171 0 258 -87.5t87 -246.5v-780q0 -186 -95.5 -293t-281.5 -107q-96 0 -150 16t-115 58l77 208q33 -28 65 -41t77 -13q67 0 105.5 43t38.5 129v673q0 105 -50.5 149t-145.5 44 q-75 0 -138.5 -36t-103.5 -88v-713h-278v1157h-130z" />
<glyph unicode="&#x453;" horiz-adv-x="994" d="M138 0v1058h818v-243h-540v-815h-278zM410 1219l293 315h257l-355 -315h-195z" />
<glyph unicode="&#x454;" horiz-adv-x="1092" d="M71 531q0 120 42 223t115.5 175.5t178 114t224.5 41.5q78 0 146.5 -16t119 -43.5t87.5 -60t66 -70.5l-172 -155q-40 58 -100.5 90.5t-131.5 32.5q-104 0 -178 -58.5t-100 -164.5h427v-215h-427q25 -109 98.5 -169.5t179.5 -60.5q71 0 131.5 33.5t100.5 91.5l172 -153 q-29 -40 -66 -72.5t-87.5 -61t-118.5 -44.5t-147 -16q-121 0 -225 41.5t-177.5 114.5t-115.5 177t-42 225z" />
<glyph unicode="&#x455;" horiz-adv-x="1044" d="M46 138l121 195q61 -58 166 -101.5t200 -43.5q87 0 132 31.5t45 83.5q0 25 -17.5 44t-47.5 30t-70.5 21.5t-85.5 18t-93 20t-93.5 27.5t-85.5 40t-70 57.5t-48 81t-18 108.5q0 67 29 127t83 106.5t137 73.5t185 27q246 0 428 -144l-113 -192q-49 53 -134.5 88t-178.5 35 q-74 0 -120 -30t-46 -75q0 -25 21.5 -42.5t57.5 -29t83 -21t99 -21t104 -26.5t99 -41t83 -61t57.5 -89t21.5 -122q0 -73 -31 -135t-88 -108t-144.5 -72t-194.5 -26q-138 0 -263.5 44t-209.5 121z" />
<glyph unicode="&#x456;" horiz-adv-x="554" d="M109 1338.5q0 68.5 49.5 116.5t117.5 48q69 0 118 -48t49 -116.5t-49 -117t-118 -48.5q-68 0 -117.5 48.5t-49.5 117zM138 0v1058h278v-1058h-278z" />
<glyph unicode="&#x457;" horiz-adv-x="554" d="M-103 1339q0 61 43.5 104t105.5 43q61 0 104 -43t43 -104q0 -63 -43 -106t-104 -43q-63 0 -106 43t-43 106zM138 0v1058h278v-1058h-278zM360 1339q0 60 43.5 103.5t104.5 43.5t105 -43.5t44 -103.5q0 -63 -43.5 -106t-105 -43t-105 43t-43.5 106z" />
<glyph unicode="&#x458;" horiz-adv-x="554" d="M-226 -355l77 208q34 -28 66 -41t77 -13q66 0 105 43t39 129v1087h278v-1087q0 -186 -95 -293t-281 -107q-96 0 -150.5 16t-115.5 58zM109 1338.5q0 68.5 49.5 116.5t117.5 48q69 0 118 -48t49 -116.5t-49 -117t-118 -48.5q-68 0 -117.5 48.5t-49.5 117z" />
<glyph unicode="&#x459;" horiz-adv-x="1928" d="M40 -27v228q65 0 104.5 78t64.5 267l67 512h857v-364h362q89 0 160 -27.5t116 -75.5t68.5 -109.5t23.5 -132.5t-24.5 -134t-70.5 -111t-116.5 -76t-156.5 -28h-640v815h-336l-34 -302q-34 -278 -139.5 -409t-305.5 -131zM1133 234h320q58 0 91.5 32.5t33.5 82.5 t-33.5 81.5t-91.5 31.5h-320v-228z" />
<glyph unicode="&#x45a;" horiz-adv-x="1928" d="M138 0v1058h278v-385h439v385h278v-385h375q86 0 154.5 -27t112 -74t66 -107.5t22.5 -129.5q0 -68 -24 -128.5t-68 -106.5t-112 -73t-151 -27h-653v429h-439v-429h-278zM1133 234h333q52 0 82 28t30 73t-30 74.5t-82 29.5h-333v-205z" />
<glyph unicode="&#x45b;" horiz-adv-x="1279" d="M17 1157v158h130v147h278v-147h318v-158h-318v-237q57 69 154.5 117t217.5 48q171 0 258 -87.5t87 -246.5v-751h-279v644q0 105 -50 149t-146 44q-75 0 -138.5 -36t-103.5 -88v-713h-278v1157h-130z" />
<glyph unicode="&#x45c;" horiz-adv-x="1171" d="M138 0v1058h278v-471l401 471h342l-419 -479l433 -579h-349l-280 408l-128 -136v-272h-278zM454 1219l293 315h257l-356 -315h-194z" />
<glyph unicode="&#x45e;" horiz-adv-x="1123" d="M-13 1058h298l276 -736l276 736h300l-497 -1231q-29 -73 -70 -123.5t-93.5 -78.5t-109 -40t-128.5 -14q-27 0 -70 4.5t-68 10.5l41 249q40 -17 88 -17q56 0 91.5 18t55.5 59l39 90zM178 1357l123 102q45 -64 112 -99.5t150 -35.5q81 0 148 35t113 100l123 -102 q-67 -91 -167.5 -142.5t-216.5 -51.5q-115 0 -216 51.5t-169 142.5z" />
<glyph unicode="&#x45f;" horiz-adv-x="1270" d="M138 0v1058h278v-815h439v815h278v-1058h-357v-276h-281v276h-357z" />
<glyph unicode="&#x490;" horiz-adv-x="1250" d="M144 0v1462h722v269h313v-543h-723v-1188h-312z" />
<glyph unicode="&#x491;" horiz-adv-x="994" d="M138 0v1058h539v276h279v-519h-540v-815h-278z" />
<glyph unicode="&#x1e02;" horiz-adv-x="1451" d="M144 0v1462h770q101 0 182.5 -31t132.5 -83t78 -118.5t27 -140.5q0 -133 -71.5 -222.5t-179.5 -112.5q118 -18 199 -120.5t81 -238.5q0 -83 -27.5 -154.5t-80 -125.5t-134 -84.5t-183.5 -30.5h-794zM456 270h401q89 0 138.5 45t49.5 124q0 72 -49.5 121t-138.5 49h-401 v-339zM456 876h390q78 0 124 44.5t46 114.5t-46 114.5t-124 44.5h-390v-318zM579 1705q0 61 43 105t106 44q59 0 102.5 -44.5t43.5 -104.5q0 -63 -43 -106t-103 -43q-63 0 -106 43t-43 106z" />
<glyph unicode="&#x1e03;" horiz-adv-x="1284" d="M138 0v1462h278v-540q62 80 147 121.5t180 41.5q100 0 186.5 -38.5t149 -109t98 -176t35.5 -232.5q0 -130 -35.5 -235.5t-98.5 -175.5t-149 -107.5t-186 -37.5q-96 0 -180 42t-147 121v-136h-278zM416 339q35 -50 103 -84t136 -34q122 0 195.5 84.5t73.5 223t-73.5 223.5 t-195.5 85q-68 0 -136 -35t-103 -87v-376zM508 1705q0 61 43.5 105t105.5 44q60 0 104 -44.5t44 -104.5q0 -62 -44 -105.5t-104 -43.5q-63 0 -106 43t-43 106z" />
<glyph unicode="&#x1e0a;" horiz-adv-x="1572" d="M144 0v1462h577q170 0 314 -53t246 -147.5t159 -231.5t57 -300t-57 -299.5t-159 -231t-246 -147t-314 -52.5h-577zM456 274h265q106 0 193.5 36.5t144.5 99t88.5 145t31.5 175.5q0 98 -29.5 181t-86 145t-144.5 97t-198 35h-265v-914zM638 1705q0 61 43 105t105 44 q60 0 103.5 -44.5t43.5 -104.5q0 -63 -43.5 -106t-103.5 -43q-62 0 -105 43t-43 106z" />
<glyph unicode="&#x1e0b;" horiz-adv-x="1284" d="M71 529q0 127 35 232.5t97.5 176t148.5 109t187 38.5q95 0 180 -41.5t147 -121.5v540h280v-1462h-280v136q-63 -79 -147 -121t-180 -42q-100 0 -185.5 37.5t-148.5 107.5t-98.5 175.5t-35.5 235.5zM357 529q0 -137 75 -222.5t193 -85.5q71 0 138.5 34t102.5 86v376 q-35 53 -102.5 86.5t-138.5 33.5q-119 0 -193.5 -85.5t-74.5 -222.5zM483 1705q0 61 43 105t105 44q60 0 103.5 -44.5t43.5 -104.5q0 -63 -43.5 -106t-103.5 -43q-62 0 -105 43t-43 106z" />
<glyph unicode="&#x1e1e;" horiz-adv-x="1250" d="M144 0v1462h1035v-274h-723v-310h707v-273h-707v-605h-312zM517 1705q0 61 43.5 105t106.5 44q59 0 102.5 -44.5t43.5 -104.5q0 -63 -43 -106t-103 -43q-63 0 -106.5 43t-43.5 106z" />
<glyph unicode="&#x1e1f;" horiz-adv-x="715" d="M25 815v243h174v57q0 168 98.5 268t258.5 100q83 0 156 -23.5t120 -74.5l-104 -164q-44 44 -117 44q-59 0 -95 -39t-36 -111v-57h214v-243h-214v-815h-281v815h-174zM410 1705q0 61 43 105t106 44q59 0 102.5 -44.5t43.5 -104.5q0 -63 -43.5 -106t-102.5 -43 q-63 0 -106 43t-43 106z" />
<glyph unicode="&#x1e22;" horiz-adv-x="1601" d="M144 0v1462h312v-575h690v575h313v-1462h-313v613h-690v-613h-312zM653 1705q0 61 43.5 105t105.5 44q60 0 103.5 -44.5t43.5 -104.5q0 -63 -43.5 -106t-103.5 -43q-62 0 -105.5 43t-43.5 106z" />
<glyph unicode="&#x1e23;" horiz-adv-x="1270" d="M138 0v1462h278v-542q57 69 154.5 117t218.5 48q170 0 257 -87.5t87 -246.5v-751h-278v644q0 105 -50.5 149t-147.5 44q-75 0 -137.5 -36t-103.5 -88v-713h-278zM489 1705q0 61 43.5 105t105.5 44q59 0 102.5 -44.5t43.5 -104.5q0 -63 -43 -106t-103 -43q-63 0 -106 43 t-43 106z" />
<glyph unicode="&#x1e56;" horiz-adv-x="1366" d="M144 0v1462h684q116 0 210.5 -37.5t155 -102t93 -149.5t32.5 -182q0 -96 -32.5 -181.5t-93.5 -150t-155.5 -102.5t-209.5 -38h-372v-519h-312zM456 793h330q94 0 155 54t61 144t-60.5 143.5t-155.5 53.5h-330v-395zM537 1705q0 61 43.5 105t105.5 44q59 0 102.5 -44.5 t43.5 -104.5q0 -63 -43 -106t-103 -43q-63 0 -106 43t-43 106z" />
<glyph unicode="&#x1e57;" horiz-adv-x="1276" d="M138 -403v1461h278v-134q61 78 145.5 119.5t181.5 41.5q102 0 188 -37.5t148.5 -107t97.5 -174.5t35 -235t-35 -236t-97.5 -176t-149 -108t-187.5 -38q-96 0 -180 41t-147 122v-539h-278zM416 341q35 -49 103.5 -84.5t135.5 -35.5q120 0 193.5 85.5t73.5 224.5 q0 136 -73.5 221t-193.5 85q-67 0 -135.5 -34.5t-103.5 -85.5v-376zM506 1339q0 61 43.5 105t105.5 44q59 0 103 -44.5t44 -104.5q0 -62 -43.5 -105.5t-103.5 -43.5q-63 0 -106 43t-43 106z" />
<glyph unicode="&#x1e60;" horiz-adv-x="1313" d="M46 207l169 236q84 -88 203.5 -143t260.5 -55q122 0 188 47.5t66 115.5q0 41 -28.5 71t-77.5 49.5t-112 35.5t-132.5 33t-139.5 37.5t-133 54t-111.5 78.5t-77.5 114.5t-29 157.5q0 91 38.5 172t108.5 141.5t175.5 95.5t231.5 35q351 0 571 -203l-174 -228 q-86 79 -197.5 119.5t-227.5 40.5q-98 0 -153 -40t-55 -107q0 -34 23.5 -59.5t63.5 -42t94 -32.5t114 -28.5t124 -31.5t124.5 -40.5t114 -56.5t94 -79t64 -108.5t23.5 -143.5q0 -102 -36.5 -186.5t-107.5 -148.5t-183.5 -99.5t-257.5 -35.5q-388 0 -618 234zM510 1705 q0 61 43.5 105t105.5 44q60 0 104 -44.5t44 -104.5q0 -62 -44 -105.5t-104 -43.5q-62 0 -105.5 43t-43.5 106z" />
<glyph unicode="&#x1e61;" horiz-adv-x="1044" d="M46 138l121 195q61 -58 166 -101.5t200 -43.5q87 0 132 31.5t45 83.5q0 25 -17.5 44t-47.5 30t-70.5 21.5t-85.5 18t-93 20t-93.5 27.5t-85.5 40t-70 57.5t-48 81t-18 108.5q0 67 29 127t83 106.5t137 73.5t185 27q246 0 428 -144l-113 -192q-49 53 -134.5 88t-178.5 35 q-74 0 -120 -30t-46 -75q0 -25 21.5 -42.5t57.5 -29t83 -21t99 -21t104 -26.5t99 -41t83 -61t57.5 -89t21.5 -122q0 -73 -31 -135t-88 -108t-144.5 -72t-194.5 -26q-138 0 -263.5 44t-209.5 121zM374 1339q0 61 43.5 105t105.5 44q60 0 104 -44.5t44 -104.5 q0 -62 -44 -105.5t-104 -43.5q-62 0 -105.5 43t-43.5 106z" />
<glyph unicode="&#x1e6a;" horiz-adv-x="1274" d="M55 1188v274h1166v-274h-426v-1188h-312v1188h-428zM491 1705q0 61 43.5 105t105.5 44q59 0 102.5 -44.5t43.5 -104.5q0 -63 -43 -106t-103 -43q-63 0 -106 43t-43 106z" />
<glyph unicode="&#x1e6b;" horiz-adv-x="740" d="M17 815v243h176v290h280v-290h215v-243h-215v-478q0 -50 26 -83t70 -33q30 0 58 9.5t40 22.5l58 -211q-76 -69 -232 -69q-146 0 -223 74.5t-77 215.5v552h-176zM195 1705q0 61 43.5 105t106.5 44q59 0 102.5 -44.5t43.5 -104.5q0 -63 -43.5 -106t-102.5 -43 q-63 0 -106.5 43t-43.5 106z" />
<glyph unicode="&#x1e80;" horiz-adv-x="2011" d="M2 1462h349l256 -1056l278 1056h244l276 -1056l253 1056h351l-416 -1462h-330l-257 1004l-255 -1004h-330zM596 1900h255l295 -315h-195z" />
<glyph unicode="&#x1e81;" horiz-adv-x="1684" d="M0 1058h289l198 -711l232 711h247l232 -711l198 711h289l-322 -1058h-296l-224 721l-222 -721h-299zM431 1534h255l296 -315h-196z" />
<glyph unicode="&#x1e82;" horiz-adv-x="2011" d="M2 1462h349l256 -1056l278 1056h244l276 -1056l253 1056h351l-416 -1462h-330l-257 1004l-255 -1004h-330zM868 1585l293 315h257l-355 -315h-195z" />
<glyph unicode="&#x1e83;" horiz-adv-x="1684" d="M0 1058h289l198 -711l232 711h247l232 -711l198 711h289l-322 -1058h-296l-224 721l-222 -721h-299zM703 1219l294 315h256l-354 -315h-196z" />
<glyph unicode="&#x1e84;" horiz-adv-x="2011" d="M2 1462h349l256 -1056l278 1056h244l276 -1056l253 1056h351l-416 -1462h-330l-257 1004l-255 -1004h-330zM625 1705q0 61 43 104t106 43q60 0 103 -43t43 -104q0 -63 -42.5 -106t-103.5 -43q-63 0 -106 43t-43 106zM1087 1705q0 60 44 103.5t105 43.5t105 -43.5 t44 -103.5q0 -63 -44 -106t-105.5 -43t-105 43t-43.5 106z" />
<glyph unicode="&#x1e85;" horiz-adv-x="1684" d="M0 1058h289l198 -711l232 711h247l232 -711l198 711h289l-322 -1058h-296l-224 721l-222 -721h-299zM462 1339q0 61 43.5 104t105.5 43q61 0 104.5 -43t43.5 -104q0 -63 -43.5 -106t-104.5 -43q-63 0 -106 43t-43 106zM924 1339q0 60 44.5 103.5t105.5 43.5t105 -43.5 t44 -103.5q0 -63 -43.5 -106t-105 -43t-106 43t-44.5 106z" />
<glyph unicode="&#x1ea0;" horiz-adv-x="1498" d="M-11 0l565 1462h391l563 -1462h-356l-89 247h-626l-92 -247h-356zM521 521h456l-228 629zM602 -280q0 61 43.5 104.5t105.5 43.5q60 0 104 -44t44 -104q0 -62 -44 -105.5t-104 -43.5q-62 0 -105.5 43t-43.5 106z" />
<glyph unicode="&#x1ea1;" horiz-adv-x="1189" d="M71 324q0 72 22 130.5t58.5 97t85 65t99 38.5t103.5 12q106 0 194 -34t141 -96v142q0 81 -64 129.5t-169 48.5q-174 0 -309 -125l-105 186q95 83 214.5 125t248.5 42q75 0 140.5 -12t125.5 -41.5t102.5 -74.5t68 -115t25.5 -158v-684h-278v109q-55 -64 -143.5 -100 t-191.5 -36q-52 0 -103.5 13.5t-99.5 42.5t-84.5 69.5t-58.5 99t-22 126.5zM351 318q0 -72 57 -113.5t142 -41.5q70 0 130 23.5t94 68.5v130q-34 45 -94 68.5t-130 23.5q-85 0 -142 -42.5t-57 -116.5zM447 -280q0 61 43.5 104.5t105.5 43.5q60 0 103.5 -44t43.5 -104 q0 -62 -43.5 -105.5t-103.5 -43.5q-63 0 -106 43t-43 106z" />
<glyph unicode="&#x1ea2;" horiz-adv-x="1498" d="M-11 0l565 1462h391l563 -1462h-356l-89 247h-626l-92 -247h-356zM521 521h456l-228 629zM575 1672q19 61 65 93t109 32q75 0 124 -39.5t49 -118.5q0 -57 -33 -112h-120q44 47 44 106q0 35 -18.5 52t-45.5 17q-55 0 -76 -61z" />
<glyph unicode="&#x1ea3;" horiz-adv-x="1189" d="M71 324q0 72 22 130.5t58.5 97t85 65t99 38.5t103.5 12q106 0 194 -34t141 -96v142q0 81 -64 129.5t-169 48.5q-174 0 -309 -125l-105 186q95 83 214.5 125t248.5 42q75 0 140.5 -12t125.5 -41.5t102.5 -74.5t68 -115t25.5 -158v-684h-278v109q-55 -64 -143.5 -100 t-191.5 -36q-52 0 -103.5 13.5t-99.5 42.5t-84.5 69.5t-58.5 99t-22 126.5zM351 318q0 -72 57 -113.5t142 -41.5q70 0 130 23.5t94 68.5v130q-34 45 -94 68.5t-130 23.5q-85 0 -142 -42.5t-57 -116.5zM418 1299q20 60 66.5 92.5t109.5 32.5q75 0 124 -39t49 -118 q0 -58 -33 -112h-121q44 46 44 105q0 36 -18 53t-45 17q-56 0 -77 -61z" />
<glyph unicode="&#x1ea4;" horiz-adv-x="1498" d="M-11 0l565 1462h391l563 -1462h-356l-89 247h-626l-92 -247h-356zM423 1495l202 236h249l207 -236h-171l-161 146l-155 -146h-171zM521 521h456l-228 629zM1008 1612l294 238h256l-355 -238h-195z" />
<glyph unicode="&#x1ea5;" horiz-adv-x="1189" d="M71 324q0 72 22 130.5t58.5 97t85 65t99 38.5t103.5 12q106 0 194 -34t141 -96v142q0 81 -64 129.5t-169 48.5q-174 0 -309 -125l-105 186q95 83 214.5 125t248.5 42q75 0 140.5 -12t125.5 -41.5t102.5 -74.5t68 -115t25.5 -158v-684h-278v109q-55 -64 -143.5 -100 t-191.5 -36q-52 0 -103.5 13.5t-99.5 42.5t-84.5 69.5t-58.5 99t-22 126.5zM265 1219l202 315h250l205 -315h-171l-159 194l-155 -194h-172zM351 318q0 -72 57 -113.5t142 -41.5q70 0 130 23.5t94 68.5v130q-34 45 -94 68.5t-130 23.5q-85 0 -142 -42.5t-57 -116.5z M837 1372l294 315h256l-354 -315h-196z" />
<glyph unicode="&#x1ea6;" horiz-adv-x="1498" d="M-50 1850h253l297 -238h-195zM-11 0l565 1462h391l563 -1462h-356l-89 247h-626l-92 -247h-356zM423 1495l202 236h249l207 -236h-171l-161 146l-155 -146h-171zM521 521h456l-228 629z" />
<glyph unicode="&#x1ea7;" horiz-adv-x="1189" d="M-207 1687h255l297 -315h-196zM71 324q0 72 22 130.5t58.5 97t85 65t99 38.5t103.5 12q106 0 194 -34t141 -96v142q0 81 -64 129.5t-169 48.5q-174 0 -309 -125l-105 186q95 83 214.5 125t248.5 42q75 0 140.5 -12t125.5 -41.5t102.5 -74.5t68 -115t25.5 -158v-684h-278 v109q-55 -64 -143.5 -100t-191.5 -36q-52 0 -103.5 13.5t-99.5 42.5t-84.5 69.5t-58.5 99t-22 126.5zM265 1219l202 315h250l205 -315h-171l-159 194l-155 -194h-172zM351 318q0 -72 57 -113.5t142 -41.5q70 0 130 23.5t94 68.5v130q-34 45 -94 68.5t-130 23.5 q-85 0 -142 -42.5t-57 -116.5z" />
<glyph unicode="&#x1ea8;" horiz-adv-x="1498" d="M-11 0l565 1462h391l563 -1462h-356l-89 247h-626l-92 -247h-356zM423 1495l202 236h249l207 -236h-171l-161 146l-155 -146h-171zM521 521h456l-228 629zM924 1740q20 44 66.5 68t109.5 24q76 0 124.5 -29t48.5 -89q0 -42 -33 -83h-120q43 34 43 78q0 26 -18 39.5 t-45 13.5q-57 0 -77 -46z" />
<glyph unicode="&#x1ea9;" horiz-adv-x="1189" d="M71 324q0 72 22 130.5t58.5 97t85 65t99 38.5t103.5 12q106 0 194 -34t141 -96v142q0 81 -64 129.5t-169 48.5q-174 0 -309 -125l-105 186q95 83 214.5 125t248.5 42q75 0 140.5 -12t125.5 -41.5t102.5 -74.5t68 -115t25.5 -158v-684h-278v109q-55 -64 -143.5 -100 t-191.5 -36q-52 0 -103.5 13.5t-99.5 42.5t-84.5 69.5t-58.5 99t-22 126.5zM265 1219l202 315h250l205 -315h-171l-159 194l-155 -194h-172zM351 318q0 -72 57 -113.5t142 -41.5q70 0 130 23.5t94 68.5v130q-34 45 -94 68.5t-130 23.5q-85 0 -142 -42.5t-57 -116.5z M646 1606q20 60 66 92.5t110 32.5q75 0 124 -39.5t49 -118.5q0 -57 -33 -111h-121q44 47 44 104q0 36 -18 53.5t-45 17.5q-56 0 -77 -61z" />
<glyph unicode="&#x1eaa;" horiz-adv-x="1498" d="M-11 0l565 1462h391l563 -1462h-356l-89 247h-626l-92 -247h-356zM391 1665q0 70 61 109t175 39q49 0 88.5 -12t61 -26t49 -25.5t55.5 -11.5q34 0 56.5 17.5t22.5 50.5h146q0 -71 -60 -109.5t-174 -38.5q-50 0 -91 12t-62.5 26t-49 25.5t-54.5 11.5q-34 0 -56 -17.5 t-22 -50.5h-146zM423 1486l202 158h249l207 -158h-171l-161 97l-155 -97h-171zM521 521h456l-228 629z" />
<glyph unicode="&#x1eab;" horiz-adv-x="1189" d="M71 324q0 72 22 130.5t58.5 97t85 65t99 38.5t103.5 12q106 0 194 -34t141 -96v142q0 81 -64 129.5t-169 48.5q-174 0 -309 -125l-105 186q95 83 214.5 125t248.5 42q75 0 140.5 -12t125.5 -41.5t102.5 -74.5t68 -115t25.5 -158v-684h-278v109q-55 -64 -143.5 -100 t-191.5 -36q-52 0 -103.5 13.5t-99.5 42.5t-84.5 69.5t-58.5 99t-22 126.5zM236 1508q0 140 61.5 216.5t175.5 76.5q40 0 73.5 -15t55.5 -36.5t41 -43.5t40.5 -37t44.5 -15q35 0 57 34t22 100h146q0 -141 -60 -217t-174 -76q-41 0 -75 15t-56 37t-41.5 44t-40.5 37.5 t-44 15.5q-35 0 -57 -34.5t-22 -101.5h-147zM265 1146l202 316h250l205 -316h-171l-159 195l-155 -195h-172zM351 318q0 -72 57 -113.5t142 -41.5q70 0 130 23.5t94 68.5v130q-34 45 -94 68.5t-130 23.5q-85 0 -142 -42.5t-57 -116.5z" />
<glyph unicode="&#x1eac;" horiz-adv-x="1498" d="M-11 0l565 1462h391l563 -1462h-356l-89 247h-626l-92 -247h-356zM421 1585l202 315h249l207 -315h-172l-160 194l-155 -194h-171zM521 521h456l-228 629zM602 -280q0 61 43.5 104.5t105.5 43.5q60 0 104 -44t44 -104q0 -62 -44 -105.5t-104 -43.5q-62 0 -105.5 43 t-43.5 106z" />
<glyph unicode="&#x1ead;" horiz-adv-x="1189" d="M71 324q0 72 22 130.5t58.5 97t85 65t99 38.5t103.5 12q106 0 194 -34t141 -96v142q0 81 -64 129.5t-169 48.5q-174 0 -309 -125l-105 186q95 83 214.5 125t248.5 42q75 0 140.5 -12t125.5 -41.5t102.5 -74.5t68 -115t25.5 -158v-684h-278v109q-55 -64 -143.5 -100 t-191.5 -36q-52 0 -103.5 13.5t-99.5 42.5t-84.5 69.5t-58.5 99t-22 126.5zM265 1219l202 315h250l205 -315h-171l-159 194l-155 -194h-172zM351 318q0 -72 57 -113.5t142 -41.5q70 0 130 23.5t94 68.5v130q-34 45 -94 68.5t-130 23.5q-85 0 -142 -42.5t-57 -116.5z M447 -280q0 61 43.5 104.5t105.5 43.5q60 0 103.5 -44t43.5 -104q0 -62 -43.5 -105.5t-103.5 -43.5q-63 0 -106 43t-43 106z" />
<glyph unicode="&#x1eae;" horiz-adv-x="1498" d="M-11 0l565 1462h391l563 -1462h-356l-89 247h-626l-92 -247h-356zM364 1631l123 69q95 -92 262 -92q166 0 261 92l123 -69q-67 -62 -167 -97t-217 -35q-115 0 -216 35t-169 97zM521 521h456l-228 629zM613 1637l294 184h256l-354 -184h-196z" />
<glyph unicode="&#x1eaf;" horiz-adv-x="1189" d="M71 324q0 72 22 130.5t58.5 97t85 65t99 38.5t103.5 12q106 0 194 -34t141 -96v142q0 81 -64 129.5t-169 48.5q-174 0 -309 -125l-105 186q95 83 214.5 125t248.5 42q75 0 140.5 -12t125.5 -41.5t102.5 -74.5t68 -115t25.5 -158v-684h-278v109q-55 -64 -143.5 -100 t-191.5 -36q-52 0 -103.5 13.5t-99.5 42.5t-84.5 69.5t-58.5 99t-22 126.5zM207 1324l121 102q46 -64 113.5 -100t150.5 -36q81 0 147.5 35.5t113.5 100.5l122 -102q-67 -91 -167 -142t-216 -51q-115 0 -216 51t-169 142zM351 318q0 -72 57 -113.5t142 -41.5q70 0 130 23.5 t94 68.5v130q-34 45 -94 68.5t-130 23.5q-85 0 -142 -42.5t-57 -116.5zM460 1389l294 316h256l-355 -316h-195z" />
<glyph unicode="&#x1eb0;" horiz-adv-x="1498" d="M-11 0l565 1462h391l563 -1462h-356l-89 247h-626l-92 -247h-356zM339 1821h255l295 -184h-195zM364 1619l123 71q95 -92 262 -92q166 0 261 92l123 -71q-66 -62 -166.5 -96.5t-217.5 -34.5q-115 0 -216 34.5t-169 96.5zM521 521h456l-228 629z" />
<glyph unicode="&#x1eb1;" horiz-adv-x="1189" d="M71 324q0 72 22 130.5t58.5 97t85 65t99 38.5t103.5 12q106 0 194 -34t141 -96v142q0 81 -64 129.5t-169 48.5q-174 0 -309 -125l-105 186q95 83 214.5 125t248.5 42q75 0 140.5 -12t125.5 -41.5t102.5 -74.5t68 -115t25.5 -158v-684h-278v109q-55 -64 -143.5 -100 t-191.5 -36q-52 0 -103.5 13.5t-99.5 42.5t-84.5 69.5t-58.5 99t-22 126.5zM173 1705h254l296 -316h-194zM207 1328l121 103q46 -65 113.5 -100.5t150.5 -35.5q81 0 147.5 35.5t113.5 100.5l122 -103q-67 -91 -167 -142t-216 -51q-115 0 -216 51.5t-169 141.5zM351 318 q0 -72 57 -113.5t142 -41.5q70 0 130 23.5t94 68.5v130q-34 45 -94 68.5t-130 23.5q-85 0 -142 -42.5t-57 -116.5z" />
<glyph unicode="&#x1eb2;" horiz-adv-x="1498" d="M-11 0l565 1462h391l563 -1462h-356l-89 247h-626l-92 -247h-356zM364 1622l123 70q95 -92 262 -92q166 0 261 92l123 -70q-67 -62 -167 -96.5t-217 -34.5q-115 0 -216 34.5t-169 96.5zM521 521h456l-228 629zM575 1727q20 34 65.5 53t108.5 19q75 0 124 -23t49 -69 q0 -36 -33 -66h-120q44 28 44 61q0 22 -18 32t-46 10q-53 0 -76 -37z" />
<glyph unicode="&#x1eb3;" horiz-adv-x="1189" d="M71 324q0 72 22 130.5t58.5 97t85 65t99 38.5t103.5 12q106 0 194 -34t141 -96v142q0 81 -64 129.5t-169 48.5q-174 0 -309 -125l-105 186q95 83 214.5 125t248.5 42q75 0 140.5 -12t125.5 -41.5t102.5 -74.5t68 -115t25.5 -158v-684h-278v109q-55 -64 -143.5 -100 t-191.5 -36q-52 0 -103.5 13.5t-99.5 42.5t-84.5 69.5t-58.5 99t-22 126.5zM207 1328l121 103q46 -65 113.5 -100.5t150.5 -35.5q81 0 147.5 35.5t113.5 100.5l122 -103q-67 -91 -167 -142t-216 -51q-115 0 -216 51.5t-169 141.5zM351 318q0 -72 57 -113.5t142 -41.5 q70 0 130 23.5t94 68.5v130q-34 45 -94 68.5t-130 23.5q-85 0 -142 -42.5t-57 -116.5zM418 1545q20 60 66.5 92.5t109.5 32.5q75 0 124 -39.5t49 -118.5q0 -57 -33 -111h-121q44 47 44 104q0 36 -18 53.5t-45 17.5q-56 0 -77 -62z" />
<glyph unicode="&#x1eb4;" horiz-adv-x="1498" d="M-11 0l565 1462h391l563 -1462h-356l-89 247h-626l-92 -247h-356zM366 1591l123 57q96 -75 262 -75q162 0 261 75l123 -57q-67 -50 -167.5 -79t-216.5 -29q-114 0 -215 29t-170 79zM391 1665q0 70 61 109t175 39q49 0 88.5 -12t61 -26t49 -25.5t55.5 -11.5 q34 0 56.5 17.5t22.5 50.5h146q0 -71 -60 -109.5t-174 -38.5q-50 0 -91 12t-62.5 26t-49 25.5t-54.5 11.5q-34 0 -56 -17.5t-22 -50.5h-146zM521 521h456l-228 629z" />
<glyph unicode="&#x1eb5;" horiz-adv-x="1189" d="M71 324q0 72 22 130.5t58.5 97t85 65t99 38.5t103.5 12q106 0 194 -34t141 -96v142q0 81 -64 129.5t-169 48.5q-174 0 -309 -125l-105 186q95 83 214.5 125t248.5 42q75 0 140.5 -12t125.5 -41.5t102.5 -74.5t68 -115t25.5 -158v-684h-278v109q-55 -64 -143.5 -100 t-191.5 -36q-52 0 -103.5 13.5t-99.5 42.5t-84.5 69.5t-58.5 99t-22 126.5zM207 1328l121 103q46 -65 113.5 -100.5t150.5 -35.5q81 0 147.5 35.5t113.5 100.5l122 -103q-67 -91 -167 -142t-216 -51q-115 0 -216 51.5t-169 141.5zM230 1457q0 141 61 217.5t176 76.5 q40 0 73 -15.5t55 -37t41.5 -43t41 -36.5t43.5 -15q35 0 57 34t22 100h147q0 -141 -60 -217.5t-174 -76.5q-42 0 -75.5 15.5t-56 37.5t-41.5 44t-40.5 37t-43.5 15q-35 0 -57 -34t-22 -102h-147zM351 318q0 -72 57 -113.5t142 -41.5q70 0 130 23.5t94 68.5v130 q-34 45 -94 68.5t-130 23.5q-85 0 -142 -42.5t-57 -116.5z" />
<glyph unicode="&#x1eb6;" horiz-adv-x="1498" d="M-11 0l565 1462h391l563 -1462h-356l-89 247h-626l-92 -247h-356zM364 1723l123 102q45 -64 112 -99.5t150 -35.5q81 0 148 35t113 100l123 -102q-67 -91 -167.5 -142t-216.5 -51q-115 0 -216 51.5t-169 141.5zM521 521h456l-228 629zM602 -280q0 61 43.5 104.5 t105.5 43.5q60 0 104 -44t44 -104q0 -62 -44 -105.5t-104 -43.5q-62 0 -105.5 43t-43.5 106z" />
<glyph unicode="&#x1eb7;" horiz-adv-x="1189" d="M71 324q0 72 22 130.5t58.5 97t85 65t99 38.5t103.5 12q106 0 194 -34t141 -96v142q0 81 -64 129.5t-169 48.5q-174 0 -309 -125l-105 186q95 83 214.5 125t248.5 42q75 0 140.5 -12t125.5 -41.5t102.5 -74.5t68 -115t25.5 -158v-684h-278v109q-55 -64 -143.5 -100 t-191.5 -36q-52 0 -103.5 13.5t-99.5 42.5t-84.5 69.5t-58.5 99t-22 126.5zM203 1357l123 102q46 -64 113 -99.5t151 -35.5q80 0 147 35t114 100l122 -102q-67 -91 -167 -142.5t-216 -51.5q-115 0 -216.5 51.5t-170.5 142.5zM351 318q0 -72 57 -113.5t142 -41.5 q70 0 130 23.5t94 68.5v130q-34 45 -94 68.5t-130 23.5q-85 0 -142 -42.5t-57 -116.5zM447 -280q0 61 43.5 104.5t105.5 43.5q60 0 103.5 -44t43.5 -104q0 -62 -43.5 -105.5t-103.5 -43.5q-63 0 -106 43t-43 106z" />
<glyph unicode="&#x1eb8;" horiz-adv-x="1276" d="M144 0v1462h1035v-274h-723v-310h707v-273h-707v-331h723v-274h-1035zM515 -280q0 61 43.5 104.5t105.5 43.5q60 0 103.5 -44t43.5 -104q0 -62 -43.5 -105.5t-103.5 -43.5q-62 0 -105.5 43t-43.5 106z" />
<glyph unicode="&#x1eb9;" horiz-adv-x="1211" d="M71 531q0 114 40.5 216t112 176.5t174 118t220.5 43.5q157 0 277.5 -73t186.5 -206t66 -304v-61h-786q13 -106 94 -176t211 -70q70 0 151.5 29t130.5 77l122 -180q-77 -71 -193 -109.5t-242 -38.5q-120 0 -224 40t-179.5 111.5t-118.5 176.5t-43 230zM357 629h521 q-2 32 -11.5 63.5t-29.5 62.5t-49 55t-73 38.5t-97 14.5q-61 0 -111 -21t-80 -56.5t-47 -75t-23 -81.5zM475 -280q0 61 44 104.5t106 43.5q59 0 102.5 -44t43.5 -104q0 -62 -43 -105.5t-103 -43.5q-63 0 -106.5 43t-43.5 106z" />
<glyph unicode="&#x1eba;" horiz-adv-x="1276" d="M144 0v1462h1035v-274h-723v-310h707v-273h-707v-331h723v-274h-1035zM480 1672q20 61 65.5 93t109.5 32q75 0 124 -39.5t49 -118.5q0 -57 -33 -112h-120q44 47 44 106q0 35 -18.5 52t-45.5 17q-55 0 -76 -61z" />
<glyph unicode="&#x1ebb;" horiz-adv-x="1211" d="M71 531q0 114 40.5 216t112 176.5t174 118t220.5 43.5q157 0 277.5 -73t186.5 -206t66 -304v-61h-786q13 -106 94 -176t211 -70q70 0 151.5 29t130.5 77l122 -180q-77 -71 -193 -109.5t-242 -38.5q-120 0 -224 40t-179.5 111.5t-118.5 176.5t-43 230zM357 629h521 q-2 32 -11.5 63.5t-29.5 62.5t-49 55t-73 38.5t-97 14.5q-61 0 -111 -21t-80 -56.5t-47 -75t-23 -81.5zM439 1299q20 60 65.5 92.5t108.5 32.5q75 0 124 -39t49 -118q0 -60 -32 -112h-121q44 46 44 105q0 36 -18 53t-46 17q-55 0 -76 -61z" />
<glyph unicode="&#x1ebc;" horiz-adv-x="1276" d="M144 0v1462h1035v-274h-723v-310h707v-273h-707v-331h723v-274h-1035zM314 1593q0 141 61 217t175 76q40 0 73.5 -15t55.5 -36.5t41 -43t40.5 -36.5t44.5 -15q34 0 56 33.5t22 100.5h147q0 -141 -60.5 -217.5t-174.5 -76.5q-41 0 -75 15.5t-56 37.5t-41 43.5t-40 37 t-44 15.5q-35 0 -57 -34t-22 -102h-146z" />
<glyph unicode="&#x1ebd;" horiz-adv-x="1211" d="M71 531q0 114 40.5 216t112 176.5t174 118t220.5 43.5q157 0 277.5 -73t186.5 -206t66 -304v-61h-786q13 -106 94 -176t211 -70q70 0 151.5 29t130.5 77l122 -180q-77 -71 -193 -109.5t-242 -38.5q-120 0 -224 40t-179.5 111.5t-118.5 176.5t-43 230zM255 1227 q0 141 61 217t175 76q40 0 73.5 -15t55 -36.5t41 -43t40.5 -36.5t44 -15q35 0 57 34t22 100h146q0 -141 -60 -217.5t-174 -76.5q-41 0 -75 15.5t-56 37.5t-41 44t-40 37t-44 15q-35 0 -57 -34t-22 -102h-146zM357 629h521q-2 32 -11.5 63.5t-29.5 62.5t-49 55t-73 38.5 t-97 14.5q-61 0 -111 -21t-80 -56.5t-47 -75t-23 -81.5z" />
<glyph unicode="&#x1ebe;" horiz-adv-x="1276" d="M144 0v1462h1035v-274h-723v-310h707v-273h-707v-331h723v-274h-1035zM345 1495l201 236h249l207 -236h-172l-159 146l-156 -146h-170zM929 1612l294 238h256l-354 -238h-196z" />
<glyph unicode="&#x1ebf;" horiz-adv-x="1211" d="M71 531q0 114 40.5 216t112 176.5t174 118t220.5 43.5q157 0 277.5 -73t186.5 -206t66 -304v-61h-786q13 -106 94 -176t211 -70q70 0 151.5 29t130.5 77l122 -180q-77 -71 -193 -109.5t-242 -38.5q-120 0 -224 40t-179.5 111.5t-118.5 176.5t-43 230zM289 1219l202 315 h249l207 -315h-171l-161 194l-155 -194h-171zM357 629h521q-2 32 -11.5 63.5t-29.5 62.5t-49 55t-73 38.5t-97 14.5q-61 0 -111 -21t-80 -56.5t-47 -75t-23 -81.5zM857 1372l293 315h257l-355 -315h-195z" />
<glyph unicode="&#x1ec0;" horiz-adv-x="1276" d="M-127 1850h254l296 -238h-195zM144 0v1462h1035v-274h-723v-310h707v-273h-707v-331h723v-274h-1035zM347 1495l201 236h249l207 -236h-172l-159 146l-156 -146h-170z" />
<glyph unicode="&#x1ec1;" horiz-adv-x="1211" d="M-182 1687h255l295 -315h-195zM71 531q0 114 40.5 216t112 176.5t174 118t220.5 43.5q157 0 277.5 -73t186.5 -206t66 -304v-61h-786q13 -106 94 -176t211 -70q70 0 151.5 29t130.5 77l122 -180q-77 -71 -193 -109.5t-242 -38.5q-120 0 -224 40t-179.5 111.5 t-118.5 176.5t-43 230zM289 1219l202 315h249l207 -315h-171l-161 194l-155 -194h-171zM357 629h521q-2 32 -11.5 63.5t-29.5 62.5t-49 55t-73 38.5t-97 14.5q-61 0 -111 -21t-80 -56.5t-47 -75t-23 -81.5z" />
<glyph unicode="&#x1ec2;" horiz-adv-x="1276" d="M144 0v1462h1035v-274h-723v-310h707v-273h-707v-331h723v-274h-1035zM345 1495l201 236h249l207 -236h-172l-159 146l-156 -146h-170zM843 1740q20 44 66.5 68t109.5 24q75 0 124 -29t49 -89q0 -42 -33 -83h-120q44 34 44 78q0 26 -18.5 39.5t-45.5 13.5q-56 0 -76 -46z " />
<glyph unicode="&#x1ec3;" horiz-adv-x="1211" d="M71 531q0 114 40.5 216t112 176.5t174 118t220.5 43.5q157 0 277.5 -73t186.5 -206t66 -304v-61h-786q13 -106 94 -176t211 -70q70 0 151.5 29t130.5 77l122 -180q-77 -71 -193 -109.5t-242 -38.5q-120 0 -224 40t-179.5 111.5t-118.5 176.5t-43 230zM289 1219l202 315 h249l207 -315h-171l-161 194l-155 -194h-171zM357 629h521q-2 32 -11.5 63.5t-29.5 62.5t-49 55t-73 38.5t-97 14.5q-61 0 -111 -21t-80 -56.5t-47 -75t-23 -81.5zM671 1606q20 60 66 92.5t109 32.5q75 0 124 -39.5t49 -118.5q0 -58 -32 -111h-121q44 47 44 104 q0 36 -18 53.5t-46 17.5q-56 0 -77 -61z" />
<glyph unicode="&#x1ec4;" horiz-adv-x="1276" d="M144 0v1462h1035v-274h-723v-310h707v-273h-707v-331h723v-274h-1035zM309 1665q0 70 61.5 109t175.5 39q48 0 88 -12t62 -26t49.5 -25.5t54.5 -11.5q35 0 56.5 17.5t21.5 50.5h147q0 -71 -60 -109.5t-174 -38.5q-51 0 -91 12t-61.5 26t-49 25.5t-54.5 11.5 q-35 0 -57 -17.5t-22 -50.5h-147zM345 1486l201 158h249l207 -158h-172l-159 97l-156 -97h-170z" />
<glyph unicode="&#x1ec5;" horiz-adv-x="1211" d="M71 531q0 114 40.5 216t112 176.5t174 118t220.5 43.5q157 0 277.5 -73t186.5 -206t66 -304v-61h-786q13 -106 94 -176t211 -70q70 0 151.5 29t130.5 77l122 -180q-77 -71 -193 -109.5t-242 -38.5q-120 0 -224 40t-179.5 111.5t-118.5 176.5t-43 230zM261 1508 q0 140 61 216.5t176 76.5q40 0 73 -15t55 -36.5t41 -43.5t40 -37t44 -15q35 0 57 34t22 100h147q0 -141 -60 -217t-174 -76q-42 0 -75.5 15t-55.5 37t-41 44t-40.5 37.5t-43.5 15.5q-35 0 -57 -34.5t-22 -101.5h-147zM289 1146l202 316h249l207 -316h-171l-161 195 l-155 -195h-171zM357 629h521q-2 32 -11.5 63.5t-29.5 62.5t-49 55t-73 38.5t-97 14.5q-61 0 -111 -21t-80 -56.5t-47 -75t-23 -81.5z" />
<glyph unicode="&#x1ec6;" horiz-adv-x="1276" d="M144 0v1462h1035v-274h-723v-310h707v-273h-707v-331h723v-274h-1035zM333 1585l202 315h249l207 -315h-171l-161 194l-155 -194h-171zM515 -280q0 61 43.5 104.5t105.5 43.5q60 0 103.5 -44t43.5 -104q0 -62 -43.5 -105.5t-103.5 -43.5q-62 0 -105.5 43t-43.5 106z" />
<glyph unicode="&#x1ec7;" horiz-adv-x="1211" d="M71 531q0 114 40.5 216t112 176.5t174 118t220.5 43.5q157 0 277.5 -73t186.5 -206t66 -304v-61h-786q13 -106 94 -176t211 -70q70 0 151.5 29t130.5 77l122 -180q-77 -71 -193 -109.5t-242 -38.5q-120 0 -224 40t-179.5 111.5t-118.5 176.5t-43 230zM293 1219l202 315 h250l206 -315h-171l-159 194l-157 -194h-171zM357 629h521q-2 32 -11.5 63.5t-29.5 62.5t-49 55t-73 38.5t-97 14.5q-61 0 -111 -21t-80 -56.5t-47 -75t-23 -81.5zM475 -280q0 61 44 104.5t106 43.5q59 0 102.5 -44t43.5 -104q0 -62 -43 -105.5t-103 -43.5q-63 0 -106.5 43 t-43.5 106z" />
<glyph unicode="&#x1ec8;" horiz-adv-x="600" d="M127 1672q20 61 66 93t110 32q75 0 123.5 -39.5t48.5 -118.5q0 -59 -32 -112h-121q44 47 44 106q0 35 -18 52t-45 17q-56 0 -77 -61zM144 0v1462h312v-1462h-312z" />
<glyph unicode="&#x1ec9;" horiz-adv-x="554" d="M103 1299q20 60 66 92.5t109 32.5q75 0 124.5 -39t49.5 -118q0 -58 -34 -112h-119q42 45 42 105q0 36 -17.5 53t-45.5 17q-56 0 -77 -61zM138 0v1058h278v-1058h-278z" />
<glyph unicode="&#x1eca;" horiz-adv-x="600" d="M144 0v1462h312v-1462h-312zM157 -280q0 61 44 104.5t106 43.5q60 0 103.5 -44t43.5 -104q0 -62 -43.5 -105.5t-103.5 -43.5q-63 0 -106.5 43t-43.5 106z" />
<glyph unicode="&#x1ecb;" horiz-adv-x="554" d="M109 1338.5q0 68.5 49.5 116.5t117.5 48q69 0 118 -48t49 -116.5t-49 -117t-118 -48.5q-68 0 -117.5 48.5t-49.5 117zM132 -280q0 61 43 104.5t105 43.5q60 0 103.5 -44t43.5 -104q0 -62 -43.5 -105.5t-103.5 -43.5q-62 0 -105 43t-43 106zM138 0v1058h278v-1058h-278z " />
<glyph unicode="&#x1ecc;" horiz-adv-x="1675" d="M75 730q0 163 57.5 303.5t158 240t242 156t304.5 56.5q164 0 306 -56.5t243 -156t158.5 -240t57.5 -303.5t-57.5 -304t-158.5 -240.5t-243 -156t-306 -56.5q-163 0 -304.5 56.5t-242 156t-158 240.5t-57.5 304zM395 730q0 -136 53.5 -245t155 -172.5t233.5 -63.5 t234 63.5t156.5 172.5t54.5 245t-54.5 245t-156.5 171.5t-234 62.5t-233.5 -62.5t-155 -171.5t-53.5 -245zM697 -280q0 61 43.5 104.5t105.5 43.5q60 0 103.5 -44t43.5 -104q0 -62 -43.5 -105.5t-103.5 -43.5q-62 0 -105.5 43t-43.5 106z" />
<glyph unicode="&#x1ecd;" horiz-adv-x="1257" d="M71 531q0 113 38.5 213.5t109 176t177 120t233.5 44.5q128 0 235 -44.5t177.5 -120t109.5 -176t39 -213.5q0 -114 -39 -215t-109.5 -177.5t-177.5 -121t-235 -44.5q-127 0 -233.5 44.5t-177 121t-109 177.5t-38.5 215zM360 531q0 -85 30.5 -154.5t92.5 -112.5t146 -43 t147 43t94 112.5t31 154.5q0 83 -31 152t-94 111.5t-147 42.5t-146 -42.5t-92.5 -111t-30.5 -152.5zM483 -280q0 61 43 104.5t105 43.5q60 0 103.5 -44t43.5 -104q0 -62 -43.5 -105.5t-103.5 -43.5q-62 0 -105 43t-43 106z" />
<glyph unicode="&#x1ece;" horiz-adv-x="1675" d="M75 730q0 163 57.5 303.5t158 240t242 156t304.5 56.5q164 0 306 -56.5t243 -156t158.5 -240t57.5 -303.5t-57.5 -304t-158.5 -240.5t-243 -156t-306 -56.5q-163 0 -304.5 56.5t-242 156t-158 240.5t-57.5 304zM395 730q0 -136 53.5 -245t155 -172.5t233.5 -63.5 t234 63.5t156.5 172.5t54.5 245t-54.5 245t-156.5 171.5t-234 62.5t-233.5 -62.5t-155 -171.5t-53.5 -245zM659 1672q20 61 66 93t110 32q75 0 124 -39.5t49 -118.5q0 -57 -33 -112h-120q44 47 44 106q0 35 -18.5 52t-45.5 17q-55 0 -76 -61z" />
<glyph unicode="&#x1ecf;" horiz-adv-x="1257" d="M71 531q0 113 38.5 213.5t109 176t177 120t233.5 44.5q128 0 235 -44.5t177.5 -120t109.5 -176t39 -213.5q0 -114 -39 -215t-109.5 -177.5t-177.5 -121t-235 -44.5q-127 0 -233.5 44.5t-177 121t-109 177.5t-38.5 215zM360 531q0 -85 30.5 -154.5t92.5 -112.5t146 -43 t147 43t94 112.5t31 154.5q0 83 -31 152t-94 111.5t-147 42.5t-146 -42.5t-92.5 -111t-30.5 -152.5zM456 1299q20 60 66 92.5t109 32.5q75 0 124.5 -39t49.5 -118q0 -58 -34 -112h-120q43 46 43 105q0 36 -17.5 53t-45.5 17q-56 0 -77 -61z" />
<glyph unicode="&#x1ed0;" horiz-adv-x="1675" d="M75 730q0 163 57.5 303.5t158 240t242 156t304.5 56.5q164 0 306 -56.5t243 -156t158.5 -240t57.5 -303.5t-57.5 -304t-158.5 -240.5t-243 -156t-306 -56.5q-163 0 -304.5 56.5t-242 156t-158 240.5t-57.5 304zM395 730q0 -136 53.5 -245t155 -172.5t233.5 -63.5 t234 63.5t156.5 172.5t54.5 245t-54.5 245t-156.5 171.5t-234 62.5t-233.5 -62.5t-155 -171.5t-53.5 -245zM502 1495l201 236h250l206 -236h-170l-161 146l-155 -146h-171zM1085 1612l293 238h257l-355 -238h-195z" />
<glyph unicode="&#x1ed1;" horiz-adv-x="1257" d="M71 531q0 113 38.5 213.5t109 176t177 120t233.5 44.5q128 0 235 -44.5t177.5 -120t109.5 -176t39 -213.5q0 -114 -39 -215t-109.5 -177.5t-177.5 -121t-235 -44.5q-127 0 -233.5 44.5t-177 121t-109 177.5t-38.5 215zM301 1219l201 315h249l207 -315h-172l-159 194 l-156 -194h-170zM360 531q0 -85 30.5 -154.5t92.5 -112.5t146 -43t147 43t94 112.5t31 154.5q0 83 -31 152t-94 111.5t-147 42.5t-146 -42.5t-92.5 -111t-30.5 -152.5zM870 1372l293 315h257l-355 -315h-195z" />
<glyph unicode="&#x1ed2;" horiz-adv-x="1675" d="M25 1850h253l297 -238h-196zM75 730q0 163 57.5 303.5t158 240t242 156t304.5 56.5q164 0 306 -56.5t243 -156t158.5 -240t57.5 -303.5t-57.5 -304t-158.5 -240.5t-243 -156t-306 -56.5q-163 0 -304.5 56.5t-242 156t-158 240.5t-57.5 304zM395 730q0 -136 53.5 -245 t155 -172.5t233.5 -63.5t234 63.5t156.5 172.5t54.5 245t-54.5 245t-156.5 171.5t-234 62.5t-233.5 -62.5t-155 -171.5t-53.5 -245zM500 1495l201 236h250l206 -236h-170l-161 146l-155 -146h-171z" />
<glyph unicode="&#x1ed3;" horiz-adv-x="1257" d="M-169 1687h255l295 -315h-195zM71 531q0 113 38.5 213.5t109 176t177 120t233.5 44.5q128 0 235 -44.5t177.5 -120t109.5 -176t39 -213.5q0 -114 -39 -215t-109.5 -177.5t-177.5 -121t-235 -44.5q-127 0 -233.5 44.5t-177 121t-109 177.5t-38.5 215zM301 1219l201 315 h249l207 -315h-172l-159 194l-156 -194h-170zM360 531q0 -85 30.5 -154.5t92.5 -112.5t146 -43t147 43t94 112.5t31 154.5q0 83 -31 152t-94 111.5t-147 42.5t-146 -42.5t-92.5 -111t-30.5 -152.5z" />
<glyph unicode="&#x1ed4;" horiz-adv-x="1675" d="M75 730q0 163 57.5 303.5t158 240t242 156t304.5 56.5q164 0 306 -56.5t243 -156t158.5 -240t57.5 -303.5t-57.5 -304t-158.5 -240.5t-243 -156t-306 -56.5q-163 0 -304.5 56.5t-242 156t-158 240.5t-57.5 304zM395 730q0 -136 53.5 -245t155 -172.5t233.5 -63.5 t234 63.5t156.5 172.5t54.5 245t-54.5 245t-156.5 171.5t-234 62.5t-233.5 -62.5t-155 -171.5t-53.5 -245zM500 1495l201 236h250l206 -236h-170l-161 146l-155 -146h-171zM1002 1740q19 44 65.5 68t109.5 24q76 0 124.5 -29t48.5 -89q0 -42 -33 -83h-121q44 34 44 78 q0 26 -18 39.5t-45 13.5q-57 0 -77 -46z" />
<glyph unicode="&#x1ed5;" horiz-adv-x="1257" d="M71 531q0 113 38.5 213.5t109 176t177 120t233.5 44.5q128 0 235 -44.5t177.5 -120t109.5 -176t39 -213.5q0 -114 -39 -215t-109.5 -177.5t-177.5 -121t-235 -44.5q-127 0 -233.5 44.5t-177 121t-109 177.5t-38.5 215zM301 1219l201 315h249l207 -315h-172l-159 194 l-156 -194h-170zM360 531q0 -85 30.5 -154.5t92.5 -112.5t146 -43t147 43t94 112.5t31 154.5q0 83 -31 152t-94 111.5t-147 42.5t-146 -42.5t-92.5 -111t-30.5 -152.5zM682 1606q19 60 65.5 92.5t109.5 32.5q75 0 124 -39.5t49 -118.5q0 -57 -33 -111h-121q44 47 44 104 q0 36 -18 53.5t-45 17.5q-56 0 -77 -61z" />
<glyph unicode="&#x1ed6;" horiz-adv-x="1675" d="M75 730q0 163 57.5 303.5t158 240t242 156t304.5 56.5q164 0 306 -56.5t243 -156t158.5 -240t57.5 -303.5t-57.5 -304t-158.5 -240.5t-243 -156t-306 -56.5q-163 0 -304.5 56.5t-242 156t-158 240.5t-57.5 304zM395 730q0 -136 53.5 -245t155 -172.5t233.5 -63.5 t234 63.5t156.5 172.5t54.5 245t-54.5 245t-156.5 171.5t-234 62.5t-233.5 -62.5t-155 -171.5t-53.5 -245zM473 1665q0 70 62 109t175 39q49 0 89 -12t61.5 -26t49 -25.5t54.5 -11.5q35 0 57 17.5t22 50.5h147q0 -71 -60 -109.5t-174 -38.5q-51 0 -91.5 12t-62 26t-49 25.5 t-54.5 11.5q-35 0 -56.5 -17.5t-21.5 -50.5h-148zM506 1486l202 158h250l205 -158h-170l-161 97l-155 -97h-171z" />
<glyph unicode="&#x1ed7;" horiz-adv-x="1257" d="M71 531q0 113 38.5 213.5t109 176t177 120t233.5 44.5q128 0 235 -44.5t177.5 -120t109.5 -176t39 -213.5q0 -114 -39 -215t-109.5 -177.5t-177.5 -121t-235 -44.5q-127 0 -233.5 44.5t-177 121t-109 177.5t-38.5 215zM272 1508q0 140 61 216.5t175 76.5q40 0 73.5 -15 t55.5 -36.5t41 -43.5t40.5 -37t44.5 -15q35 0 56.5 34t21.5 100h148q0 -141 -60.5 -217t-174.5 -76q-41 0 -75 15t-56 37t-41 44t-40.5 37.5t-43.5 15.5q-35 0 -57.5 -34.5t-22.5 -101.5h-146zM301 1146l201 316h249l207 -316h-172l-159 195l-156 -195h-170zM360 531 q0 -85 30.5 -154.5t92.5 -112.5t146 -43t147 43t94 112.5t31 154.5q0 83 -31 152t-94 111.5t-147 42.5t-146 -42.5t-92.5 -111t-30.5 -152.5z" />
<glyph unicode="&#x1ed8;" horiz-adv-x="1675" d="M75 730q0 163 57.5 303.5t158 240t242 156t304.5 56.5q164 0 306 -56.5t243 -156t158.5 -240t57.5 -303.5t-57.5 -304t-158.5 -240.5t-243 -156t-306 -56.5q-163 0 -304.5 56.5t-242 156t-158 240.5t-57.5 304zM395 730q0 -136 53.5 -245t155 -172.5t233.5 -63.5 t234 63.5t156.5 172.5t54.5 245t-54.5 245t-156.5 171.5t-234 62.5t-233.5 -62.5t-155 -171.5t-53.5 -245zM515 1585l202 315h249l207 -315h-171l-161 194l-155 -194h-171zM697 -280q0 61 43.5 104.5t105.5 43.5q60 0 103.5 -44t43.5 -104q0 -62 -43.5 -105.5t-103.5 -43.5 q-62 0 -105.5 43t-43.5 106z" />
<glyph unicode="&#x1ed9;" horiz-adv-x="1257" d="M71 531q0 113 38.5 213.5t109 176t177 120t233.5 44.5q128 0 235 -44.5t177.5 -120t109.5 -176t39 -213.5q0 -114 -39 -215t-109.5 -177.5t-177.5 -121t-235 -44.5q-127 0 -233.5 44.5t-177 121t-109 177.5t-38.5 215zM301 1219l201 315h249l207 -315h-172l-159 194 l-156 -194h-170zM360 531q0 -85 30.5 -154.5t92.5 -112.5t146 -43t147 43t94 112.5t31 154.5q0 83 -31 152t-94 111.5t-147 42.5t-146 -42.5t-92.5 -111t-30.5 -152.5zM483 -280q0 61 43 104.5t105 43.5q60 0 103.5 -44t43.5 -104q0 -62 -43.5 -105.5t-103.5 -43.5 q-62 0 -105 43t-43 106z" />
<glyph unicode="&#x1eda;" horiz-adv-x="1675" d="M75 730q0 163 57.5 303.5t158 240t242 156t304.5 56.5q171 0 318 -62t252 -175q34 29 61.5 67.5t34.5 72.5q-8 -4 -31 -4q-44 0 -74.5 31.5t-30.5 80.5q0 50 36 86t85 36q58 0 98 -43t40 -117q0 -85 -41 -160.5t-113 -130.5q130 -187 130 -438q0 -163 -57.5 -304 t-158.5 -240.5t-243 -156t-306 -56.5q-163 0 -304.5 56.5t-242 156t-158 240.5t-57.5 304zM395 730q0 -136 53.5 -245t155 -172.5t233.5 -63.5t234 63.5t156.5 172.5t54.5 245t-54.5 245t-156.5 171.5t-234 62.5t-233.5 -62.5t-155 -171.5t-53.5 -245zM699 1585l294 315h256 l-354 -315h-196z" />
<glyph unicode="&#x1edb;" horiz-adv-x="1257" d="M71 531q0 113 38.5 213.5t109 176t177 120t233.5 44.5q216 0 366 -123q33 28 58.5 64.5t33.5 71.5q-8 -4 -31 -4q-45 0 -75 30.5t-30 80t35 86.5t85 37q57 0 97.5 -44t40.5 -118q0 -80 -37.5 -153.5t-102.5 -127.5q121 -147 121 -354q0 -114 -39 -215t-109.5 -177.5 t-177.5 -121t-235 -44.5q-127 0 -233.5 44.5t-177 121t-109 177.5t-38.5 215zM360 531q0 -85 30.5 -154.5t92.5 -112.5t146 -43t147 43t94 112.5t31 154.5q0 83 -31 152t-94 111.5t-147 42.5t-146 -42.5t-92.5 -111t-30.5 -152.5zM491 1219l293 315h257l-355 -315h-195z" />
<glyph unicode="&#x1edc;" horiz-adv-x="1675" d="M75 730q0 163 57.5 303.5t158 240t242 156t304.5 56.5q171 0 318 -62t252 -175q34 29 61.5 67.5t34.5 72.5q-8 -4 -31 -4q-44 0 -74.5 31.5t-30.5 80.5q0 50 36 86t85 36q58 0 98 -43t40 -117q0 -85 -41 -160.5t-113 -130.5q130 -187 130 -438q0 -163 -57.5 -304 t-158.5 -240.5t-243 -156t-306 -56.5q-163 0 -304.5 56.5t-242 156t-158 240.5t-57.5 304zM395 730q0 -136 53.5 -245t155 -172.5t233.5 -63.5t234 63.5t156.5 172.5t54.5 245t-54.5 245t-156.5 171.5t-234 62.5t-233.5 -62.5t-155 -171.5t-53.5 -245zM429 1900h255 l295 -315h-195z" />
<glyph unicode="&#x1edd;" horiz-adv-x="1257" d="M71 531q0 113 38.5 213.5t109 176t177 120t233.5 44.5q216 0 366 -123q33 28 58.5 64.5t33.5 71.5q-8 -4 -31 -4q-45 0 -75 30.5t-30 80t35 86.5t85 37q57 0 97.5 -44t40.5 -118q0 -80 -37.5 -153.5t-102.5 -127.5q121 -147 121 -354q0 -114 -39 -215t-109.5 -177.5 t-177.5 -121t-235 -44.5q-127 0 -233.5 44.5t-177 121t-109 177.5t-38.5 215zM219 1534h254l296 -315h-194zM360 531q0 -85 30.5 -154.5t92.5 -112.5t146 -43t147 43t94 112.5t31 154.5q0 83 -31 152t-94 111.5t-147 42.5t-146 -42.5t-92.5 -111t-30.5 -152.5z" />
<glyph unicode="&#x1ede;" horiz-adv-x="1675" d="M75 730q0 163 57.5 303.5t158 240t242 156t304.5 56.5q171 0 318 -62t252 -175q34 29 61.5 67.5t34.5 72.5q-8 -4 -31 -4q-44 0 -74.5 31.5t-30.5 80.5q0 50 36 86t85 36q58 0 98 -43t40 -117q0 -85 -41 -160.5t-113 -130.5q130 -187 130 -438q0 -163 -57.5 -304 t-158.5 -240.5t-243 -156t-306 -56.5q-163 0 -304.5 56.5t-242 156t-158 240.5t-57.5 304zM395 730q0 -136 53.5 -245t155 -172.5t233.5 -63.5t234 63.5t156.5 172.5t54.5 245t-54.5 245t-156.5 171.5t-234 62.5t-233.5 -62.5t-155 -171.5t-53.5 -245zM661 1672q20 61 66 93 t110 32q75 0 124 -39.5t49 -118.5q0 -57 -33 -112h-120q44 47 44 106q0 35 -18.5 52t-45.5 17q-55 0 -76 -61z" />
<glyph unicode="&#x1edf;" horiz-adv-x="1257" d="M71 531q0 113 38.5 213.5t109 176t177 120t233.5 44.5q216 0 366 -123q33 28 58.5 64.5t33.5 71.5q-8 -4 -31 -4q-45 0 -75 30.5t-30 80t35 86.5t85 37q57 0 97.5 -44t40.5 -118q0 -80 -37.5 -153.5t-102.5 -127.5q121 -147 121 -354q0 -114 -39 -215t-109.5 -177.5 t-177.5 -121t-235 -44.5q-127 0 -233.5 44.5t-177 121t-109 177.5t-38.5 215zM360 531q0 -85 30.5 -154.5t92.5 -112.5t146 -43t147 43t94 112.5t31 154.5q0 83 -31 152t-94 111.5t-147 42.5t-146 -42.5t-92.5 -111t-30.5 -152.5zM454 1299q20 60 66 92.5t109 32.5 q75 0 124 -39t49 -118q0 -58 -33 -112h-121q44 46 44 105q0 36 -18 53t-45 17q-56 0 -77 -61z" />
<glyph unicode="&#x1ee0;" horiz-adv-x="1675" d="M75 730q0 163 57.5 303.5t158 240t242 156t304.5 56.5q171 0 318 -62t252 -175q34 29 61.5 67.5t34.5 72.5q-8 -4 -31 -4q-44 0 -74.5 31.5t-30.5 80.5q0 50 36 86t85 36q58 0 98 -43t40 -117q0 -85 -41 -160.5t-113 -130.5q130 -187 130 -438q0 -163 -57.5 -304 t-158.5 -240.5t-243 -156t-306 -56.5q-163 0 -304.5 56.5t-242 156t-158 240.5t-57.5 304zM395 730q0 -136 53.5 -245t155 -172.5t233.5 -63.5t234 63.5t156.5 172.5t54.5 245t-54.5 245t-156.5 171.5t-234 62.5t-233.5 -62.5t-155 -171.5t-53.5 -245zM480 1593 q0 141 61.5 217t175.5 76q40 0 73 -15t55 -36.5t41 -43t40.5 -36.5t43.5 -15q35 0 57.5 34t22.5 100h146q0 -141 -60 -217.5t-174 -76.5q-41 0 -75 15.5t-56 37.5t-41.5 43.5t-40.5 37t-44 15.5q-35 0 -56.5 -34t-21.5 -102h-147z" />
<glyph unicode="&#x1ee1;" horiz-adv-x="1257" d="M71 531q0 113 38.5 213.5t109 176t177 120t233.5 44.5q216 0 366 -123q33 28 58.5 64.5t33.5 71.5q-8 -4 -31 -4q-45 0 -75 30.5t-30 80t35 86.5t85 37q57 0 97.5 -44t40.5 -118q0 -80 -37.5 -153.5t-102.5 -127.5q121 -147 121 -354q0 -114 -39 -215t-109.5 -177.5 t-177.5 -121t-235 -44.5q-127 0 -233.5 44.5t-177 121t-109 177.5t-38.5 215zM259 1227q0 141 61 217t175 76q40 0 73.5 -15t55.5 -36.5t41 -43t40 -36.5t44 -15q35 0 57 34t22 100h147q0 -141 -60.5 -217.5t-174.5 -76.5q-41 0 -74.5 15.5t-55.5 37.5t-41 44t-40.5 37 t-43.5 15q-35 0 -57 -34t-22 -102h-147zM360 531q0 -85 30.5 -154.5t92.5 -112.5t146 -43t147 43t94 112.5t31 154.5q0 83 -31 152t-94 111.5t-147 42.5t-146 -42.5t-92.5 -111t-30.5 -152.5z" />
<glyph unicode="&#x1ee2;" horiz-adv-x="1675" d="M75 730q0 163 57.5 303.5t158 240t242 156t304.5 56.5q171 0 318 -62t252 -175q34 29 61.5 67.5t34.5 72.5q-8 -4 -31 -4q-44 0 -74.5 31.5t-30.5 80.5q0 50 36 86t85 36q58 0 98 -43t40 -117q0 -85 -41 -160.5t-113 -130.5q130 -187 130 -438q0 -163 -57.5 -304 t-158.5 -240.5t-243 -156t-306 -56.5q-163 0 -304.5 56.5t-242 156t-158 240.5t-57.5 304zM395 730q0 -136 53.5 -245t155 -172.5t233.5 -63.5t234 63.5t156.5 172.5t54.5 245t-54.5 245t-156.5 171.5t-234 62.5t-233.5 -62.5t-155 -171.5t-53.5 -245zM697 -280 q0 61 43.5 104.5t105.5 43.5q60 0 103.5 -44t43.5 -104q0 -62 -43.5 -105.5t-103.5 -43.5q-62 0 -105.5 43t-43.5 106z" />
<glyph unicode="&#x1ee3;" horiz-adv-x="1257" d="M71 531q0 113 38.5 213.5t109 176t177 120t233.5 44.5q216 0 366 -123q33 28 58.5 64.5t33.5 71.5q-8 -4 -31 -4q-45 0 -75 30.5t-30 80t35 86.5t85 37q57 0 97.5 -44t40.5 -118q0 -80 -37.5 -153.5t-102.5 -127.5q121 -147 121 -354q0 -114 -39 -215t-109.5 -177.5 t-177.5 -121t-235 -44.5q-127 0 -233.5 44.5t-177 121t-109 177.5t-38.5 215zM360 531q0 -85 30.5 -154.5t92.5 -112.5t146 -43t147 43t94 112.5t31 154.5q0 83 -31 152t-94 111.5t-147 42.5t-146 -42.5t-92.5 -111t-30.5 -152.5zM483 -280q0 61 43 104.5t105 43.5 q60 0 103.5 -44t43.5 -104q0 -62 -43.5 -105.5t-103.5 -43.5q-62 0 -105 43t-43 106z" />
<glyph unicode="&#x1ee4;" horiz-adv-x="1606" d="M144 583v879h316v-868q0 -157 89.5 -251t255.5 -94q165 0 253 94t88 251v868h318v-877q0 -138 -41 -249.5t-121.5 -192.5t-207 -125.5t-290 -44.5t-290 44.5t-207 126t-122 192.5t-41.5 247zM661 -280q0 61 44 104.5t106 43.5q60 0 103.5 -44t43.5 -104 q0 -62 -43.5 -105.5t-103.5 -43.5q-63 0 -106.5 43t-43.5 106z" />
<glyph unicode="&#x1ee5;" d="M138 307v751h278v-642q0 -105 50 -150t145 -45q75 0 138.5 34.5t103.5 85.5v717h278v-1058h-278v134q-62 -69 -157 -115t-216 -46q-170 0 -256 87.5t-86 246.5zM491 -280q0 61 43.5 104.5t105.5 43.5q59 0 102.5 -44t43.5 -104q0 -62 -43 -105.5t-103 -43.5 q-63 0 -106 43t-43 106z" />
<glyph unicode="&#x1ee6;" horiz-adv-x="1606" d="M144 583v879h316v-868q0 -157 89.5 -251t255.5 -94q165 0 253 94t88 251v868h318v-877q0 -138 -41 -249.5t-121.5 -192.5t-207 -125.5t-290 -44.5t-290 44.5t-207 126t-122 192.5t-41.5 247zM631 1672q20 61 66 93t110 32q75 0 123.5 -39.5t48.5 -118.5q0 -59 -32 -112 h-121q44 47 44 106q0 35 -18 52t-45 17q-56 0 -77 -61z" />
<glyph unicode="&#x1ee7;" d="M138 307v751h278v-642q0 -105 50 -150t145 -45q75 0 138.5 34.5t103.5 85.5v717h278v-1058h-278v134q-62 -69 -157 -115t-216 -46q-170 0 -256 87.5t-86 246.5zM460 1299q20 60 66 92.5t110 32.5q75 0 124 -39t49 -118q0 -58 -33 -112h-121q44 46 44 105q0 36 -18 53 t-45 17q-57 0 -77 -61z" />
<glyph unicode="&#x1ee8;" horiz-adv-x="1606" d="M144 583v879h316v-868q0 -157 89.5 -251t255.5 -94q165 0 253 94t88 251v868h318v-95q43 30 76 72.5t40 85.5q-6 -7 -31 -7q-44 0 -74.5 32.5t-30.5 82.5q0 49 35.5 84.5t84.5 35.5q58 0 98 -44t40 -118q0 -101 -62 -194t-176 -146v-666q0 -138 -41 -249.5t-121.5 -192.5 t-207 -125.5t-290 -44.5t-290 44.5t-207 126t-122 192.5t-41.5 247zM667 1585l293 315h257l-356 -315h-194z" />
<glyph unicode="&#x1ee9;" d="M138 307v751h278v-642q0 -105 50 -150t145 -45q75 0 138.5 34.5t103.5 85.5v717h278v-37q47 54 57 106q-9 -5 -31 -5q-47 0 -76 31t-29 81q0 49 35.5 86t85.5 37q58 0 98 -44t40 -119q0 -86 -46.5 -168.5t-133.5 -140.5v-885h-278v134q-62 -69 -157 -115t-216 -46 q-170 0 -256 87.5t-86 246.5zM493 1219l293 315h257l-355 -315h-195z" />
<glyph unicode="&#x1eea;" horiz-adv-x="1606" d="M144 583v879h316v-868q0 -157 89.5 -251t255.5 -94q165 0 253 94t88 251v868h318v-95q43 30 76 72.5t40 85.5q-6 -7 -31 -7q-44 0 -74.5 32.5t-30.5 82.5q0 49 35.5 84.5t84.5 35.5q58 0 98 -44t40 -118q0 -101 -62 -194t-176 -146v-666q0 -138 -41 -249.5t-121.5 -192.5 t-207 -125.5t-290 -44.5t-290 44.5t-207 126t-122 192.5t-41.5 247zM395 1900h253l297 -315h-196z" />
<glyph unicode="&#x1eeb;" d="M138 307v751h278v-642q0 -105 50 -150t145 -45q75 0 138.5 34.5t103.5 85.5v717h278v-37q47 54 57 106q-9 -5 -31 -5q-47 0 -76 31t-29 81q0 49 35.5 86t85.5 37q58 0 98 -44t40 -119q0 -86 -46.5 -168.5t-133.5 -140.5v-885h-278v134q-62 -69 -157 -115t-216 -46 q-170 0 -256 87.5t-86 246.5zM224 1534h253l297 -315h-195z" />
<glyph unicode="&#x1eec;" horiz-adv-x="1606" d="M144 583v879h316v-868q0 -157 89.5 -251t255.5 -94q165 0 253 94t88 251v868h318v-95q43 30 76 72.5t40 85.5q-6 -7 -31 -7q-44 0 -74.5 32.5t-30.5 82.5q0 49 35.5 84.5t84.5 35.5q58 0 98 -44t40 -118q0 -101 -62 -194t-176 -146v-666q0 -138 -41 -249.5t-121.5 -192.5 t-207 -125.5t-290 -44.5t-290 44.5t-207 126t-122 192.5t-41.5 247zM631 1672q20 61 66 93t110 32q75 0 123.5 -39.5t48.5 -118.5q0 -59 -32 -112h-121q44 47 44 106q0 35 -18 52t-45 17q-56 0 -77 -61z" />
<glyph unicode="&#x1eed;" d="M138 307v751h278v-642q0 -105 50 -150t145 -45q75 0 138.5 34.5t103.5 85.5v717h278v-37q47 54 57 106q-9 -5 -31 -5q-47 0 -76 31t-29 81q0 49 35.5 86t85.5 37q58 0 98 -44t40 -119q0 -86 -46.5 -168.5t-133.5 -140.5v-885h-278v134q-62 -69 -157 -115t-216 -46 q-170 0 -256 87.5t-86 246.5zM460 1299q20 60 66 92.5t110 32.5q75 0 124 -39t49 -118q0 -58 -33 -112h-121q44 46 44 105q0 36 -18 53t-45 17q-57 0 -77 -61z" />
<glyph unicode="&#x1eee;" horiz-adv-x="1606" d="M144 583v879h316v-868q0 -157 89.5 -251t255.5 -94q165 0 253 94t88 251v868h318v-95q43 30 76 72.5t40 85.5q-6 -7 -31 -7q-44 0 -74.5 32.5t-30.5 82.5q0 49 35.5 84.5t84.5 35.5q58 0 98 -44t40 -118q0 -101 -62 -194t-176 -146v-666q0 -138 -41 -249.5t-121.5 -192.5 t-207 -125.5t-290 -44.5t-290 44.5t-207 126t-122 192.5t-41.5 247zM447 1593q0 141 61 217t176 76q40 0 73 -15t55 -36.5t41.5 -43t41 -36.5t43.5 -15q35 0 56.5 33.5t21.5 100.5h147q0 -141 -60 -217.5t-174 -76.5q-41 0 -75 15.5t-56 37.5t-41 43.5t-40 37t-44 15.5 q-35 0 -57 -34t-22 -102h-147z" />
</font>
</defs>
</svg>
