<?xml version="1.0" encoding="utf-8"?>
<!-- Generator: Adobe Illustrator 19.0.1, SVG Export Plug-In . SVG Version: 6.00 Build 0)  -->
<svg version="1.1" id="Capa_1" xmlns="http://www.w3.org/2000/svg" xmlns:xlink="http://www.w3.org/1999/xlink" x="0px" y="0px"
	 viewBox="-234 343.5 91.8 107.2" style="enable-background:new -234 343.5 91.8 107.2;" xml:space="preserve">
<g>
	<g>
		<path d="M-142.2,445.8v-87.7c0-2.7-2.2-4.9-4.9-4.9h-14.4c-2.7,0-4.9,2.2-4.9,4.9v87.7c0,2.7,2.2,4.9,4.9,4.9h14.4
			C-144.4,450.7-142.2,448.5-142.2,445.8z"/>
		<path d="M-197.7,450.7h16.8c2.7,0,4.9-2.2,4.9-4.9v-97.4c0-2.7,7.8-4.9,5.1-4.9h-16.8c-2.7,0-14.9,2.2-14.9,4.9v97.4
			C-202.6,448.5-200.4,450.7-197.7,450.7z"/>
		<path d="M-229.1,382.5c-2.7,0-4.9,2.2-4.9,4.9v58.5c0,2.7,2.2,4.9,4.9,4.9h14.4c2.7,0,4.9-2.2,4.9-4.9v-58.5
			c0-2.7-2.2-4.9-4.9-4.9H-229.1z"/>
	</g>
</g>
</svg>
