<?xml version="1.0" encoding="utf-8"?>
<!-- Generator: Adobe Illustrator 19.0.1, SVG Export Plug-In . SVG Version: 6.00 Build 0)  -->
<svg version="1.2" baseProfile="tiny" id="Слой_1"
	 xmlns="http://www.w3.org/2000/svg" xmlns:xlink="http://www.w3.org/1999/xlink" x="0px" y="0px" viewBox="0 0 153.1 82.3"
	 xml:space="preserve">
<g>
	<path d="M64.1,82.3c-3,0-6.1-0.5-9-1.5L6.5,63.9c-1-0.4-1.6-1.5-1.2-2.5c0.4-1,1.5-1.6,2.5-1.2l48.7,16.9
		c5.4,1.8,11.3,1.7,16.6-0.5l71.5-28.4c1-0.4,2.2,0.1,2.6,1.1c0.4,1-0.1,2.2-1.1,2.6L74.5,80.3C71.2,81.7,67.7,82.3,64.1,82.3z"/>
</g>
<g>
	<path d="M64.1,71.3c-3,0-6.1-0.5-9-1.5L6.5,52.9c-1-0.4-1.6-1.5-1.2-2.5c0.4-1,1.5-1.6,2.5-1.2l48.7,16.9
		c5.4,1.8,11.3,1.7,16.6-0.5l71.5-28.4c1-0.4,2.2,0.1,2.6,1.1c0.4,1-0.1,2.2-1.1,2.6L74.5,69.3C71.2,70.7,67.7,71.3,64.1,71.3z"/>
</g>
<g>
	<path d="M64.1,59.3c-3,0-6.1-0.5-9-1.5L7.4,41.6c-2.3-0.8-3.9-2.9-4-5.4c-0.1-2.5,1.4-4.7,3.7-5.6L77.7,2.1
		C84-0.5,91.1-0.7,97.5,1.5L145,17.8c2.3,0.8,3.9,2.9,4,5.4c0.1,2.5-1.4,4.7-3.7,5.6L74.5,57.3C71.2,58.7,67.7,59.3,64.1,59.3z
		 M88.3,4c-3.1,0-6.2,0.6-9.2,1.8c0,0,0,0,0,0L8.6,34.3c-1.1,0.5-1.2,1.5-1.2,1.8c0,0.3,0.1,1.3,1.3,1.7l47.7,16.2
		c5.4,1.8,11.3,1.7,16.6-0.5l70.8-28.5c1.1-0.5,1.2-1.5,1.2-1.8s-0.1-1.3-1.3-1.7L96.2,5.3C93.7,4.4,91,4,88.3,4z"/>
</g>
<g>
	<path d="M32.7,42.7c-0.9,0-1.7-0.6-2-1.6l-2.2-9.8c-0.2-1.1,0.4-2.1,1.5-2.4c1.1-0.2,2.1,0.4,2.4,1.5l2.2,9.8
		c0.2,1.1-0.4,2.1-1.5,2.4C33,42.7,32.9,42.7,32.7,42.7z"/>
</g>
<g>
	<path d="M52.9,48.3c-0.9,0-1.7-0.6-2-1.6l-5-22.5c-0.2-1.1,0.4-2.1,1.5-2.4c1.1-0.2,2.1,0.4,2.4,1.5l5,22.5
		c0.2,1.1-0.4,2.1-1.5,2.4C53.1,48.3,53,48.3,52.9,48.3z"/>
</g>
<g>
	<path d="M72.1,49.6c-0.9,0-1.7-0.6-2-1.6l-7-31.8c-0.2-1.1,0.4-2.1,1.5-2.4c1.1-0.2,2.1,0.4,2.4,1.5l7,31.8
		c0.2,1.1-0.4,2.1-1.5,2.4C72.4,49.6,72.3,49.6,72.1,49.6z"/>
</g>
<g>
	<path d="M89,41.8c-0.9,0-1.7-0.6-2-1.6l-6.4-29c-0.2-1.1,0.4-2.1,1.5-2.4c1.1-0.2,2.1,0.4,2.4,1.5l6.4,29c0.2,1.1-0.4,2.1-1.5,2.4
		C89.2,41.8,89.1,41.8,89,41.8z"/>
</g>
<g>
	<path d="M107.5,35.2c-0.9,0-1.7-0.6-2-1.6l-4.4-19.8c-0.2-1.1,0.4-2.1,1.5-2.4c1.1-0.2,2.1,0.4,2.4,1.5l4.4,19.8
		c0.2,1.1-0.4,2.1-1.5,2.4C107.7,35.2,107.6,35.2,107.5,35.2z"/>
</g>
<g>
	<path d="M124.6,28.7c-0.9,0-1.7-0.6-2-1.6l-1.6-7.3c-0.2-1.1,0.4-2.1,1.5-2.4c1.1-0.2,2.1,0.4,2.4,1.5l1.6,7.3
		c0.2,1.1-0.4,2.1-1.5,2.4C124.9,28.7,124.8,28.7,124.6,28.7z"/>
</g>
<g>
	<path d="M7.2,53c-0.3,0-0.5-0.1-0.8-0.2c-4.1-1.7-6.5-6-6.4-11.1c0.1-5.3,3-9.7,7.2-11.2c1-0.4,2.2,0.2,2.6,1.2
		c0.4,1-0.2,2.2-1.2,2.6c-3,1.1-4.5,4.6-4.6,7.5c-0.1,2.7,0.9,6,3.9,7.3c1,0.4,1.5,1.6,1.1,2.6C8.7,52.6,7.9,53,7.2,53z"/>
</g>
<g>
	<path d="M7.2,64c-0.3,0-0.5-0.1-0.8-0.2c-6.2-2.6-7.6-10.3-5.4-16c0.4-1,1.6-1.5,2.6-1.1c1,0.4,1.5,1.6,1.1,2.6
		c-1.6,3.9-0.6,9.2,3.2,10.8c1,0.4,1.5,1.6,1.1,2.6C8.7,63.6,7.9,64,7.2,64z"/>
</g>
<g>
	<path d="M145.5,41c-0.8,0-1.5-0.4-1.8-1.2c-0.5-1,0-2.2,1-2.6c3.4-1.5,4.5-5.2,4.3-8.1c-0.1-2.7-1.5-6.3-4.9-7.4
		c-1-0.3-1.6-1.5-1.3-2.5c0.3-1,1.5-1.6,2.5-1.3c4.4,1.4,7.4,5.8,7.6,11c0.3,5.4-2.3,9.9-6.7,11.9C146.1,41,145.8,41,145.5,41z"/>
</g>
<g>
	<path d="M145.1,52.1c-0.8,0-1.5-0.4-1.8-1.2c-0.5-1,0-2.2,1-2.6c4.1-1.9,5.2-7.4,3.6-11.3c-0.4-1,0.1-2.2,1.1-2.6
		c1-0.4,2.2,0.1,2.6,1.1c2.3,5.6,0.7,13.5-5.7,16.4C145.7,52,145.4,52.1,145.1,52.1z"/>
</g>
</svg>
