<?xml version="1.0" encoding="utf-8"?>
<!-- Generator: Adobe Illustrator 19.0.1, SVG Export Plug-In . SVG Version: 6.00 Build 0)  -->
<svg version="1.2" baseProfile="tiny" id="Слой_1"
	 xmlns="http://www.w3.org/2000/svg" xmlns:xlink="http://www.w3.org/1999/xlink" x="0px" y="0px" viewBox="0 0 92.7 77.2"
	 xml:space="preserve">
<g>
	<path d="M85.2,77.2h-71C6.4,77.2,0,70.8,0,63c0-7.8,6.4-14.2,14.2-14.2h71c1.1,0,2,0.9,2,2s-0.9,2-2,2h-71C8.6,52.8,4,57.3,4,63
		c0,5.6,4.6,10.2,10.2,10.2h71c1.1,0,2,0.9,2,2S86.3,77.2,85.2,77.2z"/>
</g>
<g>
	<path d="M85.2,65H15.4c-1.1,0-2-0.9-2-2c0-1.1,0.9-2,2-2h69.8c1.1,0,2,0.9,2,2C87.2,64.1,86.3,65,85.2,65z"/>
</g>
<g>
	<path d="M85.2,28.4h-71C6.4,28.4,0,22.1,0,14.2C0,6.4,6.4,0,14.2,0h71c1.1,0,2,0.9,2,2s-0.9,2-2,2h-71C8.6,4,4,8.6,4,14.2
		c0,5.6,4.6,10.2,10.2,10.2h71c1.1,0,2,0.9,2,2S86.3,28.4,85.2,28.4z"/>
</g>
<g>
	<path d="M85.2,16.2H15.4c-1.1,0-2-0.9-2-2s0.9-2,2-2h69.8c1.1,0,2,0.9,2,2S86.3,16.2,85.2,16.2z"/>
</g>
<g>
	<path d="M78.5,52.9h-71c-1.1,0-2-0.9-2-2s0.9-2,2-2h71c5.6,0,10.2-4.6,10.2-10.2c0-5.6-4.6-10.2-10.2-10.2h-71c-1.1,0-2-0.9-2-2
		s0.9-2,2-2h71c7.8,0,14.2,6.4,14.2,14.2C92.7,46.5,86.4,52.9,78.5,52.9z"/>
</g>
<g>
	<path d="M77.4,40.7H7.6c-1.1,0-2-0.9-2-2s0.9-2,2-2h69.8c1.1,0,2,0.9,2,2S78.5,40.7,77.4,40.7z"/>
</g>
</svg>
