<?xml version="1.0" encoding="utf-8"?>
<!-- Generator: Adobe Illustrator 19.0.1, SVG Export Plug-In . SVG Version: 6.00 Build 0)  -->
<svg version="1.2" baseProfile="tiny" id="Слой_1"
	 xmlns="http://www.w3.org/2000/svg" xmlns:xlink="http://www.w3.org/1999/xlink" x="0px" y="0px" viewBox="0 0 110.5 81"
	 xml:space="preserve">
<g>
	<path d="M77.1,47.1c-0.4,0-0.9-0.1-1.2-0.4c-0.9-0.7-1-1.9-0.3-2.8l28.8-36c0.7-0.9,0.6-1.9,0.3-2.6C104.5,4.8,104,4,102.9,4H40.4
		c-2.5,0-4.2,0.7-5.2,2.2L6.2,42.3c-0.7,0.9-1.9,1-2.8,0.3c-0.9-0.7-1-1.9-0.3-2.8L32,3.7C33.8,1.3,36.6,0,40.4,0h62.5
		c2.3,0,4.4,1.3,5.4,3.5c1.1,2.3,0.8,4.9-0.8,6.9l-28.8,36C78.3,46.8,77.7,47.1,77.1,47.1z"/>
</g>
<g>
	<path d="M71.5,59.5H9.3c-1.1,0-2-0.9-2-2s0.9-2,2-2h62.2c3,0,4.1-0.5,5.7-2.4L106,17.2c0.7-0.9,0.6-1.9,0.3-2.6
		c-0.2-0.4-0.7-1.2-1.8-1.2c-1.1,0-2-0.9-2-2s0.9-2,2-2c2.3,0,4.4,1.3,5.4,3.5c1.1,2.3,0.8,4.9-0.8,6.9l-28.8,36
		C77.6,58.9,75.1,59.5,71.5,59.5z"/>
</g>
<g>
	<path d="M9.3,59.5c-4.2,0-7.5-2.9-8.9-7.9c-1.1-3.8,0-8.5,2.7-11.8c0.7-0.9,2-1,2.8-0.3c0.9,0.7,1,2,0.3,2.8
		c-1.9,2.3-2.7,5.6-2,8.2c0.5,1.9,1.9,5,5,5c1.1,0,2,0.9,2,2S10.4,59.5,9.3,59.5z"/>
</g>
<g>
	<path d="M76.8,69.1c-0.4,0-0.9-0.1-1.2-0.4c-0.9-0.7-1-1.9-0.3-2.8l29.2-36.5c0.8-1,0.8-2.2,0.4-2.9c-0.3-0.6-0.8-0.9-1.4-0.9
		c-1.1,0-2-0.9-2-2s0.9-2,2-2c2.2,0,4.1,1.2,5,3.2c1.1,2.3,0.7,5.1-0.9,7.1L78.4,68.3C78,68.8,77.4,69.1,76.8,69.1z"/>
</g>
<g>
	<path d="M4.7,64.6c-0.4,0-0.9-0.1-1.2-0.4c-0.9-0.7-1-1.9-0.3-2.8l4.1-5.1c0.7-0.9,1.9-1,2.8-0.3c0.9,0.7,1,1.9,0.3,2.8l-4.1,5.1
		C5.8,64.4,5.3,64.6,4.7,64.6z"/>
</g>
<g>
	<path d="M72.1,81H9.3c-1.1,0-2-0.9-2-2s0.9-2,2-2h62.8c3.1,0,4.1-0.8,5.7-2.6L106,38.7c0.7-0.9,0.6-1.9,0.3-2.6
		c-0.2-0.4-0.7-1.2-1.8-1.2c-1.1,0-2-0.9-2-2c0-1.1,0.9-2,2-2c2.3,0,4.4,1.3,5.4,3.5c1.1,2.3,0.8,4.9-0.8,6.9L80.8,77
		C78.6,79.6,76.6,81,72.1,81z"/>
</g>
<g>
	<path d="M9.3,81c-4.2,0-7.5-2.9-8.9-7.9c-1.1-3.8,0-8.5,2.7-11.8c0.7-0.9,2-1,2.8-0.3c0.9,0.7,1,2,0.3,2.8c-1.9,2.3-2.7,5.6-2,8.2
		c0.5,1.9,1.9,5,5,5c1.1,0,2,0.9,2,2S10.4,81,9.3,81z"/>
</g>
</svg>
