<?xml version="1.0" encoding="utf-8"?>
<!-- Generator: Adobe Illustrator 19.0.1, SVG Export Plug-In . SVG Version: 6.00 Build 0)  -->
<svg version="1.1" id="Слой_12" xmlns="http://www.w3.org/2000/svg" xmlns:xlink="http://www.w3.org/1999/xlink" x="0px"
	 y="0px" viewBox="-265 357.8 79.3 78.2" style="enable-background:new -265 357.8 79.3 78.2;" xml:space="preserve">
<g>
	<g>
		<path d="M-187.7,436h-68.7c-4.7,0-8.6-3.9-8.6-8.6v-67.6c0-1.1,0.9-2,2-2h19.9c1.1,0,2,0.9,2,2v50.4c0,1.1,0.8,1.9,1.9,1.9h51.5
			c1.1,0,2,0.9,2,2V434C-185.7,435.1-186.6,436-187.7,436z M-261,361.8v65.6c0,2.5,2.1,4.6,4.6,4.6h66.7v-15.9h-49.5
			c-3.3,0-5.9-2.6-5.9-5.9v-48.4H-261z"/>
	</g>
	<g>
		<path d="M-256.4,372.9h-6.6c-1.1,0-2-0.9-2-2s0.9-2,2-2h6.6c1.1,0,2,0.9,2,2S-255.3,372.9-256.4,372.9z"/>
	</g>
	<g>
		<path d="M-256.4,383.6h-6.6c-1.1,0-2-0.9-2-2s0.9-2,2-2h6.6c1.1,0,2,0.9,2,2S-255.3,383.6-256.4,383.6z"/>
	</g>
	<g>
		<path d="M-256.4,394.2h-6.6c-1.1,0-2-0.9-2-2s0.9-2,2-2h6.6c1.1,0,2,0.9,2,2S-255.3,394.2-256.4,394.2z"/>
	</g>
	<g>
		<path d="M-256.4,404.8h-6.6c-1.1,0-2-0.9-2-2s0.9-2,2-2h6.6c1.1,0,2,0.9,2,2S-255.3,404.8-256.4,404.8z"/>
	</g>
	<g>
		<path d="M-230,436c-1.1,0-2-0.9-2-2v-6.7c0-1.1,0.9-2,2-2s2,0.9,2,2v6.7C-228,435.1-228.9,436-230,436z"/>
	</g>
	<g>
		<path d="M-219.4,436c-1.1,0-2-0.9-2-2v-6.7c0-1.1,0.9-2,2-2s2,0.9,2,2v6.7C-217.4,435.1-218.3,436-219.4,436z"/>
	</g>
	<g>
		<path d="M-208.7,436c-1.1,0-2-0.9-2-2v-6.7c0-1.1,0.9-2,2-2s2,0.9,2,2v6.7C-206.7,435.1-207.6,436-208.7,436z"/>
	</g>
	<g>
		<path d="M-198.1,436c-1.1,0-2-0.9-2-2v-6.7c0-1.1,0.9-2,2-2s2,0.9,2,2v6.7C-196.1,435.1-197,436-198.1,436z"/>
	</g>
	<g>
		<path d="M-250.4,428.1c-3.9,0-7-3.1-7-7s3.1-7,7-7s7,3.1,7,7S-246.5,428.1-250.4,428.1z M-250.4,418.1c-1.7,0-3,1.3-3,3s1.3,3,3,3
			s3-1.3,3-3S-248.7,418.1-250.4,418.1z"/>
	</g>
</g>
</svg>
