<?xml version="1.0" encoding="utf-8"?>
<!-- Generator: Adobe Illustrator 19.0.1, SVG Export Plug-In . SVG Version: 6.00 Build 0)  -->
<svg version="1.1" id="Слой_17" xmlns="http://www.w3.org/2000/svg" xmlns:xlink="http://www.w3.org/1999/xlink" x="0px"
	 y="0px" viewBox="-250 360.8 110.7 72.2" style="enable-background:new -250 360.8 110.7 72.2;" xml:space="preserve">
<style type="text/css">
	.st0{fill:#010101;}
</style>
<g>
	<g>
		<path class="st0" d="M-147,433h-75.1c-4.2,0-7.6-3.4-7.6-7.6V387c0-4.2,3.4-7.6,7.6-7.6h75.1c4.2,0,7.6,3.4,7.6,7.6v38.4
			c0.1,1.9-0.7,3.8-2.1,5.3C-142.9,432.1-144.9,433-147,433z M-222.1,383.4c-2,0-3.6,1.6-3.6,3.6v38.4c0,2,1.6,3.6,3.6,3.6h75.1
			c1,0,2-0.4,2.7-1.1c0.6-0.7,1-1.5,1-2.4l0-38.5c0-2-1.6-3.6-3.6-3.6H-222.1z"/>
	</g>
	<g>
		<path class="st0" d="M-208.5,425c-0.6,0-1.2-0.3-1.6-0.8l-10.3-14.5c-0.6-0.9-0.4-2.1,0.5-2.8c0.9-0.6,2.1-0.4,2.8,0.5l10.3,14.5
			c0.6,0.9,0.4,2.1-0.5,2.8C-207.7,424.9-208.1,425-208.5,425z"/>
	</g>
	<g>
		<path class="st0" d="M-149.4,405c-0.6,0-1.2-0.3-1.6-0.8l-10.4-14.5c-0.6-0.9-0.4-2.1,0.5-2.8c0.9-0.6,2.1-0.4,2.8,0.5l10.4,14.5
			c0.6,0.9,0.4,2.1-0.5,2.8C-148.6,404.9-149,405-149.4,405z"/>
	</g>
	<g>
		<path class="st0" d="M-193.9,425c-0.6,0-1.2-0.3-1.6-0.8l-24.9-35.1c-0.6-0.9-0.4-2.1,0.5-2.8c0.9-0.6,2.1-0.4,2.8,0.5l24.9,35.1
			c0.6,0.9,0.4,2.1-0.5,2.8C-193.1,424.9-193.5,425-193.9,425z"/>
	</g>
	<g>
		<path class="st0" d="M-179.9,425c-0.6,0-1.2-0.3-1.6-0.8l-25-35.1c-0.6-0.9-0.4-2.1,0.5-2.8c0.9-0.6,2.1-0.4,2.8,0.5l25,35.1
			c0.6,0.9,0.4,2.1-0.5,2.8C-179.1,424.9-179.5,425-179.9,425z"/>
	</g>
	<g>
		<path class="st0" d="M-165.3,425c-0.6,0-1.2-0.3-1.6-0.8l-25-35.1c-0.6-0.9-0.4-2.1,0.5-2.8c0.9-0.6,2.1-0.4,2.8,0.5l25,35.1
			c0.6,0.9,0.4,2.1-0.5,2.8C-164.5,424.9-164.9,425-165.3,425z"/>
	</g>
	<g>
		<path class="st0" d="M-149.4,425c-0.6,0-1.2-0.3-1.6-0.8l-25-35.1c-0.6-0.9-0.4-2.1,0.5-2.8c0.9-0.6,2.1-0.4,2.8,0.5l25,35.1
			c0.6,0.9,0.4,2.1-0.5,2.8C-148.6,424.9-149,425-149.4,425z"/>
	</g>
	<g>
		<path class="st0" d="M-227.8,389c-1.1,0-2-0.9-2-2v-22.2c0-1.1,0.9-2,2-2s2,0.9,2,2V387C-225.8,388.1-226.7,389-227.8,389z"/>
	</g>
	<g>
		<path class="st0" d="M-141.3,389c-1.1,0-2-0.9-2-2v-22.2c0-1.1,0.9-2,2-2s2,0.9,2,2V387C-139.3,388.1-140.2,389-141.3,389z"/>
	</g>
	<g>
		<path class="st0" d="M-221.7,383.3h-26.1c-1.1,0-2-0.9-2-2s0.9-2,2-2h26.1c1.1,0,2,0.9,2,2S-220.6,383.3-221.7,383.3z"/>
	</g>
	<g>
		<path class="st0" d="M-221.7,433h-26.1c-1.1,0-2-0.9-2-2s0.9-2,2-2h26.1c1.1,0,2,0.9,2,2S-220.6,433-221.7,433z"/>
	</g>
	<g>
		<path class="st0" d="M-141.3,371.6h-86.5c-1.1,0-2-0.9-2-2s0.9-2,2-2h86.5c1.1,0,2,0.9,2,2S-140.2,371.6-141.3,371.6z"/>
	</g>
	<g>
		<path class="st0" d="M-217.2,378.4c-0.5,0-0.9-0.2-1.3-0.5l-9.5-8.3l9.4-8.3c0.8-0.7,2.1-0.7,2.8,0.2c0.7,0.8,0.7,2.1-0.2,2.8
			l-6,5.3l6.1,5.3c0.8,0.7,0.9,2,0.2,2.8C-216.1,378.2-216.6,378.4-217.2,378.4z"/>
	</g>
	<g>
		<path class="st0" d="M-151.9,378.4c-0.6,0-1.1-0.2-1.5-0.7c-0.7-0.8-0.7-2.1,0.2-2.8l6-5.3l-6.1-5.3c-0.8-0.7-0.9-2-0.2-2.8
			c0.7-0.8,2-0.9,2.8-0.2l9.5,8.3l-9.4,8.3C-151,378.2-151.4,378.4-151.9,378.4z"/>
	</g>
	<g>
		<path class="st0" d="M-241.2,432.7c-1.1,0-2-0.9-2-2v-48.4c0-1.1,0.9-2,2-2s2,0.9,2,2v48.4C-239.2,431.8-240.1,432.7-241.2,432.7z
			"/>
	</g>
	<g>
		<path class="st0" d="M-248,393.8c-0.5,0-0.9-0.2-1.3-0.5c-0.8-0.7-0.9-2-0.2-2.8l8.3-9.5l8.3,9.4c0.7,0.8,0.7,2.1-0.2,2.8
			c-0.8,0.7-2.1,0.7-2.8-0.2l-5.3-6l-5.3,6.1C-246.9,393.6-247.4,393.8-248,393.8z"/>
	</g>
	<g>
		<path class="st0" d="M-241.2,431.3l-8.3-9.3c-0.7-0.8-0.7-2.1,0.2-2.8c0.8-0.7,2.1-0.7,2.8,0.2l5.3,5.9l5.3-6
			c0.7-0.8,2-0.9,2.8-0.2c0.8,0.7,0.9,2,0.2,2.8L-241.2,431.3z"/>
	</g>
</g>
</svg>
