<svg version="1.1" id="Слой_15" xmlns="http://www.w3.org/2000/svg" xmlns:xlink="http://www.w3.org/1999/xlink" x="0px"
	 y="0px" viewBox="-765.1 1040.8 100.1 100" style="enable-background:new -765.1 1040.8 100.1 100;" xml:space="preserve">
<path d="M-715,1140.8c-3.7,0-7.2-1.6-9.6-4.4c-1.2-1.4-3.1-1.9-4.8-1.3c-3.6,1.2-7.3,0.9-10.6-0.9c-3.3-2-5.4-5-6.2-8.6
	c-0.3-1.8-1.7-3.2-3.5-3.5c-3.7-0.7-6.8-3-8.7-6.2c-1.8-3.2-2.2-7.1-0.9-10.6c0.6-1.7,0.1-3.5-1.4-4.8c-2.8-2.4-4.4-5.9-4.4-9.6
	c0-3.7,1.6-7.2,4.4-9.6c1.4-1.2,1.9-3.1,1.3-4.8c-1.2-3.6-0.9-7.3,0.9-10.6c1.9-3.2,5.1-5.4,8.6-6.2c1.8-0.3,3.2-1.7,3.5-3.5
	c0.7-3.7,3-6.8,6.2-8.7c3.2-1.8,7.1-2.2,10.6-0.9c1.7,0.6,3.5,0.1,4.8-1.4c2.4-2.8,5.9-4.4,9.6-4.4c3.8,0,7.2,1.6,9.7,4.4
	c1.2,1.4,3.1,1.9,4.8,1.3c3.6-1.2,7.3-0.9,10.6,0.9c3.3,2,5.5,5,6.2,8.6c0.3,1.8,1.7,3.2,3.5,3.5c3.7,0.7,6.8,3,8.7,6.2
	c1.8,3.2,2.2,7.1,0.9,10.6c-0.6,1.7-0.1,3.5,1.4,4.8c2.8,2.4,4.4,5.9,4.4,9.6c0,3.8-1.6,7.3-4.5,9.6c-1.4,1.2-1.9,3.1-1.3,4.8
	c1.2,3.6,0.9,7.3-0.9,10.6c-1.9,3.2-5.1,5.4-8.6,6.2c-1.8,0.4-3.2,1.7-3.5,3.5c-0.7,3.7-3,6.8-6.2,8.7c-3.2,1.8-7.1,2.2-10.6,0.9
	c-1.7-0.6-3.5-0.1-4.8,1.4C-707.8,1139.2-711.3,1140.8-715,1140.8z M-728,1130.8c2.4,0,4.8,1.1,6.4,3c1.7,1.9,4.1,3,6.6,3
	s4.9-1.1,6.6-3c2.4-2.7,6-3.6,9.2-2.5c2.3,0.8,5,0.6,7.2-0.7c2.2-1.2,3.7-3.4,4.2-6c0.7-3.4,3.3-6,6.7-6.7c2.4-0.5,4.6-2.1,6-4.3
	c1.2-2.2,1.5-4.7,0.6-7.2c-1.2-3.2-0.2-6.9,2.5-9.2c2-1.6,3.1-4,3.1-6.6c0-2.5-1.1-4.9-3-6.6c-2.7-2.4-3.6-6-2.5-9.2
	c0.8-2.3,0.6-5-0.7-7.2c-1.2-2.2-3.4-3.7-6-4.2c-3.4-0.7-6-3.3-6.7-6.7c-0.5-2.5-2-4.6-4.3-6c-2.2-1.2-4.7-1.5-7.2-0.6
	c-3.2,1.2-6.9,0.2-9.2-2.5c-1.7-1.9-4.1-3-6.7-3c-2.5,0-4.9,1.1-6.6,3c-2.4,2.7-6,3.6-9.2,2.5c-2.3-0.8-5-0.6-7.2,0.7
	c-2.2,1.2-3.7,3.4-4.2,6c-0.7,3.4-3.3,6-6.7,6.7c-2.4,0.5-4.6,2.1-6,4.3c-1.2,2.2-1.5,4.7-0.6,7.2c1.2,3.2,0.2,6.9-2.5,9.2
	c-1.9,1.6-3,4.1-3,6.6s1.1,4.9,3,6.6c2.7,2.4,3.6,6,2.5,9.2c-0.8,2.3-0.6,5,0.7,7.2c1.2,2.2,3.4,3.7,6,4.2c3.4,0.7,6,3.3,6.7,6.7
	c0.5,2.5,2,4.6,4.3,6c2.2,1.2,4.7,1.5,7.2,0.6C-729.9,1131-728.9,1130.8-728,1130.8z"/>
<path d="M-728.3,1112.2c-0.4,0-0.8-0.1-1.2-0.4c-0.6-0.5-0.9-1.2-0.8-2l2.4-13.8l-10-9.8c-0.5-0.5-0.7-1.3-0.5-2
	s0.9-1.3,1.6-1.4l13.9-2l6.1-12.5c0.3-0.7,1-1.1,1.8-1.1l0,0c0.8,0,1.5,0.4,1.8,1.1l6.2,12.5l13.8,2c0.8,0.1,1.4,0.6,1.6,1.4
	s0,1.5-0.5,2l-10,9.8l2.3,13.8c0.1,0.8-0.2,1.5-0.8,2s-1.4,0.5-2.1,0.1l-12.4-6.5l-12.4,6.5C-727.7,1112.1-728,1112.2-728.3,1112.2z
	 M-715,1101.2c0.3,0,0.6,0.1,0.9,0.2l9.7,5.1l-1.8-10.8c-0.1-0.6,0.1-1.3,0.6-1.8l7.8-7.7l-10.8-1.6c-0.6-0.1-1.2-0.5-1.5-1.1
	l-4.9-9.8l-4.8,9.8c-0.3,0.6-0.9,1-1.5,1.1l-10.9,1.6l7.9,7.7c0.5,0.5,0.7,1.1,0.6,1.8l-1.9,10.8l9.7-5.1
	C-715.6,1101.3-715.3,1101.2-715,1101.2z"/>
</svg>
