<?xml version="1.0" encoding="utf-8"?>
<!-- Generator: Adobe Illustrator 19.0.1, SVG Export Plug-In . SVG Version: 6.00 Build 0)  -->
<svg version="1.1" id="Слой_16" xmlns="http://www.w3.org/2000/svg" xmlns:xlink="http://www.w3.org/1999/xlink" x="0px"
	 y="0px" viewBox="-252 349.5 106.2 94.5" style="enable-background:new -252 349.5 106.2 94.5;" xml:space="preserve">
<style type="text/css">
	.st0{fill:#1D1D1B;}
</style>
<g>
	<path class="st0" d="M-147.8,444H-250c-1.1,0-2-0.9-2-2v-31.5c0-0.8,0.4-1.4,1.1-1.8l34.1-17.3c0.6-0.3,1.4-0.3,2,0.1
		c0.6,0.4,1,1,1,1.7v13.3l31.1-15.1c0.6-0.3,1.4-0.3,1.9,0.1c0.6,0.4,0.9,1,0.9,1.7v12.9l31.2-14.8c0.6-0.3,1.3-0.2,1.9,0.1
		c0.6,0.4,0.9,1,0.9,1.7V442C-145.8,443.1-146.7,444-147.8,444z M-248,440h98.2v-43.6l-31.2,14.8c-0.6,0.3-1.3,0.2-1.9-0.1
		s-0.9-1-0.9-1.7v-12.9l-31.1,15.1c-0.6,0.3-1.4,0.3-1.9-0.1c-0.6-0.4-0.9-1-0.9-1.7v-13.2l-30.1,15.3V440z"/>
</g>
<g>
	<path class="st0" d="M-204.5,406.2c-1,0-1.9-0.8-2-1.8l-3.9-36.2h-9.8l-3.3,29.8c-0.1,1.1-1.1,1.9-2.2,1.8
		c-1.1-0.1-1.9-1.1-1.8-2.2l3.5-31.6c0.1-1,1-1.8,2-1.8h13.4c1,0,1.9,0.8,2,1.8l4.1,38c0.1,1.1-0.7,2.1-1.8,2.2
		C-204.4,406.2-204.4,406.2-204.5,406.2z"/>
</g>
<g>
	<path class="st0" d="M-171.4,406c-1,0-1.9-0.8-2-1.8l-3.9-50.7h-9.8l-3.3,44.2c-0.1,1.1-1,1.9-2.1,1.8c-1.1-0.1-1.9-1-1.8-2.1
		l3.4-46.1c0.1-1,0.9-1.9,2-1.9h13.5c1,0,1.9,0.8,2,1.8l4,52.5c0.1,1.1-0.7,2.1-1.8,2.1C-171.3,406-171.4,406-171.4,406z"/>
</g>
<g>
	<path class="st0" d="M-207.9,374.8h-14.7c-1.1,0-2-0.9-2-2s0.9-2,2-2h14.7c1.1,0,2,0.9,2,2S-206.8,374.8-207.9,374.8z"/>
</g>
<g>
	<path class="st0" d="M-175.5,359.6h-13.8c-1.1,0-2-0.9-2-2s0.9-2,2-2h13.8c1.1,0,2,0.9,2,2S-174.4,359.6-175.5,359.6z"/>
</g>
<g>
	<path class="st0" d="M-175.5,366.2h-13.8c-1.1,0-2-0.9-2-2s0.9-2,2-2h13.8c1.1,0,2,0.9,2,2S-174.4,366.2-175.5,366.2z"/>
</g>
<g>
	<path class="st0" d="M-207.9,381.8h-14.7c-1.1,0-2-0.9-2-2s0.9-2,2-2h14.7c1.1,0,2,0.9,2,2S-206.8,381.8-207.9,381.8z"/>
</g>
<g>
	<path class="st0" d="M-208.9,444h-30.5c-1.1,0-2-0.9-2-2v-14.3c0-1.1,0.9-2,2-2h30.5c1.1,0,2,0.9,2,2V442
		C-206.9,443.1-207.8,444-208.9,444z M-237.4,440h26.5v-10.3h-26.5V440z"/>
</g>
<g>
	<path class="st0" d="M-239.4,437.3H-250c-1.1,0-2-0.9-2-2s0.9-2,2-2h10.6c1.1,0,2,0.9,2,2S-238.3,437.3-239.4,437.3z"/>
</g>
<g>
	<path class="st0" d="M-147.8,437.6h-61.1c-1.1,0-2-0.9-2-2s0.9-2,2-2h61.1c1.1,0,2,0.9,2,2S-146.7,437.6-147.8,437.6z"/>
</g>
<g>
	<path class="st0" d="M-208.9,422.3h-30.5c-1.1,0-2-0.9-2-2s0.9-2,2-2h30.5c1.1,0,2,0.9,2,2S-207.8,422.3-208.9,422.3z"/>
</g>
<g>
	<path class="st0" d="M-198.9,431.5c-1.1,0-2-0.9-2-2v-9.2c0-1.1,0.9-2,2-2c1.1,0,2,0.9,2,2v9.2
		C-196.9,430.6-197.8,431.5-198.9,431.5z"/>
</g>
<g>
	<path class="st0" d="M-158.1,431.5c-1.1,0-2-0.9-2-2v-9.2c0-1.1,0.9-2,2-2s2,0.9,2,2v9.2C-156.1,430.6-157,431.5-158.1,431.5z"/>
</g>
<g>
	<path class="st0" d="M-168.3,431.5c-1.1,0-2-0.9-2-2v-9.2c0-1.1,0.9-2,2-2s2,0.9,2,2v9.2C-166.3,430.6-167.2,431.5-168.3,431.5z"/>
</g>
<g>
	<path class="st0" d="M-178.5,431.5c-1.1,0-2-0.9-2-2v-9.2c0-1.1,0.9-2,2-2s2,0.9,2,2v9.2C-176.5,430.6-177.4,431.5-178.5,431.5z"/>
</g>
<g>
	<path class="st0" d="M-188.7,431.5c-1.1,0-2-0.9-2-2v-9.2c0-1.1,0.9-2,2-2s2,0.9,2,2v9.2C-186.7,430.6-187.6,431.5-188.7,431.5z"/>
</g>
</svg>
