<?xml version="1.0" encoding="utf-8"?>
<!-- Generator: Adobe Illustrator 19.0.1, SVG Export Plug-In . SVG Version: 6.00 Build 0)  -->
<svg version="1.1" id="Capa_1" xmlns="http://www.w3.org/2000/svg" xmlns:xlink="http://www.w3.org/1999/xlink" x="0px" y="0px"
	 viewBox="-55 147 500 500" style="enable-background:new -55 147 500 500;" xml:space="preserve">
<style type="text/css">
	.st0{display:none;}
</style>
<g>
	<g>
		<path class="st0" d="M195,637.7L195,637.7C62,637.7-45.7,530-45.7,397l0,0C-45.7,264,62,156.3,195,156.3l0,0
			c133,0,240.7,107.7,240.7,240.7l0,0C435.7,530,328,637.7,195,637.7z"/>
		<path d="M195,647C57.1,647-55,534.9-55,397S57.1,147,195,147s250,112.1,250,250S332.9,647,195,647z M195,165.5
			C67.4,165.5-36.5,269.4-36.5,397S67.4,628.5,195,628.5S426.5,524.6,426.5,397S322.6,165.5,195,165.5z"/>
	</g>
	<path d="M306.1,406.3H65.4c-5.1,0-9.3-4.1-9.3-9.3c0-5.1,4.1-9.3,9.3-9.3h240.7c5.1,0,9.3,4.1,9.3,9.3
		C315.4,402.1,311.2,406.3,306.1,406.3z"/>
	<polygon points="229.3,496.1 216.2,483 302.3,397 216.2,311 229.3,297.9 328.5,397 	"/>
</g>
</svg>
