<?xml version="1.0" encoding="utf-8"?>
<!-- Generator: Adobe Illustrator 13.0.0, SVG Export Plug-In . SVG Version: 6.00 Build 14948)  -->
<!DOCTYPE svg PUBLIC "-//W3C//DTD SVG 1.1//EN" "http://www.w3.org/Graphics/SVG/1.1/DTD/svg11.dtd">
<svg version="1.1" id="Layer_1" xmlns="http://www.w3.org/2000/svg" xmlns:xlink="http://www.w3.org/1999/xlink" x="0px" y="0px"
	 width="500px" height="500px" viewBox="0 0 500 500" enable-background="new 0 0 500 500" xml:space="preserve">
<path d="M414.147,338.014c-8.634,0-15.658,7.025-15.658,15.658c0,8.635,7.024,15.659,15.658,15.659s15.659-7.024,15.659-15.659
	C429.807,345.039,422.781,338.014,414.147,338.014z"/>
<path d="M103.132,338.014c-8.634,0-15.659,7.025-15.659,15.658c0,8.635,7.025,15.659,15.659,15.659
	c8.634,0,15.659-7.024,15.659-15.659C118.791,345.039,111.766,338.014,103.132,338.014z"/>
<path d="M479.799,235.759l-59.575-26.479l-43.609-94.486c-5.54-12.005-17.664-19.761-30.886-19.761H25.378
	C11.384,95.033,0,106.417,0,120.411v215.984c0,13.992,11.384,25.377,25.378,25.377h27.104c3.895,24.449,25.122,43.197,50.65,43.197
	c25.528,0,46.755-18.748,50.65-43.197h209.714c3.896,24.449,25.122,43.197,50.65,43.197s46.755-18.748,50.65-43.197h9.825
	c13.993,0,25.378-11.385,25.378-25.377v-69.551C500.001,253.414,492.071,241.212,479.799,235.759z M377.066,154.428l24.423,52.916
	h-74.274v-52.916H377.066z M103.132,388.77c-19.352,0-35.097-15.745-35.097-35.098s15.745-35.097,35.097-35.097
	s35.097,15.744,35.097,35.097S122.484,388.77,103.132,388.77z M414.147,388.77c-19.352,0-35.097-15.744-35.097-35.098
	c0-19.353,15.745-35.097,35.097-35.097c19.353,0,35.098,15.744,35.098,35.097S433.5,388.77,414.147,388.77z M483.803,311.016h-9.18
	c-4.473,0-8.1,3.625-8.1,8.1s3.627,8.1,8.1,8.1h9.18v9.18c0,5.061-4.118,9.179-9.18,9.179h-9.825
	c-3.896-24.449-25.122-43.196-50.65-43.196s-46.755,18.747-50.65,43.196H153.782c-3.896-24.449-25.122-43.196-50.65-43.196
	c-25.528,0-46.755,18.747-50.65,43.196H25.378c-5.062,0-9.179-4.118-9.179-9.179v-9.18h26.458c4.473,0,8.099-3.625,8.099-8.1
	s-3.626-8.1-8.099-8.1H16.199V120.411c0-5.062,4.118-9.179,9.179-9.179h320.351c6.926,0,13.276,4.063,16.179,10.351l7.684,16.647
	h-76.394c-9.23,0-16.738,7.508-16.738,16.738v34.558c0,18.757,15.26,34.017,34.017,34.017H412.43l50.297,22.354l-1.274,0.773
	c-7.529,4.571-12.207,12.884-12.207,21.692v16.195c0,4.474,3.626,8.1,8.1,8.1h26.458V311.016z M311.016,154.428v52.916h-0.54
	c-9.825,0-17.818-7.993-17.818-17.818v-34.558c0-0.297,0.241-0.54,0.54-0.54H311.016z M483.803,276.459h-18.359v-8.096
	c0-3.186,1.692-6.191,4.415-7.847l9.305-5.649c2.923,3.221,4.64,7.464,4.64,11.976V276.459z"/>
<path d="M353.673,311.016H163.607c-4.473,0-8.1,3.625-8.1,8.1s3.626,8.1,8.1,8.1h190.065c4.473,0,8.099-3.625,8.099-8.1
	S358.146,311.016,353.673,311.016z"/>
</svg>
