<?xml version="1.0" encoding="utf-8"?>
<!-- Generator: Adobe Illustrator 19.0.1, SVG Export Plug-In . SVG Version: 6.00 Build 0)  -->
<svg version="1.2" baseProfile="tiny" id="Слой_1"
	 xmlns="http://www.w3.org/2000/svg" xmlns:xlink="http://www.w3.org/1999/xlink" x="0px" y="0px" viewBox="0 0 94.7 73.6"
	 xml:space="preserve">
<g>
	<path d="M92.7,65.8H2c-1.1,0-2-0.9-2-2v-16c0-1.1,0.9-2,2-2h90.7c1.1,0,2,0.9,2,2v16C94.7,64.9,93.8,65.8,92.7,65.8z M4,61.8h86.7
		v-12H4V61.8z"/>
</g>
<g>
	<path d="M92.7,49.3H2c-1.1,0-2-0.9-2-2V40c0-5.9,4.8-10.7,10.7-10.7H84c5.9,0,10.7,4.8,10.7,10.7v7.3
		C94.7,48.4,93.8,49.3,92.7,49.3z M4,45.3h86.7V40c0-3.7-3-6.7-6.7-6.7H10.7C7,33.3,4,36.3,4,40V45.3z"/>
</g>
<g>
	<path d="M84,33.3H12.2c-1.1,0-2-0.9-2-2V13.8c0-0.6,0.3-1.2,0.8-1.6c22.2-16.4,52-16.4,74.2,0c0.5,0.4,0.8,1,0.8,1.6v17.5
		C86,32.4,85.1,33.3,84,33.3z M14.2,29.3H82V14.9c-20.4-14.6-47.4-14.6-67.8,0V29.3z"/>
</g>
<g>
	<path d="M41.9,33.3h-21c-1.1,0-2-0.9-2-2v-5.5c0-3.2,2.6-5.8,5.8-5.8h13.3c3.2,0,5.8,2.6,5.8,5.8v5.5C43.9,32.4,43,33.3,41.9,33.3z
		 M22.9,29.3h17v-3.5c0-1-0.8-1.8-1.8-1.8H24.7c-1,0-1.8,0.8-1.8,1.8V29.3z"/>
</g>
<g>
	<path d="M75,33.3H54c-1.1,0-2-0.9-2-2v-5.5c0-3.2,2.6-5.8,5.8-5.8h13.3c3.2,0,5.8,2.6,5.8,5.8v5.5C77,32.4,76.1,33.3,75,33.3z
		 M56,29.3h17v-3.5c0-1-0.8-1.8-1.8-1.8H57.9c-1,0-1.8,0.8-1.8,1.8V29.3z"/>
</g>
<g>
	<path d="M84,58H12.2c-1.1,0-2-0.9-2-2s0.9-2,2-2H84c1.1,0,2,0.9,2,2S85.1,58,84,58z"/>
</g>
<g>
	<path d="M12.1,73.6H9.7c-2.6,0-4.7-2.1-4.7-4.7v-5.1c0-1.1,0.9-2,2-2h7.8c1.1,0,2,0.9,2,2v5.1C16.8,71.5,14.7,73.6,12.1,73.6z
		 M9,65.8v3.1c0,0.4,0.3,0.7,0.7,0.7h2.4c0.4,0,0.7-0.3,0.7-0.7v-3.1H9z"/>
</g>
<g>
	<path d="M84,73.6h-2.4c-2.6,0-4.7-2.1-4.7-4.7v-5.1c0-1.1,0.9-2,2-2h7.8c1.1,0,2,0.9,2,2v5.1C88.7,71.5,86.6,73.6,84,73.6z
		 M80.9,65.8v3.1c0,0.4,0.3,0.7,0.7,0.7H84c0.4,0,0.7-0.3,0.7-0.7v-3.1H80.9z"/>
</g>
</svg>
