<?xml version="1.0" encoding="utf-8"?>
<!-- Generator: Adobe Illustrator 19.0.1, SVG Export Plug-In . SVG Version: 6.00 Build 0)  -->
<svg version="1.2" baseProfile="tiny" id="Слой_1"
	 xmlns="http://www.w3.org/2000/svg" xmlns:xlink="http://www.w3.org/1999/xlink" x="0px" y="0px" viewBox="0 0 145.5 82.3"
	 xml:space="preserve">
<g>
	<path d="M60.7,59.3c-3,0-6.1-0.5-9-1.5L4,41.6c-2.3-0.8-3.9-2.9-4-5.4c-0.1-2.5,1.4-4.7,3.7-5.6L74.2,2.1
		c6.3-2.6,13.4-2.8,19.9-0.5l47.5,16.3c2.3,0.8,3.9,2.9,4,5.4c0.1,2.5-1.4,4.7-3.7,5.6L71.1,57.3C67.7,58.7,64.2,59.3,60.7,59.3z
		 M84.9,4c-3.1,0-6.2,0.6-9.2,1.8c0,0,0,0,0,0L5.2,34.3C4.1,34.8,4,35.8,4,36.1c0,0.3,0.1,1.3,1.3,1.7L53,54.1
		c5.4,1.8,11.3,1.7,16.6-0.5l70.8-28.5c1.1-0.5,1.2-1.5,1.2-1.8s-0.1-1.3-1.3-1.7L92.8,5.3C90.2,4.4,87.5,4,84.9,4z"/>
</g>
<g>
	<path d="M60.7,82.3c-3,0-6.1-0.5-9-1.5L6,64.6c-3.6-1.3-6-4.7-6-8.5V36.2c0-1.1,0.9-2,2-2s2,0.9,2,2v19.9c0,2.1,1.3,4,3.4,4.8
		L53,77.1c5.4,1.8,11.3,1.7,16.6-0.5l68.8-27.2c1.9-0.8,3.2-2.6,3.2-4.7V23.2c0-1.1,0.9-2,2-2s2,0.9,2,2v21.5c0,3.7-2.2,7-5.7,8.4
		L71.1,80.3C67.7,81.7,64.2,82.3,60.7,82.3z"/>
</g>
<g>
	<path d="M89.8,47.7c-8.3,0-19.3-2.7-25.4-8.5c-2.4-2.2-4.2-3.7-5.2-3.7c-1,0-2.6,1.5-4.7,3.7c-8.3,8.9-29.2,9.6-35.5,7.5
		c-1-0.4-1.6-1.5-1.2-2.5c0.4-1,1.5-1.6,2.5-1.3c5.4,1.8,24.6,0.8,31.3-6.4c3-3.2,5-4.9,7.5-5c2.5-0.1,4.7,1.5,8.1,4.8
		c7.2,6.8,23.3,8.9,29.2,6.5c1-0.4,2.2,0.1,2.6,1.1c0.4,1-0.1,2.2-1.1,2.6C95.8,47.3,93,47.7,89.8,47.7z"/>
</g>
<g>
	<path d="M29.2,40.8c-0.9,0-1.7-0.6-2-1.6l-1.7-7.9c-0.2-1.1,0.4-2.1,1.5-2.4c1.1-0.2,2.1,0.4,2.4,1.5l1.7,7.9
		c0.2,1.1-0.4,2.1-1.5,2.4C29.4,40.7,29.3,40.8,29.2,40.8z"/>
</g>
<g>
	<path d="M46.8,35.2c-0.9,0-1.7-0.6-2-1.6l-2.1-9.4c-0.2-1.1,0.4-2.1,1.5-2.4c1.1-0.2,2.1,0.4,2.4,1.5l2.1,9.4
		c0.2,1.1-0.4,2.1-1.5,2.4C47.1,35.2,47,35.2,46.8,35.2z"/>
</g>
<g>
	<path d="M64.8,30.5c-0.9,0-1.7-0.6-2-1.6L60,16.2c-0.2-1.1,0.4-2.1,1.5-2.4c1.1-0.2,2.1,0.4,2.4,1.5l2.8,12.8
		c0.2,1.1-0.4,2.1-1.5,2.4C65.1,30.5,64.9,30.5,64.8,30.5z"/>
</g>
<g>
	<path d="M85.3,39.7c-0.9,0-1.7-0.6-2-1.6l-5.9-26.9C77.2,10.1,77.9,9,79,8.8c1.1-0.2,2.1,0.4,2.4,1.5l5.9,26.9
		c0.2,1.1-0.4,2.1-1.5,2.4C85.6,39.7,85.5,39.7,85.3,39.7z"/>
</g>
<g>
	<path d="M104.3,35.2c-0.9,0-1.7-0.6-2-1.6L98,13.8c-0.2-1.1,0.4-2.1,1.5-2.4c1.1-0.2,2.1,0.4,2.4,1.5l4.4,19.8
		c0.2,1.1-0.4,2.1-1.5,2.4C104.6,35.2,104.4,35.2,104.3,35.2z"/>
</g>
<g>
	<path d="M121.5,28.7c-0.9,0-1.7-0.6-2-1.6l-1.6-7.3c-0.2-1.1,0.4-2.1,1.5-2.4c1.1-0.2,2.1,0.4,2.4,1.5l1.6,7.3
		c0.2,1.1-0.4,2.1-1.5,2.4C121.8,28.7,121.6,28.7,121.5,28.7z"/>
</g>
</svg>
