<?xml version="1.0" encoding="utf-8"?>
<!-- Generator: Adobe Illustrator 19.0.1, SVG Export Plug-In . SVG Version: 6.00 Build 0)  -->
<svg version="1.2" baseProfile="tiny" id="Слой_1"
	 xmlns="http://www.w3.org/2000/svg" xmlns:xlink="http://www.w3.org/1999/xlink" x="0px" y="0px" viewBox="0 0 89.3 89.3"
	 xml:space="preserve">
<g>
	<path d="M44.6,89.3c-3.1,0-6-1.3-8.1-3.5c-1.4-1.4-3.5-2-5.4-1.4c-2.9,0.9-6.2,0.5-8.8-1c-2.7-1.5-4.6-4.1-5.3-7.1
		c-0.5-1.9-2-3.5-4-4C10,71.5,7.5,69.7,6,67c-1.5-2.7-1.9-5.9-1-8.8c0.6-1.9,0-4-1.4-5.4C1.3,50.7,0,47.7,0,44.6
		c0-3.1,1.3-6.1,3.5-8.2c1.4-1.3,2-3.4,1.4-5.3c-0.9-3-0.5-6.2,1-8.9c1.5-2.7,4.2-4.6,7.2-5.3c1.9-0.4,3.4-2,3.8-3.8
		c0.7-3,2.7-5.6,5.3-7.2c2.7-1.6,5.8-1.9,8.8-1.1c1.9,0.6,4,0,5.3-1.4C38.6,1.2,41.5,0,44.6,0c3.1,0,6.1,1.3,8.2,3.5
		c1.3,1.4,3.4,2,5.3,1.4c3-0.9,6.1-0.5,8.8,1.1c2.7,1.5,4.6,4.2,5.3,7.2c0.4,1.9,2,3.4,3.8,3.8c3,0.7,5.6,2.7,7.2,5.3
		c1.6,2.7,1.9,5.8,1.1,8.8c-0.6,1.9,0,4,1.4,5.3c2.3,2.2,3.5,5.1,3.5,8.2c0,3.1-1.3,6.1-3.6,8.2c-1.4,1.3-2,3.4-1.4,5.3
		c0.9,3,0.5,6.2-1,8.8c-1.5,2.7-4.1,4.6-7.1,5.3c-1.9,0.5-3.5,2-4,4c-0.7,3-2.6,5.5-5.3,7.1c-2.7,1.5-5.9,1.9-8.8,1
		c-1.9-0.6-4,0-5.4,1.4C50.7,88,47.7,89.3,44.6,89.3z M32.6,80.1c2.5,0,5,1,6.8,2.9c1.4,1.5,3.2,2.3,5.2,2.3s3.9-0.8,5.2-2.3
		c2.4-2.5,6.1-3.5,9.4-2.5c1.9,0.6,3.9,0.3,5.7-0.7c1.7-1,2.9-2.6,3.4-4.5c0.8-3.4,3.5-6.1,6.9-6.9c1.9-0.5,3.6-1.7,4.5-3.4
		c1-1.7,1.2-3.8,0.7-5.7c-1-3.3,0-7,2.5-9.3c1.5-1.4,2.3-3.3,2.3-5.3c0-2-0.8-3.9-2.3-5.3c-2.5-2.4-3.5-6-2.5-9.4
		c0.6-1.9,0.3-3.9-0.7-5.7c-1-1.8-2.7-3-4.6-3.4c-3.3-0.8-6-3.5-6.8-6.8c-0.5-2-1.7-3.6-3.4-4.6c-1.7-1-3.8-1.2-5.7-0.7
		c-3.3,1-7,0-9.4-2.5C48.5,4.8,46.7,4,44.6,4c-2,0-3.9,0.8-5.3,2.3c-2.4,2.5-6,3.5-9.4,2.5c-1.9-0.6-3.9-0.3-5.7,0.7
		c-1.8,1-3,2.7-3.4,4.6c-0.8,3.3-3.5,6-6.8,6.8c-2,0.5-3.6,1.7-4.6,3.4c-1,1.8-1.3,3.8-0.7,5.7c1,3.3,0,7-2.5,9.3
		C4.8,40.8,4,42.6,4,44.6c0,2,0.8,3.9,2.3,5.2c2.5,2.4,3.5,6.1,2.5,9.4c-0.6,1.9-0.3,3.9,0.7,5.7c1,1.7,2.6,2.9,4.5,3.4
		c3.4,0.8,6.1,3.5,6.9,6.9c0.5,1.9,1.7,3.6,3.4,4.5c1.7,1,3.7,1.2,5.7,0.7C30.8,80.3,31.7,80.1,32.6,80.1z"/>
</g>
<g>
	<path d="M44.6,75c-16.8,0-30.4-13.6-30.4-30.4s13.6-30.4,30.4-30.4S75,27.9,75,44.6S61.4,75,44.6,75z M44.6,18.3
		c-14.6,0-26.4,11.8-26.4,26.4C18.3,59.2,30.1,71,44.6,71C59.2,71,71,59.2,71,44.6C71,30.1,59.2,18.3,44.6,18.3z"/>
</g>
<g>
	<path d="M30.7,60.2c-0.5,0-1-0.2-1.4-0.6c-0.8-0.8-0.8-2,0-2.8l27.9-27.9c0.8-0.8,2-0.8,2.8,0s0.8,2,0,2.8L32.1,59.6
		C31.7,60,31.2,60.2,30.7,60.2z"/>
</g>
<g>
	<path d="M35.6,42.3c-4.3,0-7.8-3.5-7.8-7.8s3.5-7.8,7.8-7.8s7.8,3.5,7.8,7.8S39.9,42.3,35.6,42.3z M35.6,30.6
		c-2.1,0-3.8,1.7-3.8,3.8c0,2.1,1.7,3.8,3.8,3.8s3.8-1.7,3.8-3.8C39.4,32.3,37.7,30.6,35.6,30.6z"/>
</g>
<g>
	<path d="M54.2,61.6c-4.3,0-7.8-3.5-7.8-7.8s3.5-7.8,7.8-7.8s7.8,3.5,7.8,7.8S58.5,61.6,54.2,61.6z M54.2,49.9
		c-2.1,0-3.8,1.7-3.8,3.8c0,2.1,1.7,3.8,3.8,3.8s3.8-1.7,3.8-3.8C58,51.6,56.3,49.9,54.2,49.9z"/>
</g>
</svg>
