<?xml version="1.0" encoding="utf-8"?>
<!-- Generator: Adobe Illustrator 19.0.1, SVG Export Plug-In . SVG Version: 6.00 Build 0)  -->
<svg version="1.2" baseProfile="tiny" id="Слой_1"
	 xmlns="http://www.w3.org/2000/svg" xmlns:xlink="http://www.w3.org/1999/xlink" x="0px" y="0px" viewBox="0 0 108.5 95.2"
	 xml:space="preserve">
<g>
	<path d="M70.1,88.8H38.4c-19.1,0-34.7-15.6-34.7-34.7c0-1.1,0.9-2,2-2h18.1c1.1,0,2,0.9,2,2s-0.9,2-2,2h-16
		c1,16,14.4,28.7,30.6,28.7h31.8c16.2,0,29.6-12.7,30.6-28.7H45.6c-1.1,0-2-0.9-2-2s0.9-2,2-2h57.2c1.1,0,2,0.9,2,2
		C104.8,73.3,89.3,88.8,70.1,88.8z"/>
</g>
<g>
	<path d="M102.3,56.2H45.6c-1.1,0-2-0.9-2-2s0.9-2,2-2h56.7c1.2,0,2.2-1,2.2-2.2c0-1.2-1-2.2-2.2-2.2H45.6c-1.1,0-2-0.9-2-2
		s0.9-2,2-2h56.7c3.4,0,6.2,2.8,6.2,6.2C108.5,53.4,105.7,56.2,102.3,56.2z"/>
</g>
<g>
	<path d="M23.8,56.2H6.2c-3.4,0-6.2-2.8-6.2-6.2c0-3.4,2.8-6.2,6.2-6.2h17.5c1.1,0,2,0.9,2,2s-0.9,2-2,2H6.2c-1.2,0-2.2,1-2.2,2.2
		s1,2.2,2.2,2.2h17.5c1.1,0,2,0.9,2,2S24.9,56.2,23.8,56.2z"/>
</g>
<g>
	<path d="M27.6,95.2c-1.1,0-2-0.9-2-2v-7.3c0-1.1,0.9-2,2-2s2,0.9,2,2v7.3C29.6,94.3,28.7,95.2,27.6,95.2z"/>
</g>
<g>
	<path d="M79.8,95.2c-1.1,0-2-0.9-2-2v-7.3c0-1.1,0.9-2,2-2s2,0.9,2,2v7.3C81.8,94.3,80.9,95.2,79.8,95.2z"/>
</g>
<g>
	<path d="M45.6,70H23.8c-1.1,0-2-0.9-2-2V42.8c0-1.1,0.9-2,2-2h21.8c1.1,0,2,0.9,2,2V68C47.6,69.1,46.7,70,45.6,70z M25.8,66h17.8
		V44.8H25.8V66z"/>
</g>
<g>
	<path d="M45.6,52.9H23.8c-1.1,0-2-0.9-2-2s0.9-2,2-2h21.8c1.1,0,2,0.9,2,2S46.7,52.9,45.6,52.9z"/>
</g>
<g>
	<path d="M89,18.7c-0.1,0-0.1,0-0.2,0c-1.1-0.1-1.9-1.1-1.8-2.2c0.4-5.5-2.9-9.3-6.2-11.1C77.5,3.7,72.5,3,68.2,6.5
		C67.3,7.2,66,7,65.3,6.2c-0.7-0.9-0.6-2.1,0.3-2.8c4.9-3.9,11.4-4.5,17-1.5c5.6,3,8.8,8.7,8.3,14.9C90.9,17.9,90.1,18.7,89,18.7z"
		/>
</g>
<g>
	<path d="M89,47.7c-1.1,0-2-0.9-2-2V16.7c0-1.1,0.9-2,2-2s2,0.9,2,2v29.1C91,46.8,90.1,47.7,89,47.7z"/>
</g>
<g>
	<path d="M73,21.4c-0.2,0-0.5,0-0.7-0.1l-20.9-7.9c-0.5-0.2-0.9-0.6-1.1-1s-0.2-1,0-1.5c1.2-3.3,3.7-5.9,6.9-7.4
		c3.2-1.5,6.8-1.6,10.1-0.3c3.3,1.2,5.9,3.7,7.4,6.9c1.5,3.2,1.6,6.8,0.3,10.1C74.6,20.9,73.8,21.4,73,21.4z M54.9,10.4l16.8,6.3
		c0.2-1.7,0-3.5-0.7-5.1c-1-2.2-2.8-3.9-5.1-4.8c-2.3-0.9-4.8-0.8-7,0.2C57.1,7.8,55.8,9,54.9,10.4z"/>
</g>
<g>
	<path d="M57.8,28.5c-0.2,0-0.5,0-0.7-0.1c-1-0.4-1.6-1.5-1.2-2.6l1.4-3.8c0.4-1,1.5-1.5,2.6-1.2c1,0.4,1.6,1.5,1.2,2.6l-1.4,3.8
		C59.4,28,58.6,28.5,57.8,28.5z"/>
</g>
<g>
	<path d="M53.8,38.9c-0.2,0-0.5,0-0.7-0.1c-1-0.4-1.6-1.5-1.2-2.6l1.4-3.8c0.4-1,1.5-1.5,2.6-1.2c1,0.4,1.6,1.5,1.2,2.6l-1.4,3.8
		C55.4,38.4,54.6,38.9,53.8,38.9z"/>
</g>
<g>
	<path d="M66.3,31.1c-0.2,0-0.3,0-0.5-0.1c-1.1-0.3-1.7-1.3-1.5-2.4l0.9-3.9c0.3-1.1,1.3-1.7,2.4-1.5c1.1,0.3,1.7,1.3,1.5,2.4
		l-0.9,3.9C68,30.5,67.2,31.1,66.3,31.1z"/>
</g>
<g>
	<path d="M63.7,42c-0.2,0-0.3,0-0.5-0.1c-1.1-0.3-1.7-1.3-1.5-2.4l0.9-3.9c0.3-1.1,1.3-1.7,2.4-1.5c1.1,0.3,1.7,1.3,1.5,2.4
		l-0.9,3.9C65.4,41.3,64.6,42,63.7,42z"/>
</g>
<g>
	<path d="M49.8,25.1c-0.3,0-0.7-0.1-1-0.3c-1-0.6-1.3-1.8-0.7-2.7l2-3.5c0.6-1,1.8-1.3,2.7-0.7c1,0.6,1.3,1.8,0.7,2.7l-2,3.5
		C51.1,24.8,50.4,25.1,49.8,25.1z"/>
</g>
<g>
	<path d="M44.1,34.8c-0.3,0-0.7-0.1-1-0.3c-1-0.6-1.3-1.8-0.7-2.7l2-3.5c0.6-1,1.8-1.3,2.7-0.7c1,0.6,1.3,1.8,0.7,2.7l-2,3.5
		C45.5,34.4,44.8,34.8,44.1,34.8z"/>
</g>
</svg>
