<?xml version="1.0" encoding="utf-8"?>
<!-- Generator: Adobe Illustrator 19.0.1, SVG Export Plug-In . SVG Version: 6.00 Build 0)  -->
<svg version="1.2" baseProfile="tiny" id="Слой_1"
	 xmlns="http://www.w3.org/2000/svg" xmlns:xlink="http://www.w3.org/1999/xlink" x="0px" y="0px" viewBox="0 0 108.3 87.6"
	 xml:space="preserve">
<g>
	<path d="M15,81.8c-3.6,0-6.8-2.7-7.3-6.4L0.1,19.1c-0.3-1.9,0.2-3.9,1.4-5.4c1.2-1.6,2.9-2.6,4.9-2.8l79-10.8
		c4-0.6,7.7,2.3,8.3,6.3l7.7,56.4c0.5,4-2.3,7.7-6.3,8.3h0L16,81.8C15.7,81.8,15.4,81.8,15,81.8z M86.4,4c-0.1,0-0.3,0-0.5,0
		l-79,10.8c-0.9,0.1-1.7,0.6-2.2,1.3c-0.5,0.7-0.8,1.6-0.7,2.5l7.7,56.4c0.3,1.8,2,3.1,3.8,2.9l79-10.8h0c1.8-0.3,3.1-1.9,2.9-3.8
		L89.7,6.9C89.5,5.2,88.1,4,86.4,4z"/>
</g>
<g>
	<path d="M22.1,87.6c-3.4,0-6.3-2.5-6.8-5.9c-0.1-1.1,0.6-2.1,1.7-2.3c1.1-0.1,2.1,0.6,2.3,1.7c0.2,1.6,1.7,2.7,3.2,2.4l74.9-10.2
		c2.1-0.3,4-1.4,5.3-3.1c1.3-1.7,1.9-3.8,1.6-5.9l-7.1-52.2c-0.2-1.6-1.7-2.7-3.2-2.4c-1.1,0.2-2.1-0.6-2.3-1.7
		c-0.1-1.1,0.6-2.1,1.7-2.3c3.7-0.5,7.2,2.1,7.7,5.9l7.1,52.2c0.4,3.2-0.4,6.3-2.3,8.9s-4.8,4.2-7.9,4.6L23,87.6
		C22.7,87.6,22.4,87.6,22.1,87.6z"/>
</g>
<g>
	<path d="M69.8,66.4c-3.9,0-7.7-1.9-10-5.2L24.6,11.3c-0.4-0.6-0.5-1.3-0.2-2c0.3-0.6,0.9-1.1,1.6-1.2l58.3-7.9
		c2.2-0.3,4.5,0.3,6.3,1.7c1.8,1.4,3,3.4,3.3,5.6l7.2,52.6c0.1,1.1-0.6,2.1-1.7,2.3l-27.8,3.8C71,66.3,70.4,66.4,69.8,66.4z
		 M29.7,11.7l33.4,47.2c1.8,2.5,4.8,3.8,7.9,3.4l25.8-3.6L89.9,8.1c-0.2-1.2-0.8-2.3-1.7-3c-1-0.7-2.1-1-3.3-0.9h0L29.7,11.7z"/>
</g>
<g>
	<path d="M65.6,65.5c-0.2,0-0.4,0-0.6-0.1c-1.1-0.3-1.6-1.5-1.3-2.5l12-38l-50-12.8c-1.1-0.3-1.7-1.4-1.4-2.4
		c0.3-1.1,1.4-1.7,2.4-1.4l52.1,13.3c0.5,0.1,1,0.5,1.3,1c0.3,0.5,0.3,1,0.2,1.6l-12.7,40C67.2,65,66.4,65.5,65.6,65.5z"/>
</g>
<g>
	<path d="M78.3,25.5c-0.2,0-0.4,0-0.6-0.1c-1.1-0.3-1.7-1.4-1.3-2.5l2.8-9.2c0.3-1.1,1.4-1.7,2.5-1.3c1.1,0.3,1.7,1.4,1.3,2.5
		l-2.8,9.2C79.9,24.9,79.1,25.5,78.3,25.5z"/>
</g>
<g>
	<path d="M69.1,23.1c-0.2,0-0.4,0-0.6-0.1c-1.1-0.3-1.7-1.4-1.3-2.5l2.8-9.2c0.3-1.1,1.4-1.7,2.5-1.3c1.1,0.3,1.7,1.4,1.3,2.5
		l-2.8,9.2C70.8,22.6,70,23.1,69.1,23.1z"/>
</g>
<g>
	<path d="M60.2,20.9c-0.2,0-0.4,0-0.6-0.1c-1.1-0.3-1.7-1.4-1.3-2.5l2.8-9.2c0.3-1.1,1.4-1.7,2.5-1.3c1.1,0.3,1.7,1.4,1.3,2.5
		l-2.8,9.2C61.9,20.3,61.1,20.9,60.2,20.9z"/>
</g>
<g>
	<path d="M52.2,18.5c-0.2,0-0.4,0-0.6-0.1c-1.1-0.3-1.7-1.4-1.3-2.5l2.8-9.2c0.3-1.1,1.4-1.7,2.5-1.3c1.1,0.3,1.7,1.4,1.3,2.5
		l-2.8,9.2C53.9,18,53.1,18.5,52.2,18.5z"/>
</g>
<g>
	<path d="M44.4,16.7c-0.2,0-0.4,0-0.6-0.1c-1.1-0.3-1.7-1.4-1.3-2.5L45.3,5c0.3-1.1,1.4-1.7,2.5-1.3c1.1,0.3,1.7,1.4,1.3,2.5
		l-2.8,9.2C46.1,16.2,45.3,16.7,44.4,16.7z"/>
</g>
</svg>
