<?xml version="1.0" encoding="utf-8"?>
<!-- Generator: Adobe Illustrator 19.0.1, SVG Export Plug-In . SVG Version: 6.00 Build 0)  -->
<svg version="1.2" baseProfile="tiny" id="Слой_1"
	 xmlns="http://www.w3.org/2000/svg" xmlns:xlink="http://www.w3.org/1999/xlink" x="0px" y="0px" viewBox="0 0 126.2 93.2"
	 xml:space="preserve">
<g>
	<path d="M14.2,64.8c-1,0-2-0.3-2.8-0.9C10,63.1,9.2,61.6,9,60C8.4,50.9,7.6,44.4,7,41.6C6.1,37.9,2.5,29,0.4,24
		c-0.6-1.5-0.5-3.1,0.3-4.5c0.8-1.4,2.2-2.3,3.7-2.5c8.1-1.2,27.9-4,35.4-5.8c7.5-1.8,26.4-8.2,34.2-10.9c1.5-0.5,3.2-0.3,4.5,0.6
		c1.3,0.9,2.2,2.3,2.3,3.9c0.7,9.2,1.4,15.8,2.1,18.5c0.5,1.9,1.8,5.7,3.8,10.8c0.4,1-0.1,2.2-1.1,2.6c-1,0.4-2.2-0.1-2.6-1.1
		c-2.1-5.4-3.5-9.2-4-11.3C78,20.4,77.2,11.7,76.7,5c0-0.5-0.3-0.7-0.5-0.9c-0.2-0.1-0.5-0.3-1-0.1c-7.8,2.7-26.9,9.1-34.5,11
		c-7.6,1.8-27.5,4.7-35.7,5.9c-0.5,0.1-0.7,0.4-0.8,0.6c-0.1,0.2-0.2,0.5-0.1,1c2.6,6.2,5.9,14.4,6.8,18.2
		c0.9,3.8,1.7,12.5,2.2,19.1c0,0.5,0.3,0.7,0.5,0.9c0.2,0.1,0.5,0.3,1,0.1c5.9-2,17.2-5.9,25.8-8.5c1.1-0.3,2.2,0.3,2.5,1.3
		s-0.3,2.2-1.3,2.5c-8.6,2.6-19.8,6.4-25.7,8.5C15.3,64.7,14.7,64.8,14.2,64.8z"/>
</g>
<g>
	<path d="M109.7,93.2c-0.8,0-1.6-0.1-2.4-0.3c-2.3-0.7-4.1-2.2-5.2-4.3c-0.4-0.8-1.1-1.2-1.9-1.1c-7.4,1-15.6,0.5-23.7-1.2
		c-8.2-1.8-15.8-4.9-22.2-9c-0.7-0.5-1.6-0.4-2.3,0.2c-2,1.6-4.5,2.2-7,1.7c-3.9-0.8-6.8-4.5-6.7-8.5c0.1-2,0.8-3.8,2.1-5.3
		c0.5-0.5,0.5-1.3,0.2-2c-1.9-3.9-2.3-8.2-1.3-12.9c1.1-4.8,3.3-8.5,6.8-11.3c0.6-0.5,0.8-1.3,0.6-2.1c-0.5-1.9-0.4-3.9,0.3-5.7
		c1.6-3.8,5.9-5.9,9.8-4.8c2.4,0.6,4.4,2.3,5.5,4.6c0.3,0.7,1.1,1.4,2,1.3c7.4-1,15.7-0.6,23.8,1.2c8,1.8,15.6,4.8,21.8,8.7
		c0.7,0.4,1.6,0.3,2.3-0.3c1.9-1.6,4.4-2.2,6.8-1.8c4,0.7,6.9,4.3,6.9,8.4c0,2-0.7,3.8-2,5.3c-0.5,0.6-0.6,1.4-0.2,2.2
		c2,4.1,2.5,8.4,1.4,13.3c-1.1,4.8-3.3,8.5-6.8,11.4c-0.6,0.5-0.9,1.3-0.8,2c0.6,2.3,0.2,4.7-1.1,6.7
		C115.3,91.8,112.6,93.2,109.7,93.2z M100.5,83.4c2.2,0,4.3,1.3,5.3,3.3c0.6,1.1,1.5,1.9,2.7,2.3c1.8,0.5,3.9-0.2,4.9-1.8
		c0.7-1.1,0.9-2.3,0.6-3.5l0,0c-0.6-2.2,0.3-4.6,2.1-6.1c2.8-2.2,4.5-5.2,5.4-9.1c0.9-3.9,0.5-7.4-1.1-10.6
		c-1.1-2.2-0.8-4.7,0.7-6.6c0.7-0.8,1-1.8,1-2.8c0-2.1-1.5-4-3.6-4.4c-1.3-0.2-2.6,0.1-3.6,0.9c-2.1,1.7-4.9,1.9-7,0.6
		c-5.9-3.7-13-6.5-20.6-8.2C79.7,35.7,72,35.3,65,36.2c-2.5,0.3-5-1.1-6.1-3.5c-0.6-1.2-1.6-2.1-2.9-2.4c-2.1-0.5-4.3,0.6-5.2,2.5
		c-0.4,1-0.5,2-0.2,3c0.7,2.4,0,4.9-1.9,6.4c-2.8,2.2-4.5,5.2-5.4,9.1c-0.9,3.9-0.5,7.2,1,10.3c1,2.2,0.7,4.7-0.8,6.4
		c-0.7,0.8-1.1,1.7-1.1,2.8c-0.1,2.1,1.5,4,3.5,4.4c1.3,0.3,2.7-0.1,3.7-0.9c2-1.6,4.8-1.8,7-0.4c6,3.8,13.2,6.7,20.9,8.4
		c7.6,1.7,15.3,2.1,22.3,1.2C100,83.4,100.3,83.4,100.5,83.4z"/>
</g>
</svg>
