<?xml version="1.0" encoding="utf-8"?>
<!-- Generator: Adobe Illustrator 19.0.1, SVG Export Plug-In . SVG Version: 6.00 Build 0)  -->
<svg version="1.1" id="Слой_13" xmlns="http://www.w3.org/2000/svg" xmlns:xlink="http://www.w3.org/1999/xlink" x="0px"
	 y="0px" viewBox="-267 345.9 76.4 102.1" style="enable-background:new -267 345.9 76.4 102.1;" xml:space="preserve">
<style type="text/css">
	.st0{fill:#010101;}
</style>
<g>
	<g>
		<path class="st0" d="M-223,386.2c-0.1,0-0.3,0-0.4,0c-1.7-0.4-3.6-0.6-5.4-0.6c-1.1,0-2-0.9-2-2s0.9-2,2-2c2.1,0,4.2,0.2,6.2,0.6
			c1.1,0.2,1.8,1.3,1.5,2.4C-221.2,385.6-222.1,386.2-223,386.2z"/>
	</g>
	<g>
		<path class="st0" d="M-202.5,411.8c-1.1,0-2-0.9-2-2c0-8.2-4.2-16-11.1-20.4c-0.9-0.6-1.2-1.8-0.6-2.8c0.6-0.9,1.8-1.2,2.8-0.6
			c8,5.2,12.9,14.3,12.9,23.8C-200.5,410.9-201.4,411.8-202.5,411.8z"/>
	</g>
	<g>
		<path class="st0" d="M-228.8,438.1c-2.9,0-5.7-0.4-8.5-1.3c-1.1-0.3-1.6-1.4-1.3-2.5c0.3-1.1,1.4-1.7,2.5-1.3
			c2.4,0.7,4.8,1.1,7.3,1.1c1.1,0,2,0.9,2,2S-227.7,438.1-228.8,438.1z"/>
	</g>
	<g>
		<path class="st0" d="M-244.8,432.7c-0.4,0-0.9-0.1-1.2-0.4c-6.9-5.4-11.1-13.8-11.1-22.5c0-1.1,0.9-2,2-2s2,0.9,2,2
			c0,7.4,3.6,14.7,9.5,19.3c0.9,0.7,1,1.9,0.3,2.8C-243.6,432.4-244.2,432.7-244.8,432.7z"/>
	</g>
	<g>
		<path class="st0" d="M-228.9,448.2c-0.8,0-1.6,0-2.5-0.1c-19.2-1.3-34.5-16.6-35.7-35.7c-0.6-9.9,2.6-19.5,8.9-27.1v-17
			c0-12.4,10-22.4,22.4-22.4h13.9c12.3,0,22.3,10,22.3,22.4v17.2c5.7,6.8,8.9,15.5,8.9,24.5c0,10.5-4.4,20.6-12,27.8
			C-209.8,444.5-219.1,448.2-228.9,448.2z M-254.8,387.7c-5.8,6.8-8.7,15.5-8.2,24.5c1,17.1,14.8,30.8,31.9,31.9
			c9.6,0.6,18.7-2.7,25.7-9.3c6.9-6.5,10.8-15.4,10.8-24.9c0-8.2-3-16.1-8.3-22.3l-0.5-0.6v-0.6c0-0.2-0.1-0.4-0.1-0.7v-17.5
			c0-10.1-8.2-18.4-18.3-18.4h-13.9c-10.1,0-18.4,8.3-18.4,18.4v17.6C-254.1,386.8-254.6,387.4-254.8,387.7z M-211.5,380.1
			c-0.4,0-0.7-0.1-1.1-0.2l-0.2-0.1c-4.8-2.7-10.4-4.1-16.2-4.1c-5.6,0-11.1,1.4-16.1,4c-0.6,0.4-1.4,0.5-2.1,0.2
			c-1-0.4-1.6-1.4-1.6-2.5V370c0-8.3,6.7-15,15-15h10.1c8.3,0,15,6.7,15,15v7.4c0,0.9-0.4,1.7-1.2,2.2
			C-210.4,379.9-210.9,380.1-211.5,380.1z M-229,371.7c5.7,0,11.3,1.2,16.2,3.5V370c0-6.1-4.9-11-11-11h-10.1c-6.1,0-11,4.9-11,11
			v5.1C-239.9,372.9-234.4,371.7-229,371.7z"/>
	</g>
</g>
</svg>
