<?xml version="1.0" encoding="utf-8"?>
<!-- Generator: Adobe Illustrator 19.0.1, SVG Export Plug-In . SVG Version: 6.00 Build 0)  -->
<svg version="1.2" baseProfile="tiny" id="Capa_1" xmlns="http://www.w3.org/2000/svg" xmlns:xlink="http://www.w3.org/1999/xlink"
	 x="0px" y="0px" viewBox="20.8 0 458.3 500" xml:space="preserve">
<path d="M389.3,208.3l88.4-128.6c1.8-2.6,1.9-5.9,0.5-8.6c-1.4-2.7-4.3-4.5-7.4-4.5h-250V33.3c0-4.6-3.7-8.3-8.3-8.3h-175V8.3
	c0-4.6-3.7-8.3-8.3-8.3s-8.3,3.7-8.3,8.3v25V275v216.7c0,4.6,3.7,8.3,8.3,8.3s8.3-3.7,8.3-8.3V283.3h91.9c-5.3,7-8.5,15.6-8.5,25
	c0,23,18.7,41.7,41.7,41.7h308.3c3.1,0,5.9-1.7,7.4-4.5c1.4-2.7,1.2-6.1-0.5-8.6L389.3,208.3z M37.5,41.7h166.7V75v191.7h-41.7h-125
	V41.7z M162.5,333.3c-13.8,0-25-11.2-25-25c0-13.8,11.2-25,25-25h50c4.6,0,8.3-3.7,8.3-8.3V83.3H455l-82.7,120.3c-2,2.8-2,6.6,0,9.4
	L455,333.3H162.5z"/>
</svg>
