<?xml version="1.0" encoding="utf-8"?>
<!-- Generator: Adobe Illustrator 19.0.1, SVG Export Plug-In . SVG Version: 6.00 Build 0)  -->
<svg version="1.1" id="Capa_1" xmlns="http://www.w3.org/2000/svg" xmlns:xlink="http://www.w3.org/1999/xlink" x="0px" y="0px"
	 viewBox="-0.5 -0.5 500 500" style="enable-background:new -0.5 -0.5 500 500;" xml:space="preserve">
<path d="M489.1,227.6c9.8-9.6,13.3-23.7,9.1-36.8c-4.3-13.1-15.3-22.4-29-24.4l-121.1-17.6c-5.2-0.8-9.6-4-11.9-8.7L282.2,30.5
	c-6.1-12.3-18.4-20-32.2-20c-13.7,0-26.1,7.7-32.1,20l-54.1,109.7c-2.3,4.7-6.8,7.9-11.9,8.7L30.7,166.4
	c-13.6,2-24.7,11.3-28.9,24.4c-4.2,13.1-0.8,27.2,9.1,36.8L98.4,313c3.7,3.6,5.4,8.9,4.6,14L82.3,447.6c-2.3,13.5,3.1,27,14.3,35.1
	c11.1,8.1,25.6,9.2,37.8,2.7l108.3-56.9c4.6-2.4,10.1-2.4,14.7,0l108.3,56.9c5.3,2.8,11,4.2,16.7,4.2c7.4,0,14.8-2.3,21.1-6.9
	c11.1-8.1,16.6-21.5,14.3-35.1L397,327c-0.9-5.1,0.8-10.4,4.6-14L489.1,227.6z M377.3,330.4l20.7,120.6c1,6.1-1.3,11.9-6.3,15.5
	c-5,3.6-11.2,4.1-16.7,1.2l-108.3-56.9c-5.2-2.7-11-4.1-16.7-4.1c-5.7,0-11.5,1.4-16.7,4.1L125,467.6c-5.5,2.8-11.7,2.4-16.7-1.2
	c-5-3.6-7.3-9.4-6.3-15.5l20.7-120.6c2-11.6-1.9-23.5-10.3-31.7l-87.6-85.4c-4.4-4.3-5.9-10.4-4-16.2c1.9-5.9,6.7-9.9,12.8-10.8
	l121.1-17.6c11.7-1.7,21.8-9,27-19.6l54.1-109.7c2.7-5.5,8-8.8,14.2-8.8c6.2,0,11.5,3.3,14.2,8.8L318.3,149
	c5.2,10.6,15.3,17.9,27,19.6l121.1,17.6c6.1,0.9,10.9,4.9,12.8,10.8c1.9,5.9,0.4,11.9-4,16.2l-87.6,85.4
	C379.1,306.9,375.3,318.7,377.3,330.4z"/>
</svg>
